<svg width="1240" height="427" viewBox="0 0 1240 427" fill="none" xmlns="http://www.w3.org/2000/svg">
<rect y="0.93335" width="1239.48" height="425.351" fill="#EFF6FF"/>
<path d="M245.634 156.932H170.065C165.892 156.932 162.508 160.311 162.508 164.484V227.216C162.508 252.301 184.222 270.225 207.735 270.286C231.316 270.347 253.191 252.064 253.191 227.216V164.477C253.191 160.303 249.808 156.932 245.634 156.932Z" fill="#4DA2FF"/>
<path d="M183.29 220.426C183.29 209.331 197.136 194.697 204.773 179C205.658 177.181 208.433 177.128 209.356 178.928C217.404 194.615 229.207 207.262 230.679 220.426C231.636 233.567 220.29 244.911 206.984 244.911C193.678 244.911 183.29 234.759 183.29 220.426Z" fill="#C0E1FC"/>
<circle cx="227.055" cy="233.682" r="11.2918" fill="#011829"/>
<path d="M363.317 156.932H287.748C283.574 156.932 280.191 160.311 280.191 164.484V227.216C280.191 252.301 301.905 270.225 325.418 270.286C348.998 270.347 370.874 252.064 370.874 227.216V164.477C370.874 160.303 367.49 156.932 363.317 156.932Z" fill="black"/>
<path d="M363.317 156.932H287.748C283.574 156.932 280.191 160.311 280.191 164.484V227.216C280.191 252.301 301.905 270.225 325.418 270.286C348.998 270.347 370.874 252.064 370.874 227.216V164.477C370.874 160.303 367.49 156.932 363.317 156.932Z" fill="#01464C"/>
<path d="M334.978 209.23C334.978 203.593 330.408 199.022 324.77 199.022C319.132 199.022 314.562 203.593 314.562 209.23C314.562 214.868 319.132 219.438 324.77 219.438C330.408 219.438 334.978 214.868 334.978 209.23Z" fill="white"/>
<path d="M341.585 192.307L336.485 196.936L336.485 196.936L341.585 192.307ZM327.093 184.909L326.335 191.755L326.335 191.755L327.093 184.909ZM311.334 188.957L315.297 194.59L311.334 188.957ZM295.501 200.823C294.618 204.523 296.901 208.238 300.601 209.121C304.301 210.004 308.017 207.721 308.9 204.021L295.501 200.823ZM354.438 207.349C354.338 200.066 351.58 193.07 346.684 187.677L336.485 196.936C339.124 199.843 340.61 203.613 340.664 207.538L354.438 207.349ZM346.684 187.677C341.788 182.284 335.091 178.865 327.851 178.063L326.335 191.755C330.237 192.187 333.846 194.029 336.485 196.936L346.684 187.677ZM327.851 178.063C320.611 177.262 313.328 179.132 307.371 183.323L315.297 194.59C318.508 192.331 322.433 191.323 326.335 191.755L327.851 178.063ZM307.371 183.323C301.413 187.515 297.192 193.738 295.501 200.823L308.9 204.021C309.811 200.202 312.086 196.849 315.297 194.59L307.371 183.323Z" fill="#34E256"/>
<path d="M307.591 225.162L312.69 220.532L312.69 220.532L307.591 225.162ZM322.082 232.559L322.84 225.713L322.84 225.713L322.082 232.559ZM337.841 228.512L333.878 222.879L333.878 222.879L337.841 228.512ZM353.674 216.646C354.558 212.946 352.274 209.23 348.574 208.347C344.874 207.464 341.159 209.747 340.275 213.447L353.674 216.646ZM294.738 210.119C294.838 217.402 297.595 224.398 302.491 229.791L312.69 220.532C310.052 217.626 308.566 213.855 308.512 209.93L294.738 210.119ZM302.491 229.791C307.387 235.184 314.084 238.603 321.324 239.405L322.84 225.713C318.939 225.281 315.329 223.439 312.69 220.532L302.491 229.791ZM321.324 239.405C328.564 240.207 335.847 238.336 341.805 234.145L333.878 222.879C330.668 225.137 326.742 226.146 322.84 225.713L321.324 239.405ZM341.805 234.145C347.762 229.954 351.983 223.731 353.674 216.646L340.275 213.447C339.364 217.266 337.089 220.62 333.878 222.879L341.805 234.145Z" fill="#34E256"/>
<path d="M480.999 156.932H405.43C401.257 156.932 397.874 160.311 397.874 164.484V227.216C397.873 252.301 419.588 270.225 443.101 270.286C466.681 270.347 488.556 252.064 488.556 227.216V164.477C488.556 160.303 485.173 156.932 480.999 156.932Z" fill="black"/>
<path d="M480.999 156.932H405.43C401.257 156.932 397.874 160.311 397.874 164.484V227.216C397.873 252.301 419.588 270.225 443.101 270.286C466.681 270.347 488.556 252.064 488.556 227.216V164.477C488.556 160.303 485.173 156.932 480.999 156.932Z" fill="#F15A24"/>
<g clip-path="url(#clip0_1622_547)">
<path d="M472.068 203.543C472.068 187.191 458.843 173.935 442.528 173.935C426.213 173.935 412.987 187.191 412.987 203.543C412.987 219.896 426.213 233.152 442.528 233.152C458.843 233.152 472.068 219.896 472.068 203.543Z" fill="#4F2E82"/>
<path d="M473.443 224.891C473.443 219.566 469.137 215.25 463.825 215.25C458.513 215.25 454.207 219.566 454.207 224.891C454.207 230.215 458.513 234.531 463.825 234.531C469.137 234.531 473.443 230.215 473.443 224.891Z" fill="white"/>
</g>
<path d="M598.682 156.932H523.113C518.939 156.932 515.556 160.311 515.556 164.484V227.216C515.556 252.301 537.27 270.225 560.783 270.286C584.363 270.347 606.239 252.064 606.239 227.216V164.477C606.239 160.303 602.855 156.932 598.682 156.932Z" fill="#878FF3"/>
<path d="M598.682 156.932H523.113C518.939 156.932 515.556 160.311 515.556 164.484V227.216C515.556 252.301 537.27 270.225 560.783 270.286C584.363 270.347 606.239 252.064 606.239 227.216V164.477C606.239 160.303 602.855 156.932 598.682 156.932Z" fill="#2E3337"/>
<path d="M540.221 174.119C542.87 174.119 545.267 175.198 546.997 176.94L567.416 197.359C568.968 198.9 569.994 200.971 570.199 203.278C570.228 203.581 570.243 203.888 570.243 204.199C570.243 206.827 569.181 209.208 567.463 210.934L546.962 231.436C545.235 233.153 542.855 234.215 540.226 234.215C534.952 234.215 530.676 229.939 530.676 224.664C530.676 222.013 531.757 219.613 533.501 217.883L547.214 204.17L533.449 190.405C531.732 188.678 530.67 186.298 530.67 183.67C530.67 178.395 534.946 174.119 540.221 174.119Z" fill="white"/>
<path d="M580.817 234.219C578.168 234.219 575.771 233.14 574.041 231.398L553.622 210.979C552.07 209.438 551.044 207.367 550.839 205.06C550.81 204.757 550.795 204.45 550.795 204.139C550.795 201.511 551.857 199.13 553.575 197.404L574.076 176.902C575.803 175.185 578.183 174.123 580.812 174.123C586.086 174.123 590.362 178.399 590.362 183.674C590.362 186.325 589.281 188.725 587.537 190.455L573.824 204.168L587.589 217.933C589.306 219.66 590.368 222.04 590.368 224.668C590.368 229.943 586.092 234.219 580.817 234.219Z" fill="#878FF3"/>
<path d="M716.365 156.932H640.796C636.622 156.932 633.239 160.311 633.239 164.484V227.216C633.239 252.301 654.953 270.225 678.466 270.286C702.046 270.347 723.921 252.064 723.921 227.216V164.477C723.921 160.303 720.538 156.932 716.365 156.932Z" fill="#374151"/>
<path d="M716.365 156.932H640.796C636.622 156.932 633.239 160.311 633.239 164.484V227.216C633.239 252.301 654.953 270.225 678.466 270.286C702.046 270.347 723.921 252.064 723.921 227.216V164.477C723.921 160.303 720.538 156.932 716.365 156.932Z" fill="#381B84"/>
<rect x="648.353" y="173.935" width="19.2357" height="19.3187" rx="9.61783" fill="#24DAD9"/>
<rect x="648.353" y="194.633" width="19.2357" height="19.3187" rx="9.61783" fill="#24DAD9"/>
<rect x="648.353" y="215.332" width="19.2357" height="19.3187" rx="9.61783" fill="#24DAD9"/>
<rect x="668.962" y="173.935" width="19.2357" height="19.3187" rx="9.61783" fill="#24DAD9"/>
<rect x="668.962" y="194.633" width="19.2357" height="19.3187" rx="9.61783" fill="#24DAD9"/>
<rect x="668.961" y="215.332" width="19.2357" height="19.3187" rx="9.61783" fill="#24DAD9"/>
<rect x="689.572" y="173.935" width="19.2357" height="19.3187" rx="9.61783" fill="#24DAD9"/>
<rect x="689.571" y="194.633" width="19.2357" height="19.3187" rx="9.61783" fill="#24DAD9"/>
<rect x="689.571" y="215.332" width="19.2357" height="19.3187" rx="9.61783" fill="white"/>
<path d="M834.047 156.932H758.478C754.305 156.932 750.921 160.311 750.921 164.484V227.216C750.921 252.301 772.635 270.225 796.148 270.286C819.729 270.347 841.604 252.064 841.604 227.216V164.477C841.604 160.303 838.221 156.932 834.047 156.932Z" fill="#161C2E"/>
<path d="M834.047 156.932H758.478C754.305 156.932 750.921 160.311 750.921 164.484V227.216C750.921 252.301 772.635 270.225 796.148 270.286C819.729 270.347 841.604 252.064 841.604 227.216V164.477C841.604 160.303 838.221 156.932 834.047 156.932Z" fill="#161C2E"/>
<path d="M796.001 229.58C792.286 235.993 782.999 235.993 779.284 229.58L767.343 208.969C763.628 202.557 768.272 194.541 775.702 194.541H799.583C807.013 194.541 811.656 202.557 807.942 208.969L796.001 229.58Z" fill="#8A93B2"/>
<path d="M796.863 178.744C800.578 172.331 809.866 172.331 813.58 178.744L825.521 199.355C829.236 205.767 824.592 213.783 817.163 213.783L793.281 213.783C785.851 213.783 781.208 205.767 784.923 199.355L796.863 178.744Z" fill="white"/>
<path d="M951.73 156.932H876.161C871.987 156.932 868.604 160.311 868.604 164.484V227.216C868.604 252.301 890.318 270.225 913.831 270.286C937.411 270.347 959.287 252.064 959.287 227.216V164.477C959.287 160.303 955.903 156.932 951.73 156.932Z" fill="#2E3337"/>
<path d="M951.73 156.932H876.161C871.987 156.932 868.604 160.311 868.604 164.484V227.216C868.604 252.301 890.318 270.225 913.831 270.286C937.411 270.347 959.287 252.064 959.287 227.216V164.477C959.287 160.303 955.903 156.932 951.73 156.932Z" fill="#2E3337"/>
<path d="M883.718 185.408C883.718 179.516 888.494 174.739 894.386 174.739H933.504C939.396 174.739 944.173 179.516 944.173 185.408V224.526C944.173 230.418 939.396 235.194 933.504 235.194H894.386C888.494 235.194 883.718 230.418 883.718 224.526V185.408Z" fill="#FCFF52"/>
<circle cx="913.946" cy="204.963" r="21.2044" fill="#2E3337"/>
<path d="M1069.41 156.932H993.844C989.67 156.932 986.287 160.311 986.287 164.484V227.216C986.286 252.301 1008 270.225 1031.51 270.286C1055.09 270.347 1076.97 252.064 1076.97 227.216V164.477C1076.97 160.303 1073.59 156.932 1069.41 156.932Z" fill="black"/>
<path d="M1069.41 156.932H993.844C989.67 156.932 986.287 160.311 986.287 164.484V227.216C986.286 252.301 1008 270.225 1031.51 270.286C1055.09 270.347 1076.97 252.064 1076.97 227.216V164.477C1076.97 160.303 1073.59 156.932 1069.41 156.932Z" fill="black"/>
<path d="M1031.61 173.935C1029.38 173.935 1027.4 175.065 1026.21 176.775L1002.24 220.484C1001.72 221.431 1001.4 222.509 1001.4 223.666C1001.4 227.296 1004.35 230.215 1007.96 230.215C1010.33 230.215 1012.38 228.952 1013.54 227.085C1013.65 226.901 1013.78 226.691 1013.86 226.48L1037.15 183.928C1037.78 182.929 1038.15 181.719 1038.15 180.457C1038.17 176.88 1035.22 173.935 1031.61 173.935Z" fill="#A6FA7C"/>
<path d="M1058.35 217.907C1058.35 217.907 1046.68 211.095 1031.61 211.095C1016.55 211.095 1004.88 217.907 1004.88 217.907C1002.82 218.985 1001.4 221.168 1001.4 223.693C1001.4 227.322 1004.35 230.241 1007.96 230.241C1008.96 230.241 1009.91 230.004 1010.78 229.61C1010.78 229.61 1020.6 224.429 1031.61 224.429C1042.63 224.429 1052.08 229.426 1052.08 229.426C1053.03 229.952 1054.11 230.267 1055.27 230.267C1058.9 230.267 1061.83 227.322 1061.83 223.719C1061.86 221.168 1060.43 218.985 1058.35 217.907Z" fill="white"/>
<path d="M1061.04 220.537C1060.43 219.432 1059.48 218.512 1058.35 217.907C1058.35 217.907 1051.45 213.883 1041.44 212.016L1049.4 226.533C1049.5 226.744 1049.61 226.928 1049.71 227.138C1050.87 229.005 1052.93 230.268 1055.3 230.268C1058.93 230.268 1061.86 227.322 1061.86 223.719C1061.86 222.536 1061.57 221.457 1061.04 220.537Z" fill="white"/>
<defs>
<clipPath id="clip0_1622_547">
<rect width="60.4551" height="60.5947" fill="white" transform="translate(412.987 173.935)"/>
</clipPath>
</defs>
</svg>
