<svg width="1240" height="700" viewBox="0 0 1240 700" fill="none" xmlns="http://www.w3.org/2000/svg">
<rect x="0.5" y="0.5" width="1239" height="699" fill="#F5EDE2"/>
<rect x="0.5" y="0.5" width="1239" height="699" stroke="#E3E0E0"/>
<rect x="119.861" y="178.367" width="1000.28" height="343.265" fill="#F5EDE2"/>
<rect x="187.529" y="281.218" width="136.901" height="136.901" stroke="#CCBDAB" stroke-width="0.855629"/>
<line x1="187.564" y1="349.591" x2="324.173" y2="349.591" stroke="#CCBDAB" stroke-width="0.855629"/>
<line x1="187.564" y1="349.591" x2="324.173" y2="349.591" stroke="#CCBDAB" stroke-width="0.855629"/>
<line x1="256.277" y1="418.1" x2="256.277" y2="281.354" stroke="#CCBDAB" stroke-width="0.855629"/>
<line x1="187.383" y1="418.006" x2="324.425" y2="303.014" stroke="#CCBDAB" stroke-width="0.855629"/>
<line x1="187.383" y1="418.006" x2="324.425" y2="303.014" stroke="#CCBDAB" stroke-width="0.855629"/>
<line y1="-0.427815" x2="178.895" y2="-0.427815" transform="matrix(0.759955 0.6501 0.643609 -0.765342 187.836 300.975)" stroke="#CCBDAB" stroke-width="0.855629"/>
<line y1="-0.427815" x2="178.895" y2="-0.427815" transform="matrix(0.759955 0.6501 0.643609 -0.765342 187.836 300.975)" stroke="#CCBDAB" stroke-width="0.855629"/>
<line x1="324.036" y1="282.076" x2="187.707" y2="417.797" stroke="#CCBDAB" stroke-width="0.855629"/>
<path d="M324.016 417.847L188.153 281.308" stroke="#CCBDAB" stroke-width="0.855629"/>
<rect x="189.032" y="282.723" width="4.27815" height="133.916" fill="#2A2826" stroke="#2A2826" stroke-width="2.13907"/>
<rect x="318.648" y="282.712" width="4.27815" height="133.883" fill="#2A2826" stroke="#2A2826" stroke-width="2.13907"/>
<rect x="252.864" y="282.743" width="6.75093" height="6.75093" rx="3.37546" fill="#2A2826" stroke="#2A2826" stroke-width="2.13907"/>
<path d="M257.431 346.232L254.406 349.257L189.495 284.346L191.123 282.718L193.923 282.723L257.431 346.232Z" fill="#2A2826" stroke="#2A2826" stroke-width="2.13907"/>
<path d="M254.717 346.007L257.742 349.032L322.429 284.346L320.801 282.717L318.006 282.718L254.717 346.007Z" fill="#2A2826" stroke="#2A2826" stroke-width="2.13907"/>
<rect x="333.254" y="281.232" width="136.901" height="136.901" stroke="#CCBDAB" stroke-width="0.855629"/>
<line x1="333.291" y1="349.605" x2="469.899" y2="349.605" stroke="#CCBDAB" stroke-width="0.855629"/>
<line x1="333.291" y1="349.605" x2="469.899" y2="349.605" stroke="#CCBDAB" stroke-width="0.855629"/>
<line x1="436.482" y1="418.115" x2="436.482" y2="281.368" stroke="#CCBDAB" stroke-width="0.855629"/>
<line x1="436.482" y1="418.115" x2="436.482" y2="281.368" stroke="#CCBDAB" stroke-width="0.855629"/>
<line x1="469.918" y1="418.212" x2="436.528" y2="281.873" stroke="#CCBDAB" stroke-width="0.855629"/>
<line x1="469.918" y1="418.212" x2="436.528" y2="281.873" stroke="#CCBDAB" stroke-width="0.855629"/>
<path d="M333.27 349.49L470.012 417.97" stroke="#CCBDAB" stroke-width="0.855629"/>
<path d="M333.307 349.415L470.117 281.572" stroke="#CCBDAB" stroke-width="0.855629"/>
<path d="M333.307 349.415L470.117 281.572" stroke="#CCBDAB" stroke-width="0.855629"/>
<rect x="334.739" y="283.736" width="4.27815" height="132.147" fill="#2A2826" stroke="#2A2826" stroke-width="2.13907"/>
<rect x="-1.06954" y="-1.06954" width="4.27815" height="100.262" transform="matrix(0 -1 -1 0 433.931 285.971)" fill="#2A2826" stroke="#2A2826" stroke-width="2.13907"/>
<rect x="-1.06954" y="-1.06954" width="4.27815" height="100.262" transform="matrix(0 -1 -1 0 433.904 350.764)" fill="#2A2826" stroke="#2A2826" stroke-width="2.13907"/>
<rect x="-1.06954" y="-1.06954" width="4.27815" height="100.262" transform="matrix(0 -1 -1 0 433.961 415.56)" fill="#2A2826" stroke="#2A2826" stroke-width="2.13907"/>
<rect x="478.895" y="281.208" width="136.901" height="136.901" stroke="#CCBDAB" stroke-width="0.855629"/>
<line x1="547.642" y1="418.09" x2="547.643" y2="281.344" stroke="#CCBDAB" stroke-width="0.855629"/>
<line x1="496.35" y1="418.151" x2="496.35" y2="281.405" stroke="#CCBDAB" stroke-width="0.855629"/>
<line x1="598.937" y1="418.151" x2="598.937" y2="281.405" stroke="#CCBDAB" stroke-width="0.855629"/>
<path d="M615.381 417.837L479.518 281.298" stroke="#CCBDAB" stroke-width="0.855629"/>
<path d="M478.91 349.465L615.653 417.945" stroke="#CCBDAB" stroke-width="0.855629"/>
<path d="M615.826 349.613L479.093 281.442" stroke="#CCBDAB" stroke-width="0.855629"/>
<path d="M550.472 344.456L547.447 347.481L483.966 284.001L485.288 282.701L488.711 282.701L550.472 344.456Z" fill="#2A2826" stroke="#2A2826" stroke-width="2.13907"/>
<path d="M606.163 416.627L545.052 355.375L548.082 352.355L610.908 415.394L609.616 416.646L606.163 416.627Z" fill="#2A2826" stroke="#2A2826" stroke-width="2.13907"/>
<rect x="480.39" y="282.7" width="4.27815" height="133.963" fill="#2A2826" stroke="#2A2826" stroke-width="2.13907"/>
<path d="M609.995 282.705H614.273V416.655L610.011 416.649L609.995 282.705Z" fill="#2A2826" stroke="#2A2826" stroke-width="2.13907"/>
<rect x="624.381" y="281.211" width="136.901" height="136.901" stroke="#CCBDAB" stroke-width="0.855629"/>
<line x1="624.418" y1="298.898" x2="761.026" y2="298.898" stroke="#CCBDAB" stroke-width="0.855629"/>
<line x1="693.129" y1="418.093" x2="693.129" y2="281.347" stroke="#CCBDAB" stroke-width="0.855629"/>
<line x1="727.609" y1="418.093" x2="727.609" y2="281.347" stroke="#CCBDAB" stroke-width="0.855629"/>
<line x1="727.609" y1="418.093" x2="727.609" y2="281.347" stroke="#CCBDAB" stroke-width="0.855629"/>
<line x1="659.133" y1="418.093" x2="659.133" y2="281.347" stroke="#CCBDAB" stroke-width="0.855629"/>
<rect x="690.743" y="284.542" width="4.27815" height="132.147" fill="#2A2826" stroke="#2A2826" stroke-width="2.13907"/>
<rect x="-1.06954" y="-1.06954" width="4.27815" height="99.5484" transform="matrix(0 -1 -1 0 741.804 285.868)" fill="#2A2826" stroke="#2A2826" stroke-width="2.13907"/>
<path d="M838.738 281.191H906.96V418.091H834.75V289.125L838.738 281.191Z" stroke="#CCBDAB" stroke-width="0.855629"/>
<line x1="804.711" y1="349.564" x2="906.703" y2="349.564" stroke="#CCBDAB" stroke-width="0.855629"/>
<line x1="834.754" y1="418.073" x2="834.754" y2="289.023" stroke="#CCBDAB" stroke-width="0.855629"/>
<line x1="838.598" y1="281.439" x2="770.22" y2="418.256" stroke="#CCBDAB" stroke-width="0.855629"/>
<line x1="906.723" y1="418.17" x2="873.333" y2="281.832" stroke="#CCBDAB" stroke-width="0.855629"/>
<path d="M838.886 281.224L906.631 417.758" stroke="#CCBDAB" stroke-width="0.855629"/>
<path d="M869.583 347.306L869.583 351.584L804.707 351.584L806.809 347.306L869.583 347.306Z" fill="#2A2826" stroke="#2A2826" stroke-width="2.13907"/>
<path d="M899.632 416.569L904.372 416.585L838.774 284.464L836.348 289.205L899.632 416.569Z" fill="#2A2826" stroke="#2A2826" stroke-width="2.13907"/>
<rect x="771.519" y="346.069" width="6.75093" height="6.75093" rx="3.37546" fill="#2A2826" stroke="#2A2826" stroke-width="2.13907"/>
<rect x="915.693" y="281.213" width="136.901" height="136.901" stroke="#CCBDAB" stroke-width="0.855629"/>
<line x1="915.73" y1="400.941" x2="1052.34" y2="400.941" stroke="#CCBDAB" stroke-width="0.855629"/>
<line x1="984.441" y1="418.095" x2="984.441" y2="281.349" stroke="#CCBDAB" stroke-width="0.855629"/>
<line x1="1018.92" y1="418.095" x2="1018.92" y2="281.349" stroke="#CCBDAB" stroke-width="0.855629"/>
<line x1="1018.92" y1="418.095" x2="1018.92" y2="281.349" stroke="#CCBDAB" stroke-width="0.855629"/>
<line x1="950.445" y1="418.095" x2="950.445" y2="281.349" stroke="#CCBDAB" stroke-width="0.855629"/>
<rect x="982.058" y="284.544" width="4.27815" height="132.147" fill="#2A2826" stroke="#2A2826" stroke-width="2.13907"/>
<rect x="-1.06954" y="-1.06954" width="4.27815" height="99.5484" transform="matrix(0 -1 -1 0 1033.12 285.87)" fill="#2A2826" stroke="#2A2826" stroke-width="2.13907"/>
</svg>
