<svg width="1240" height="401" viewBox="0 0 1240 401" fill="none" xmlns="http://www.w3.org/2000/svg">
<rect y="0.109192" width="1239.48" height="400" fill="black"/>
<path d="M26.9424 30.2886C28.0593 30.2886 28.9167 29.2845 28.9167 27.0281C28.9167 24.8393 28.0706 23.8239 26.9424 23.8239C25.8141 23.8239 24.968 24.7942 24.968 26.983C24.968 29.2394 25.8141 30.2886 26.9424 30.2886ZM26.9424 31.1686C25.408 31.1686 23.9526 30.0066 23.9526 26.983C23.9526 24.2639 25.4418 22.9326 26.9424 22.9326C28.4429 22.9326 29.9321 24.3091 29.9321 27.0281C29.9321 30.0517 28.4429 31.1686 26.9424 31.1686ZM34.5171 23.8239C33.3663 23.8239 32.4976 24.7942 32.4976 26.983C32.4976 29.2394 33.3212 30.2886 34.5171 30.2886C35.6905 30.2886 36.1982 29.2732 36.2997 28.066L37.2813 28.1901C37.1572 30.0066 36.0966 31.1686 34.5171 31.1686C32.9263 31.1686 31.4822 30.0066 31.4822 26.983C31.4822 24.2639 32.915 22.9326 34.5171 22.9326C36.0177 22.9326 37.0669 24.0834 37.2587 25.6855L36.311 25.8547C36.153 24.7829 35.6453 23.8239 34.5171 23.8239ZM39.2601 30.9994V23.1019H41.7647C43.3668 23.1019 44.4273 23.8691 44.4273 25.4486C44.4273 26.7686 43.5924 27.5019 42.4642 27.705L44.2242 30.9994H43.175L41.4601 27.7727H40.219V30.9994H39.2601ZM40.219 26.9378H41.7083C42.656 26.9378 43.4683 26.5655 43.4683 25.4486C43.4683 24.3316 42.7124 23.9593 41.6857 23.9593H40.219V26.9378ZM45.7404 28.4158V27.5358H48.4707V28.4158H45.7404ZM49.5794 30.9994L52.0163 26.8814L49.7825 23.1019H50.8543L52.6143 26.2158H52.6369L54.3292 23.1019H55.3784L53.1897 26.9604L55.5928 30.9994H54.5323L52.5917 27.626H52.5692L50.6399 30.9994H49.5794Z" fill="white"/>
<path d="M71.5446 30.9994V23.1019H74.2636C75.8092 23.1019 76.9262 23.948 76.9262 25.5388C76.9262 27.1071 75.8544 27.9532 74.2862 27.9532H72.5036V30.9994H71.5446ZM72.5036 27.0958H74.2297C75.1436 27.0958 75.9559 26.6219 75.9559 25.5388C75.9559 24.3993 75.121 23.9593 74.2072 23.9593H72.5036V27.0958ZM79.6496 30.9994V25.0198H80.5296V25.8886H80.5522C80.8117 25.3809 81.4886 24.9183 82.2558 24.9183C83.1584 24.9183 83.8579 25.4034 84.1738 26.3511L83.2712 26.7347C83.102 26.1706 82.7296 25.8547 82.1091 25.8547C81.2404 25.8547 80.5747 26.5542 80.5747 27.6712V30.9994H79.6496ZM88.33 23.8127V22.7634H89.3906V23.8127H88.33ZM86.3782 25.8096V25.0198H89.3116V30.2097H91.286V30.9994H86.3218V30.2097H88.3977V25.8096H86.3782ZM93.4001 30.9994V25.0198H94.235V25.5952H94.2576C94.4043 25.1665 94.7766 24.8506 95.2166 24.8506C95.8709 24.8506 96.1643 25.2906 96.2884 25.7306H96.311C96.4576 25.3132 96.8412 24.8506 97.4956 24.8506C98.5336 24.8506 98.8495 25.6517 98.8495 26.9265V30.9994H97.992V27.2086C97.992 26.2158 97.8792 25.6968 97.3264 25.6968C96.7622 25.6968 96.5479 26.227 96.5479 27.1296V30.9994H95.7243V27.2086C95.7243 26.2158 95.6002 25.6968 95.0361 25.6968C94.4607 25.6968 94.2576 26.3624 94.2576 27.1296V30.9994H93.4001ZM104.777 30.9994V30.345H104.754C104.585 30.6384 103.999 31.1686 102.927 31.1686C101.528 31.1686 100.885 30.3789 100.885 29.465C100.885 28.4722 101.46 27.9645 102.915 27.5922C103.987 27.3214 104.63 27.1296 104.63 26.5429C104.63 26.0691 104.168 25.6742 103.378 25.6742C102.442 25.6742 102.069 26.1932 101.923 26.8588L101.065 26.6106C101.246 25.6065 102.047 24.8506 103.344 24.8506C104.653 24.8506 105.612 25.5614 105.612 26.7347V30.9994H104.777ZM103.13 28.303C102.058 28.5963 101.81 28.9122 101.81 29.4086C101.81 29.9502 102.103 30.345 102.994 30.345C104.134 30.345 104.687 29.7471 104.687 29.0814V27.5922H104.664C104.585 27.7614 104.36 27.9645 103.13 28.303ZM109.001 30.9994V25.0198H109.881V25.8886H109.904C110.163 25.3809 110.84 24.9183 111.607 24.9183C112.51 24.9183 113.209 25.4034 113.525 26.3511L112.623 26.7347C112.453 26.1706 112.081 25.8547 111.46 25.8547C110.592 25.8547 109.926 26.5542 109.926 27.6712V30.9994H109.001ZM116.249 33.5379L117.377 30.5481L115.053 25.0198H116.045L117.817 29.3635H117.839L119.43 25.0198H120.4L117.185 33.5379H116.249ZM131.344 29.262V25.8434H129.437V25.0198H131.355V23.5532H132.258V25.0198H134.413V25.8434H132.269V29.1491C132.269 29.8148 132.393 30.1081 133.003 30.1081H134.018V30.9994H132.957C131.795 30.9994 131.344 30.3789 131.344 29.262ZM137.689 33.5379L138.817 30.5481L136.493 25.0198H137.486L139.257 29.3635H139.28L140.871 25.0198H141.841L138.626 33.5379H137.689ZM145.241 27.1409V29.0363C145.241 29.7132 145.873 30.3338 146.776 30.3338C147.972 30.3338 148.626 29.465 148.626 28.0096C148.626 26.5542 147.96 25.6855 146.776 25.6855C145.794 25.6855 145.241 26.464 145.241 27.1409ZM144.316 33.5379V25.0198H145.196V25.5952H145.219C145.467 25.2793 146.076 24.8506 146.934 24.8506C148.389 24.8506 149.562 26.0578 149.562 28.0096C149.562 29.9615 148.468 31.1686 146.934 31.1686C146.121 31.1686 145.478 30.7286 145.264 30.424H145.241V33.5379H144.316ZM155.862 29.1491L156.618 29.6456C156.223 30.424 155.422 31.1686 154.114 31.1686C152.512 31.1686 151.316 29.9502 151.316 28.0096C151.316 26.0691 152.489 24.8506 154.068 24.8506C155.637 24.8506 156.776 26.0127 156.776 28.0096V28.2804H152.263C152.275 29.3409 152.85 30.3338 154.091 30.3338C155.298 30.3338 155.648 29.544 155.862 29.1491ZM152.286 27.5471H155.84C155.817 26.6783 155.366 25.6855 154.068 25.6855C152.782 25.6855 152.297 26.8137 152.286 27.5471Z" fill="#6D6D6D"/>
<path d="M25.8209 109.464C24.9917 109.464 24.5787 108.97 24.5787 108.266C24.5787 108.073 24.6092 107.867 24.6701 107.65L29.4357 90.5102H33.0099L38.1275 107.691C38.1885 107.89 38.2155 108.083 38.2155 108.259C38.2155 108.97 37.7552 109.464 36.9767 109.464H36.8955C36.3404 109.464 35.9207 109.207 35.7447 108.611L34.7835 105.443H27.9194L27.0123 108.666C26.8498 109.221 26.4166 109.464 25.9021 109.464H25.8209ZM28.5016 103.074H34.1336L31.3345 93.0961H31.1721L28.5016 103.074ZM57.9946 109.464V90.5102H65.3732C68.6496 90.5102 70.3013 92.365 70.3013 95.3435V96.1016C70.3013 98.0377 69.4619 99.5269 67.5529 99.8789C69.4619 100.204 70.3013 101.788 70.3013 103.616V104.888C70.3013 107.786 68.4871 109.464 65.5221 109.464H57.9946ZM65.2514 107.095C67.0926 107.095 67.8102 106.242 67.8102 104.523V103.589C67.8102 101.937 66.8083 101.057 65.1837 101.057H60.4858V107.095H65.2514ZM65.1837 98.6875C66.7812 98.6875 67.8102 97.8888 67.8102 96.1016V95.3841C67.8102 93.8407 66.9572 92.8795 65.4003 92.8795H60.4858V98.6875H65.1837ZM96.1525 109.464C94.4737 109.464 93.6749 108.49 93.0386 107.352L90.6016 102.966C89.9653 101.828 89.8164 100.989 89.8164 99.9872C89.8164 98.9854 89.9653 98.146 90.6016 97.0087L93.0386 92.6222C93.6749 91.485 94.4737 90.5102 96.1525 90.5102H100.81C101.46 90.5102 101.947 91.0111 101.947 91.6474V91.7422C101.947 92.3785 101.46 92.8795 100.81 92.8795H96.5316C95.9629 92.8795 95.638 93.0148 95.11 93.9625L92.8897 97.9429C92.4835 98.674 92.321 99.2426 92.321 99.9872C92.321 100.732 92.4835 101.3 92.8897 102.032L95.11 106.012C95.638 106.96 95.9629 107.095 96.5316 107.095H100.81C101.46 107.095 101.947 107.596 101.947 108.232V108.327C101.947 108.963 101.46 109.464 100.81 109.464H96.1525ZM123.1 109.464C122.464 109.464 121.963 108.977 121.963 108.327V108.232C121.963 107.596 122.464 107.095 123.1 107.095H124.657V92.8795H123.1C122.464 92.8795 121.963 92.3785 121.963 91.7422V91.6474C121.963 90.9976 122.464 90.5102 123.1 90.5102H129.084C130.763 90.5102 131.535 91.4985 132.198 92.6222L134.703 96.8327C135.353 97.9294 135.488 98.7011 135.488 99.8112C135.488 100.921 135.312 101.693 134.703 102.803L132.198 107.352C131.576 108.476 130.763 109.464 129.084 109.464H123.1ZM127.148 107.095H128.841C129.545 107.095 129.815 106.824 130.235 106.025L132.415 101.923C132.808 101.179 132.997 100.678 132.997 99.8112C132.997 98.9448 132.835 98.4168 132.415 97.6992L130.235 93.949C129.775 93.1638 129.545 92.8795 128.841 92.8795H127.148V107.095ZM155.125 109.464V90.5102H166.335C166.971 90.5102 167.472 91.0111 167.472 91.6474V91.7422C167.472 92.3785 166.971 92.8795 166.335 92.8795H157.616V98.6605H162.964C163.6 98.6605 164.101 99.1478 164.101 99.7977V99.8789C164.101 100.529 163.6 101.03 162.964 101.03H157.616V107.095H166.335C166.971 107.095 167.472 107.596 167.472 108.232V108.327C167.472 108.963 166.971 109.464 166.335 109.464H155.125ZM190.088 109.464C189.316 109.464 188.883 108.977 188.883 108.232V90.5102H200.052C200.702 90.5102 201.203 91.0111 201.203 91.6474V91.7422C201.203 92.3785 200.702 92.8795 200.052 92.8795H191.374V97.1712H198.157C198.807 97.1712 199.308 97.6721 199.308 98.3084V98.4032C199.308 99.0395 198.807 99.5405 198.157 99.5405H191.374V108.232C191.374 108.95 190.927 109.464 190.128 109.464H190.088ZM222.573 109.464C221.002 109.464 219.838 108.286 219.838 106.729V99.8112C219.838 98.7011 220.001 97.8752 220.637 96.7786L223.06 92.6222C223.71 91.4985 224.495 90.5102 226.174 90.5102H229.789C230.439 90.5102 230.94 91.0111 230.94 91.6474V91.7422C230.94 92.3785 230.439 92.8795 229.789 92.8795H226.54C225.849 92.8795 225.592 93.1908 225.145 93.949L222.925 97.6992C222.492 98.4303 222.329 98.9448 222.329 99.8112V106.161C222.329 106.878 222.79 107.095 223.304 107.095H228.868C229.383 107.095 229.83 106.878 229.83 106.161V102.939H226.973C226.323 102.939 225.836 102.451 225.836 101.801V101.72C225.836 101.07 226.323 100.583 226.973 100.583H232.321V106.729C232.321 108.286 231.17 109.464 229.6 109.464H222.573ZM253.447 109.464C252.757 109.464 252.242 108.963 252.242 108.3V91.6745C252.242 91.0111 252.757 90.5102 253.447 90.5102H253.515C254.205 90.5102 254.733 91.0111 254.733 91.6745V98.6605H262.667V91.6745C262.667 91.0111 263.195 90.5102 263.885 90.5102H263.953C264.643 90.5102 265.158 91.0111 265.158 91.6745V108.3C265.158 108.963 264.671 109.464 263.953 109.464H263.885C263.195 109.464 262.667 108.963 262.667 108.3V101.03H254.733V108.3C254.733 108.963 254.232 109.464 253.515 109.464H253.447ZM285.607 109.464C284.971 109.464 284.47 108.963 284.47 108.327V108.232C284.47 107.596 284.971 107.095 285.607 107.095H289.899V92.8795H285.607C284.971 92.8795 284.47 92.3785 284.47 91.7422V91.6474C284.47 91.0111 284.971 90.5102 285.607 90.5102H296.736C297.386 90.5102 297.873 91.0111 297.873 91.6474V91.7422C297.873 92.3785 297.386 92.8795 296.736 92.8795H292.39V107.095H296.736C297.386 107.095 297.873 107.596 297.873 108.232V108.327C297.873 108.963 297.386 109.464 296.736 109.464H285.607ZM321.017 109.464C319.473 109.464 318.309 108.273 318.309 106.743V101.842C318.309 101.003 318.823 100.556 319.527 100.556H319.582C320.259 100.556 320.8 101.003 320.8 101.842V106.174C320.8 106.905 321.287 107.095 321.761 107.095H325.525C326.026 107.095 326.486 106.892 326.486 106.174V91.7964C326.486 90.957 327.001 90.5102 327.705 90.5102H327.759C328.463 90.5102 328.977 90.957 328.977 91.7964V106.757C328.977 108.273 327.813 109.464 326.27 109.464H321.017ZM362.64 109.058C362.356 109.336 362.052 109.458 361.754 109.458C361.415 109.458 361.087 109.298 360.813 109.031L352.947 101.436V108.3C352.947 108.963 352.446 109.464 351.728 109.464H351.674C350.984 109.464 350.456 108.963 350.456 108.3V91.6745C350.456 91.0111 350.984 90.5102 351.674 90.5102H351.728C352.432 90.5102 352.947 91.0111 352.947 91.6745V97.9429L360.285 90.957C360.556 90.693 360.897 90.5271 361.246 90.5271C361.54 90.5271 361.842 90.6456 362.112 90.9163C362.336 91.1397 362.485 91.441 362.485 91.7693C362.485 92.0739 362.353 92.4022 362.031 92.7034L354.707 99.6894L362.613 107.339C362.901 107.62 363.02 107.924 363.02 108.212C363.02 108.534 362.871 108.835 362.64 109.058ZM382.981 91.6745C382.981 90.9976 383.496 90.5102 384.186 90.5102H384.254C384.945 90.5102 385.473 90.9976 385.473 91.6745V107.095H393.866C394.516 107.095 395.004 107.596 395.004 108.232V108.327C395.004 108.963 394.516 109.464 393.866 109.464H382.981V91.6745ZM415.67 109.464C414.966 109.464 414.451 108.963 414.451 108.327V90.5102H417.782L421.058 95.3299L424.307 90.5102H427.665V108.327C427.665 108.963 427.15 109.464 426.446 109.464H426.392C425.702 109.464 425.174 108.963 425.174 108.327V93.5293L422.249 97.7669V99.0125C422.249 99.6623 421.789 100.15 421.085 100.15H421.031C420.327 100.15 419.867 99.6623 419.867 99.0125V97.7669L416.942 93.5293V108.327C416.942 108.963 416.414 109.464 415.724 109.464H415.67ZM448.71 109.464C448.006 109.464 447.491 108.963 447.491 108.3V90.5102H450.158L457.077 104.414V91.6745C457.077 91.0111 457.605 90.5102 458.295 90.5102H458.349C459.08 90.5102 459.568 91.0111 459.568 91.6745V109.464H456.901L449.982 95.5601V108.3C449.982 108.963 449.482 109.464 448.764 109.464H448.71ZM31.3988 141.6C29.72 141.6 28.9889 140.638 28.2849 139.488L25.2523 134.505C24.5753 133.395 24.467 132.583 24.467 131.906C24.467 131.229 24.5618 130.39 25.2523 129.307L28.2849 124.487C29.0025 123.35 29.72 122.375 31.3447 122.375H31.4259C33.1047 122.375 33.7681 123.363 34.4856 124.487L37.5454 129.307C38.2358 130.403 38.3306 131.229 38.3306 131.906C38.3306 132.583 38.2223 133.395 37.5454 134.505L34.4856 139.488C33.7816 140.638 33.0776 141.6 31.4259 141.6H31.3988ZM31.3988 139.257C31.8321 139.257 32.0758 138.987 32.4684 138.323L35.3386 133.463C35.7312 132.786 35.9072 132.42 35.9072 131.906C35.9072 131.378 35.7718 131.04 35.3386 130.349L32.4548 125.705C32.0622 125.069 31.7779 124.771 31.3988 124.771H31.3717C30.9927 124.771 30.749 125.069 30.3563 125.705L27.4726 130.349C27.0935 130.945 26.9175 131.31 26.9175 131.906C26.9175 132.488 27.1071 132.84 27.4726 133.463L30.3293 138.296C30.7354 138.987 30.9385 139.257 31.3717 139.257H31.3988ZM58.4956 141.464C57.7916 141.464 57.3042 140.99 57.3042 140.178V122.51H66.4022C68.6631 122.51 70.3148 123.945 70.3148 126.409V130.444C70.3148 132.921 68.46 134.153 66.4022 134.153H59.7953V140.178C59.7953 140.99 59.3079 141.464 58.6039 141.464H58.4956ZM66.2126 131.784C67.1739 131.784 67.8237 131.473 67.8237 130.444V126.315C67.8237 125.286 67.2145 124.879 66.2397 124.879H59.7953V131.784H66.2126ZM94.5414 133.801C94.4432 133.615 94.3891 133.412 94.3891 133.212C94.3891 132.816 94.5922 132.431 95.0152 132.204C95.2251 132.096 95.4315 132.048 95.6245 132.048C96.0509 132.048 96.4097 132.282 96.5857 132.61L98.1393 135.47L98.9414 134.736C99.7673 133.977 100.102 133.51 100.102 132.759C100.102 132.451 100.045 132.096 99.9433 131.649L98.6165 125.827C98.4811 125.259 98.4134 125.042 98.0885 124.947L97.9396 124.907C97.8651 124.886 97.7974 124.876 97.7331 124.876C97.4793 124.876 97.2491 125.025 96.843 125.38L92.47 129.212C91.6678 129.916 91.3496 130.468 91.3496 131.273C91.3496 131.564 91.3936 131.892 91.4681 132.272L92.6189 137.958C92.7678 138.689 92.8897 139.095 93.2552 139.203L93.35 139.23C93.4278 139.254 93.5023 139.268 93.5835 139.268C93.8611 139.268 94.1691 139.098 94.6768 138.635L96.3454 137.108L94.5414 133.801ZM92.4023 141.478C91.0078 141.045 90.5881 139.84 90.2902 138.486L89.0176 132.651C88.9195 132.194 88.8721 131.76 88.8721 131.348C88.8721 129.726 89.5964 128.454 90.7099 127.492L95.1371 123.675C95.9731 122.957 96.7753 122.382 97.8245 122.382C98.102 122.382 98.3965 122.422 98.7113 122.51L98.8602 122.551C100.417 122.971 100.729 124.27 101.04 125.583L102.394 131.283C102.495 131.713 102.553 132.153 102.553 132.59C102.553 133.937 102.025 135.284 100.715 136.428L99.3239 137.653L100.106 139.095H102.326C102.976 139.095 103.477 139.596 103.477 140.232V140.327C103.477 140.963 102.976 141.464 102.326 141.464H98.7248L97.5131 139.247L96.1931 140.408C95.3842 141.122 94.626 141.705 93.5971 141.705C93.2958 141.705 92.9743 141.654 92.6189 141.546L92.4023 141.478ZM123.601 141.464C122.911 141.464 122.342 141.018 122.342 140.178V122.51H131.278C133.877 122.51 135.285 123.837 135.285 126.667V127.831C135.285 130.66 133.85 131.892 131.251 131.892H129.294L134.649 139.366C134.879 139.684 134.987 139.982 134.987 140.256C134.987 140.574 134.842 140.865 134.581 141.126C134.351 141.356 134.026 141.474 133.698 141.474C133.329 141.474 132.956 141.322 132.726 140.99L126.323 131.892H124.833V140.178C124.833 140.99 124.332 141.464 123.642 141.464H123.601ZM130.98 129.537C132.239 129.537 132.78 129.212 132.78 127.993V126.518C132.78 125.299 132.28 124.879 130.993 124.879H124.833V129.537H130.98ZM157.752 141.464C156.723 141.464 155.883 140.963 155.233 140.341C154.986 140.104 154.848 139.748 154.848 139.41C154.848 139.149 154.929 138.899 155.112 138.716L155.179 138.648C155.409 138.418 155.684 138.303 155.971 138.303C156.205 138.303 156.449 138.381 156.682 138.54C157.061 138.797 157.454 139.217 158.158 139.217H163.925C164.521 139.217 164.981 138.892 164.981 138.364C164.981 137.89 164.629 137.335 163.343 135.873L157.481 129.198C155.816 127.303 155.288 126.436 155.288 125.367C155.288 123.634 156.723 122.51 158.659 122.51H164.413C165.442 122.51 166.295 122.998 166.944 123.634C167.181 123.864 167.3 124.189 167.3 124.514C167.3 124.781 167.219 125.049 167.053 125.259L166.999 125.326C166.795 125.573 166.525 125.685 166.237 125.685C165.987 125.685 165.723 125.6 165.482 125.435C165.117 125.177 164.711 124.758 164.02 124.758H159.173C158.51 124.758 157.995 125.015 157.995 125.597C157.995 126.071 158.374 126.626 159.877 128.345L165.184 134.384C167.323 136.807 167.73 137.443 167.73 138.581C167.73 140.314 166.146 141.464 164.426 141.464H157.752ZM191.09 141.464C190.44 141.464 189.952 140.963 189.952 140.327V140.232C189.952 139.596 190.44 139.095 191.09 139.095H192.511V124.879H189.316V126.802C189.316 127.655 188.802 128.102 188.098 128.102H188.044C187.367 128.102 186.825 127.655 186.825 126.802V122.51H200.689V126.802C200.689 127.655 200.174 128.102 199.47 128.102H199.416C198.739 128.102 198.198 127.655 198.198 126.802V124.879H195.002V139.095H196.424C197.074 139.095 197.561 139.596 197.561 140.232V140.327C197.561 140.963 197.074 141.464 196.424 141.464H191.09ZM222.411 141.464C220.948 141.464 219.852 140.354 219.852 138.905V123.796C219.852 122.957 220.393 122.51 221.057 122.51H221.124C221.815 122.51 222.343 122.957 222.343 123.796V138.337C222.343 138.987 222.776 139.095 223.155 139.095H229.302C229.681 139.095 230.114 138.987 230.114 138.337V123.796C230.114 122.957 230.669 122.51 231.332 122.51H231.4C232.064 122.51 232.605 122.957 232.605 123.796V138.905C232.605 140.354 231.508 141.464 230.046 141.464H222.411ZM258.7 141.464C257.996 141.464 257.319 141.018 256.926 140.043L252.283 128.643C252.066 128.115 252.039 127.939 252.039 127.438V123.675C252.039 123.025 252.567 122.51 253.217 122.51H253.366C254.016 122.51 254.517 123.025 254.517 123.675V127.289C254.517 127.804 254.571 128.047 254.747 128.494L258.497 138.12C258.605 138.405 258.632 138.472 258.7 138.635C258.768 138.472 258.795 138.405 258.903 138.12L262.653 128.481C262.829 128.034 262.883 127.804 262.883 127.289V123.675C262.883 123.025 263.384 122.51 264.034 122.51H264.183C264.833 122.51 265.361 123.025 265.361 123.675V127.438C265.361 127.939 265.334 128.115 265.117 128.643L260.501 140.043C260.108 141.018 259.404 141.464 258.7 141.464ZM287.652 141.464C286.568 141.464 286.325 141.275 285.837 140.165L285.215 138.757C285.012 138.296 284.944 138.08 284.944 137.43V123.647C284.944 123.011 285.445 122.51 286.162 122.51H286.216C286.961 122.51 287.435 123.011 287.435 123.647V137.497C287.435 137.687 287.476 137.931 287.543 138.093L287.787 138.689C287.855 138.865 287.949 139.095 288.18 139.095H289.398C289.926 139.095 290.048 138.161 290.048 137.701V129.158C290.048 128.521 290.522 128.02 291.145 128.02H291.199C291.821 128.02 292.295 128.521 292.295 129.158V137.701C292.295 138.161 292.417 139.095 292.945 139.095H294.164C294.394 139.095 294.489 138.865 294.556 138.689L294.8 138.093C294.868 137.931 294.908 137.687 294.908 137.497V123.647C294.908 123.011 295.382 122.51 296.127 122.51H296.181C296.926 122.51 297.399 123.011 297.399 123.647V137.43C297.399 138.08 297.332 138.296 297.129 138.757L296.506 140.165C296.018 141.275 295.775 141.464 294.57 141.464H292.58C291.876 141.464 291.388 141.004 291.172 140.3C290.955 141.004 290.468 141.464 289.737 141.464H287.652ZM317.063 141.464C316.414 141.464 315.926 140.977 315.926 140.341V140.232C315.926 139.582 316.414 139.095 317.063 139.095H319.866C319.934 139.095 319.974 139.095 320.001 139.027L322.452 131.974L319.866 124.934C319.852 124.893 319.825 124.879 319.771 124.879H317.063C316.414 124.879 315.926 124.392 315.926 123.742V123.634C315.926 122.998 316.414 122.51 317.063 122.51H320.624C321.166 122.51 321.558 122.686 321.734 123.187L323.643 128.576L325.552 123.187C325.742 122.659 326.08 122.51 326.662 122.51H330.223C330.873 122.51 331.36 122.998 331.36 123.634V123.742C331.36 124.392 330.873 124.879 330.223 124.879H327.515C327.461 124.879 327.434 124.893 327.407 124.947L324.835 131.974L327.285 139.027C327.312 139.095 327.353 139.095 327.42 139.095H330.223C330.873 139.095 331.36 139.582 331.36 140.232V140.341C331.36 140.977 330.873 141.464 330.223 141.464H326.581C326.094 141.464 325.633 141.248 325.471 140.787L323.643 135.416L321.815 140.787C321.653 141.248 321.193 141.464 320.705 141.464H317.063ZM356.034 141.464C355.289 141.464 354.815 140.99 354.815 140.219V133.057L350.009 126.315V123.756C350.009 123.025 350.456 122.51 351.227 122.51H351.282C351.999 122.51 352.5 122.957 352.5 123.756V125.814L356.061 130.904H356.115L359.73 125.814V123.756C359.73 122.957 360.231 122.51 360.948 122.51H361.002C361.774 122.51 362.221 123.025 362.221 123.756V126.315L357.306 133.057V140.219C357.306 140.95 356.832 141.464 356.088 141.464H356.034ZM382.115 141.464V139.461L392.093 124.879H382.656C382.02 124.879 381.519 124.379 381.519 123.742V123.647C381.519 123.011 382.02 122.51 382.656 122.51H395.085V124.514L385.107 139.095H394.543C395.18 139.095 395.681 139.596 395.681 140.232V140.327C395.681 140.963 395.18 141.464 394.543 141.464H382.115Z" fill="white"/>
<path d="M35.7989 203.822C35.1761 203.822 34.7023 203.321 34.7023 202.685V202.251C33.0912 203.172 32.3601 203.646 31.7914 203.7H28.8265C26.8498 203.7 25.1575 202.441 25.1575 200.261V198.759C25.1575 196.416 26.5655 195.442 28.9348 195.442H34.7023V193.83C34.7023 192.761 34.4315 192.531 33.4432 192.531H27.7434C27.0935 192.531 26.6061 192.03 26.6061 191.394V191.299C26.6061 190.662 27.0935 190.161 27.7434 190.161H33.6327C35.5958 190.161 36.9497 190.717 36.9497 193.086V202.685C36.9497 203.321 36.5029 203.822 35.853 203.822H35.7989ZM27.5268 200.018C27.5268 201.047 28.0412 201.331 29.0702 201.331H31.805C31.8591 201.331 31.8727 201.331 31.9404 201.304L34.7023 199.909V198.826C34.7023 197.567 33.8764 197.567 33.1047 197.567H29.1108C28.0412 197.567 27.5268 197.879 27.5268 198.921V200.018ZM63.207 203.7C62.1375 203.7 61.7042 203.104 60.8513 202.211L59.9307 201.26V202.617C59.9307 203.253 59.4839 203.7 58.834 203.7H58.7799C58.1571 203.7 57.6833 203.253 57.6833 202.617V197.831C57.6799 197.76 57.6799 197.686 57.6799 197.618C57.6799 197.506 57.6833 197.405 57.6833 197.31V196.552C57.6833 196.457 57.6799 196.355 57.6799 196.244C57.6799 196.176 57.6799 196.102 57.6833 196.03V185.802C57.6833 185.193 58.1571 184.746 58.7799 184.746H58.834C59.4568 184.746 59.9307 185.193 59.9307 185.802V192.602L60.8513 191.651C61.7042 190.757 62.1375 190.161 63.207 190.161H65.1295C65.9418 190.161 66.4022 190.324 67.2145 191.163L69.2723 193.302C70.0034 194.054 70.061 194.846 70.061 195.448C70.061 195.563 70.0576 195.668 70.0576 195.766V198.095C70.0576 198.193 70.061 198.298 70.061 198.413C70.061 199.016 70.0034 199.808 69.2723 200.559L66.9708 202.942C66.3108 203.622 65.9012 203.71 65.3055 203.71C65.0957 203.71 64.8621 203.7 64.588 203.7H63.207ZM59.9307 197.554C59.9307 197.973 60.0119 198.325 60.5128 198.826L62.2729 200.627C62.9092 201.277 63.1123 201.331 63.559 201.331H64.9806C65.4138 201.331 65.4409 201.331 66.0908 200.654L67.0791 199.639C67.5936 199.097 67.6612 198.515 67.6612 198.095V195.766C67.6612 195.347 67.6071 194.765 67.0791 194.223L66.0908 193.208C65.4544 192.544 65.4138 192.531 64.9806 192.531H63.559C63.1123 192.531 62.9092 192.585 62.2729 193.235L60.5128 195.035C60.0119 195.536 59.9307 195.888 59.9307 196.308V197.554ZM95.5297 203.7C94.4737 203.7 93.8238 203.416 93.0792 202.834L92.3346 202.251C91.1567 201.331 90.7506 200.762 90.7506 199.368V194.494C90.7506 193.099 91.1567 192.531 92.3346 191.61L93.0792 191.028C93.8103 190.459 94.4737 190.161 95.5297 190.161H100.796C101.446 190.161 101.933 190.662 101.933 191.299V191.394C101.933 192.03 101.446 192.531 100.796 192.531H95.7734C95.11 192.531 94.7174 192.68 94.2165 193.059L93.8103 193.37C93.1469 193.885 92.9844 194.25 92.9844 195.117V198.745C92.9844 199.611 93.1469 199.977 93.8103 200.491L94.2165 200.803C94.7174 201.195 95.0965 201.331 95.7734 201.331H100.796C101.446 201.331 101.933 201.832 101.933 202.468V202.563C101.933 203.199 101.446 203.7 100.796 203.7H95.5297ZM129.477 203.7H128.096C127.822 203.7 127.588 203.71 127.379 203.71C126.783 203.71 126.373 203.622 125.713 202.942L123.412 200.559C122.681 199.808 122.623 199.016 122.623 198.413C122.623 198.298 122.626 198.193 122.626 198.095V195.766C122.626 195.668 122.623 195.563 122.623 195.448C122.623 194.846 122.681 194.054 123.412 193.302L125.47 191.163C126.282 190.324 126.742 190.161 127.555 190.161H129.477C130.547 190.161 130.98 190.757 131.833 191.651L132.753 192.602V185.802C132.753 185.193 133.227 184.746 133.85 184.746H133.904C134.527 184.746 135.001 185.193 135.001 185.802V196.03C135.004 196.102 135.004 196.176 135.004 196.244C135.004 196.355 135.001 196.457 135.001 196.552V197.31C135.001 197.405 135.004 197.506 135.004 197.618C135.004 197.686 135.004 197.76 135.001 197.831V202.617C135.001 203.253 134.527 203.7 133.904 203.7H133.85C133.2 203.7 132.753 203.253 132.753 202.617V201.26L131.833 202.211C130.98 203.104 130.547 203.7 129.477 203.7ZM125.023 198.095C125.023 198.515 125.09 199.097 125.605 199.639L126.593 200.654C127.243 201.331 127.27 201.331 127.703 201.331H129.125C129.572 201.331 129.775 201.277 130.411 200.627L132.171 198.826C132.672 198.325 132.753 197.973 132.753 197.554V196.308C132.753 195.888 132.672 195.536 132.171 195.035L130.411 193.235C129.775 192.585 129.572 192.531 129.125 192.531H127.703C127.27 192.531 127.23 192.544 126.593 193.208L125.605 194.223C125.077 194.765 125.023 195.347 125.023 195.766V198.095ZM160.162 203.7C159.105 203.7 158.442 203.416 157.697 202.834L156.966 202.265C155.775 201.344 155.369 200.749 155.369 199.368V194.494C155.369 193.113 155.775 192.517 156.966 191.597L157.697 191.028C158.442 190.446 159.105 190.161 160.162 190.161H162.49C163.546 190.161 164.21 190.446 164.954 191.028L165.685 191.597C166.877 192.517 167.283 193.113 167.283 194.494V197.256C167.283 197.96 166.782 198.244 166.119 198.244H157.616V198.786C157.616 199.584 157.792 199.977 158.388 200.451L158.848 200.816C159.322 201.195 159.742 201.331 160.419 201.331H166.281C166.917 201.331 167.418 201.832 167.418 202.468V202.563C167.418 203.199 166.917 203.7 166.281 203.7H160.162ZM157.616 195.875H165.035V195.022C165.035 194.223 164.859 193.885 164.264 193.411L163.817 193.059C163.33 192.666 162.91 192.531 162.246 192.531H160.419C159.742 192.531 159.336 192.68 158.848 193.059L158.388 193.411C157.792 193.871 157.616 194.223 157.616 195.022V195.875ZM191.997 203.7C191.374 203.7 190.9 203.199 190.9 202.563V192.531H188.951C188.314 192.531 187.813 192.03 187.813 191.394V191.299C187.813 190.662 188.314 190.161 188.951 190.161H190.9V187.345C190.9 185.274 191.997 184.746 193.676 184.746H198.956C199.606 184.746 200.106 185.247 200.106 185.883V185.978C200.106 186.614 199.606 187.115 198.956 187.115H194.055C193.229 187.115 193.148 187.373 193.148 188.198V190.161H197.805C198.455 190.161 198.942 190.662 198.942 191.299V191.394C198.942 192.03 198.455 192.531 197.805 192.531H193.148V202.563C193.148 203.199 192.701 203.7 192.051 203.7H191.997ZM222.153 209.116C221.517 209.116 221.016 208.615 221.016 207.978V207.897C221.016 207.247 221.517 206.746 222.153 206.746H227.812C228.34 206.746 228.476 206.733 229.058 206.3L229.315 206.11C229.897 205.677 229.897 205.568 229.897 204.851V201.236C229.789 201.358 229.694 201.48 229.572 201.602L228.3 202.888C227.772 203.416 227.339 203.7 226.594 203.7H224.468C223.764 203.7 223.453 203.619 222.776 202.942L220.366 200.546C219.798 199.977 219.757 199.503 219.757 198.637V195.36C219.757 194.372 219.77 193.939 220.542 193.14L222.79 190.838C223.358 190.243 223.629 190.161 224.401 190.161H226.472C227.42 190.161 227.65 190.324 228.232 190.906L229.572 192.26C229.694 192.382 229.789 192.504 229.897 192.626V191.299C229.897 190.662 230.344 190.161 230.98 190.161H231.048C231.671 190.161 232.145 190.662 232.145 191.299V205.623C232.145 207.058 231.955 207.112 230.764 207.978L229.857 208.642C229.302 209.048 228.896 209.116 228.273 209.116H222.153ZM226.269 201.331C226.729 201.331 226.905 201.263 227.542 200.627L229.315 198.826C229.803 198.325 229.897 197.987 229.897 197.567V196.294C229.897 195.875 229.803 195.536 229.315 195.035L227.542 193.235C226.905 192.598 226.729 192.531 226.269 192.531H224.739C224.292 192.531 224.252 192.531 223.588 193.208L222.587 194.223C222.072 194.751 222.004 195.117 222.004 195.766V198.095C222.004 198.528 222.072 199.111 222.587 199.639L223.588 200.654C224.252 201.331 224.292 201.331 224.739 201.331H226.269ZM256.832 190.798C257.17 190.459 257.739 190.161 258.551 190.161H261.313C263.154 190.161 264.725 191.461 264.725 193.871V202.563C264.725 203.199 264.251 203.7 263.628 203.7H263.574C262.951 203.7 262.477 203.199 262.477 202.563V193.885C262.477 192.788 261.8 192.531 260.907 192.531H258.629C258.267 192.531 257.982 192.558 257.576 192.964L255.207 195.333V202.644C255.207 203.253 254.76 203.7 254.11 203.7H254.056C253.433 203.7 252.96 203.253 252.96 202.644V185.802C252.96 185.193 253.433 184.746 254.056 184.746H254.11C254.733 184.746 255.207 185.193 255.207 185.802V192.409L256.832 190.798ZM285.54 203.7C284.903 203.7 284.402 203.199 284.402 202.563V202.468C284.402 201.832 284.903 201.331 285.54 201.331H290.17V192.531H286.189C285.54 192.531 285.039 192.03 285.039 191.394V191.299C285.039 190.662 285.54 190.161 286.189 190.161H291.321C292.025 190.161 292.417 190.676 292.417 191.407V201.331H296.858C297.494 201.331 297.995 201.832 297.995 202.468V202.563C297.995 203.199 297.494 203.7 296.858 203.7H285.54ZM289.926 188.171C289.385 188.171 288.965 187.752 288.965 187.197V185.721C288.965 185.166 289.385 184.746 289.926 184.746H291.442C291.984 184.746 292.417 185.166 292.417 185.721V187.197C292.417 187.752 291.984 188.171 291.442 188.171H289.926ZM322.059 209.116C320.692 209.116 319.785 208.655 319.311 207.437L318.81 206.151C318.715 205.893 318.647 205.636 318.647 205.487C318.647 204.743 319.135 204.404 319.812 204.404C320.502 204.404 320.759 204.797 320.963 205.406L321.179 206.069C321.342 206.584 321.626 206.746 322.316 206.746H325.268C325.62 206.746 326.012 206.652 326.012 206.056V192.531H322.696C322.046 192.531 321.545 192.03 321.545 191.394V191.299C321.545 190.662 322.046 190.161 322.696 190.161H327.366C328.016 190.161 328.504 190.662 328.504 191.299V206.611C328.504 208.019 327.502 209.116 325.999 209.116H322.059ZM326.012 188.171C325.471 188.171 325.051 187.752 325.051 187.197V185.721C325.051 185.166 325.471 184.746 326.012 184.746H327.529C328.07 184.746 328.504 185.166 328.504 185.721V187.197C328.504 187.752 328.07 188.171 327.529 188.171H326.012ZM359.933 203.389L354.575 197.933L353.299 199.182V202.658C353.299 203.253 352.852 203.7 352.216 203.7H352.162C351.525 203.7 351.051 203.253 351.051 202.658V185.816C351.051 185.193 351.525 184.746 352.162 184.746H352.216C352.825 184.746 353.299 185.193 353.299 185.816V196.017L358.917 190.541C359.164 190.293 359.452 190.168 359.74 190.168C360 190.168 360.261 190.273 360.488 190.486C360.725 190.71 360.85 191.014 360.85 191.319C360.85 191.59 360.752 191.861 360.542 192.07L356.159 196.376L361.53 201.818C361.75 202.038 361.879 202.302 361.879 202.583C361.879 202.84 361.771 203.108 361.517 203.362C361.256 203.622 360.972 203.731 360.704 203.731C360.413 203.731 360.136 203.602 359.933 203.389ZM383.388 203.7C382.738 203.7 382.237 203.199 382.237 202.563V202.468C382.237 201.832 382.738 201.331 383.388 201.331H388.045V187.115H383.929C383.279 187.115 382.778 186.614 382.778 185.978V185.883C382.778 185.247 383.279 184.746 383.929 184.746H389.06C389.764 184.746 390.279 185.247 390.279 185.883V201.331H394.692C395.342 201.331 395.83 201.832 395.83 202.468V202.563C395.83 203.199 395.342 203.7 394.692 203.7H383.388ZM414.451 191.407C414.451 190.608 414.898 190.161 415.548 190.161H415.602C416.292 190.161 416.699 190.676 416.699 191.407V191.61L417.281 191.082C417.998 190.432 418.621 190.08 419.42 190.08C420.472 190.08 421.454 190.639 421.911 191.85L422.764 191.069C423.468 190.419 424.104 190.08 424.903 190.08C426.365 190.08 427.665 191.136 427.665 193.506V202.563C427.665 203.199 427.191 203.7 426.568 203.7H426.514C425.891 203.7 425.417 203.199 425.417 202.563V193.654C425.417 192.815 425.174 192.45 424.578 192.45C424.131 192.45 423.996 192.544 423.184 193.289L422.182 194.216V202.563C422.182 203.199 421.708 203.7 421.085 203.7H421.031C420.408 203.7 419.934 203.199 419.934 202.563V193.654C419.934 192.802 419.691 192.45 419.095 192.45C418.648 192.45 418.499 192.531 417.687 193.289L416.699 194.213V202.455C416.699 203.186 416.292 203.7 415.602 203.7H415.548C414.898 203.7 414.451 203.253 414.451 202.455V191.407ZM458.241 203.7C457.618 203.7 457.144 203.199 457.144 202.563V193.885C457.144 192.802 456.495 192.531 455.587 192.531H453.475C452.88 192.531 452.636 192.585 452.257 192.964L449.901 195.32V202.455C449.901 203.186 449.509 203.7 448.818 203.7H448.75C448.114 203.7 447.667 203.253 447.667 202.455V191.407C447.667 190.608 448.114 190.161 448.75 190.161H448.818C449.509 190.161 449.901 190.676 449.901 191.407V192.395L451.499 190.798C451.837 190.459 452.406 190.161 453.218 190.161H455.98C457.821 190.161 459.392 191.461 459.392 193.871V202.563C459.392 203.199 458.918 203.7 458.295 203.7H458.241ZM25.4418 226.494C25.4418 225.099 25.848 224.531 27.0258 223.61L27.7705 223.028C28.5151 222.446 29.1785 222.161 30.2345 222.161H32.5631C33.6192 222.161 34.2826 222.446 35.0272 223.028L35.7718 223.61C36.9497 224.531 37.3558 225.099 37.3558 226.494V231.368C37.3558 232.762 36.9497 233.331 35.7718 234.251L35.0272 234.834C34.2826 235.416 33.6192 235.7 32.5631 235.7H30.2345C29.1785 235.7 28.5151 235.416 27.7705 234.834L27.0258 234.251C25.848 233.331 25.4418 232.762 25.4418 231.368V226.494ZM27.6892 230.731C27.6892 231.598 27.8517 231.963 28.5151 232.491L28.9077 232.803C29.4086 233.195 29.8013 233.331 30.4782 233.331H32.3195C32.9964 233.331 33.389 233.195 33.8899 232.803L34.2826 232.491C34.9459 231.963 35.1084 231.598 35.1084 230.731V227.117C35.1084 226.25 34.9459 225.898 34.2826 225.37L33.8899 225.059C33.389 224.666 32.9964 224.531 32.3195 224.531H30.4782C29.8013 224.531 29.4086 224.666 28.9077 225.059L28.5151 225.37C27.8517 225.898 27.6892 226.25 27.6892 227.117V230.731ZM63.207 222.161H64.588C64.8621 222.161 65.0957 222.151 65.3055 222.151C65.9012 222.151 66.3108 222.239 66.9708 222.92L69.2723 225.302C70.0034 226.054 70.061 226.846 70.061 227.448C70.061 227.563 70.0576 227.668 70.0576 227.766V230.095C70.0576 230.193 70.061 230.298 70.061 230.413C70.061 231.016 70.0034 231.808 69.2723 232.559L67.2145 234.698C66.4022 235.538 65.9418 235.7 65.1295 235.7H63.207C62.1375 235.7 61.7042 235.104 60.8513 234.211L59.9307 233.26V240.06C59.9307 240.669 59.4568 241.116 58.834 241.116H58.7799C58.1571 241.116 57.6833 240.669 57.6833 240.06V229.831C57.6799 229.76 57.6799 229.686 57.6799 229.618C57.6799 229.506 57.6833 229.405 57.6833 229.31V228.552C57.6833 228.457 57.6799 228.355 57.6799 228.244C57.6799 228.176 57.6799 228.102 57.6833 228.03V223.245C57.6833 222.608 58.1571 222.161 58.7799 222.161H58.834C59.4839 222.161 59.9307 222.608 59.9307 223.245V224.602L60.8513 223.651C61.7042 222.757 62.1375 222.161 63.207 222.161ZM59.9307 229.554C59.9307 229.973 60.0119 230.325 60.5128 230.826L62.2729 232.627C62.9092 233.277 63.1123 233.331 63.559 233.331H64.9806C65.4138 233.331 65.4544 233.317 66.0908 232.654L67.0791 231.639C67.6071 231.097 67.6612 230.515 67.6612 230.095V227.766C67.6612 227.347 67.5936 226.765 67.0791 226.223L66.0908 225.208C65.4409 224.531 65.4138 224.531 64.9806 224.531H63.559C63.1123 224.531 62.9092 224.585 62.2729 225.235L60.5128 227.035C60.0119 227.536 59.9307 227.888 59.9307 228.308V229.554ZM97.0054 222.161C98.075 222.161 98.5082 222.757 99.3611 223.651L100.282 224.602V223.245C100.282 222.608 100.729 222.161 101.378 222.161H101.433C102.055 222.161 102.529 222.608 102.529 223.245V228.03C102.533 228.102 102.533 228.176 102.533 228.244C102.533 228.355 102.529 228.457 102.529 228.552V229.31C102.529 229.405 102.533 229.506 102.533 229.618C102.533 229.686 102.533 229.76 102.529 229.831V240.06C102.529 240.669 102.055 241.116 101.433 241.116H101.378C100.756 241.116 100.282 240.669 100.282 240.06V233.26L99.3611 234.211C98.5082 235.104 98.075 235.7 97.0054 235.7H95.0829C94.2706 235.7 93.8103 235.538 92.998 234.698L90.9401 232.559C90.209 231.808 90.1515 231.016 90.1515 230.413C90.1515 230.298 90.1549 230.193 90.1549 230.095V227.766C90.1549 227.668 90.1515 227.563 90.1515 227.448C90.1515 226.846 90.209 226.054 90.9401 225.302L93.2417 222.92C93.9017 222.239 94.3112 222.151 94.9069 222.151C95.1168 222.151 95.3503 222.161 95.6245 222.161H97.0054ZM92.5512 230.095C92.5512 230.515 92.6054 231.097 93.1334 231.639L94.1217 232.654C94.758 233.317 94.7986 233.331 95.2319 233.331H96.6534C97.1002 233.331 97.3033 233.277 97.9396 232.627L99.6996 230.826C100.201 230.325 100.282 229.973 100.282 229.554V228.308C100.282 227.888 100.201 227.536 99.6996 227.035L97.9396 225.235C97.3033 224.585 97.1002 224.531 96.6534 224.531H95.2319C94.7986 224.531 94.7715 224.531 94.1217 225.208L93.1334 226.223C92.6189 226.765 92.5512 227.347 92.5512 227.766V230.095ZM125.266 235.7C124.617 235.7 124.17 235.253 124.17 234.455V223.407C124.17 222.608 124.617 222.161 125.266 222.161H125.321C126.025 222.161 126.417 222.676 126.417 223.407V224.436L128.083 222.784C128.475 222.392 128.895 222.161 129.91 222.161H131.508C133.349 222.161 134.92 223.461 134.92 225.871V227.171C134.92 227.821 134.446 228.322 133.809 228.322H133.769C133.146 228.322 132.672 227.821 132.672 227.171V225.871C132.672 224.869 132.09 224.531 131.115 224.531H130.032C129.436 224.531 129.206 224.571 128.827 224.95L126.417 227.36V234.455C126.417 235.186 126.025 235.7 125.321 235.7H125.266ZM158.253 235.7C157.129 235.7 156.289 235.159 155.613 234.482C155.382 234.251 155.261 233.923 155.261 233.598C155.261 233.314 155.355 233.033 155.558 232.83L155.613 232.776C155.833 232.556 156.11 232.444 156.391 232.444C156.631 232.444 156.875 232.525 157.088 232.695C157.44 232.979 157.86 233.331 158.632 233.331H163.546C164.291 233.331 164.859 233.06 164.859 232.356C164.859 231.896 164.562 231.557 163.763 231.165L158.009 228.349C156.425 227.577 155.748 226.656 155.748 225.411C155.748 223.136 157.291 222.161 159.634 222.161H164.318C165.442 222.161 166.281 222.703 166.958 223.38C167.188 223.61 167.31 223.938 167.31 224.263C167.31 224.548 167.215 224.829 167.012 225.032L166.958 225.086C166.738 225.306 166.457 225.424 166.173 225.424C165.936 225.424 165.692 225.34 165.482 225.167C165.144 224.883 164.711 224.504 163.939 224.504H159.254C158.51 224.504 158.144 224.829 158.144 225.384C158.144 225.817 158.469 226.115 159.241 226.494L164.995 229.31C166.633 230.109 167.31 231.205 167.31 232.437C167.31 234.536 165.78 235.7 163.6 235.7H158.253ZM187.516 223.299C187.516 222.662 188.003 222.161 188.653 222.161H190.399V218.966C190.399 218.33 190.873 217.829 191.496 217.829H191.55C192.173 217.829 192.647 218.33 192.647 218.966V222.161H197.521C198.17 222.161 198.671 222.662 198.671 223.299V223.394C198.671 224.03 198.17 224.531 197.521 224.531H192.647V232.383C192.647 233.141 192.728 233.48 193.527 233.48H196.113C196.952 233.48 197.155 233.087 197.304 232.397L197.534 231.368C197.669 230.772 197.981 230.379 198.658 230.379H198.712C199.237 230.379 199.771 230.752 199.771 231.408C199.771 231.513 199.758 231.625 199.727 231.747L199.402 233.074C198.902 235.132 198.252 235.7 196.654 235.7H193.121C191.536 235.7 190.399 235.159 190.399 233.074V224.531H188.653C188.003 224.531 187.516 224.03 187.516 223.394V223.299ZM221.517 222.161C222.14 222.161 222.614 222.662 222.614 223.299V231.977C222.614 233.06 223.263 233.331 224.171 233.331H226.283C226.878 233.331 227.122 233.277 227.501 232.898L229.857 230.542V223.407C229.857 222.676 230.249 222.161 230.94 222.161H231.008C231.644 222.161 232.091 222.608 232.091 223.407V234.455C232.091 235.253 231.644 235.7 231.008 235.7H230.94C230.249 235.7 229.857 235.186 229.857 234.455V233.466L228.259 235.064C227.921 235.402 227.352 235.7 226.54 235.7H223.778C221.937 235.7 220.366 234.4 220.366 231.991V223.299C220.366 222.662 220.84 222.161 221.463 222.161H221.517ZM258.659 233.006H258.741L261.611 227.59C261.814 227.211 261.814 227.022 261.841 226.399L261.99 223.177C262.017 222.541 262.477 222.04 263.127 222.04H263.29C263.926 222.04 264.454 222.541 264.427 223.177L264.291 226.819C264.264 227.401 264.251 227.672 264.061 228.01L260.46 234.576C260 235.416 259.404 235.7 258.7 235.7C257.996 235.7 257.4 235.416 256.94 234.576L253.393 228.01C253.203 227.658 253.19 227.401 253.163 226.819L253.027 223.177C253 222.541 253.515 222.04 254.165 222.04H254.327C254.963 222.04 255.437 222.541 255.464 223.177L255.6 226.399C255.627 227.022 255.64 227.211 255.83 227.59L258.659 233.006ZM288.044 235.7C287.056 235.7 286.839 235.524 286.379 234.509L284.876 231.205L284.538 223.299C284.511 222.662 285.012 222.161 285.634 222.161H285.688C286.338 222.161 286.758 222.662 286.785 223.299L287.083 230.704L288.301 233.317L290.048 230.244V225.736C290.048 225.099 290.522 224.598 291.145 224.598H291.199C291.849 224.598 292.295 225.099 292.295 225.736V230.244L294.042 233.317L295.26 230.704L295.558 223.299C295.585 222.662 296.005 222.161 296.655 222.161H296.709C297.332 222.161 297.833 222.662 297.806 223.299L297.467 231.205L295.964 234.509C295.504 235.524 295.287 235.7 294.299 235.7H293.609C293.081 235.7 292.783 235.402 292.309 234.604L291.172 232.654L290.034 234.604C289.561 235.402 289.263 235.7 288.735 235.7H288.044ZM327.163 222.662C327.475 222.27 327.84 222.094 328.165 222.094C328.869 222.094 329.346 222.615 329.346 223.234C329.346 223.519 329.245 223.823 329.018 224.111L325.149 228.944L329.018 233.778C329.245 234.065 329.346 234.37 329.346 234.654C329.346 235.274 328.869 235.795 328.165 235.795C327.84 235.795 327.475 235.619 327.163 235.226L323.643 230.826L320.123 235.226C319.798 235.619 319.446 235.795 319.121 235.795C318.417 235.795 317.94 235.274 317.94 234.654C317.94 234.37 318.042 234.065 318.268 233.778L322.137 228.944L318.268 224.111C318.042 223.823 317.94 223.519 317.94 223.234C317.94 222.615 318.417 222.094 319.121 222.094C319.446 222.094 319.798 222.256 320.123 222.662L323.643 227.062L327.163 222.662ZM351.634 241.116C350.984 241.116 350.496 240.615 350.496 239.978V239.884C350.496 239.247 350.984 238.746 351.634 238.746H354.274L355.952 235.308H355.492C354.896 235.308 354.571 234.752 354.314 234.292L351.065 228.592C350.808 228.146 350.808 227.956 350.808 227.333V223.299C350.808 222.662 351.295 222.161 351.945 222.161H352.107C352.744 222.161 353.245 222.662 353.245 223.299V226.914C353.245 227.536 353.245 227.672 353.502 228.159L355.939 232.735C355.959 232.779 356.054 232.793 356.169 232.793C356.338 232.793 356.558 232.762 356.656 232.762H357.184L359.418 228.146C359.648 227.672 359.662 227.563 359.662 226.914V223.299C359.662 222.662 360.163 222.161 360.813 222.161H360.962C361.612 222.161 362.112 222.662 362.112 223.299V227.333C362.112 227.956 362.072 228.118 361.855 228.565L355.668 241.116H351.634ZM382.684 223.299C382.684 222.662 383.184 222.161 383.821 222.161H393.785C393.988 222.161 394.178 222.256 394.178 222.635V223.488C394.178 224.016 394.178 224.016 393.487 224.856L386.501 233.331H393.501C394.137 233.331 394.638 233.832 394.638 234.468V234.563C394.638 235.199 394.137 235.7 393.501 235.7H383.536C383.347 235.7 383.144 235.578 383.144 235.226V234.346C383.144 233.94 383.171 233.805 383.834 233.006L390.834 224.531H383.821C383.184 224.531 382.684 224.03 382.684 223.394V223.299Z" fill="white"/>
<path d="M27.4455 299.135C25.8886 299.135 24.7378 297.944 24.7378 296.427V282.889C24.7378 281.4 25.9427 280.181 27.4455 280.181H35.3521C36.8549 280.181 38.0598 281.4 38.0598 282.889V296.427C38.0598 297.944 36.9091 299.135 35.3521 299.135H27.4455ZM35.325 296.766C35.4875 296.766 35.5687 296.658 35.5687 296.522V282.794C35.5687 282.659 35.4875 282.55 35.325 282.55H27.4726C27.3102 282.55 27.2289 282.659 27.2289 282.794V296.522C27.2289 296.658 27.3102 296.766 27.4726 296.766H35.325ZM58.6851 299.135C58.0353 299.135 57.5479 298.634 57.5479 297.998V297.903C57.5479 297.267 58.0353 296.766 58.6851 296.766H62.3135V282.55H58.6851C58.0353 282.55 57.5479 282.049 57.5479 281.413V281.318C57.5479 280.682 58.0353 280.181 58.6851 280.181H64.8046V296.766H67.6748V292.285C67.6748 291.621 68.1893 291.12 68.8797 291.12H68.9474C69.6379 291.12 70.1659 291.621 70.1659 292.285V297.971C70.1659 298.634 69.665 299.135 68.9474 299.135H58.6851ZM92.8491 299.135C91.4816 299.135 90.3715 298.025 90.3715 296.671V291.012C90.3715 289.523 91.59 288.426 93.0792 288.426H99.9027C100.065 288.426 100.146 288.291 100.146 288.182V282.794C100.146 282.686 100.065 282.55 99.9027 282.55H91.5358C90.8859 282.55 90.3986 282.076 90.3986 281.427V281.372C90.3986 280.655 90.8859 280.181 91.5358 280.181H99.9433C101.419 280.181 102.637 281.4 102.637 282.889V288.21C102.637 289.577 101.419 290.795 99.9298 290.795H93.1198C92.9574 290.795 92.8626 290.931 92.8626 291.053V296.739C92.8626 296.766 92.8626 296.766 92.8897 296.766H101.893C102.543 296.766 103.044 297.24 103.044 297.89V297.944C103.044 298.661 102.543 299.135 101.893 299.135H92.8491ZM123.182 299.135C122.532 299.135 122.044 298.661 122.044 297.944V297.89C122.044 297.24 122.532 296.766 123.182 296.766H132.28C132.442 296.766 132.537 296.631 132.537 296.522V292.19C132.537 291.256 131.968 290.958 131.047 290.958H126.526C125.876 290.958 125.388 290.47 125.388 289.821V289.739C125.388 289.09 125.876 288.589 126.526 288.589H131.047C131.968 288.589 132.537 288.304 132.537 287.357V282.794C132.537 282.686 132.442 282.55 132.28 282.55H123.182C122.532 282.55 122.044 282.076 122.044 281.427V281.372C122.044 280.655 122.532 280.181 123.182 280.181H132.32C133.809 280.181 135.028 281.4 135.028 282.889V287.357C135.028 288.358 134.635 289.442 133.295 289.794C134.635 290.118 135.028 291.174 135.028 292.176V296.427C135.028 297.917 133.809 299.135 132.32 299.135H123.182ZM164.507 299.135C163.79 299.135 163.302 298.688 163.302 297.89V292.962H155.382V281.332C155.382 280.492 155.897 280.046 156.601 280.046H156.655C157.318 280.046 157.873 280.492 157.873 281.332V290.592H163.302V283.728C163.302 282.943 163.79 282.496 164.507 282.496H164.575C165.347 282.496 165.794 283.011 165.794 283.728V290.592H166.457C167.107 290.592 167.608 291.107 167.608 291.743V291.811C167.608 292.461 167.107 292.962 166.457 292.962H165.794V297.89C165.794 298.621 165.347 299.135 164.575 299.135H164.507ZM34.8376 323.039C34.8376 322.917 34.7835 322.836 34.6481 322.836H26.7957V312.181H36.4758C37.1257 312.181 37.6266 312.601 37.6266 313.251V313.454C37.6266 314.049 37.1257 314.55 36.4758 314.55H29.2868V320.467H34.6616C36.1103 320.467 37.3288 321.59 37.3288 323.08V328.427C37.3288 329.917 36.1103 331.135 34.5939 331.135H29.9096C29.368 331.135 29.0296 331.122 28.4745 330.891L25.9157 329.849C25.3741 329.632 24.9544 329.199 24.9544 328.685C24.9544 328.113 25.3741 327.49 26.1357 327.49C26.3489 327.49 26.5994 327.547 26.8905 327.656L29.016 328.495C29.4899 328.685 29.8554 328.766 30.5594 328.766H34.0253C34.3502 328.766 34.6346 328.698 34.8376 328.536V323.039ZM60.9055 331.135C58.7257 331.135 57.8593 329.917 57.8593 328.427V313.427C57.8593 312.696 58.306 312.181 59.0777 312.181H61.9073C62.5572 312.181 63.0581 312.682 63.0581 313.318V313.413C63.0581 314.049 62.5572 314.55 61.9073 314.55H60.3504V321.726H67.9862C69.4754 321.726 70.6939 322.944 70.6939 324.434V328.427C70.6939 329.944 69.516 331.135 67.9862 331.135H60.9055ZM67.9591 328.766C68.108 328.766 68.2028 328.644 68.2028 328.522V324.339C68.2028 324.217 68.108 324.082 67.9456 324.082H60.3504V328.522C60.3504 328.631 60.4045 328.766 60.567 328.766H67.9591ZM95.9494 331.135C95.2183 331.135 94.7309 330.688 94.7309 329.89V324.745C94.7309 324.366 94.7445 324.23 95.0288 323.933L99.4288 319.248C99.7131 318.937 99.7267 318.842 99.7267 318.409V314.55H92.2398V316.595C92.2398 317.326 91.793 317.84 91.0213 317.84H90.9672C90.2361 317.84 89.7487 317.393 89.7487 316.595V313.427C89.7487 312.628 90.2361 312.181 90.9672 312.181H102.218V319.059C102.218 319.6 102.082 319.857 101.676 320.291L98.0479 324.082C97.2762 324.894 97.222 325.016 97.222 325.544V329.89C97.222 330.621 96.7753 331.135 96.0036 331.135H95.9494ZM124.427 331.135C122.884 331.135 121.719 329.944 121.719 328.427V323.77C121.719 322.281 122.938 321.062 124.427 321.062H124.904C124.901 321.018 124.901 320.971 124.901 320.927V314.686C124.901 313.305 125.957 312.181 127.338 312.181H130.289C131.67 312.181 132.767 313.305 132.767 314.686V320.927C132.767 320.971 132.767 321.018 132.764 321.062H133.2C134.689 321.062 135.908 322.281 135.908 323.77V328.427C135.908 329.944 134.744 331.135 133.2 331.135H124.427ZM133.173 328.766C133.322 328.766 133.417 328.644 133.417 328.522V323.675C133.417 323.567 133.336 323.432 133.173 323.432H124.468C124.292 323.432 124.21 323.554 124.21 323.675V328.522C124.21 328.631 124.292 328.766 124.454 328.766H133.173ZM130.303 321.062C130.316 321.062 130.33 321.062 130.33 321.035V314.577C130.33 314.564 130.316 314.55 130.303 314.55H127.379C127.351 314.55 127.351 314.564 127.351 314.577V321.035C127.351 321.062 127.351 321.062 127.379 321.062H130.303ZM163.993 312.181C166.173 312.181 167.039 313.4 167.039 314.889V329.89C167.039 330.621 166.592 331.135 165.821 331.135H162.991C162.341 331.135 161.84 330.634 161.84 329.998V329.903C161.84 329.267 162.341 328.766 162.991 328.766H164.548V321.59H156.912C155.423 321.59 154.205 320.372 154.205 318.883V314.889C154.205 313.372 155.382 312.181 156.912 312.181H163.993ZM156.939 314.55C156.79 314.55 156.696 314.672 156.696 314.794V318.977C156.696 319.099 156.79 319.235 156.953 319.235H164.548V314.794C164.548 314.686 164.494 314.55 164.331 314.55H156.939Z" fill="white"/>
<path d="M618.152 31.1164V22.9138H619.465L620.918 27.5541H620.941L622.394 22.9138H623.707V31.1164H622.816V24.2262H622.793L621.082 29.5228H620.777L619.066 24.2262H619.043V31.1164H618.152ZM630.133 31.1164V30.4368H630.109C629.934 30.7414 629.324 31.2922 628.211 31.2922C626.758 31.2922 626.09 30.4719 626.09 29.5228C626.09 28.4916 626.688 27.9643 628.199 27.5776C629.312 27.2963 629.98 27.0971 629.98 26.4878C629.98 25.9956 629.5 25.5855 628.68 25.5855C627.707 25.5855 627.32 26.1245 627.168 26.8159L626.277 26.5581C626.465 25.5152 627.297 24.7301 628.645 24.7301C630.004 24.7301 631 25.4683 631 26.687V31.1164H630.133ZM628.422 28.3158C627.309 28.6205 627.051 28.9486 627.051 29.4642C627.051 30.0266 627.356 30.4368 628.281 30.4368C629.465 30.4368 630.039 29.8157 630.039 29.1244V27.5776H630.016C629.934 27.7533 629.699 27.9643 628.422 28.3158ZM635.914 23.652V22.5622H637.016V23.652H635.914ZM633.887 25.7261V24.9058H636.934V30.2962H638.984V31.1164H633.829V30.2962H635.985V25.7261H633.887ZM641.169 29.0072L642.083 28.8314C642.223 29.9095 642.844 30.4602 644.063 30.4602C645.246 30.4602 645.692 30.0384 645.692 29.4759C645.692 28.89 645.516 28.6673 643.711 28.2103C641.719 27.7065 641.368 27.2143 641.391 26.3823C641.415 25.5855 642.188 24.7301 643.723 24.7301C645.258 24.7301 646.055 25.5035 646.325 26.4643L645.469 26.7456C645.223 26.0308 644.719 25.5503 643.735 25.5503C642.751 25.5503 642.329 26.0073 642.329 26.3589C642.329 26.8276 642.352 27.0151 644.286 27.5073C646.442 28.058 646.547 28.5736 646.582 29.4759C646.618 30.3782 645.95 31.2922 644.075 31.2922C642.141 31.2922 641.309 30.2376 641.169 29.0072ZM651.438 30.4251C652.446 30.4251 653.255 29.5814 653.255 28.0111C653.255 26.4409 652.469 25.5972 651.438 25.5972C650.384 25.5972 649.575 26.4175 649.575 28.0111C649.575 29.6165 650.395 30.4251 651.438 30.4251ZM651.438 31.2922C649.856 31.2922 648.591 30.1321 648.591 28.0111C648.591 25.8902 649.938 24.7301 651.438 24.7301C652.915 24.7301 654.239 25.8902 654.239 28.0111C654.239 30.1321 652.997 31.2922 651.438 31.2922ZM656.587 31.1164V24.9058H657.501V25.5035H657.524C657.853 25.0699 658.544 24.7301 659.27 24.7301C660.606 24.7301 661.497 25.5972 661.497 27.0385V31.1164H660.536V27.3432C660.536 26.2183 660.102 25.6089 659.13 25.6089C658.181 25.6089 657.548 26.1714 657.548 27.1557V31.1164H656.587ZM671.059 31.1164V22.9138H672.078L675.348 29.4525H675.371V22.9138H676.309V31.1164H675.313L672.02 24.5777H671.996V31.1164H671.059ZM683.192 29.1947L683.977 29.7103C683.567 30.5188 682.735 31.2922 681.375 31.2922C679.711 31.2922 678.469 30.0266 678.469 28.0111C678.469 25.9956 679.688 24.7301 681.328 24.7301C682.957 24.7301 684.141 25.937 684.141 28.0111V28.2924H679.454C679.465 29.3939 680.063 30.4251 681.352 30.4251C682.606 30.4251 682.969 29.6048 683.192 29.1947ZM679.477 27.5307H683.168C683.145 26.6284 682.676 25.5972 681.328 25.5972C679.993 25.5972 679.489 26.769 679.477 27.5307ZM686.524 28.9486V24.9058H687.485V28.808C687.485 29.9681 687.895 30.4016 688.926 30.4016C689.864 30.4016 690.379 29.7923 690.379 28.7611V24.9058H691.34V31.1164H690.391V30.5188H690.368C690.368 30.5188 689.84 31.2922 688.715 31.2922C687.38 31.2922 686.524 30.554 686.524 28.9486ZM698.434 29.1947L699.219 29.7103C698.809 30.5188 697.977 31.2922 696.618 31.2922C694.954 31.2922 693.712 30.0266 693.712 28.0111C693.712 25.9956 694.931 24.7301 696.571 24.7301C698.2 24.7301 699.383 25.937 699.383 28.0111V28.2924H694.696C694.708 29.3939 695.306 30.4251 696.595 30.4251C697.848 30.4251 698.212 29.6048 698.434 29.1947ZM694.72 27.5307H698.411C698.387 26.6284 697.919 25.5972 696.571 25.5972C695.235 25.5972 694.731 26.769 694.72 27.5307Z" fill="white"/>
<path d="M630.68 109.465L629.358 105.612H621.287L620.078 109.465H617.631L624.156 89.7789H626.602L633.127 109.465H630.68ZM628.683 103.587L625.393 92.9006H625.337L621.934 103.587H628.683ZM654.135 109.465V89.7789H660.941C664.485 89.7789 666.763 91.9725 666.763 94.8692C666.763 96.9785 665.581 98.2159 664.231 98.8065V98.8909C665.806 99.3971 667.494 100.972 667.494 103.644C667.494 107.187 665.328 109.465 660.463 109.465H654.135ZM656.554 98.1034H660.519C663.163 98.1034 664.372 96.9785 664.372 95.0099C664.372 92.985 662.91 91.9163 660.491 91.9163H656.554V98.1034ZM656.554 107.328H660.154C663.331 107.328 665.103 106.315 665.103 103.644C665.103 101.085 663.472 100.185 660.21 100.185H656.554V107.328ZM696.292 91.5788C693.423 91.5788 691.258 93.9974 691.258 99.4533C691.258 105.078 693.311 107.693 696.292 107.693C699.217 107.693 700.482 105.162 700.736 102.153L703.182 102.463C702.873 106.99 700.229 109.887 696.292 109.887C692.327 109.887 688.727 106.99 688.727 99.4533C688.727 92.6756 692.299 89.3571 696.292 89.3571C700.032 89.3571 702.648 92.2256 703.126 96.2192L700.764 96.641C700.37 93.9693 699.104 91.5788 696.292 91.5788ZM726.834 107.328H729.45C733.387 107.328 735.862 105.162 735.862 99.594C735.862 94.5599 733.415 91.9163 729.618 91.9163H726.834V107.328ZM724.415 109.465V89.7789H729.815C734.174 89.7789 738.393 92.7881 738.393 99.594C738.393 107.131 734.006 109.465 729.646 109.465H724.415ZM760.582 109.465V89.7789H772.225V91.9163H763.001V98.3003H771.438V100.381H763.001V107.328H772.225V109.465H760.582ZM795.961 109.465V89.7789H807.379V91.9163H798.408V99.0315H806.592V101.085H798.408V109.465H795.961ZM836.909 109.887C832.859 109.887 829.231 106.934 829.231 99.4252C829.231 92.7037 832.915 89.3571 836.909 89.3571C840.368 89.3571 843.012 92.0288 843.602 95.8536L841.268 96.2754C840.846 93.7162 839.553 91.5788 836.909 91.5788C834.04 91.5788 831.762 94.0255 831.762 99.4252C831.762 105.022 833.956 107.693 836.909 107.693C839.665 107.693 841.521 105.528 841.437 101.956H836.487V99.8189H843.771V101.731C843.771 106.934 840.818 109.887 836.909 109.887ZM864.948 109.465V89.7789H867.367V98.244H875.607V89.7789H877.997V109.465H875.607V100.325H867.367V109.465H864.948ZM900.721 91.8882V89.7789H912.533V91.8882H907.808V107.356H912.533V109.465H900.721V107.356H905.418V91.8882H900.721ZM937.647 91.8882V89.7789H947.49V103.053C947.49 107.722 945.297 109.887 941.725 109.887C938.153 109.887 936.1 107.384 935.566 104.009L937.844 103.419C938.378 105.865 939.137 107.693 941.612 107.693C944.087 107.693 945.128 106.315 945.128 102.913V91.8882H937.647ZM970.945 109.465V89.7789H973.336V99.3971H973.392L981.379 89.7789H984.304L977.104 98.3847L985.091 109.465H982.223L975.529 100.156H975.473L973.336 102.659V109.465H970.945ZM1007.62 109.465V89.7789H1010.04V107.328H1019.35V109.465H1007.62ZM1040.58 109.465V89.7789H1043.73L1047.22 100.916H1047.27L1050.76 89.7789H1053.91V109.465H1051.77V92.9287H1051.72L1047.61 105.64H1046.88L1042.77 92.9287H1042.72V109.465H1040.58ZM1076.1 109.465V89.7789H1078.55L1086.39 105.472H1086.45V89.7789H1088.7V109.465H1086.31L1078.4 93.7724H1078.35V109.465H1076.1ZM625.393 135.693C628.177 135.693 630.315 133.191 630.315 127.566C630.315 122.11 628.205 119.579 625.393 119.579C622.581 119.579 620.471 121.997 620.471 127.453C620.471 133.078 622.581 135.693 625.393 135.693ZM625.393 137.887C621.568 137.887 617.94 134.99 617.94 127.453C617.94 120.676 621.653 117.357 625.393 117.357C629.133 117.357 632.846 120.788 632.846 127.566C632.846 135.103 629.133 137.887 625.393 137.887ZM654.669 137.465V117.779H661.447C665.3 117.779 668.084 119.888 668.084 123.854C668.084 127.763 665.413 129.872 661.503 129.872H657.06V137.465H654.669ZM657.06 127.735H661.363C663.641 127.735 665.666 126.553 665.666 123.854C665.666 121.013 663.585 119.916 661.307 119.916H657.06V127.735ZM695.701 137.887C691.877 137.887 688.249 134.99 688.249 127.453C688.249 120.676 691.961 117.357 695.701 117.357C699.442 117.357 703.154 120.788 703.154 127.566C703.154 130.631 702.479 132.909 701.523 134.54L703.604 136.622L702.254 137.915L700.342 136.031C699.02 137.325 697.361 137.887 695.701 137.887ZM695.701 135.693C696.826 135.693 697.895 135.272 698.711 134.4L694.014 129.703L695.364 128.41L699.723 132.769C700.286 131.503 700.623 129.788 700.623 127.566C700.623 122.11 698.514 119.579 695.701 119.579C692.889 119.579 690.78 121.997 690.78 127.453C690.78 133.078 692.889 135.693 695.701 135.693ZM724.978 137.465V117.779H731.221C735.215 117.779 737.858 119.691 737.858 123.629C737.858 126.919 735.777 128.747 732.965 129.253L737.352 137.465H734.737L730.462 129.422H727.368V137.465H724.978ZM727.368 127.341H731.081C733.443 127.341 735.468 126.413 735.468 123.629C735.468 120.844 733.584 119.916 731.024 119.916H727.368V127.341ZM758.838 130.688L761.313 130.209C761.82 133.809 762.973 135.693 766.572 135.693C769.385 135.693 770.594 134.034 770.594 132.291C770.594 130.322 770.003 129.478 765.644 127.875C761.735 126.441 759.738 125.203 759.738 122.391C759.738 119.551 762.101 117.357 765.701 117.357C768.879 117.357 771.775 119.101 772.253 122.785L769.919 123.291C769.525 121.126 768.429 119.579 765.701 119.579C763.282 119.579 762.157 120.872 762.157 122.391C762.157 123.685 762.663 124.472 766.713 125.963C771.41 127.706 772.985 128.888 772.985 132.178C772.985 135.244 770.678 137.887 766.488 137.887C761.904 137.887 759.401 135.356 758.838 130.688ZM799.983 137.465V119.916H793.346V117.779H808.954V119.916H802.345V137.465H799.983ZM829.259 131.053V117.779H831.65V130.884C831.65 134.034 833.225 135.693 836.29 135.693C839.384 135.693 840.987 134.006 840.987 130.941V117.779H843.349V131.053C843.349 135.609 840.649 137.887 836.29 137.887C831.931 137.887 829.259 135.609 829.259 131.053ZM870.095 137.465L863.711 117.779H866.27L871.501 134.625H871.557L876.675 117.779H879.207L872.963 137.465H870.095ZM901.312 137.465L899.09 117.779H901.48L903.027 134.034H903.083L905.896 122.56H907.386L910.17 134.034H910.227L911.773 117.779H914.164L911.942 137.465H909.214L906.655 127.06H906.599L904.068 137.465H901.312ZM934.272 137.465L940.347 127.2L934.778 117.779H937.45L941.837 125.541H941.894L946.112 117.779H948.728L943.272 127.397L949.262 137.465H946.618L941.781 129.056H941.725L936.916 137.465H934.272ZM975.754 137.465V129.169L969.258 117.779H971.901L976.907 126.919H976.963L981.969 117.779H984.613L978.117 129.169V137.465H975.754ZM1005.11 137.465V135.553L1016.14 119.973V119.916H1005.62V117.779H1019.06V119.691L1008.01 135.244V135.3H1018.84V137.465H1005.11Z" fill="white"/>
<path d="M629.19 203.549V201.918H629.133C628.712 202.649 627.249 203.971 624.577 203.971C621.09 203.971 619.487 202.002 619.487 199.724C619.487 197.249 620.921 195.984 624.549 195.056C627.221 194.381 628.824 193.902 628.824 192.44C628.824 191.259 627.671 190.275 625.702 190.275C623.368 190.275 622.44 191.568 622.074 193.227L619.937 192.609C620.387 190.106 622.384 188.222 625.618 188.222C628.88 188.222 631.271 189.993 631.271 192.918V203.549H629.19ZM625.084 196.827C622.412 197.558 621.793 198.346 621.793 199.583C621.793 200.933 622.524 201.918 624.746 201.918C627.587 201.918 628.965 200.427 628.965 198.768V195.056H628.908C628.712 195.477 628.149 195.984 625.084 196.827ZM657.201 193.987V198.599C657.201 200.315 658.775 201.889 661.025 201.889C664.006 201.889 665.553 199.724 665.553 196.096C665.553 192.468 664.006 190.303 661.025 190.303C658.55 190.303 657.201 192.271 657.201 193.987ZM654.894 203.549V183.019H657.201V190.078H657.257C658.016 189.178 659.394 188.222 661.391 188.222C665.103 188.222 667.916 191.315 667.916 196.096C667.916 200.877 665.328 203.971 661.391 203.971C659.169 203.971 657.651 202.846 657.032 202.114H656.976V203.549H654.894ZM700.539 197.84L702.76 198.29C702.282 201.749 699.836 203.971 696.545 203.971C692.636 203.971 689.711 201.102 689.711 196.096C689.711 191.118 692.805 188.222 696.545 188.222C699.779 188.222 702.17 190.471 702.648 193.677L700.482 194.127C700.089 192.159 698.964 190.303 696.545 190.303C693.93 190.303 692.045 192.356 692.045 196.096C692.045 199.724 693.789 201.889 696.573 201.889C698.964 201.889 700.257 199.808 700.539 197.84ZM734.737 198.599V193.987C734.737 192.271 733.387 190.303 730.912 190.303C727.931 190.303 726.384 192.468 726.384 196.096C726.384 199.724 727.931 201.889 730.912 201.889C733.162 201.889 734.737 200.315 734.737 198.599ZM734.962 203.549V202.114H734.905C734.287 202.846 732.768 203.971 730.546 203.971C726.609 203.971 724.022 200.877 724.022 196.096C724.022 191.231 726.947 188.222 730.546 188.222C732.571 188.222 733.921 189.178 734.681 190.078H734.737V183.019H737.043V203.549H734.962ZM770.538 198.937L772.422 200.174C771.438 202.114 769.441 203.971 766.179 203.971C762.185 203.971 759.204 200.933 759.204 196.096C759.204 191.259 762.129 188.222 766.066 188.222C769.975 188.222 772.816 191.118 772.816 196.096V196.771H761.566C761.595 199.415 763.029 201.889 766.122 201.889C769.132 201.889 770.003 199.921 770.538 198.937ZM761.623 194.943H770.482C770.425 192.778 769.3 190.303 766.066 190.303C762.86 190.303 761.651 193.115 761.623 194.943ZM799.927 203.549V190.696H795.23V188.643H799.927V186.365C799.927 183.694 801.333 183.019 803.245 183.019H806.283V185.072H803.667C802.514 185.072 802.205 185.381 802.205 186.815V188.643H807.633V190.696H802.233V203.549H799.927ZM830.609 206.249L832.605 205.208C833.168 206.755 834.068 208.245 836.458 208.245C838.877 208.245 840.227 206.755 840.227 204.252V202.255H840.171C839.496 203.043 838.23 203.971 836.037 203.971C832.155 203.971 829.428 200.961 829.428 196.096C829.428 191.231 832.38 188.222 836.008 188.222C837.893 188.222 839.299 188.953 840.199 190.078H840.255V188.643H842.533V203.774C842.533 208.105 840.171 210.298 836.515 210.298C833.337 210.298 831.396 208.555 830.609 206.249ZM840.227 198.655V193.931C840.227 192.243 838.849 190.303 836.374 190.303C833.421 190.303 831.79 192.468 831.79 196.096C831.79 199.724 833.393 201.889 836.374 201.889C838.624 201.889 840.227 200.343 840.227 198.655ZM865.735 203.549V183.019H868.041V190.134H868.097C868.913 189.037 870.628 188.222 872.456 188.222C875.522 188.222 877.8 190.106 877.8 193.818V203.549H875.494V194.437C875.494 191.934 874.453 190.331 872.034 190.331C869.588 190.331 868.041 191.906 868.041 194.184V203.549H865.735ZM906.036 185.634V183.019H908.679V185.634H906.036ZM901.17 190.612V188.643H908.482V201.58H913.404V203.549H901.03V201.58H906.204V190.612H901.17ZM942.877 185.634V183.019H945.493V185.634H942.877ZM937.646 190.696V188.643H945.661V204.196C945.661 207.57 943.412 209.033 940.909 209.033C938.602 209.033 937.084 207.655 936.662 207.064L938.124 205.433C938.574 205.967 939.474 206.952 940.909 206.952C942.343 206.952 943.355 206.192 943.355 204.196V190.696H937.646ZM971.901 203.549V183.019H974.207V195.477H974.263L980.534 188.643H983.6L978.144 194.549L984.275 203.549H981.491L976.428 195.984H976.372L974.207 198.374V203.549H971.901ZM1006.83 185.072V183.019H1013.97V201.496H1019.06V203.549H1006.69V201.496H1011.67V185.072H1006.83ZM1041 203.549V188.643H1043.08V190.078H1043.14C1043.5 189.009 1044.43 188.222 1045.53 188.222C1047.16 188.222 1047.89 189.318 1048.2 190.415H1048.26C1048.62 189.375 1049.58 188.222 1051.21 188.222C1053.8 188.222 1054.58 190.218 1054.58 193.396V203.549H1052.45V194.099C1052.45 191.624 1052.16 190.331 1050.79 190.331C1049.38 190.331 1048.85 191.653 1048.85 193.902V203.549H1046.79V194.099C1046.79 191.624 1046.48 190.331 1045.08 190.331C1043.64 190.331 1043.14 191.99 1043.14 193.902V203.549H1041ZM1076.55 203.549V188.643H1078.74V190.078H1078.8C1079.59 189.037 1081.24 188.222 1082.99 188.222C1086.19 188.222 1088.33 190.303 1088.33 193.762V203.549H1086.03V194.493C1086.03 191.793 1084.98 190.331 1082.65 190.331C1080.37 190.331 1078.85 191.681 1078.85 194.043V203.549H1076.55ZM625.449 229.889C627.868 229.889 629.808 227.865 629.808 224.096C629.808 220.328 627.924 218.303 625.449 218.303C622.918 218.303 620.978 220.271 620.978 224.096C620.978 227.949 622.946 229.889 625.449 229.889ZM625.449 231.971C621.653 231.971 618.615 229.186 618.615 224.096C618.615 219.006 621.849 216.222 625.449 216.222C628.993 216.222 632.171 219.006 632.171 224.096C632.171 229.186 629.19 231.971 625.449 231.971ZM656.891 221.931V226.655C656.891 228.343 658.466 229.889 660.716 229.889C663.697 229.889 665.328 227.724 665.328 224.096C665.328 220.468 663.669 218.303 660.716 218.303C658.269 218.303 656.891 220.243 656.891 221.931ZM654.585 237.877V216.643H656.779V218.078H656.835C657.454 217.29 658.972 216.222 661.11 216.222C664.738 216.222 667.662 219.231 667.662 224.096C667.662 228.961 664.935 231.971 661.11 231.971C659.085 231.971 657.482 230.874 656.947 230.114H656.891V237.877H654.585ZM699.358 226.655V221.931C699.358 220.243 697.979 218.303 695.505 218.303C692.552 218.303 690.921 220.468 690.921 224.096C690.921 227.724 692.524 229.889 695.505 229.889C697.754 229.889 699.358 228.343 699.358 226.655ZM699.358 237.877V230.114H699.301C698.823 230.733 697.53 231.971 695.111 231.971C691.286 231.971 688.558 228.961 688.558 224.096C688.558 219.231 691.511 216.222 695.139 216.222C697.248 216.222 698.767 217.29 699.414 218.078H699.47V216.643H701.664V237.877H699.358ZM726.89 231.549V216.643H729.084V218.809H729.14C729.787 217.543 731.474 216.39 733.387 216.39C735.637 216.39 737.38 217.6 738.168 219.962L735.918 220.918C735.496 219.512 734.568 218.725 733.021 218.725C730.856 218.725 729.196 220.468 729.196 223.252V231.549H726.89ZM759.71 226.487L761.904 226.065C762.241 228.652 763.732 229.974 766.657 229.974C769.497 229.974 770.566 228.961 770.566 227.611C770.566 226.205 770.144 225.671 765.813 224.574C761.032 223.365 760.188 222.184 760.245 220.187C760.301 218.275 762.157 216.222 765.841 216.222C769.525 216.222 771.438 218.078 772.085 220.384L770.032 221.059C769.441 219.343 768.232 218.19 765.869 218.19C763.507 218.19 762.495 219.287 762.495 220.131C762.495 221.256 762.551 221.706 767.191 222.887C772.366 224.209 772.619 225.446 772.703 227.611C772.788 229.777 771.185 231.971 766.685 231.971C762.045 231.971 760.048 229.44 759.71 226.487ZM799.449 227.218V218.696H794.696V216.643H799.477V212.987H801.727V216.643H807.098V218.696H801.755V226.937C801.755 228.596 802.064 229.327 803.583 229.327H806.114V231.549H803.47C800.574 231.549 799.449 230.002 799.449 227.218ZM830.553 226.346V216.643H832.859V226.008C832.859 228.793 833.844 229.833 836.318 229.833C838.568 229.833 839.806 228.371 839.806 225.896V216.643H842.112V231.549H839.834V230.114H839.778C839.778 230.114 838.512 231.971 835.812 231.971C832.606 231.971 830.553 230.199 830.553 226.346ZM870.488 231.549L864.47 216.643H866.889L871.445 228.315H871.501L876.057 216.643H878.475L872.457 231.549H870.488ZM902.043 231.549L899.596 216.671H901.874L903.421 227.893H903.477L905.474 221.452H907.555L909.495 227.893H909.552L911.38 216.671H913.63L910.902 231.549H908.792L906.514 224.18H906.458L904.18 231.549H902.043ZM935.228 231.549L940.262 223.899L935.538 216.643H938.125L941.753 222.381H941.809L945.437 216.643H947.996L943.3 223.899L948.334 231.549H945.718L941.781 225.418H941.725L937.844 231.549H935.228ZM972.745 237.877L975.557 230.424L969.764 216.643H972.239L976.654 227.471H976.71L980.676 216.643H983.094L975.079 237.877H972.745ZM1005.9 231.549V229.749L1015.27 218.809V218.753H1006.44V216.643H1018.3V218.387L1009.02 229.355V229.411H1018.33V231.549H1005.9Z" fill="white"/>
<path d="M630.961 290.63C630.961 292.262 630.84 293.715 630.596 294.99C630.352 296.265 629.958 297.352 629.415 298.252C628.89 299.133 628.196 299.808 627.334 300.277C626.49 300.746 625.468 300.98 624.268 300.98C622.768 300.98 621.521 300.567 620.528 299.742C619.553 298.918 618.822 297.736 618.334 296.199C617.865 294.643 617.631 292.787 617.631 290.63C617.631 288.456 617.847 286.599 618.278 285.062C618.728 283.525 619.44 282.353 620.415 281.547C621.39 280.722 622.674 280.309 624.268 280.309C625.768 280.309 627.015 280.722 628.009 281.547C629.002 282.353 629.743 283.525 630.23 285.062C630.718 286.599 630.961 288.456 630.961 290.63ZM620.106 290.63C620.106 292.468 620.237 293.996 620.5 295.215C620.781 296.433 621.221 297.352 621.821 297.971C622.44 298.571 623.256 298.871 624.268 298.871C625.281 298.871 626.087 298.571 626.687 297.971C627.305 297.371 627.755 296.461 628.037 295.243C628.318 294.005 628.458 292.468 628.458 290.63C628.458 288.793 628.318 287.274 628.037 286.075C627.755 284.856 627.305 283.947 626.687 283.347C626.087 282.728 625.281 282.418 624.268 282.418C623.256 282.418 622.44 282.728 621.821 283.347C621.221 283.947 620.781 284.856 620.5 286.075C620.237 287.274 620.106 288.793 620.106 290.63ZM659.194 300.699H656.775V286.665C656.775 286.121 656.775 285.662 656.775 285.287C656.794 284.912 656.813 284.565 656.831 284.246C656.85 283.909 656.869 283.562 656.888 283.206C656.588 283.506 656.316 283.759 656.072 283.965C655.828 284.171 655.519 284.434 655.144 284.753L653.007 286.496L651.713 284.837L657.141 280.619H659.194V300.699ZM696.791 300.699H683.517V298.646L688.776 293.33C689.789 292.318 690.642 291.418 691.335 290.63C692.029 289.843 692.554 289.074 692.91 288.324C693.266 287.556 693.445 286.721 693.445 285.821C693.445 284.715 693.116 283.881 692.46 283.318C691.804 282.737 690.951 282.447 689.901 282.447C688.926 282.447 688.064 282.615 687.314 282.953C686.582 283.29 685.833 283.759 685.064 284.359L683.742 282.7C684.267 282.25 684.839 281.847 685.458 281.49C686.095 281.134 686.779 280.853 687.511 280.647C688.261 280.44 689.057 280.337 689.901 280.337C691.157 280.337 692.235 280.553 693.135 280.984C694.035 281.415 694.729 282.034 695.216 282.84C695.723 283.628 695.976 284.575 695.976 285.681C695.976 286.468 695.854 287.218 695.61 287.931C695.366 288.624 695.02 289.309 694.57 289.984C694.12 290.659 693.576 291.343 692.938 292.037C692.301 292.73 691.598 293.452 690.829 294.202L686.639 298.336V298.449H696.791V300.699ZM728.989 285.315C728.989 286.215 728.82 286.993 728.483 287.649C728.145 288.306 727.658 288.84 727.02 289.252C726.402 289.665 725.67 289.956 724.827 290.124V290.237C726.439 290.424 727.639 290.93 728.427 291.755C729.214 292.58 729.608 293.658 729.608 294.99C729.608 296.152 729.336 297.193 728.792 298.111C728.248 299.011 727.405 299.714 726.261 300.221C725.136 300.727 723.683 300.98 721.902 300.98C720.852 300.98 719.877 300.896 718.977 300.727C718.077 300.577 717.215 300.296 716.39 299.883V297.577C717.233 297.989 718.143 298.318 719.118 298.561C720.093 298.786 721.03 298.899 721.93 298.899C723.73 298.899 725.024 298.552 725.811 297.858C726.617 297.146 727.02 296.171 727.02 294.933C727.02 294.09 726.795 293.415 726.345 292.908C725.914 292.384 725.277 291.999 724.433 291.755C723.589 291.512 722.577 291.39 721.396 291.39H719.455V289.281H721.424C722.53 289.281 723.449 289.121 724.18 288.802C724.93 288.484 725.492 288.043 725.867 287.481C726.261 286.899 726.458 286.234 726.458 285.484C726.458 284.509 726.13 283.759 725.474 283.234C724.817 282.69 723.927 282.418 722.802 282.418C722.089 282.418 721.443 282.493 720.861 282.643C720.28 282.775 719.736 282.972 719.23 283.234C718.743 283.478 718.246 283.768 717.74 284.106L716.502 282.418C716.99 282.043 717.543 281.697 718.162 281.378C718.799 281.059 719.502 280.806 720.271 280.619C721.039 280.431 721.874 280.337 722.774 280.337C724.874 280.337 726.43 280.806 727.442 281.744C728.473 282.681 728.989 283.872 728.989 285.315ZM763.605 296.143H760.681V300.699H758.29V296.143H748.672V294.033L758.121 280.506H760.681V293.921H763.605V296.143ZM758.29 287.593C758.29 287.106 758.29 286.665 758.29 286.271C758.309 285.859 758.328 285.475 758.346 285.118C758.365 284.762 758.374 284.425 758.374 284.106C758.393 283.768 758.412 283.45 758.431 283.15H758.318C758.168 283.506 757.981 283.89 757.756 284.303C757.531 284.715 757.315 285.062 757.109 285.343L751.091 293.921H758.29V287.593ZM623.987 318.381C625.356 318.381 626.546 318.615 627.559 319.084C628.571 319.552 629.349 320.227 629.893 321.109C630.455 321.971 630.736 323.03 630.736 324.287C630.736 325.674 630.436 326.874 629.837 327.886C629.237 328.88 628.374 329.649 627.249 330.192C626.143 330.717 624.802 330.98 623.228 330.98C622.196 330.98 621.221 330.886 620.303 330.699C619.403 330.511 618.643 330.239 618.025 329.883V327.549C618.7 327.961 619.515 328.289 620.471 328.533C621.446 328.758 622.374 328.871 623.256 328.871C624.249 328.871 625.112 328.721 625.843 328.421C626.593 328.102 627.174 327.624 627.587 326.986C627.999 326.33 628.205 325.515 628.205 324.54C628.205 323.227 627.802 322.224 626.996 321.53C626.19 320.818 624.915 320.462 623.171 320.462C622.646 320.462 622.046 320.509 621.371 320.602C620.696 320.696 620.153 320.79 619.74 320.884L618.503 320.096L619.262 310.619H629.33V312.868H621.371L620.893 318.69C621.212 318.634 621.643 318.568 622.187 318.493C622.731 318.418 623.331 318.381 623.987 318.381ZM650.757 322.121C650.757 320.959 650.832 319.815 650.982 318.69C651.151 317.565 651.432 316.506 651.825 315.512C652.219 314.5 652.763 313.609 653.457 312.84C654.15 312.053 655.022 311.444 656.072 311.012C657.141 310.562 658.434 310.337 659.953 310.337C660.347 310.337 660.778 310.356 661.247 310.394C661.734 310.431 662.128 310.497 662.428 310.59V312.7C662.091 312.587 661.706 312.503 661.275 312.447C660.862 312.39 660.441 312.362 660.009 312.362C658.716 312.362 657.638 312.578 656.775 313.009C655.913 313.44 655.228 314.031 654.722 314.781C654.235 315.531 653.879 316.393 653.654 317.368C653.429 318.343 653.288 319.384 653.232 320.49H653.4C653.682 320.04 654.038 319.637 654.469 319.281C654.9 318.924 655.416 318.643 656.016 318.437C656.635 318.231 657.347 318.128 658.153 318.128C659.316 318.128 660.328 318.371 661.191 318.859C662.072 319.327 662.756 320.021 663.244 320.94C663.731 321.84 663.975 322.937 663.975 324.23C663.975 325.618 663.712 326.818 663.187 327.83C662.662 328.843 661.922 329.621 660.966 330.164C660.028 330.708 658.903 330.98 657.591 330.98C656.635 330.98 655.744 330.802 654.919 330.446C654.094 330.089 653.363 329.546 652.725 328.814C652.107 328.083 651.619 327.164 651.263 326.058C650.926 324.933 650.757 323.621 650.757 322.121ZM657.563 328.899C658.744 328.899 659.7 328.524 660.431 327.774C661.162 327.005 661.528 325.824 661.528 324.23C661.528 322.955 661.2 321.943 660.544 321.193C659.906 320.443 658.941 320.068 657.647 320.068C656.766 320.068 655.997 320.256 655.341 320.63C654.685 320.987 654.169 321.446 653.794 322.009C653.438 322.571 653.26 323.152 653.26 323.752C653.26 324.371 653.344 324.98 653.513 325.58C653.7 326.18 653.972 326.733 654.328 327.239C654.703 327.746 655.153 328.149 655.678 328.449C656.222 328.749 656.85 328.899 657.563 328.899ZM685.992 330.699L694.232 312.868H683.405V310.619H696.876V312.531L688.72 330.699H685.992ZM723.139 310.337C724.321 310.337 725.361 310.525 726.261 310.9C727.161 311.256 727.864 311.79 728.37 312.503C728.895 313.215 729.158 314.096 729.158 315.146C729.158 315.953 728.98 316.656 728.623 317.256C728.286 317.856 727.827 318.39 727.245 318.859C726.664 319.309 726.027 319.712 725.333 320.068C726.158 320.462 726.908 320.912 727.583 321.418C728.258 321.905 728.792 322.477 729.186 323.133C729.598 323.79 729.805 324.577 729.805 325.496C729.805 326.621 729.533 327.596 728.989 328.421C728.445 329.227 727.677 329.855 726.683 330.305C725.708 330.755 724.555 330.98 723.224 330.98C721.78 330.98 720.552 330.764 719.54 330.333C718.546 329.902 717.787 329.293 717.262 328.505C716.755 327.699 716.502 326.724 716.502 325.58C716.502 324.662 716.69 323.865 717.065 323.19C717.458 322.515 717.974 321.934 718.611 321.446C719.249 320.959 719.933 320.546 720.665 320.209C720.008 319.834 719.408 319.412 718.865 318.943C718.34 318.456 717.918 317.903 717.599 317.284C717.299 316.665 717.149 315.943 717.149 315.118C717.149 314.087 717.412 313.225 717.937 312.531C718.462 311.819 719.174 311.275 720.074 310.9C720.974 310.525 721.996 310.337 723.139 310.337ZM718.921 325.608C718.921 326.583 719.268 327.399 719.961 328.055C720.655 328.693 721.724 329.011 723.167 329.011C724.086 329.011 724.855 328.861 725.474 328.561C726.092 328.261 726.561 327.849 726.88 327.324C727.217 326.799 727.386 326.199 727.386 325.524C727.386 324.868 727.208 324.296 726.852 323.808C726.514 323.302 726.027 322.852 725.389 322.459C724.771 322.065 724.03 321.709 723.167 321.39L722.718 321.221C721.893 321.577 721.199 321.962 720.636 322.374C720.074 322.787 719.643 323.255 719.343 323.78C719.061 324.305 718.921 324.915 718.921 325.608ZM723.111 312.334C722.08 312.334 721.227 312.587 720.552 313.093C719.896 313.581 719.568 314.293 719.568 315.231C719.568 315.925 719.727 316.506 720.046 316.974C720.383 317.443 720.833 317.846 721.396 318.184C721.958 318.502 722.577 318.812 723.252 319.112C723.908 318.831 724.489 318.521 724.996 318.184C725.52 317.846 725.933 317.443 726.233 316.974C726.552 316.487 726.711 315.906 726.711 315.231C726.711 314.293 726.383 313.581 725.727 313.093C725.071 312.587 724.199 312.334 723.111 312.334ZM762.705 319.196C762.705 320.34 762.621 321.484 762.452 322.627C762.302 323.752 762.03 324.821 761.637 325.833C761.243 326.827 760.699 327.718 760.006 328.505C759.312 329.274 758.431 329.883 757.362 330.333C756.293 330.764 755 330.98 753.481 330.98C753.106 330.98 752.665 330.952 752.159 330.896C751.672 330.858 751.269 330.792 750.95 330.699V328.589C751.287 328.702 751.681 328.796 752.131 328.871C752.581 328.927 753.012 328.955 753.425 328.955C754.737 328.955 755.815 328.739 756.659 328.308C757.521 327.877 758.206 327.296 758.712 326.565C759.218 325.815 759.584 324.952 759.809 323.977C760.034 322.983 760.165 321.943 760.202 320.855H760.034C759.753 321.287 759.396 321.68 758.965 322.037C758.534 322.393 758.009 322.674 757.39 322.88C756.79 323.087 756.078 323.19 755.253 323.19C754.109 323.19 753.097 322.955 752.215 322.487C751.353 321.999 750.678 321.305 750.191 320.406C749.722 319.506 749.487 318.409 749.487 317.115C749.487 315.709 749.75 314.5 750.275 313.487C750.819 312.475 751.569 311.697 752.525 311.153C753.481 310.609 754.606 310.337 755.9 310.337C756.856 310.337 757.746 310.525 758.571 310.9C759.396 311.256 760.118 311.8 760.737 312.531C761.356 313.262 761.834 314.181 762.171 315.287C762.527 316.393 762.705 317.696 762.705 319.196ZM755.9 312.418C754.737 312.418 753.781 312.803 753.031 313.572C752.3 314.34 751.934 315.512 751.934 317.087C751.934 318.381 752.244 319.402 752.862 320.152C753.5 320.884 754.475 321.249 755.787 321.249C756.687 321.249 757.465 321.071 758.121 320.715C758.778 320.34 759.284 319.871 759.64 319.309C760.015 318.746 760.202 318.165 760.202 317.565C760.202 316.965 760.109 316.365 759.921 315.765C759.753 315.146 759.49 314.584 759.134 314.078C758.778 313.572 758.328 313.168 757.784 312.868C757.24 312.568 756.612 312.418 755.9 312.418Z" fill="white"/>
<path d="M713.684 28.2924L714.715 28.0932C714.926 29.5931 715.407 30.3782 716.907 30.3782C718.078 30.3782 718.582 29.6868 718.582 28.9603C718.582 28.14 718.336 27.7885 716.52 27.1206C714.891 26.5229 714.059 26.0073 714.059 24.8355C714.059 23.652 715.043 22.738 716.543 22.738C717.867 22.738 719.074 23.4645 719.274 24.9996L718.301 25.2105C718.137 24.3082 717.68 23.6637 716.543 23.6637C715.535 23.6637 715.067 24.2028 715.067 24.8355C715.067 25.3746 715.278 25.7027 716.965 26.3237C718.922 27.0503 719.578 27.5424 719.578 28.9134C719.578 30.1907 718.617 31.2922 716.871 31.2922C714.961 31.2922 713.918 30.2376 713.684 28.2924ZM726.18 29.1947L726.965 29.7103C726.555 30.5188 725.723 31.2922 724.364 31.2922C722.7 31.2922 721.458 30.0266 721.458 28.0111C721.458 25.9956 722.676 24.7301 724.317 24.7301C725.946 24.7301 727.129 25.937 727.129 28.0111V28.2924H722.442C722.454 29.3939 723.051 30.4251 724.34 30.4251C725.594 30.4251 725.957 29.6048 726.18 29.1947ZM722.465 27.5307H726.157C726.133 26.6284 725.664 25.5972 724.317 25.5972C722.981 25.5972 722.477 26.769 722.465 27.5307ZM733.93 28.7377L734.856 28.9251C734.657 30.3665 733.637 31.2922 732.266 31.2922C730.638 31.2922 729.419 30.097 729.419 28.0111C729.419 25.937 730.708 24.7301 732.266 24.7301C733.614 24.7301 734.61 25.6675 734.809 27.0034L733.907 27.1909C733.743 26.3706 733.274 25.5972 732.266 25.5972C731.177 25.5972 730.391 26.4526 730.391 28.0111C730.391 29.5228 731.118 30.4251 732.278 30.4251C733.274 30.4251 733.813 29.5579 733.93 28.7377ZM739.56 30.4251C740.567 30.4251 741.376 29.5814 741.376 28.0111C741.376 26.4409 740.591 25.5972 739.56 25.5972C738.505 25.5972 737.696 26.4175 737.696 28.0111C737.696 29.6165 738.517 30.4251 739.56 30.4251ZM739.56 31.2922C737.978 31.2922 736.712 30.1321 736.712 28.0111C736.712 25.8902 738.06 24.7301 739.56 24.7301C741.036 24.7301 742.36 25.8902 742.36 28.0111C742.36 30.1321 741.118 31.2922 739.56 31.2922ZM744.708 31.1164V24.9058H745.622V25.5035H745.646C745.974 25.0699 746.665 24.7301 747.392 24.7301C748.728 24.7301 749.618 25.5972 749.618 27.0385V31.1164H748.657V27.3432C748.657 26.2183 748.224 25.6089 747.251 25.6089C746.302 25.6089 745.669 26.1714 745.669 27.1557V31.1164H744.708ZM756.396 29.054V27.1323C756.396 26.4175 755.833 25.5972 754.802 25.5972C753.56 25.5972 752.916 26.4995 752.916 28.0111C752.916 29.5228 753.56 30.4251 754.802 30.4251C755.74 30.4251 756.396 29.7688 756.396 29.054ZM756.49 31.1164V30.5188H756.466C756.208 30.8235 755.576 31.2922 754.65 31.2922C753.009 31.2922 751.931 30.0032 751.931 28.0111C751.931 25.9839 753.15 24.7301 754.65 24.7301C755.494 24.7301 756.056 25.1285 756.372 25.5035H756.396V22.5622H757.357V31.1164H756.49ZM763.982 31.1164V30.4368H763.959C763.783 30.7414 763.174 31.2922 762.06 31.2922C760.607 31.2922 759.939 30.4719 759.939 29.5228C759.939 28.4916 760.537 27.9643 762.049 27.5776C763.162 27.2963 763.83 27.0971 763.83 26.4878C763.83 25.9956 763.349 25.5855 762.529 25.5855C761.556 25.5855 761.17 26.1245 761.017 26.8159L760.127 26.5581C760.314 25.5152 761.146 24.7301 762.494 24.7301C763.853 24.7301 764.849 25.4683 764.849 26.687V31.1164H763.982ZM762.271 28.3158C761.158 28.6205 760.9 28.9486 760.9 29.4642C760.9 30.0266 761.205 30.4368 762.131 30.4368C763.314 30.4368 763.888 29.8157 763.888 29.1244V27.5776H763.865C763.783 27.7533 763.548 27.9643 762.271 28.3158ZM768.369 31.1164V24.9058H769.283V25.8081H769.307C769.576 25.2808 770.279 24.8004 771.076 24.8004C772.014 24.8004 772.74 25.3043 773.068 26.2886L772.131 26.687C771.955 26.1011 771.568 25.773 770.924 25.773C770.021 25.773 769.33 26.4995 769.33 27.6596V31.1164H768.369ZM775.897 33.753L777.069 30.6477L774.655 24.9058H775.686L777.526 29.4173H777.549L779.201 24.9058H780.209L776.869 33.753H775.897ZM791.576 29.3118V25.7613H789.595V24.9058H791.587V23.3825H792.525V24.9058H794.763V25.7613H792.536V29.1947C792.536 29.886 792.665 30.1907 793.298 30.1907H794.353V31.1164H793.251C792.044 31.1164 791.576 30.4719 791.576 29.3118ZM798.166 33.753L799.338 30.6477L796.924 24.9058H797.955L799.795 29.4173H799.818L801.47 24.9058H802.478L799.138 33.753H798.166ZM806.01 27.1088V29.0775C806.01 29.7806 806.666 30.4251 807.603 30.4251C808.845 30.4251 809.525 29.5228 809.525 28.0111C809.525 26.4995 808.834 25.5972 807.603 25.5972C806.584 25.5972 806.01 26.4058 806.01 27.1088ZM805.049 33.753V24.9058H805.963V25.5035H805.986C806.244 25.1754 806.877 24.7301 807.767 24.7301C809.279 24.7301 810.498 25.9839 810.498 28.0111C810.498 30.0384 809.361 31.2922 807.767 31.2922C806.924 31.2922 806.256 30.8352 806.033 30.5188H806.01V33.753H805.049ZM817.041 29.1947L817.826 29.7103C817.416 30.5188 816.584 31.2922 815.225 31.2922C813.561 31.2922 812.319 30.0266 812.319 28.0111C812.319 25.9956 813.537 24.7301 815.178 24.7301C816.807 24.7301 817.99 25.937 817.99 28.0111V28.2924H813.303C813.315 29.3939 813.912 30.4251 815.201 30.4251C816.455 30.4251 816.818 29.6048 817.041 29.1947ZM813.326 27.5307H817.018C816.994 26.6284 816.525 25.5972 815.178 25.5972C813.842 25.5972 813.338 26.769 813.326 27.5307Z" fill="#6D6D6D"/>
</svg>
