<svg width="1240" height="426" viewBox="0 0 1240 426" fill="none" xmlns="http://www.w3.org/2000/svg">
<rect y="0.252258" width="1239.48" height="425.351" fill="black"/>
<circle cx="298.206" cy="217.689" r="66.5656" stroke="#64D45E"/>
<circle cx="298.206" cy="217.689" r="40.6313" stroke="#64D45E"/>
<path d="M345.123 264.812C331.974 255.772 316.046 250.481 298.884 250.481C281.369 250.481 265.142 255.991 251.84 265.372" stroke="#64D45E"/>
<path d="M329.41 217.662C296.584 217.662 299.27 209.338 298.174 185.316C297.077 209.338 299.842 217.662 267.017 217.662C299.842 217.662 297.235 226.066 298.332 250.087C299.429 226.066 296.584 217.662 329.41 217.662Z" fill="white" stroke="#64D45E"/>
<path d="M267.352 217.7H231.724" stroke="#64D45E"/>
<path d="M364.952 217.7H329.324" stroke="#64D45E"/>
<path d="M329.233 141.642C329.038 141.447 328.722 141.447 328.526 141.642L325.344 144.824C325.149 145.02 325.149 145.336 325.344 145.532C325.54 145.727 325.856 145.727 326.051 145.532L328.88 142.703L331.708 145.532C331.904 145.727 332.22 145.727 332.415 145.532C332.611 145.336 332.611 145.02 332.415 144.824L329.233 141.642ZM328.38 141.996V177.624H329.38V141.996H328.38Z" fill="#64D45E"/>
<path d="M339.523 141.642C339.327 141.447 339.011 141.447 338.816 141.642L335.634 144.824C335.438 145.02 335.438 145.336 335.634 145.532C335.829 145.727 336.146 145.727 336.341 145.532L339.169 142.703L341.998 145.532C342.193 145.727 342.509 145.727 342.705 145.532C342.9 145.336 342.9 145.02 342.705 144.824L339.523 141.642ZM338.669 141.996V177.624H339.669V141.996H338.669Z" fill="#64D45E"/>
<ellipse cx="500.436" cy="213.125" rx="71.4828" ry="18.5669" transform="rotate(-90 500.436 213.125)" stroke="#64D45E" stroke-width="0.830734"/>
<ellipse cx="500.435" cy="213.125" rx="71.4828" ry="18.5669" stroke="#64D45E" stroke-width="0.830734"/>
<path d="M495.664 174.216C519.818 198.37 511.716 202.519 494.847 221.002C513.33 204.133 517.42 195.973 541.574 220.127C517.42 195.973 525.522 191.708 542.391 173.225C523.908 190.093 519.818 198.37 495.664 174.216Z" fill="white" stroke="#64D45E" stroke-width="0.830734"/>
<path d="M471.178 221.478C483.436 233.736 479.325 235.842 470.764 245.222C480.144 236.661 482.22 232.52 494.478 244.778C482.22 232.52 486.332 230.355 494.893 220.974C485.512 229.536 483.436 233.736 471.178 221.478Z" fill="white" stroke="#64D45E" stroke-width="0.830734"/>
<path d="M697.362 279.909C666.563 273.265 643.482 245.869 643.482 213.082C643.482 180.295 666.563 152.899 697.362 146.255" stroke="#64D45E" stroke-width="0.830734"/>
<path d="M694.589 150.609L697.479 146.39L693.106 143.546" stroke="#64D45E" stroke-width="0.830734"/>
<path d="M694.589 275.642L697.479 279.86L693.106 282.704" stroke="#64D45E" stroke-width="0.830734"/>
<path d="M725.991 146.255C756.791 152.899 779.871 180.295 779.871 213.082C779.871 245.869 756.791 273.265 725.991 279.909" stroke="#64D45E" stroke-width="0.830734"/>
<path d="M728.343 150.508L725.453 146.29L729.826 143.445" stroke="#64D45E" stroke-width="0.830734"/>
<path d="M728.343 275.741L725.453 279.96L729.826 282.804" stroke="#64D45E" stroke-width="0.830734"/>
<path d="M677.804 205.868C681.172 190.257 695.058 178.558 711.677 178.558C728.296 178.558 742.183 190.257 745.55 205.868" stroke="#64D45E" stroke-width="0.830734"/>
<path d="M745.55 220.38C742.182 235.992 728.296 247.691 711.677 247.691C695.058 247.691 681.171 235.992 677.804 220.38" stroke="#64D45E" stroke-width="0.830734"/>
<path d="M713.359 212.345C676.196 212.345 679.237 202.921 677.995 175.724C676.753 202.921 679.884 212.345 642.721 212.345C679.884 212.345 676.933 221.859 678.175 249.055C679.417 221.859 676.196 212.345 713.359 212.345Z" fill="white" stroke="#64D45E" stroke-width="0.830734"/>
<path d="M779.932 212.345C742.769 212.345 745.81 202.921 744.568 175.724C743.326 202.921 746.457 212.345 709.293 212.345C746.457 212.345 743.506 221.859 744.747 249.055C745.989 221.859 742.769 212.345 779.932 212.345Z" fill="white" stroke="#64D45E" stroke-width="0.830734"/>
<path d="M932.363 168.343C954.829 153.248 975.718 148.17 984.877 157.329C997.557 170.009 982.945 205.182 952.238 235.888C921.532 266.595 886.359 281.207 873.678 268.527C860.998 255.846 875.61 220.674 906.317 189.967C909.488 186.796 912.707 183.796 915.944 180.98" stroke="#64D45E" stroke-width="0.830734"/>
<path d="M971.632 180.164C971.827 180.359 972.144 180.359 972.339 180.164L975.521 176.982C975.716 176.787 975.716 176.47 975.521 176.275C975.326 176.08 975.009 176.08 974.814 176.275L971.985 179.103L969.157 176.275C968.962 176.08 968.645 176.08 968.45 176.275C968.255 176.47 968.255 176.787 968.45 176.982L971.632 180.164ZM972.485 179.81L972.485 142.001L971.485 142.001L971.485 179.81L972.485 179.81Z" fill="#64D45E"/>
<path d="M960.712 180.164C960.907 180.359 961.224 180.359 961.419 180.164L964.601 176.982C964.796 176.787 964.796 176.47 964.601 176.275C964.406 176.08 964.089 176.08 963.894 176.275L961.065 179.103L958.237 176.275C958.042 176.08 957.725 176.08 957.53 176.275C957.335 176.47 957.335 176.787 957.53 176.982L960.712 180.164ZM961.565 179.81L961.565 142.001L960.565 142.001L960.565 179.81L961.565 179.81Z" fill="#64D45E"/>
<path d="M935.148 284.387C935.148 249.827 943.912 252.656 969.203 251.501C943.912 250.346 935.148 253.257 935.148 218.698C935.148 253.257 926.301 250.513 901.01 251.668C926.301 252.822 935.148 249.827 935.148 284.387Z" fill="white" stroke="#64D45E" stroke-width="0.830734"/>
<path d="M915.238 186.082L916.111 180.986L910.892 180.221" stroke="#64D45E" stroke-width="0.830734"/>
</svg>
