<svg width="1240" height="426" viewBox="0 0 1240 426" fill="none" xmlns="http://www.w3.org/2000/svg">
<rect y="0.603699" width="1239.48" height="425.351" fill="black"/>
<rect width="222.943" height="95.7991" transform="translate(508.268 165.38)" fill="black"/>
<rect x="614.778" y="192.322" width="96.4217" height="2.65788" fill="#64D45E"/>
<rect x="528.226" y="192.322" width="62.2416" height="2.65788" fill="#64D45E"/>
<rect x="528.226" y="185.664" width="182.929" height="2.65788" fill="#64D45E"/>
<path d="M658.161 211.531H644.303V207.582H664.084V211.531L650.265 223.415H664.084V227.363H644.303V223.415L658.161 211.531Z" fill="white"/>
<path d="M546.037 227.358H537.134H528.23V199.642H546.037V211.526H549.985V223.371L546.037 227.358ZM546.037 215.474H532.179V223.371H546.037V215.474ZM532.179 203.59V211.526H542.089V203.59H532.179Z" fill="white"/>
<path d="M578.917 199.68H582.865V207.577H596.43V211.525H582.865V227.358H578.917V199.68Z" fill="white"/>
<path d="M554.569 223.409H562.466V211.525H556.543V207.577H566.461L566.453 211.525V223.409H574.35V227.358H554.569V223.409ZM566.453 203.629H562.466V199.68H566.453V203.629Z" fill="white"/>
<path d="M668.644 227.363V207.582H688.463V211.531H672.631V215.479H681.85V219.466H672.631V223.415H688.463V227.363H668.644Z" fill="white"/>
<path d="M693.04 211.529L696.964 207.586V227.373H693.013L693.04 211.529Z" fill="white"/>
<path d="M693.04 211.529L696.964 207.586L711.204 207.586V211.529L693.04 211.529Z" fill="white"/>
<path d="M606.052 195.641V194.116H604.528H598.048V193.17H606.912V223.399V224.924H608.437H614.006V225.857H607.874L606.052 224.139V195.641Z" fill="white" stroke="white" stroke-width="3.04913"/>
<mask id="path-12-inside-1_1621_2447" fill="white">
<path d="M635.54 207.551H620.099V211.528H635.54V215.566H620.099V219.757L620.099 227.331H624.455V219.757H635.54V227.331H639.731V211.528L635.54 207.551Z"/>
</mask>
<path d="M620.099 207.551V201.986H614.533V207.551H620.099ZM635.54 207.551L639.371 203.514L637.761 201.986H635.54V207.551ZM639.731 211.528H645.296V209.137L643.562 207.491L639.731 211.528ZM639.731 227.331V232.896H645.296V227.331H639.731ZM635.54 227.331H629.975V232.896H635.54V227.331ZM635.54 219.757H641.106V214.192H635.54V219.757ZM624.455 219.757V214.192H618.89V219.757H624.455ZM624.455 227.331V232.896H630.02V227.331H624.455ZM620.099 219.757L625.664 219.757V219.757H620.099ZM620.099 215.566V210H614.533V215.566H620.099ZM635.54 215.566V221.131H641.106V215.566H635.54ZM635.54 211.528H641.106V205.962H635.54V211.528ZM620.099 211.528H614.533V217.093H620.099V211.528ZM620.099 227.331L614.533 227.331L614.533 232.896H620.099V227.331ZM620.099 213.116H635.54V201.986H620.099V213.116ZM631.71 211.588L635.9 215.565L643.562 207.491L639.371 203.514L631.71 211.588ZM634.166 211.528V227.331H645.296V211.528H634.166ZM639.731 221.765H635.54V232.896H639.731V221.765ZM641.106 227.331V219.757H629.975V227.331H641.106ZM635.54 214.192H624.455V225.322H635.54V214.192ZM618.89 219.757V227.331H630.02V219.757H618.89ZM625.664 219.757V215.566H614.533V219.757H625.664ZM620.099 221.131H635.54V210H620.099V221.131ZM641.106 215.566V211.528H629.975V215.566H641.106ZM635.54 205.962H620.099V217.093H635.54V205.962ZM625.664 211.528V207.551H614.533V211.528H625.664ZM624.455 221.765H620.099V232.896H624.455V221.765ZM625.664 227.331L625.664 219.757L614.533 219.757L614.533 227.331L625.664 227.331Z" fill="white" mask="url(#path-12-inside-1_1621_2447)"/>
<rect x="711.155" y="234.694" width="182.929" height="2.65788" transform="rotate(180 711.155 234.694)" fill="#64D45E"/>
<rect x="711.155" y="241.351" width="182.929" height="2.65788" transform="rotate(180 711.155 241.351)" fill="#64D45E"/>
</svg>
