<svg width="1240" height="75" viewBox="0 0 1240 75" fill="none" xmlns="http://www.w3.org/2000/svg">
<rect x="0.329545" y="0.438737" width="247.942" height="73.484" fill="black" stroke="black" stroke-width="0.65909"/>
<rect x="248.026" y="0.438737" width="247.942" height="73.484" fill="white" stroke="black" stroke-width="0.65909"/>
<rect x="495.819" y="0.438737" width="247.942" height="73.484" fill="#235021" stroke="black" stroke-width="0.65909"/>
<path d="M513.49 21.2159L514.483 21.0241C514.686 22.4682 515.148 23.2241 516.593 23.2241C517.721 23.2241 518.206 22.5584 518.206 21.8589C518.206 21.0692 517.969 20.7307 516.22 20.0876C514.652 19.5123 513.851 19.0158 513.851 17.8876C513.851 16.7481 514.799 15.8681 516.243 15.8681C517.518 15.8681 518.68 16.5676 518.872 18.0456L517.935 18.2486C517.777 17.3799 517.337 16.7594 516.243 16.7594C515.273 16.7594 514.821 17.2784 514.821 17.8876C514.821 18.4066 515.024 18.7225 516.649 19.3205C518.533 20.02 519.165 20.4938 519.165 21.8138C519.165 23.0436 518.24 24.1041 516.559 24.1041C514.72 24.1041 513.716 23.0887 513.49 21.2159ZM521.527 23.9349V16.0373H526.198V16.8948H522.498V19.4558H525.882V20.2907H522.498V23.0774H526.198V23.9349H521.527ZM531.28 16.7594C530.129 16.7594 529.26 17.7297 529.26 19.9184C529.26 22.1749 530.084 23.2241 531.28 23.2241C532.453 23.2241 532.961 22.2087 533.062 21.0015L534.044 21.1256C533.92 22.942 532.859 24.1041 531.28 24.1041C529.689 24.1041 528.245 22.942 528.245 19.9184C528.245 17.1994 529.677 15.8681 531.28 15.8681C532.78 15.8681 533.829 17.0189 534.021 18.621L533.073 18.7902C532.915 17.7184 532.408 16.7594 531.28 16.7594ZM538.38 23.2241C539.497 23.2241 540.355 22.22 540.355 19.9635C540.355 17.7748 539.509 16.7594 538.38 16.7594C537.252 16.7594 536.406 17.7297 536.406 19.9184C536.406 22.1749 537.252 23.2241 538.38 23.2241ZM538.38 24.1041C536.846 24.1041 535.391 22.942 535.391 19.9184C535.391 17.1994 536.88 15.8681 538.38 15.8681C539.881 15.8681 541.37 17.2445 541.37 19.9635C541.37 22.9872 539.881 24.1041 538.38 24.1041ZM543.191 23.9349V16.0373H544.173L547.32 22.3328H547.343V16.0373H548.245V23.9349H547.287L544.116 17.6394H544.094V23.9349H543.191ZM551.443 23.0774H552.492C554.072 23.0774 555.064 22.2087 555.064 19.9748C555.064 17.9553 554.083 16.8948 552.56 16.8948H551.443V23.0774ZM550.472 23.9349V16.0373H552.639C554.387 16.0373 556.08 17.2445 556.08 19.9748C556.08 22.9985 554.32 23.9349 552.571 23.9349H550.472ZM562.515 23.9349L561.985 22.3892H558.747L558.262 23.9349H557.28L559.898 16.0373H560.879L563.497 23.9349H562.515ZM561.714 21.5769L560.394 17.2897H560.371L559.006 21.5769H561.714ZM565.374 23.9349V16.0373H567.878C569.481 16.0373 570.541 16.8045 570.541 18.384C570.541 19.704 569.706 20.4374 568.578 20.6405L570.338 23.9349H569.289L567.574 20.7082H566.333V23.9349H565.374ZM566.333 19.8733H567.822C568.77 19.8733 569.582 19.501 569.582 18.384C569.582 17.2671 568.826 16.8948 567.799 16.8948H566.333V19.8733ZM574.596 23.9349V20.6066L571.99 16.0373H573.05L575.058 19.704H575.081L577.089 16.0373H578.15L575.543 20.6066V23.9349H574.596ZM589.409 16.7594C588.259 16.7594 587.39 17.7297 587.39 19.9184C587.39 22.1749 588.213 23.2241 589.409 23.2241C590.583 23.2241 591.09 22.2087 591.192 21.0015L592.173 21.1256C592.049 22.942 590.989 24.1041 589.409 24.1041C587.819 24.1041 586.374 22.942 586.374 19.9184C586.374 17.1994 587.807 15.8681 589.409 15.8681C590.91 15.8681 591.959 17.0189 592.151 18.621L591.203 18.7902C591.045 17.7184 590.538 16.7594 589.409 16.7594ZM596.51 23.2241C597.627 23.2241 598.485 22.22 598.485 19.9635C598.485 17.7748 597.638 16.7594 596.51 16.7594C595.382 16.7594 594.536 17.7297 594.536 19.9184C594.536 22.1749 595.382 23.2241 596.51 23.2241ZM596.51 24.1041C594.976 24.1041 593.52 22.942 593.52 19.9184C593.52 17.1994 595.01 15.8681 596.51 15.8681C598.011 15.8681 599.5 17.2445 599.5 19.9635C599.5 22.9872 598.011 24.1041 596.51 24.1041ZM602.054 23.9349V16.0373H603.024V23.0774H606.759V23.9349H602.054ZM611.186 23.2241C612.303 23.2241 613.16 22.22 613.16 19.9635C613.16 17.7748 612.314 16.7594 611.186 16.7594C610.058 16.7594 609.212 17.7297 609.212 19.9184C609.212 22.1749 610.058 23.2241 611.186 23.2241ZM611.186 24.1041C609.652 24.1041 608.196 22.942 608.196 19.9184C608.196 17.1994 609.685 15.8681 611.186 15.8681C612.686 15.8681 614.176 17.2445 614.176 19.9635C614.176 22.9872 612.686 24.1041 611.186 24.1041ZM616.166 23.9349V16.0373H618.67C620.272 16.0373 621.333 16.8045 621.333 18.384C621.333 19.704 620.498 20.4374 619.37 20.6405L621.13 23.9349H620.081L618.366 20.7082H617.125V23.9349H616.166ZM617.125 19.8733H618.614C619.562 19.8733 620.374 19.501 620.374 18.384C620.374 17.2671 619.618 16.8948 618.591 16.8948H617.125V19.8733Z" fill="white"/>
<rect x="743.477" y="0.438737" width="247.942" height="73.484" fill="#393A3A" stroke="black" stroke-width="0.65909"/>
<path d="M763.551 23.9349V16.8948H760.889V16.0373H767.15V16.8948H764.499V23.9349H763.551ZM769.185 23.9349V16.0373H773.856V16.8948H770.156V19.4558H773.54V20.2907H770.156V23.0774H773.856V23.9349H769.185ZM776.343 23.9349V16.0373H778.847C780.45 16.0373 781.51 16.8045 781.51 18.384C781.51 19.704 780.675 20.4374 779.547 20.6405L781.307 23.9349H780.258L778.543 20.7082H777.302V23.9349H776.343ZM777.302 19.8733H778.791C779.739 19.8733 780.551 19.501 780.551 18.384C780.551 17.2671 779.795 16.8948 778.768 16.8948H777.302V19.8733ZM785.565 23.9349V16.8948H782.902V16.0373H789.164V16.8948H786.512V23.9349H785.565ZM791.007 16.8835V16.0373H795.746V16.8835H793.85V23.0887H795.746V23.9349H791.007V23.0887H792.891V16.8835H791.007ZM802.835 23.9349L802.305 22.3892H799.067L798.582 23.9349H797.6L800.218 16.0373H801.199L803.817 23.9349H802.835ZM802.034 21.5769L800.714 17.2897H800.692L799.327 21.5769H802.034ZM805.694 23.9349V16.0373H808.199C809.801 16.0373 810.861 16.8045 810.861 18.384C810.861 19.704 810.027 20.4374 808.898 20.6405L810.658 23.9349H809.609L807.894 20.7082H806.653V23.9349H805.694ZM806.653 19.8733H808.142C809.09 19.8733 809.902 19.501 809.902 18.384C809.902 17.2671 809.147 16.8948 808.12 16.8948H806.653V19.8733ZM814.916 23.9349V20.6066L812.31 16.0373H813.37L815.379 19.704H815.401L817.41 16.0373H818.47L815.864 20.6066V23.9349H814.916ZM829.73 16.7594C828.579 16.7594 827.71 17.7297 827.71 19.9184C827.71 22.1749 828.534 23.2241 829.73 23.2241C830.903 23.2241 831.411 22.2087 831.512 21.0015L832.494 21.1256C832.37 22.942 831.309 24.1041 829.73 24.1041C828.139 24.1041 826.695 22.942 826.695 19.9184C826.695 17.1994 828.128 15.8681 829.73 15.8681C831.23 15.8681 832.279 17.0189 832.471 18.621L831.524 18.7902C831.366 17.7184 830.858 16.7594 829.73 16.7594ZM836.831 23.2241C837.948 23.2241 838.805 22.22 838.805 19.9635C838.805 17.7748 837.959 16.7594 836.831 16.7594C835.702 16.7594 834.856 17.7297 834.856 19.9184C834.856 22.1749 835.702 23.2241 836.831 23.2241ZM836.831 24.1041C835.296 24.1041 833.841 22.942 833.841 19.9184C833.841 17.1994 835.33 15.8681 836.831 15.8681C838.331 15.8681 839.82 17.2445 839.82 19.9635C839.82 22.9872 838.331 24.1041 836.831 24.1041ZM842.375 23.9349V16.0373H843.345V23.0774H847.079V23.9349H842.375ZM851.506 23.2241C852.623 23.2241 853.481 22.22 853.481 19.9635C853.481 17.7748 852.634 16.7594 851.506 16.7594C850.378 16.7594 849.532 17.7297 849.532 19.9184C849.532 22.1749 850.378 23.2241 851.506 23.2241ZM851.506 24.1041C849.972 24.1041 848.516 22.942 848.516 19.9184C848.516 17.1994 850.006 15.8681 851.506 15.8681C853.007 15.8681 854.496 17.2445 854.496 19.9635C854.496 22.9872 853.007 24.1041 851.506 24.1041ZM856.486 23.9349V16.0373H858.991C860.593 16.0373 861.653 16.8045 861.653 18.384C861.653 19.704 860.819 20.4374 859.69 20.6405L861.45 23.9349H860.401L858.686 20.7082H857.445V23.9349H856.486ZM857.445 19.8733H858.934C859.882 19.8733 860.694 19.501 860.694 18.384C860.694 17.2671 859.938 16.8948 858.912 16.8948H857.445V19.8733Z" fill="white"/>
<rect x="991.728" y="0.438737" width="247.942" height="73.484" fill="#64D45E" stroke="black" stroke-width="0.65909"/>
<path d="M18.5194 23.9349V16.0373H21.2384C22.7841 16.0373 23.901 16.8835 23.901 18.4743C23.901 20.0425 22.8292 20.8887 21.261 20.8887H19.4784V23.9349H18.5194ZM19.4784 20.0312H21.2046C22.1185 20.0312 22.9308 19.5574 22.9308 18.4743C22.9308 17.3348 22.0959 16.8948 21.182 16.8948H19.4784V20.0312ZM25.8573 23.9349V16.0373H28.3619C29.964 16.0373 31.0245 16.8045 31.0245 18.384C31.0245 19.704 30.1896 20.4374 29.0614 20.6405L30.8214 23.9349H29.7722L28.0573 20.7082H26.8163V23.9349H25.8573ZM26.8163 19.8733H28.3055C29.2532 19.8733 30.0655 19.501 30.0655 18.384C30.0655 17.2671 29.3096 16.8948 28.2829 16.8948H26.8163V19.8733ZM33.1838 16.8835V16.0373H37.9224V16.8835H36.0269V23.0887H37.9224V23.9349H33.1838V23.0887H35.068V16.8835H33.1838ZM40.217 23.9349V16.0373H41.4807L42.8796 20.5051H42.9022L44.3012 16.0373H45.5648V23.9349H44.7074V17.3009H44.6848L43.0376 22.4005H42.7443L41.0971 17.3009H41.0745V23.9349H40.217ZM52.3498 23.9349L51.8196 22.3892H48.5816L48.0964 23.9349H47.1149L49.7324 16.0373H50.7139L53.3314 23.9349H52.3498ZM51.5488 21.5769L50.2288 17.2897H50.2062L48.8411 21.5769H51.5488ZM55.2086 23.9349V16.0373H57.7133C59.3154 16.0373 60.3759 16.8045 60.3759 18.384C60.3759 19.704 59.541 20.4374 58.4128 20.6405L60.1728 23.9349H59.1236L57.4087 20.7082H56.1676V23.9349H55.2086ZM56.1676 19.8733H57.6569C58.6046 19.8733 59.4169 19.501 59.4169 18.384C59.4169 17.2671 58.661 16.8948 57.6343 16.8948H56.1676V19.8733ZM64.4306 23.9349V20.6066L61.8244 16.0373H62.8849L64.8932 19.704H64.9157L66.924 16.0373H67.9845L65.3783 20.6066V23.9349H64.4306ZM79.2441 16.7594C78.0934 16.7594 77.2246 17.7297 77.2246 19.9184C77.2246 22.1749 78.0482 23.2241 79.2441 23.2241C80.4175 23.2241 80.9252 22.2087 81.0267 21.0015L82.0083 21.1256C81.8842 22.942 80.8236 24.1041 79.2441 24.1041C77.6533 24.1041 76.2092 22.942 76.2092 19.9184C76.2092 17.1994 77.6421 15.8681 79.2441 15.8681C80.7447 15.8681 81.7939 17.0189 81.9857 18.621L81.038 18.7902C80.8801 17.7184 80.3724 16.7594 79.2441 16.7594ZM86.3451 23.2241C87.462 23.2241 88.3194 22.22 88.3194 19.9635C88.3194 17.7748 87.4733 16.7594 86.3451 16.7594C85.2168 16.7594 84.3707 17.7297 84.3707 19.9184C84.3707 22.1749 85.2168 23.2241 86.3451 23.2241ZM86.3451 24.1041C84.8107 24.1041 83.3553 22.942 83.3553 19.9184C83.3553 17.1994 84.8445 15.8681 86.3451 15.8681C87.8456 15.8681 89.3348 17.2445 89.3348 19.9635C89.3348 22.9872 87.8456 24.1041 86.3451 24.1041ZM91.889 23.9349V16.0373H92.8593V23.0774H96.5937V23.9349H91.889ZM101.021 23.2241C102.138 23.2241 102.995 22.22 102.995 19.9635C102.995 17.7748 102.149 16.7594 101.021 16.7594C99.8925 16.7594 99.0464 17.7297 99.0464 19.9184C99.0464 22.1749 99.8925 23.2241 101.021 23.2241ZM101.021 24.1041C99.4864 24.1041 98.031 22.942 98.031 19.9184C98.031 17.1994 99.5202 15.8681 101.021 15.8681C102.521 15.8681 104.011 17.2445 104.011 19.9635C104.011 22.9872 102.521 24.1041 101.021 24.1041ZM106.001 23.9349V16.0373H108.505C110.107 16.0373 111.168 16.8045 111.168 18.384C111.168 19.704 110.333 20.4374 109.205 20.6405L110.965 23.9349H109.916L108.201 20.7082H106.96V23.9349H106.001ZM106.96 19.8733H108.449C109.397 19.8733 110.209 19.501 110.209 18.384C110.209 17.2671 109.453 16.8948 108.426 16.8948H106.96V19.8733ZM122.8 23.9349H121.83V18.3051C121.83 18.0869 121.83 17.9027 121.83 17.7522C121.837 17.6018 121.845 17.4626 121.852 17.3348C121.86 17.1994 121.867 17.0603 121.875 16.9173C121.754 17.0377 121.645 17.1392 121.547 17.222C121.45 17.3047 121.326 17.41 121.175 17.5379L120.318 18.2374L119.799 17.5717L121.976 15.8794H122.8V23.9349Z" fill="white"/>
<path d="M265.216 23.4676V15.57H267.935C269.481 15.57 270.598 16.4162 270.598 18.007C270.598 19.5752 269.526 20.4214 267.958 20.4214H266.175V23.4676H265.216ZM266.175 19.5639H267.901C268.815 19.5639 269.627 19.0901 269.627 18.007C269.627 16.8675 268.792 16.4275 267.879 16.4275H266.175V19.5639ZM272.554 23.4676V15.57H275.058C276.661 15.57 277.721 16.3372 277.721 17.9167C277.721 19.2368 276.886 19.9701 275.758 20.1732L277.518 23.4676H276.469L274.754 20.2409H273.513V23.4676H272.554ZM273.513 19.406H275.002C275.95 19.406 276.762 19.0337 276.762 17.9167C276.762 16.7998 276.006 16.4275 274.979 16.4275H273.513V19.406ZM279.88 16.4162V15.57H284.619V16.4162H282.723V22.6214H284.619V23.4676H279.88V22.6214H281.764V16.4162H279.88ZM286.914 23.4676V15.57H288.177L289.576 20.0378H289.599L290.998 15.57H292.261V23.4676H291.404V16.8337H291.381L289.734 21.9332H289.441L287.794 16.8337H287.771V23.4676H286.914ZM299.046 23.4676L298.516 21.9219H295.278L294.793 23.4676H293.811L296.429 15.57H297.41L300.028 23.4676H299.046ZM298.245 21.1096L296.925 16.8224H296.903L295.538 21.1096H298.245ZM301.905 23.4676V15.57H304.41C306.012 15.57 307.072 16.3372 307.072 17.9167C307.072 19.2368 306.238 19.9701 305.109 20.1732L306.869 23.4676H305.82L304.105 20.2409H302.864V23.4676H301.905ZM302.864 19.406H304.353C305.301 19.406 306.113 19.0337 306.113 17.9167C306.113 16.7998 305.358 16.4275 304.331 16.4275H302.864V19.406ZM311.127 23.4676V20.1393L308.521 15.57H309.581L311.59 19.2368H311.612L313.621 15.57H314.681L312.075 20.1393V23.4676H311.127ZM325.941 16.2921C324.79 16.2921 323.921 17.2624 323.921 19.4511C323.921 21.7076 324.745 22.7568 325.941 22.7568C327.114 22.7568 327.622 21.7414 327.723 20.5342L328.705 20.6583C328.581 22.4748 327.52 23.6368 325.941 23.6368C324.35 23.6368 322.906 22.4748 322.906 19.4511C322.906 16.7321 324.339 15.4008 325.941 15.4008C327.441 15.4008 328.49 16.5516 328.682 18.1537L327.735 18.3229C327.577 17.2511 327.069 16.2921 325.941 16.2921ZM333.042 22.7568C334.159 22.7568 335.016 21.7527 335.016 19.4963C335.016 17.3075 334.17 16.2921 333.042 16.2921C331.913 16.2921 331.067 17.2624 331.067 19.4511C331.067 21.7076 331.913 22.7568 333.042 22.7568ZM333.042 23.6368C331.507 23.6368 330.052 22.4748 330.052 19.4511C330.052 16.7321 331.541 15.4008 333.042 15.4008C334.542 15.4008 336.031 16.7772 336.031 19.4963C336.031 22.5199 334.542 23.6368 333.042 23.6368ZM338.586 23.4676V15.57H339.556V22.6101H343.29V23.4676H338.586ZM347.717 22.7568C348.834 22.7568 349.692 21.7527 349.692 19.4963C349.692 17.3075 348.845 16.2921 347.717 16.2921C346.589 16.2921 345.743 17.2624 345.743 19.4511C345.743 21.7076 346.589 22.7568 347.717 22.7568ZM347.717 23.6368C346.183 23.6368 344.727 22.4748 344.727 19.4511C344.727 16.7321 346.217 15.4008 347.717 15.4008C349.218 15.4008 350.707 16.7772 350.707 19.4963C350.707 22.5199 349.218 23.6368 347.717 23.6368ZM352.697 23.4676V15.57H355.202C356.804 15.57 357.864 16.3372 357.864 17.9167C357.864 19.2368 357.029 19.9701 355.901 20.1732L357.661 23.4676H356.612L354.897 20.2409H353.656V23.4676H352.697ZM353.656 19.406H355.145C356.093 19.406 356.905 19.0337 356.905 17.9167C356.905 16.7998 356.149 16.4275 355.123 16.4275H353.656V19.406ZM371.358 23.4676H366.033V22.644L368.142 20.5117C368.549 20.1055 368.891 19.7445 369.169 19.4286C369.447 19.1127 369.658 18.8043 369.801 18.5034C369.944 18.195 370.015 17.8603 370.015 17.4993C370.015 17.0555 369.884 16.7208 369.62 16.4952C369.357 16.262 369.015 16.1454 368.594 16.1454C368.203 16.1454 367.857 16.2131 367.556 16.3485C367.262 16.4839 366.962 16.6719 366.653 16.9126L366.123 16.247C366.334 16.0665 366.563 15.9048 366.811 15.7618C367.067 15.6189 367.341 15.5061 367.635 15.4234C367.936 15.3406 368.255 15.2993 368.594 15.2993C369.098 15.2993 369.53 15.3858 369.891 15.5588C370.252 15.7318 370.531 15.98 370.726 16.3034C370.929 16.6193 371.031 16.9991 371.031 17.4429C371.031 17.7588 370.982 18.0597 370.884 18.3455C370.786 18.6238 370.647 18.8983 370.467 19.1691C370.286 19.4398 370.068 19.7144 369.812 19.9927C369.557 20.271 369.274 20.5605 368.966 20.8614L367.285 22.5199V22.565H371.358V23.4676Z" fill="black"/>
<path d="M1013.4 23.4676L1012.87 21.9219H1009.63L1009.14 23.4676H1008.16L1010.78 15.57H1011.76L1014.38 23.4676H1013.4ZM1012.6 21.1096L1011.28 16.8224H1011.25L1009.89 21.1096H1012.6ZM1018.85 16.2921C1017.7 16.2921 1016.83 17.2624 1016.83 19.4511C1016.83 21.7076 1017.66 22.7568 1018.85 22.7568C1020.03 22.7568 1020.53 21.7414 1020.63 20.5342L1021.62 20.6583C1021.49 22.4748 1020.43 23.6368 1018.85 23.6368C1017.26 23.6368 1015.82 22.4748 1015.82 19.4511C1015.82 16.7321 1017.25 15.4008 1018.85 15.4008C1020.35 15.4008 1021.4 16.5516 1021.59 18.1537L1020.65 18.3229C1020.49 17.2511 1019.98 16.2921 1018.85 16.2921ZM1026.19 16.2921C1025.04 16.2921 1024.17 17.2624 1024.17 19.4511C1024.17 21.7076 1024.99 22.7568 1026.19 22.7568C1027.36 22.7568 1027.87 21.7414 1027.97 20.5342L1028.95 20.6583C1028.83 22.4748 1027.77 23.6368 1026.19 23.6368C1024.6 23.6368 1023.15 22.4748 1023.15 19.4511C1023.15 16.7321 1024.59 15.4008 1026.19 15.4008C1027.69 15.4008 1028.74 16.5516 1028.93 18.1537L1027.98 18.3229C1027.83 17.2511 1027.32 16.2921 1026.19 16.2921ZM1031.11 23.4676V15.57H1035.78V16.4275H1032.08V18.9886H1035.47V19.8234H1032.08V22.6101H1035.78V23.4676H1031.11ZM1038.1 23.4676V15.57H1039.08L1042.23 21.8655H1042.25V15.57H1043.16V23.4676H1042.2L1039.03 17.1721H1039V23.4676H1038.1ZM1047.49 23.4676V16.4275H1044.83V15.57H1051.09V16.4275H1048.44V23.4676H1047.49ZM1062.31 16.2921C1061.16 16.2921 1060.29 17.2624 1060.29 19.4511C1060.29 21.7076 1061.11 22.7568 1062.31 22.7568C1063.48 22.7568 1063.99 21.7414 1064.09 20.5342L1065.07 20.6583C1064.95 22.4748 1063.89 23.6368 1062.31 23.6368C1060.72 23.6368 1059.27 22.4748 1059.27 19.4511C1059.27 16.7321 1060.7 15.4008 1062.31 15.4008C1063.81 15.4008 1064.86 16.5516 1065.05 18.1537L1064.1 18.3229C1063.94 17.2511 1063.43 16.2921 1062.31 16.2921ZM1069.41 22.7568C1070.52 22.7568 1071.38 21.7527 1071.38 19.4963C1071.38 17.3075 1070.54 16.2921 1069.41 16.2921C1068.28 16.2921 1067.43 17.2624 1067.43 19.4511C1067.43 21.7076 1068.28 22.7568 1069.41 22.7568ZM1069.41 23.6368C1067.87 23.6368 1066.42 22.4748 1066.42 19.4511C1066.42 16.7321 1067.91 15.4008 1069.41 15.4008C1070.91 15.4008 1072.4 16.7772 1072.4 19.4963C1072.4 22.5199 1070.91 23.6368 1069.41 23.6368ZM1074.95 23.4676V15.57H1075.92V22.6101H1079.66V23.4676H1074.95ZM1084.08 22.7568C1085.2 22.7568 1086.06 21.7527 1086.06 19.4963C1086.06 17.3075 1085.21 16.2921 1084.08 16.2921C1082.95 16.2921 1082.11 17.2624 1082.11 19.4511C1082.11 21.7076 1082.95 22.7568 1084.08 22.7568ZM1084.08 23.6368C1082.55 23.6368 1081.09 22.4748 1081.09 19.4511C1081.09 16.7321 1082.58 15.4008 1084.08 15.4008C1085.58 15.4008 1087.07 16.7772 1087.07 19.4963C1087.07 22.5199 1085.58 23.6368 1084.08 23.6368ZM1089.06 23.4676V15.57H1091.57C1093.17 15.57 1094.23 16.3372 1094.23 17.9167C1094.23 19.2368 1093.39 19.9701 1092.27 20.1732L1094.03 23.4676H1092.98L1091.26 20.2409H1090.02V23.4676H1089.06ZM1090.02 19.406H1091.51C1092.46 19.406 1093.27 19.0337 1093.27 17.9167C1093.27 16.7998 1092.51 16.4275 1091.49 16.4275H1090.02V19.406Z" fill="black"/>
</svg>
