<svg width="1240" height="426" viewBox="0 0 1240 426" fill="none" xmlns="http://www.w3.org/2000/svg">
<rect y="0.202881" width="1239.48" height="425.351" fill="#04390F"/>
<path d="M538.627 123.78C539.189 123.819 539.747 123.829 540.298 123.809L543.81 124.055C547.127 124.288 549.627 127.165 549.395 130.482C549.347 130.793 549.312 131.109 549.29 131.429C548.845 137.772 553.628 143.275 559.971 143.719C566.315 144.164 571.818 139.381 572.262 133.038C572.698 126.82 568.112 121.41 561.956 120.779C561.953 120.779 561.951 120.777 561.951 120.774C561.952 120.771 561.949 120.769 561.947 120.769L558.283 120.512C556.257 120.37 554.729 118.613 554.871 116.586L555.299 110.474C555.365 110.043 555.414 109.606 555.445 109.163C556.053 100.483 549.509 92.9532 540.829 92.3452C532.149 91.7372 524.619 98.2812 524.011 106.962C523.403 115.642 529.947 123.172 538.627 123.78Z" fill="#C8F863"/>
<path d="M538.633 135.842C543.577 137.095 546.57 142.118 545.317 147.062C544.065 152.006 539.042 154.998 534.098 153.746C529.154 152.493 526.161 147.47 527.414 142.526C528.666 137.582 533.689 134.59 538.633 135.842Z" fill="#C8F863"/>
<path d="M524.673 224.24V182.707H542.485C550.044 182.621 555.634 187.544 555.518 194.003C555.518 199.274 552.593 203.271 548.712 204.487C553.433 204.487 554.939 206.051 554.939 210.309V224.24H549.002V211.786C549.002 208.484 548.133 207.644 544.86 207.644H530.61V224.24H524.673ZM530.61 202.286H541.587C546.54 202.286 549.581 199.1 549.581 194.872C549.581 190.469 546.685 188.066 541.587 188.066H530.61V202.286ZM584.325 224.24H578.995C578.793 223.255 578.706 221.662 578.706 219.49C577.489 222.242 573.782 224.819 569.206 224.819C563.674 224.906 559.33 220.996 559.417 216.044C559.417 213.002 560.488 210.772 562.603 209.353C564.717 207.934 567.237 207.123 570.22 206.862L578.416 206.225V205.269C578.416 201.128 576.07 198.724 572.247 198.724H571.755C568.511 198.724 565.991 200.317 565.644 203.184H560.025C560.286 197.826 565.412 193.945 571.986 194.003C579.662 193.916 584.093 199.158 584.035 205.269V217.723C584.035 220.678 584.122 222.85 584.325 224.24ZM569.872 220.098H570.336C573.898 220.185 578.532 216.941 578.416 213.553V210.57L571.002 211.12C567.439 211.467 565.064 213.147 565.064 215.812C565.064 218.245 567.092 220.098 569.872 220.098ZM589.7 224.24V194.582H595.319V198.724C597.288 195.828 600.329 194.003 604.819 194.003C611.538 194.003 615.477 198.116 615.477 204.372V224.24H609.858V205.559C609.858 201.244 607.918 198.724 603.863 198.724H603.4C599.171 198.666 595.232 202.199 595.319 207.644V224.24H589.7ZM632.177 224.819C624.762 224.906 619.346 218.969 619.404 209.411C619.288 199.911 625.342 193.916 632.756 194.003C634.784 194.003 636.637 194.437 638.317 195.335C639.968 196.233 641.184 197.363 641.937 198.724V182.707H647.585V224.24H641.937V220.098C640.489 222.734 636.261 224.819 632.177 224.819ZM633.104 220.098H633.596C637.883 220.156 642.024 216.275 641.937 209.411C642.024 202.547 637.883 198.666 633.596 198.724H633.104C628.528 198.724 625.052 202.46 625.052 209.411C625.052 216.362 628.528 220.098 633.104 220.098ZM665.965 224.819C658.029 224.964 651.57 218.361 651.715 209.411C651.57 200.462 658.029 193.858 665.965 194.003C673.843 193.858 680.33 200.462 680.186 209.411C680.33 218.361 673.843 224.964 665.965 224.819ZM665.704 220.098H666.197C671.062 220.098 674.567 216.13 674.567 209.411C674.567 202.692 671.062 198.724 666.197 198.724H665.704C660.867 198.724 657.363 202.692 657.363 209.411C657.363 216.13 660.867 220.098 665.704 220.098ZM684.316 224.24V194.582H689.934V198.724C691.875 195.857 694.887 194.003 698.826 194.003C703.257 194.003 706.733 195.77 708.615 199.506C710.788 195.683 714.437 194.003 718.405 194.003C725.153 194.003 729.092 198.116 729.092 204.372V224.24H723.444V205.559C723.444 201.244 721.533 198.724 717.449 198.724H716.986C713.336 198.666 709.426 202.257 709.513 207.644V224.24H703.866V205.559C703.866 201.244 701.954 198.724 697.899 198.724H697.407C693.758 198.666 689.848 202.257 689.934 207.644V224.24H684.316Z" fill="white"/>
<path d="M571.4 235.381H577.57L567.491 276.914H559.468L551.184 242.274L542.872 276.914H534.849L524.77 235.381H530.94L539.078 270.455L547.564 235.381H555.326L563.581 270.745L571.4 235.381ZM602.118 276.914H596.789C596.587 275.929 596.5 274.336 596.5 272.164C595.283 274.915 591.576 277.493 587 277.493C581.468 277.58 577.124 273.67 577.21 268.717C577.21 265.676 578.282 263.446 580.396 262.027C582.511 260.608 585.03 259.797 588.014 259.536L596.21 258.899V257.943C596.21 253.802 593.864 251.398 590.041 251.398H589.549C586.305 251.398 583.785 252.991 583.437 255.858H577.819C578.079 250.5 583.206 246.619 589.78 246.677C597.455 246.59 601.887 251.832 601.829 257.943V270.397C601.829 273.351 601.916 275.524 602.118 276.914ZM587.666 272.772H588.129C591.692 272.859 596.326 269.615 596.21 266.227V263.243L588.796 263.794C585.233 264.141 582.858 265.821 582.858 268.486C582.858 270.919 584.886 272.772 587.666 272.772ZM607.494 276.914V235.381H613.113V276.914H607.494ZM638.82 276.914L628.828 262.925L624.686 266.893V276.914H619.067V235.381H624.686V260.057L637.748 247.256H645.163L632.825 259.073L645.742 276.914H638.82Z" fill="white"/>
<path d="M552.274 288.055H558.183V329.587H549.899L530.61 295.237V329.587H524.673V288.055H532.985L552.274 322.462V288.055ZM576.881 330.166C569.38 330.253 562.776 324.692 562.892 314.7C562.747 304.882 569.583 299.263 576.707 299.35C584.296 299.234 589.393 304.766 589.306 312.383V315.656H568.54C568.801 322.057 573.087 325.503 576.823 325.445H577.316C580.415 325.445 583.021 323.795 583.601 320.811H589.219C588.177 326.691 583.05 330.166 576.881 330.166ZM568.887 311.196H583.658C583.543 308.792 582.848 306.996 581.602 305.809C580.357 304.65 578.793 304.071 576.968 304.071H576.476C574.738 304.071 573.174 304.65 571.755 305.78C570.336 306.938 569.38 308.734 568.887 311.196ZM609.887 329.587H602.762C598.621 329.587 596.246 327.212 596.246 323.071V304.795H589.729V299.929H596.246V290.314H601.893V299.929H608.989V304.795H601.893V322.173C601.893 323.939 602.502 324.548 604.268 324.548H609.887V329.587ZM647.73 299.929H653.638L644.457 329.587H638.23L631.714 306.417L625.168 329.587H618.941L609.76 299.929H615.697L622.214 323.389L628.73 299.929H634.668L641.474 323.36L647.73 299.929ZM668.224 330.166C660.288 330.311 653.829 323.708 653.974 314.758C653.829 305.809 660.288 299.205 668.224 299.35C676.102 299.205 682.59 305.809 682.445 314.758C682.59 323.708 676.102 330.311 668.224 330.166ZM667.963 325.445H668.456C673.321 325.445 676.826 321.478 676.826 314.758C676.826 308.039 673.321 304.071 668.456 304.071H667.963C663.127 304.071 659.622 308.039 659.622 314.758C659.622 321.478 663.127 325.445 667.963 325.445ZM686.575 329.587V299.929H691.904V306.446C693.091 302.101 696.596 299.64 700.506 299.64H703.17V305.085H700.796C695.495 305.085 692.194 308.676 692.194 314.584V329.587H686.575ZM725.663 329.587L715.671 315.598L711.529 319.566V329.587H705.91V288.055H711.529V312.731L724.591 299.929H732.006L719.668 311.746L732.585 329.587H725.663Z" fill="white"/>
</svg>
