<svg width="1240" height="426" viewBox="0 0 1240 426" fill="none" xmlns="http://www.w3.org/2000/svg">
<path d="M32 425.406C14.603 425.406 0.499999 411.303 0.499998 393.906L0.49998 32.9058C0.499979 15.5089 14.603 1.40582 32 1.40582L1239.5 1.40578L1239.5 425.406L32 425.406Z" fill="#FEFEF6" stroke="#C8F863"/>
<path d="M636.976 425.906C619.303 425.906 604.976 411.579 604.976 393.906L604.976 32.9058C604.976 15.2327 619.302 0.905792 636.976 0.905791L1240 0.905769L1240 425.906L636.976 425.906Z" fill="#04390F"/>
<path d="M1155.81 425.906C1138.14 425.906 1123.81 411.579 1123.81 393.906L1123.81 32.9058C1123.81 15.2327 1138.14 0.905761 1155.81 0.905761L1240 0.905757L1240 425.906L1155.81 425.906Z" fill="#C8F863"/>
<path d="M43.042 372.289L30.4385 372.289L30.4385 366.795C30.4121 364.827 31.7656 363.157 33.7695 363.192C35.1494 363.192 36.1865 364.009 36.6523 365.249C36.7666 364.537 37.0918 363.965 37.6191 363.552C38.1465 363.139 38.8145 362.928 39.623 362.928C41.6357 362.893 43.0684 364.642 43.042 366.62L43.042 372.289ZM35.8437 370.487L35.8437 367.068C35.8437 365.802 35.1143 364.994 33.9541 364.994C32.7939 364.994 32.0645 365.802 32.0645 367.068L32.0645 370.487L35.8437 370.487ZM41.4248 370.487L41.4248 366.98C41.4248 365.609 40.6953 364.73 39.4385 364.73C38.1992 364.73 37.4609 365.609 37.4609 366.98L37.4609 370.487L41.4248 370.487ZM43.042 360.893L30.4385 360.893L30.4385 351.708L32.0645 351.708L32.0645 359.091L35.7559 359.091L35.7559 352.79L37.373 352.79L37.373 359.091L41.4248 359.091L41.4248 351.533L43.042 351.533L43.042 360.893ZM43.042 349.691L30.4385 349.691L30.4385 347.889L43.042 347.889L43.042 349.691ZM43.2178 340C43.2705 343.525 40.4844 345.986 36.7402 345.942C32.9873 345.986 30.2187 343.516 30.2627 339.816C30.2363 336.661 32.1084 334.85 34.5781 334.692L34.5781 336.485C32.8555 336.669 31.8799 337.838 31.8799 339.728L31.8799 339.912C31.8535 342.417 33.7344 344.166 36.7402 344.14C39.7461 344.166 41.627 342.417 41.6006 339.912L41.6006 339.728C41.627 337.539 40.2295 336.195 38.5947 336.221L38.252 336.221L38.252 339.816L36.6523 339.816L36.6523 336.133C36.6523 335.14 37.1885 334.595 38.1816 334.595L43.042 334.595L43.042 336.221L41.6182 336.221C42.2334 336.634 43.2354 337.996 43.2178 340ZM43.042 332.454L30.4385 332.454L30.4385 323.27L32.0645 323.27L32.0645 330.653L35.7559 330.653L35.7559 324.351L37.373 324.351L37.373 330.653L41.4248 330.653L41.4248 323.094L43.042 323.094L43.042 332.454Z" fill="#04390F"/>
<path d="M35.123 290.172L35.123 292.378L38.3662 293.055L38.3662 290.928L39.8955 290.928L39.8955 293.372L43.042 294.022L43.042 295.639L39.8955 294.989L39.8955 297.661L43.042 298.337L43.042 299.963L39.8955 299.287L39.8955 301.167L38.3662 301.167L38.3662 298.961L35.123 298.267L35.123 300.394L33.5937 300.394L33.5937 297.942L30.4385 297.265L30.4385 295.639L33.5937 296.316L33.5937 293.679L30.4385 293.029L30.4385 291.412L33.5937 292.062L33.5937 290.172L35.123 290.172ZM38.3662 294.672L35.123 293.996L35.123 296.641L38.3662 297.335L38.3662 294.672ZM43.042 288.348L30.4385 288.348L30.4385 279.524L32.0645 279.524L32.0645 286.546L36.1162 286.546L36.1162 280.429L37.7334 280.429L37.7334 286.546L43.042 286.546L43.042 288.348ZM43.042 277.972L30.4385 277.972L30.4385 268.788L32.0645 268.788L32.0645 276.17L35.7559 276.17L35.7559 269.869L37.373 269.869L37.373 276.17L41.4248 276.17L41.4248 268.612L43.042 268.612L43.042 277.972ZM43.042 266.77L30.4385 266.77L30.4385 257.946L32.0645 257.946L32.0645 264.968L36.1162 264.968L36.1162 258.851L37.7334 258.851L37.7334 264.968L43.042 264.968L43.042 266.77ZM43.042 256.394L30.4385 256.394L30.4385 247.209L32.0645 247.209L32.0645 254.592L35.7559 254.592L35.7559 248.29L37.373 248.29L37.373 254.592L41.4248 254.592L41.4248 247.034L43.042 247.034L43.042 256.394ZM43.042 245.192L30.4385 245.192L30.4385 236.367L32.0645 236.367L32.0645 243.39L36.1162 243.39L36.1162 237.273L37.7334 237.273L37.7334 243.39L43.042 243.39L43.042 245.192ZM34.7627 230.456C34.7275 228.224 36.4502 226.343 38.9023 226.387C41.4424 226.352 43.2529 228.303 43.2178 230.799C43.2441 233.576 40.9678 235.484 37.1533 235.457C35.8437 235.457 34.6572 235.211 33.6025 234.728C32.5566 234.244 31.7305 233.603 31.1416 232.785C30.5527 231.968 30.2627 231.089 30.2627 230.131C30.2627 227.978 31.458 226.466 33.5059 226.115L33.5059 227.881C32.46 228.162 31.8096 228.918 31.8096 230.008L31.8096 230.219C31.7744 232.17 33.8662 233.691 36.8281 233.884C36.1865 233.576 35.6768 233.111 35.3076 232.487C34.9473 231.871 34.7627 231.195 34.7627 230.456ZM41.6709 230.852L41.6709 230.676C41.6973 229.331 40.5371 228.127 38.9902 228.154C37.4346 228.127 36.2656 229.331 36.292 230.676L36.292 230.852C36.2656 232.188 37.4873 233.48 38.9727 233.445C40.4404 233.48 41.6973 232.179 41.6709 230.852Z" fill="#04390F"/>
<path d="M653.201 367.103C653.254 370.627 650.468 373.088 646.724 373.044C642.971 373.088 640.202 370.619 640.246 366.918C640.22 363.763 642.092 361.953 644.562 361.794L644.562 363.587C642.839 363.772 641.863 364.941 641.863 366.831L641.863 367.015C641.837 369.52 643.718 371.269 646.724 371.243C649.729 371.269 651.61 369.52 651.584 367.015L651.584 366.831C651.61 364.642 650.213 363.297 648.578 363.324L648.235 363.324L648.235 366.918L646.636 366.918L646.636 363.236C646.636 362.243 647.172 361.698 648.165 361.698L653.025 361.698L653.025 363.324L651.602 363.324C652.217 363.737 653.219 365.099 653.201 367.103ZM653.025 359.557L640.422 359.557L640.422 354.152C640.396 351.858 641.89 350.162 643.85 350.197C645.449 350.197 646.662 351.084 647.031 352.262C647.031 350.83 647.506 350.373 648.798 350.373L653.025 350.373L653.025 352.174L649.246 352.174C648.244 352.174 647.989 352.438 647.989 353.431L647.989 357.755L653.025 357.755L653.025 359.557ZM646.363 357.755L646.363 354.424C646.363 352.921 645.396 351.998 644.113 351.998C642.777 351.998 642.048 352.877 642.048 354.424L642.048 357.755L646.363 357.755ZM653.025 347.845L640.422 347.845L640.422 338.661L642.048 338.661L642.048 346.043L645.739 346.043L645.739 339.742L647.356 339.742L647.356 346.043L651.408 346.043L651.408 338.485L653.025 338.485L653.025 347.845ZM653.025 336.643L640.422 336.643L640.422 327.458L642.048 327.458L642.048 334.841L645.739 334.841L645.739 328.539L647.356 328.539L647.356 334.841L651.408 334.841L651.408 327.283L653.025 327.283L653.025 336.643ZM640.422 317.065L640.422 315.272L653.025 315.272L653.025 317.785L642.602 323.639L653.025 323.639L653.025 325.441L640.422 325.441L640.422 322.918L650.863 317.065L640.422 317.065Z" fill="#FEFEF6"/>
<path d="M645.106 281.172L645.106 283.378L648.35 284.055L648.35 281.928L649.879 281.928L649.879 284.372L653.025 285.022L653.025 286.639L649.879 285.989L649.879 288.661L653.025 289.337L653.025 290.963L649.879 290.287L649.879 292.167L648.35 292.167L648.35 289.961L645.106 289.267L645.106 291.394L643.577 291.394L643.577 288.942L640.422 288.265L640.422 286.639L643.577 287.316L643.577 284.679L640.422 284.029L640.422 282.412L643.577 283.062L643.577 281.172L645.106 281.172ZM648.35 285.672L645.106 284.996L645.106 287.641L648.35 288.335L648.35 285.672ZM653.201 275.006C653.201 278.126 650.916 279.955 646.724 279.955C642.531 279.955 640.246 278.126 640.246 275.006C640.246 271.886 642.531 270.058 646.724 270.058C650.916 270.058 653.201 271.886 653.201 275.006ZM651.672 275.094L651.672 274.918C651.681 273.442 650.415 271.807 646.724 271.825C643.041 271.807 641.767 273.442 641.775 274.918L641.775 275.094C641.767 276.58 643.041 278.214 646.724 278.197C650.415 278.214 651.681 276.58 651.672 275.094ZM648.631 261.141L648.631 259.163L650.16 259.163L650.16 261.141L653.025 261.141L653.025 262.872L650.16 262.872L650.16 269.069L648.437 269.069L640.422 262.855L640.422 261.141L648.631 261.141ZM648.631 267.372L648.631 262.872L642.848 262.872L648.631 267.372ZM653.201 253.92C653.201 256.355 651.856 258.069 649.729 258.297L649.729 256.548C650.969 256.293 651.672 255.353 651.672 254.008L651.672 253.85C651.672 252.505 650.846 251.415 649.606 251.415C648.314 251.415 647.479 252.382 647.479 253.709L647.479 254.782L645.968 254.782L645.968 253.709C645.968 252.417 645.01 251.512 643.85 251.512C642.575 251.512 641.775 252.505 641.775 253.85L641.775 254.008C641.775 255.212 642.637 256.249 643.753 256.355L643.753 258.06C641.784 257.998 640.22 256.109 640.246 253.832C640.211 251.635 641.784 249.693 643.577 249.745C644.359 249.745 645.019 249.948 645.555 250.343C646.091 250.747 646.469 251.275 646.671 251.925C646.987 250.642 648.033 249.658 649.694 249.658C651.672 249.622 653.236 251.512 653.201 253.92ZM640.246 243.623C640.22 240.846 642.514 238.939 646.311 238.965C647.629 238.965 648.815 239.202 649.861 239.686C650.907 240.169 651.725 240.811 652.313 241.628C652.902 242.446 653.201 243.333 653.201 244.291C653.201 246.436 652.006 247.956 649.967 248.308L649.967 246.541C651.013 246.26 651.654 245.504 651.654 244.414L651.654 244.203C651.689 242.243 649.589 240.723 646.627 240.538C647.269 240.846 647.778 241.312 648.147 241.927C648.517 242.551 648.701 243.228 648.701 243.966C648.736 246.199 647.014 248.079 644.562 248.035C642.039 248.071 640.211 246.119 640.246 243.623ZM647.172 243.755L647.172 243.571C647.198 242.252 645.968 240.943 644.491 240.978C643.023 240.943 641.767 242.252 641.793 243.571L641.793 243.755C641.767 245.091 642.927 246.295 644.474 246.269C646.056 246.295 647.198 245.091 647.172 243.755ZM653.201 232.571C653.201 235.691 650.916 237.519 646.724 237.519C642.531 237.519 640.246 235.691 640.246 232.571C640.246 229.45 642.531 227.622 646.724 227.622C650.916 227.622 653.201 229.45 653.201 232.571ZM651.672 232.658L651.672 232.483C651.681 231.006 650.415 229.371 646.724 229.389C643.041 229.371 641.767 231.006 641.775 232.483L641.775 232.658C641.767 234.144 643.041 235.779 646.724 235.761C650.415 235.779 651.681 234.144 651.672 232.658ZM653.025 225.534L640.422 225.534L640.422 216.71L642.048 216.71L642.048 223.733L646.1 223.733L646.1 217.615L647.717 217.615L647.717 223.733L653.025 223.733L653.025 225.534Z" fill="#FEFEF6"/>
<path d="M1162.26 363.913L1162.26 362.12L1174.87 362.12L1174.87 364.633L1164.44 370.487L1174.87 370.487L1174.87 372.289L1162.26 372.289L1162.26 369.766L1172.71 363.913L1162.26 363.913ZM1174.87 359.416L1162.26 359.416L1162.26 350.232L1163.89 350.232L1163.89 357.615L1167.58 357.615L1167.58 351.313L1169.2 351.313L1169.2 357.615L1173.25 357.615L1173.25 350.056L1174.87 350.056L1174.87 359.416ZM1175.04 343.275C1175.08 346.676 1172.53 349.26 1168.57 349.216C1164.6 349.26 1162.05 346.676 1162.09 343.275C1162.05 339.873 1164.6 337.289 1168.57 337.333C1172.53 337.289 1175.08 339.873 1175.04 343.275ZM1173.43 343.363L1173.43 343.187C1173.46 340.849 1171.55 339.109 1168.57 339.135C1165.58 339.109 1163.67 340.849 1163.71 343.187L1163.71 343.363C1163.68 345.692 1165.58 347.45 1168.57 347.414C1171.55 347.45 1173.45 345.692 1173.43 343.363ZM1162.26 327.001L1162.26 325.208L1174.87 325.208L1174.87 327.722L1164.44 333.576L1174.87 333.576L1174.87 335.377L1162.26 335.377L1162.26 332.855L1172.71 327.001L1162.26 327.001Z" fill="#04390F"/>
<path d="M1166.95 291.172L1166.95 293.378L1170.19 294.055L1170.19 291.928L1171.72 291.928L1171.72 294.372L1174.87 295.022L1174.87 296.639L1171.72 295.989L1171.72 298.661L1174.87 299.337L1174.87 300.963L1171.72 300.287L1171.72 302.167L1170.19 302.167L1170.19 299.961L1166.95 299.267L1166.95 301.394L1165.42 301.394L1165.42 298.942L1162.26 298.265L1162.26 296.639L1165.42 297.316L1165.42 294.679L1162.26 294.029L1162.26 292.412L1165.42 293.062L1165.42 291.172L1166.95 291.172ZM1170.19 295.672L1166.95 294.996L1166.95 297.641L1170.19 298.335L1170.19 295.672ZM1175.04 284.163C1175.1 287.766 1172.23 290.148 1168.57 290.104C1164.9 290.148 1162.04 287.766 1162.09 284.163C1162.06 281.482 1163.73 279.258 1166.23 279.118L1166.23 280.919C1164.71 281.095 1163.71 282.37 1163.71 284.075L1163.71 284.25C1163.67 286.79 1165.85 288.329 1168.57 288.302C1171.28 288.329 1173.46 286.79 1173.43 284.25L1173.43 284.075C1173.43 282.37 1172.42 281.095 1170.9 280.919L1170.9 279.118C1173.4 279.258 1175.08 281.482 1175.04 284.163ZM1175.04 273.663C1175.07 275.957 1173.65 277.636 1171.72 277.61C1171.03 277.61 1170.41 277.416 1169.88 277.021C1169.37 276.625 1168.99 276.116 1168.75 275.483C1168.44 276.757 1167.13 277.882 1165.65 277.856C1163.58 277.891 1162.06 276.116 1162.09 273.663C1162.06 271.229 1163.58 269.436 1165.65 269.471C1167.13 269.445 1168.44 270.57 1168.75 271.844C1168.99 271.211 1169.37 270.702 1169.88 270.306C1170.41 269.919 1171.03 269.726 1171.72 269.726C1173.65 269.7 1175.07 271.378 1175.04 273.663ZM1167.92 273.751L1167.92 273.576C1167.92 272.231 1167.01 271.238 1165.74 271.238C1164.49 271.238 1163.62 272.222 1163.62 273.576L1163.62 273.751C1163.62 275.096 1164.49 276.098 1165.74 276.098C1167.01 276.098 1167.92 275.096 1167.92 273.751ZM1173.51 273.751L1173.51 273.576C1173.51 272.319 1172.7 271.466 1171.54 271.466C1170.35 271.466 1169.45 272.336 1169.45 273.576L1169.45 273.751C1169.45 275.008 1170.35 275.861 1171.54 275.861C1172.7 275.861 1173.51 275.008 1173.51 273.751ZM1174.87 267.401L1162.26 267.401L1162.26 258.577L1163.89 258.577L1163.89 265.599L1167.94 265.599L1167.94 259.482L1169.56 259.482L1169.56 265.599L1174.87 265.599L1174.87 267.401ZM1175.04 253.456C1175.07 255.75 1173.65 257.429 1171.72 257.403C1171.03 257.403 1170.41 257.209 1169.88 256.814C1169.37 256.418 1168.99 255.909 1168.75 255.276C1168.44 256.55 1167.13 257.675 1165.65 257.649C1163.58 257.684 1162.06 255.909 1162.09 253.456C1162.06 251.022 1163.58 249.229 1165.65 249.264C1167.13 249.238 1168.44 250.363 1168.75 251.637C1168.99 251.004 1169.37 250.494 1169.88 250.099C1170.41 249.712 1171.03 249.519 1171.72 249.519C1173.65 249.493 1175.07 251.171 1175.04 253.456ZM1167.92 253.544L1167.92 253.368C1167.92 252.024 1167.01 251.031 1165.74 251.031C1164.49 251.031 1163.62 252.015 1163.62 253.368L1163.62 253.544C1163.62 254.889 1164.49 255.891 1165.74 255.891C1167.01 255.891 1167.92 254.889 1167.92 253.544ZM1173.51 253.544L1173.51 253.368C1173.51 252.112 1172.7 251.259 1171.54 251.259C1170.35 251.259 1169.45 252.129 1169.45 253.368L1169.45 253.544C1169.45 254.801 1170.35 255.654 1171.54 255.654C1172.7 255.654 1173.51 254.801 1173.51 253.544ZM1166.59 242.834C1166.55 240.602 1168.28 238.721 1170.73 238.765C1173.27 238.73 1175.08 240.681 1175.04 243.177C1175.07 245.954 1172.79 247.862 1168.98 247.835C1167.67 247.835 1166.48 247.589 1165.43 247.106C1164.38 246.622 1163.56 245.981 1162.97 245.163C1162.38 244.346 1162.09 243.467 1162.09 242.509C1162.09 240.356 1163.28 238.844 1165.33 238.492L1165.33 240.259C1164.29 240.54 1163.63 241.296 1163.63 242.386L1163.63 242.597C1163.6 244.548 1165.69 246.069 1168.65 246.262C1168.01 245.954 1167.5 245.489 1167.13 244.865C1166.77 244.249 1166.59 243.573 1166.59 242.834ZM1173.5 243.23L1173.5 243.054C1173.52 241.709 1172.36 240.505 1170.82 240.532C1169.26 240.505 1168.09 241.709 1168.12 243.054L1168.12 243.23C1168.09 244.566 1169.31 245.858 1170.8 245.823C1172.27 245.858 1173.52 244.557 1173.5 243.23ZM1175.04 233.003C1175.04 235.438 1173.7 237.152 1171.57 237.38L1171.57 235.631C1172.81 235.376 1173.51 234.436 1173.51 233.091L1173.51 232.933C1173.51 231.588 1172.69 230.498 1171.45 230.498C1170.16 230.498 1169.32 231.465 1169.32 232.792L1169.32 233.865L1167.81 233.865L1167.81 232.792C1167.81 231.5 1166.85 230.595 1165.69 230.595C1164.42 230.595 1163.62 231.588 1163.62 232.933L1163.62 233.091C1163.62 234.295 1164.48 235.332 1165.59 235.438L1165.59 237.143C1163.63 237.081 1162.06 235.192 1162.09 232.915C1162.05 230.718 1163.63 228.776 1165.42 228.828C1166.2 228.828 1166.86 229.031 1167.4 229.426C1167.93 229.83 1168.31 230.358 1168.51 231.008C1168.83 229.725 1169.87 228.74 1171.54 228.74C1173.51 228.705 1175.08 230.595 1175.04 233.003Z" fill="#04390F"/>
</svg>
