<svg width="1240" height="427" viewBox="0 0 1240 427" fill="none" xmlns="http://www.w3.org/2000/svg">
<rect y="0.85144" width="1239.48" height="425.351" fill="#04390F"/>
<rect width="162.026" height="162.026" transform="translate(538.726 132.514)" fill="#04390F"/>
<path d="M601.406 214.706C602.49 214.782 603.565 214.8 604.627 214.763L611.403 215.238C617.801 215.686 622.624 221.236 622.176 227.634C622.084 228.234 622.016 228.844 621.973 229.461C621.116 241.697 630.341 252.312 642.577 253.169C654.814 254.026 665.428 244.801 666.285 232.565C667.126 220.57 658.279 210.135 646.405 208.919C646.4 208.918 646.396 208.914 646.396 208.908C646.397 208.903 646.393 208.899 646.388 208.898L639.32 208.403C635.412 208.13 632.465 204.739 632.739 200.831L633.565 189.04C633.693 188.209 633.787 187.366 633.847 186.512C635.02 169.768 622.397 155.244 605.653 154.071C588.909 152.898 574.384 165.521 573.211 182.265C572.038 199.009 584.661 213.534 601.406 214.706Z" fill="#C8F863"/>
<path d="M601.416 237.975C610.953 240.391 616.725 250.08 614.309 259.616C611.893 269.153 602.204 274.925 592.667 272.51C583.131 270.094 577.358 260.404 579.774 250.868C582.19 241.331 591.88 235.559 601.416 237.975Z" fill="#C8F863"/>
</svg>
