<svg width="1240" height="426" viewBox="0 0 1240 426" fill="none" xmlns="http://www.w3.org/2000/svg">
<g clip-path="url(#clip0_1708_5593)">
<rect y="0.554443" width="1239.48" height="425.351" fill="black"/>
<path d="M341.38 137.193L312.473 64.9248L284.583 137.193H341.38ZM347.894 154.09H278.069L261.987 195.415H242.24L303.312 42.7353H322.041L385.148 195.415H364.384L347.894 154.09ZM474.351 147.983V138.822C471.501 140.45 466.412 141.875 459.083 142.893L443.205 145.133C427.733 147.372 420.201 153.683 420.201 163.861C420.201 169.765 422.033 174.243 426.105 177.297C430.176 180.351 435.265 181.776 441.373 181.776C449.923 181.776 457.658 178.926 464.376 172.818C470.891 166.915 474.351 158.568 474.351 147.983ZM451.348 83.0428C464.173 83.0428 474.148 86.2999 481.273 92.4071C488.398 98.7179 492.062 107.879 492.062 119.889V195.415H474.555V176.686C467.226 190.936 454.808 197.858 437.708 197.858C427.733 197.858 419.183 195.008 412.262 188.901C405.34 182.997 401.879 174.854 401.879 164.268C401.879 154.7 404.933 147.168 411.04 141.875C417.147 136.582 425.494 133.325 435.672 131.9L460.508 128.643C464.987 128.236 468.448 127.015 470.891 125.182C473.333 123.554 474.555 120.5 474.555 116.225C474.555 110.525 472.316 106.047 467.837 102.789C463.358 99.7357 457.455 98.1072 449.923 98.1072C442.594 98.1072 436.487 99.9393 432.008 103.604C427.326 107.268 424.68 111.95 423.865 117.854H405.951C406.969 106.657 411.651 98.1072 419.794 92C427.937 86.0964 438.522 83.0428 451.348 83.0428ZM547.607 178.722H587.101C597.279 178.722 605.219 176.076 610.919 170.579C616.415 165.083 619.265 158.568 619.265 150.833C619.265 143.3 616.415 136.786 610.919 131.29C605.422 125.793 598.093 122.943 588.729 122.943H547.607V178.722ZM547.607 106.657H583.233C592.393 106.657 599.722 104.214 605.015 99.125C610.308 94.2393 612.954 88.3357 612.954 81.6178C612.954 75.5106 610.511 70.4212 606.033 65.9426C601.554 61.6676 595.04 59.4283 586.693 59.4283H547.607V106.657ZM608.883 112.764C618.451 116.022 625.779 121.111 630.869 128.032C635.958 134.954 638.604 142.69 638.604 151.24C638.604 163.251 633.922 173.633 624.965 182.386C616.008 191.344 603.59 195.619 587.915 195.619H587.508L529.082 195.415V42.7353H590.561C603.794 42.7353 613.972 46.1961 621.097 52.7104C628.222 59.4283 631.887 67.5712 631.887 77.1391C631.887 84.4678 629.851 91.5928 625.779 98.1072C621.708 104.622 616.211 109.507 608.883 112.764ZM721.859 181.776C733.056 181.776 741.606 177.908 747.306 169.765C753.006 161.622 756.06 151.647 756.06 139.84C756.06 128.44 753.21 119.075 747.51 111.339C741.81 103.807 733.667 99.9393 722.674 99.9393C711.274 99.9393 702.52 104.011 696.616 111.95C690.713 120.093 687.863 129.865 687.863 141.468C687.863 152.868 690.713 162.436 696.413 170.172C702.113 177.908 710.459 181.776 721.859 181.776ZM724.506 83.0428C740.385 83.0428 752.803 88.5392 761.353 99.5322C769.903 110.525 774.381 123.757 774.381 139.229C774.381 149.408 772.549 158.975 769.088 167.526C765.424 176.076 759.724 183.404 751.988 189.104C744.049 195.008 734.685 197.858 723.692 197.858C714.734 197.858 706.999 196.026 700.891 191.954C694.581 187.883 689.899 182.794 687.049 176.279V195.415H669.541V40.2924H687.659V105.639C690.509 99.125 695.191 93.6286 701.502 89.3535C707.609 85.2821 715.345 83.0428 724.506 83.0428ZM917.266 141.672H937.012C936.605 159.179 930.091 173.226 917.876 183.608C905.662 194.194 890.19 199.283 871.869 199.283C856.601 199.283 843.369 195.619 832.172 187.883C820.772 180.147 812.426 170.376 807.133 158.161C801.84 146.15 799.193 132.918 799.193 118.261C799.193 95.8679 805.708 77.1391 818.736 61.8712C831.765 46.8068 850.087 39.071 873.497 39.071C891.005 39.071 905.255 43.5496 916.451 52.5068C927.648 61.464 934.162 74.0856 935.994 90.7785H916.248C914.823 80.1927 910.141 71.8462 902.201 65.7391C894.262 59.6319 884.287 56.3747 872.48 56.3747C855.379 56.3747 841.944 62.4819 832.579 74.2891C823.215 86.2999 818.533 100.957 818.533 118.057C818.533 135.768 823.215 150.833 832.986 163.251C842.758 175.668 856.194 181.776 873.701 181.776C886.323 181.776 896.501 178.315 904.644 171.393C912.787 164.472 916.859 154.497 917.266 141.672ZM1041.95 155.922H1059.86C1059.05 169.154 1053.96 179.536 1045 186.865C1035.84 194.194 1025.05 197.858 1012.43 197.858C997.771 197.858 985.556 192.972 975.785 182.997C965.81 173.226 960.924 158.975 960.924 140.654C960.924 122.739 965.81 108.693 975.581 98.5143C985.353 88.5392 997.974 83.4499 1013.45 83.0428H1014.46C1027.49 83.0428 1038.28 86.7071 1046.83 94.0357C1055.38 101.364 1059.66 111.136 1060.06 123.35H1042.35C1041.95 116.022 1038.89 109.914 1033.19 105.436C1027.49 100.957 1020.77 98.7179 1013.45 98.7179C1004.08 98.7179 996.142 102.382 989.424 109.507C982.503 116.836 979.246 127.015 979.246 140.45C979.246 154.09 982.503 164.268 989.221 171.19C995.939 178.111 1003.88 181.369 1013.24 181.369C1020.98 181.369 1027.49 179.129 1033.19 174.447C1038.69 169.765 1041.54 163.658 1041.95 155.922ZM1110.83 178.518H1138.52C1156.43 178.518 1170.48 172.615 1180.66 160.808C1190.63 149 1195.72 134.547 1195.72 117.854C1195.72 101.568 1190.63 87.7249 1180.86 76.3249C1170.89 65.1283 1156.84 59.4283 1138.92 59.4283H1110.83V178.518ZM1092.1 42.7353H1139.94C1156.02 42.7353 1169.87 46.3996 1181.47 53.3211C1193.08 60.2426 1201.63 69.1998 1207.12 80.1927C1212.41 91.1857 1215.26 103.4 1215.26 116.836C1215.26 127.015 1213.64 136.582 1210.38 145.743C1207.12 155.108 1202.44 163.454 1196.33 170.783C1190.23 178.315 1182.08 184.219 1172.11 188.697C1162.13 193.176 1150.94 195.415 1138.72 195.415H1092.1V42.7353ZM1292.06 180.961C1303.46 180.961 1312.01 177.093 1317.91 169.154C1323.61 161.215 1326.67 151.443 1326.67 139.636C1326.67 128.236 1323.61 118.668 1317.91 110.932C1312.01 103.196 1303.46 99.125 1292.26 99.125C1281.27 99.125 1272.92 103.196 1267.22 110.932C1261.52 118.872 1258.67 128.643 1258.67 140.247C1258.67 151.85 1261.32 161.622 1267.02 169.358C1272.72 177.093 1281.07 180.961 1292.06 180.961ZM1345.19 195.415H1327.68V173.836C1325.04 180.961 1320.56 186.661 1314.25 191.14C1307.73 195.619 1299.8 197.858 1290.43 197.858C1274.14 197.858 1261.52 192.361 1252.97 180.961C1244.42 169.765 1240.15 156.329 1240.15 140.45C1240.15 130.475 1241.78 121.314 1245.24 112.764C1248.7 104.418 1254.4 97.2929 1262.34 91.5928C1270.07 85.8928 1279.64 83.0428 1290.63 83.0428C1299.18 83.0428 1306.72 85.0785 1313.03 88.7428C1319.13 92.4071 1323.82 97.2929 1327.07 103.196V40.2924H1345.19V195.415ZM1384.25 195.415V42.7353H1482.37V59.4283H1402.98V109.711H1478.71V126.607H1402.98V178.518H1486.44V195.415H1384.25ZM1560.33 98.7179C1551.58 98.7179 1544.25 101.364 1538.14 106.657C1532.03 111.95 1528.37 119.889 1527.35 130.068H1590.66C1590.46 120.297 1587.61 112.764 1581.91 107.064C1576.21 101.568 1568.88 98.7179 1560.33 98.7179ZM1608.98 144.725H1526.74C1527.15 156.94 1530.41 166.101 1536.92 172.208C1543.23 178.518 1551.58 181.572 1561.96 181.572C1569.29 181.572 1575.6 179.74 1581.09 176.076C1586.39 172.411 1589.85 167.118 1591.07 160.197H1608.37C1606.34 172.411 1600.64 181.776 1591.68 188.29C1582.52 194.804 1572.14 197.858 1560.53 197.858C1546.08 197.858 1533.87 192.972 1524.09 182.997C1514.12 173.226 1509.23 158.975 1509.23 140.247C1509.23 130.679 1510.66 122.129 1513.51 114.597C1516.36 107.268 1520.23 101.161 1525.11 96.6822C1530 92.2035 1535.29 88.9464 1541.4 86.5035C1547.3 84.2642 1553.61 83.0428 1560.53 83.0428C1574.58 83.0428 1586.18 87.7249 1595.34 96.6822C1604.3 105.843 1608.98 119.075 1608.98 136.379V144.725ZM1659.74 195.415H1641.01V42.7353H1739.13V59.4283H1659.74V109.711H1735.47V126.607H1659.74V195.415ZM1815.25 56.3747H1803.24C1797.34 56.3747 1793.47 57.7997 1791.43 60.2426C1789.4 62.889 1788.58 66.7569 1788.58 71.8462V85.0785H1812.4V101.161H1788.58V195.415H1770.46V101.161H1752.75V85.0785H1770.46V70.8284C1770.46 59.2247 1773.11 51.2854 1778.81 46.8068C1784.31 42.5317 1791.84 40.2924 1801.2 40.2924H1815.25V56.3747ZM1971.19 118.464V195.415H1953.89V174.651C1949.41 182.59 1942.9 188.697 1934.35 192.972C1925.8 197.247 1916.02 199.283 1904.62 199.283C1889.76 199.283 1876.94 195.619 1865.95 188.086C1854.95 180.758 1847.01 170.986 1841.72 159.179C1836.43 147.372 1833.98 134.14 1833.98 119.686C1833.98 105.232 1836.43 92 1841.72 79.9892C1847.01 68.1819 1855.16 58.4104 1866.56 50.6747C1877.96 42.9389 1891.39 39.071 1907.27 39.071C1924.37 39.071 1939.03 43.5496 1950.84 52.5068C1962.64 61.464 1969.36 74.2891 1971.19 90.7785H1951.45C1950.02 80.1927 1945.34 71.8462 1937.6 65.7391C1929.87 59.6319 1919.89 56.3747 1908.09 56.3747C1890.99 56.3747 1877.55 62.4819 1867.78 74.2891C1858.01 86.2999 1853.12 101.161 1853.12 119.075C1853.12 136.582 1857.6 151.24 1866.96 163.454C1876.33 175.668 1889.36 181.776 1906.05 181.776C1919.49 181.776 1930.68 177.704 1939.84 169.561C1948.8 161.418 1953.48 149.815 1953.48 135.157H1901.98V118.464H1971.19ZM2053.99 174.854C2063.35 174.854 2071.29 171.801 2077.6 165.49C2083.71 159.179 2086.97 149.611 2086.97 136.99C2086.97 124.368 2083.71 115.004 2077.6 108.489C2071.29 101.975 2063.35 98.7179 2053.99 98.7179C2044.01 98.7179 2035.87 102.179 2029.36 108.897C2022.84 115.614 2019.79 124.979 2019.79 136.99C2019.79 149.204 2022.84 158.568 2029.36 165.083C2035.87 171.597 2044.01 174.854 2053.99 174.854ZM2105.7 85.0785V188.697C2105.7 205.39 2100.81 218.215 2091.45 226.765C2082.08 235.519 2069.87 239.794 2054.8 239.794C2041.77 239.794 2030.37 236.537 2020.81 230.022C2011.03 223.508 2005.33 213.533 2003.71 199.894H2021.82C2022.64 207.222 2025.9 213.126 2031.39 217.604C2036.89 222.287 2044.83 224.526 2055.01 224.526C2076.99 224.526 2088.19 212.922 2088.19 189.511V170.986C2081.27 184.626 2068.85 191.344 2051.34 191.344C2037.09 191.344 2025.28 186.661 2015.92 177.297C2006.56 167.933 2002.08 154.497 2002.08 137.397C2002.08 120.297 2006.56 107.064 2015.92 97.4964C2025.08 87.9285 2036.68 83.0428 2050.93 83.0428C2068.24 83.0428 2080.66 89.5571 2088.19 102.179V85.0785H2105.7Z" fill="#C8F863"/>
<path d="M363.683 385.092L348.3 345.674H275.338L259.955 385.092H237.628L298.306 231.904H326.294L386.437 385.092H363.683ZM282.923 326.018H340.609L311.766 252.094L282.923 326.018ZM494.327 385.092H474.671C473.923 381.46 473.603 375.585 473.603 367.573C469.116 377.721 455.442 387.229 438.564 387.229C418.16 387.549 402.136 373.128 402.457 354.861C402.457 343.644 406.409 335.418 414.207 330.184C422.006 324.949 431.3 321.958 442.303 320.997L472.534 318.647V315.121C472.534 299.845 463.882 290.979 449.781 290.979H447.964C436 290.979 426.706 296.854 425.424 307.43H404.7C405.661 287.667 424.57 273.352 448.819 273.566C477.128 273.246 493.472 292.581 493.259 315.121V361.057C493.259 371.953 493.579 379.965 494.327 385.092ZM441.021 369.816H442.73C455.87 370.137 472.962 358.172 472.534 345.674V334.671L445.187 336.7C432.047 337.982 423.288 344.178 423.288 354.006C423.288 362.979 430.765 369.816 441.021 369.816ZM531.605 385.092V231.904H598.371C622.3 231.583 642.597 248.035 642.17 272.391C642.17 289.163 632.235 301.768 617.173 307.43C625.825 308.819 632.769 312.771 637.79 319.181C642.811 325.59 645.375 333.709 645.375 343.537C645.802 368 624.544 385.413 600.508 385.092H531.605ZM553.504 297.602H595.06C610.443 297.602 620.271 288.735 620.271 274.634C620.271 260.533 610.443 251.667 595.06 251.667H553.504V297.602ZM553.504 365.436H596.128C612.793 365.436 623.475 356.57 623.475 341.294C623.475 326.231 612.793 317.258 596.128 317.258H553.504V365.436ZM734.677 387.229C719.721 387.229 703.911 379.644 698.57 369.816V385.092H677.845V231.904H698.57V290.979C701.347 285.958 705.834 281.792 712.03 278.48C718.226 275.168 725.063 273.566 732.54 273.566C759.888 273.246 782.108 295.359 781.68 330.398C782.001 365.65 762.024 387.549 734.677 387.229ZM729.442 369.816H731.152C748.137 369.816 760.956 356.036 760.956 330.398C760.956 304.759 748.137 290.979 731.152 290.979H729.442C713.739 290.765 698.249 305.08 698.57 330.398C698.249 355.715 713.739 370.03 729.442 369.816ZM878.995 387.229C835.196 387.87 806.246 353.045 806.78 308.498C806.246 263.952 835.196 229.126 878.995 229.767C911.576 229.447 938.603 249.744 940.313 280.082H918.413C916.277 261.602 900.787 249.423 880.063 249.423H877.926C847.054 248.996 828.359 275.489 828.679 308.498C828.359 341.507 847.054 368 877.926 367.573H880.063C900.787 367.573 916.277 355.395 918.413 336.914H940.313C938.603 367.252 911.576 387.656 878.995 387.229ZM1016.9 387.229C984 387.656 964.024 362.659 964.344 330.398C964.024 298.136 984 273.139 1016.9 273.566C1041.79 273.566 1059.63 288.415 1061.77 311.81H1040.94C1038.91 299.418 1030.04 290.979 1017.76 290.979H1015.94C995.751 290.658 984.962 309.139 985.175 330.398C984.962 351.763 995.751 370.137 1015.94 369.816H1017.76C1030.04 369.816 1038.91 361.377 1040.94 348.985H1061.77C1059.63 372.38 1041.79 387.229 1016.9 387.229ZM1094.99 385.092V231.904H1149.68C1192.2 231.583 1221.26 261.174 1220.83 308.498C1221.26 355.929 1192.2 385.52 1149.68 385.092H1094.99ZM1116.89 365.436H1147.55C1180.56 365.436 1198.93 345.567 1198.93 308.498C1198.93 271.643 1180.56 251.667 1147.55 251.667H1116.89V365.436ZM1293.25 387.229C1265.91 387.549 1245.93 365.65 1246.14 330.398C1245.72 295.359 1268.04 273.246 1295.39 273.566C1302.87 273.566 1309.7 275.168 1315.9 278.48C1321.99 281.792 1326.48 285.958 1329.25 290.979V231.904H1350.08V385.092H1329.25V369.816C1323.91 379.537 1308.32 387.229 1293.25 387.229ZM1296.67 369.816H1298.49C1314.3 370.03 1329.57 355.715 1329.25 330.398C1329.57 305.08 1314.3 290.765 1298.49 290.979H1296.67C1279.79 290.979 1266.97 304.759 1266.97 330.398C1266.97 356.036 1279.79 369.816 1296.67 369.816ZM1390.67 385.092V231.904H1502.31V251.667H1412.57V296.534H1489.17V316.19H1412.57V365.436H1504.44V385.092H1390.67ZM1577.62 387.229C1549.95 387.549 1525.59 367.039 1526.02 330.184C1525.48 293.97 1550.69 273.246 1576.97 273.566C1604.96 273.139 1623.76 293.543 1623.44 321.638V333.709H1546.85C1547.81 357.318 1563.62 370.03 1577.4 369.816H1579.22C1590.65 369.816 1600.26 363.727 1602.4 352.724H1623.12C1619.28 374.41 1600.37 387.229 1577.62 387.229ZM1548.13 317.258H1602.61C1602.19 308.391 1599.62 301.768 1595.03 297.388C1590.43 293.115 1584.67 290.979 1577.94 290.979H1576.12C1569.71 290.979 1563.94 293.115 1558.71 297.281C1553.47 301.554 1549.95 308.178 1548.13 317.258ZM1656.88 385.092V231.904H1764.13V251.667H1678.78V300.914H1753.13V320.57H1678.78V385.092H1656.88ZM1801.62 385.092V293.649H1777.58V275.703H1801.62V254.872C1801.62 239.595 1809.31 231.904 1824.59 231.904H1855.25V250.064H1831.21C1824.7 250.064 1822.45 252.308 1822.45 258.824V275.703H1849.8V293.649H1822.45V385.092H1801.62ZM1942.09 387.229C1899.26 387.87 1869.34 354.006 1869.88 308.498C1869.34 262.883 1899.36 229.233 1944.34 229.767C1982.69 229.447 2004.69 252.201 2006.62 282.219H1984.82C1982.58 261.281 1968.37 249.423 1945.4 249.423H1943.16C1912.72 249.103 1891.46 271.964 1891.78 308.498C1891.46 345.033 1912.72 367.893 1943.16 367.573H1945.4C1972 367.893 1988.35 350.908 1988.03 331.038V326.872H1944.34V307.43H1989.1C2001.17 307.43 2007.79 313.946 2007.79 326.018V385.092H1988.03V367.787C1983.01 375.264 1966.45 387.443 1942.09 387.229Z" fill="#FEFEF6"/>
<path d="M141.714 109.578H140.978V103.578H144.834V104.234H141.714V106.21H144.69V106.874H141.714V109.578ZM148.653 107.29L147.517 104.45L146.421 107.29H148.653ZM148.909 107.954H146.165L145.533 109.578H144.757L147.157 103.578H147.893L150.373 109.578H149.557L148.909 107.954ZM153.142 109.578H152.39L150.294 103.578H151.102L152.758 108.674L154.454 103.578H155.198L153.142 109.578ZM158.516 104.146C157.844 104.146 157.324 104.37 156.94 104.818C156.556 105.266 156.364 105.858 156.364 106.578C156.364 107.298 156.564 107.882 156.964 108.33C157.364 108.786 157.892 109.01 158.548 109.01C159.188 109.01 159.7 108.786 160.084 108.338C160.468 107.89 160.66 107.298 160.66 106.578C160.66 105.866 160.46 105.282 160.06 104.826C159.66 104.378 159.14 104.146 158.516 104.146ZM158.532 109.73C157.668 109.73 156.964 109.434 156.42 108.834C155.876 108.242 155.604 107.49 155.604 106.578C155.604 105.674 155.868 104.922 156.412 104.33C156.956 103.738 157.66 103.434 158.532 103.434C159.372 103.434 160.06 103.738 160.604 104.33C161.148 104.93 161.42 105.682 161.42 106.578C161.42 107.482 161.148 108.234 160.612 108.834C160.068 109.434 159.38 109.73 158.532 109.73ZM163.221 106.378H164.669C165.053 106.378 165.349 106.266 165.573 106.042C165.789 105.818 165.901 105.554 165.901 105.25C165.901 104.97 165.797 104.73 165.605 104.53C165.413 104.338 165.133 104.234 164.773 104.234H163.221V106.378ZM166.245 109.578L164.549 107.026H163.221V109.578H162.501V103.578H164.725C165.317 103.578 165.773 103.738 166.109 104.058C166.445 104.378 166.613 104.762 166.613 105.21C166.613 105.594 166.501 105.938 166.285 106.242C166.061 106.554 165.749 106.77 165.341 106.89L167.109 109.578H166.245ZM168.644 109.578H167.908V103.578H168.644V109.578ZM174.304 104.234H172.264V109.578H171.528V104.234H169.488V103.578H174.304V104.234ZM180.692 107.97C180.692 108.522 180.484 108.954 180.076 109.266C179.668 109.578 179.172 109.73 178.58 109.73C177.94 109.73 177.396 109.554 176.94 109.194C176.476 108.834 176.236 108.306 176.22 107.618H177.012C177.012 108.09 177.172 108.45 177.484 108.69C177.788 108.938 178.164 109.058 178.612 109.058C178.996 109.058 179.308 108.97 179.556 108.786C179.796 108.61 179.924 108.362 179.924 108.05C179.924 107.874 179.884 107.714 179.804 107.578C179.724 107.45 179.588 107.338 179.404 107.25C179.212 107.162 179.068 107.098 178.972 107.066C178.868 107.034 178.692 106.994 178.452 106.938C178.388 106.922 178.348 106.914 178.324 106.906C178.1 106.858 177.916 106.81 177.772 106.762C177.62 106.714 177.452 106.65 177.276 106.554C177.092 106.458 176.948 106.354 176.836 106.242C176.724 106.13 176.636 105.986 176.556 105.802C176.476 105.626 176.444 105.418 176.444 105.186C176.444 104.626 176.628 104.194 177.012 103.89C177.396 103.586 177.876 103.434 178.468 103.434C179.052 103.434 179.54 103.586 179.932 103.89C180.324 104.194 180.532 104.618 180.556 105.162H179.804C179.788 104.818 179.668 104.554 179.428 104.37C179.188 104.194 178.876 104.098 178.492 104.098C178.108 104.098 177.788 104.194 177.54 104.37C177.292 104.546 177.172 104.81 177.172 105.154C177.172 105.306 177.196 105.434 177.252 105.546C177.308 105.658 177.372 105.754 177.452 105.826C177.524 105.898 177.628 105.962 177.772 106.018C177.916 106.082 178.036 106.122 178.148 106.154C178.252 106.186 178.396 106.218 178.588 106.258C179.22 106.402 179.66 106.546 179.908 106.674C180.428 106.962 180.692 107.394 180.692 107.97ZM185.914 104.234H183.874V109.578H183.138V104.234H181.098V103.578H185.914V104.234ZM187.448 108.914H188.536C189.24 108.914 189.792 108.682 190.192 108.218C190.584 107.754 190.784 107.186 190.784 106.53C190.784 105.89 190.584 105.346 190.2 104.898C189.808 104.458 189.256 104.234 188.552 104.234H187.448V108.914ZM186.712 103.578H188.592C189.224 103.578 189.768 103.722 190.224 103.994C190.68 104.266 191.016 104.618 191.232 105.05C191.44 105.482 191.552 105.962 191.552 106.49C191.552 106.89 191.488 107.266 191.36 107.626C191.232 107.994 191.048 108.322 190.808 108.61C190.568 108.906 190.248 109.138 189.856 109.314C189.464 109.49 189.024 109.578 188.544 109.578H186.712V103.578Z" fill="#C8F863"/>
<path d="M146.73 302.975H146.01V298.079L144.122 302.975H143.562L141.682 298.079V302.975H140.978V296.975H142.034L143.85 301.743L145.682 296.975H146.73V302.975ZM148.087 302.975V296.975H151.943V297.631H148.823V299.607H151.799V300.271H148.823V302.311H152.103V302.975H148.087ZM157.177 301.367C157.177 301.919 156.969 302.351 156.561 302.663C156.153 302.975 155.657 303.127 155.065 303.127C154.425 303.127 153.881 302.951 153.425 302.591C152.961 302.231 152.721 301.703 152.705 301.015H153.497C153.497 301.487 153.657 301.847 153.969 302.087C154.273 302.335 154.649 302.455 155.097 302.455C155.481 302.455 155.793 302.367 156.041 302.183C156.281 302.007 156.409 301.759 156.409 301.447C156.409 301.271 156.369 301.111 156.289 300.975C156.209 300.847 156.073 300.735 155.889 300.647C155.697 300.559 155.553 300.495 155.457 300.463C155.353 300.431 155.177 300.391 154.937 300.335C154.873 300.319 154.833 300.311 154.809 300.303C154.585 300.255 154.401 300.207 154.257 300.159C154.105 300.111 153.937 300.047 153.761 299.951C153.577 299.855 153.433 299.751 153.321 299.639C153.209 299.527 153.121 299.383 153.041 299.199C152.961 299.023 152.929 298.815 152.929 298.583C152.929 298.023 153.113 297.591 153.497 297.287C153.881 296.983 154.361 296.831 154.953 296.831C155.537 296.831 156.025 296.983 156.417 297.287C156.809 297.591 157.017 298.015 157.041 298.559H156.289C156.273 298.215 156.153 297.951 155.913 297.767C155.673 297.591 155.361 297.495 154.977 297.495C154.593 297.495 154.273 297.591 154.025 297.767C153.777 297.943 153.657 298.207 153.657 298.551C153.657 298.703 153.681 298.831 153.737 298.943C153.793 299.055 153.857 299.151 153.937 299.223C154.009 299.295 154.113 299.359 154.257 299.415C154.401 299.479 154.521 299.519 154.633 299.551C154.737 299.583 154.881 299.615 155.073 299.655C155.705 299.799 156.145 299.943 156.393 300.071C156.913 300.359 157.177 300.791 157.177 301.367ZM162.372 301.367C162.372 301.919 162.164 302.351 161.756 302.663C161.348 302.975 160.852 303.127 160.26 303.127C159.62 303.127 159.076 302.951 158.62 302.591C158.156 302.231 157.916 301.703 157.9 301.015H158.692C158.692 301.487 158.852 301.847 159.164 302.087C159.468 302.335 159.844 302.455 160.292 302.455C160.676 302.455 160.988 302.367 161.236 302.183C161.476 302.007 161.604 301.759 161.604 301.447C161.604 301.271 161.564 301.111 161.484 300.975C161.404 300.847 161.268 300.735 161.084 300.647C160.892 300.559 160.748 300.495 160.652 300.463C160.548 300.431 160.372 300.391 160.132 300.335C160.068 300.319 160.028 300.311 160.004 300.303C159.78 300.255 159.596 300.207 159.452 300.159C159.3 300.111 159.132 300.047 158.956 299.951C158.772 299.855 158.628 299.751 158.516 299.639C158.404 299.527 158.316 299.383 158.236 299.199C158.156 299.023 158.124 298.815 158.124 298.583C158.124 298.023 158.308 297.591 158.692 297.287C159.076 296.983 159.556 296.831 160.148 296.831C160.732 296.831 161.22 296.983 161.612 297.287C162.004 297.591 162.212 298.015 162.236 298.559H161.484C161.468 298.215 161.348 297.951 161.108 297.767C160.868 297.591 160.556 297.495 160.172 297.495C159.788 297.495 159.468 297.591 159.22 297.767C158.972 297.943 158.852 298.207 158.852 298.551C158.852 298.703 158.876 298.831 158.932 298.943C158.988 299.055 159.052 299.151 159.132 299.223C159.204 299.295 159.308 299.359 159.452 299.415C159.596 299.479 159.716 299.519 159.828 299.551C159.932 299.583 160.076 299.615 160.268 299.655C160.9 299.799 161.34 299.943 161.588 300.071C162.108 300.359 162.372 300.791 162.372 301.367ZM164.191 302.975H163.455V296.975H164.191V302.975ZM170.163 302.975H169.403L166.307 298.103V302.975H165.595V296.975H166.475L169.451 301.719V296.975H170.163V302.975ZM174.981 300.687L173.845 297.847L172.749 300.687H174.981ZM175.237 301.351H172.493L171.861 302.975H171.085L173.485 296.975H174.221L176.701 302.975H175.885L175.237 301.351ZM183.372 301.367C183.372 301.919 183.164 302.351 182.756 302.663C182.348 302.975 181.852 303.127 181.26 303.127C180.62 303.127 180.076 302.951 179.62 302.591C179.156 302.231 178.916 301.703 178.9 301.015H179.692C179.692 301.487 179.852 301.847 180.164 302.087C180.468 302.335 180.844 302.455 181.292 302.455C181.676 302.455 181.988 302.367 182.236 302.183C182.476 302.007 182.604 301.759 182.604 301.447C182.604 301.271 182.564 301.111 182.484 300.975C182.404 300.847 182.268 300.735 182.084 300.647C181.892 300.559 181.748 300.495 181.652 300.463C181.548 300.431 181.372 300.391 181.132 300.335C181.068 300.319 181.028 300.311 181.004 300.303C180.78 300.255 180.596 300.207 180.452 300.159C180.3 300.111 180.132 300.047 179.956 299.951C179.772 299.855 179.628 299.751 179.516 299.639C179.404 299.527 179.316 299.383 179.236 299.199C179.156 299.023 179.124 298.815 179.124 298.583C179.124 298.023 179.308 297.591 179.692 297.287C180.076 296.983 180.556 296.831 181.148 296.831C181.732 296.831 182.22 296.983 182.612 297.287C183.004 297.591 183.212 298.015 183.236 298.559H182.484C182.468 298.215 182.348 297.951 182.108 297.767C181.868 297.591 181.556 297.495 181.172 297.495C180.788 297.495 180.468 297.591 180.22 297.767C179.972 297.943 179.852 298.207 179.852 298.551C179.852 298.703 179.876 298.831 179.932 298.943C179.988 299.055 180.052 299.151 180.132 299.223C180.204 299.295 180.308 299.359 180.452 299.415C180.596 299.479 180.716 299.519 180.828 299.551C180.932 299.583 181.076 299.615 181.268 299.655C181.9 299.799 182.34 299.943 182.588 300.071C183.108 300.359 183.372 300.791 183.372 301.367ZM187.715 300.687L186.579 297.847L185.483 300.687H187.715ZM187.971 301.351H185.227L184.595 302.975H183.819L186.219 296.975H186.955L189.435 302.975H188.619L187.971 301.351ZM194.921 302.975H194.161L191.065 298.103V302.975H190.353V296.975H191.233L194.209 301.719V296.975H194.921V302.975ZM200.435 301.367C200.435 301.919 200.227 302.351 199.819 302.663C199.411 302.975 198.915 303.127 198.323 303.127C197.683 303.127 197.139 302.951 196.683 302.591C196.219 302.231 195.979 301.703 195.963 301.015H196.755C196.755 301.487 196.915 301.847 197.227 302.087C197.531 302.335 197.907 302.455 198.355 302.455C198.739 302.455 199.051 302.367 199.299 302.183C199.539 302.007 199.667 301.759 199.667 301.447C199.667 301.271 199.627 301.111 199.547 300.975C199.467 300.847 199.331 300.735 199.147 300.647C198.955 300.559 198.811 300.495 198.715 300.463C198.611 300.431 198.435 300.391 198.195 300.335C198.131 300.319 198.091 300.311 198.067 300.303C197.843 300.255 197.659 300.207 197.515 300.159C197.363 300.111 197.195 300.047 197.019 299.951C196.835 299.855 196.691 299.751 196.579 299.639C196.467 299.527 196.379 299.383 196.299 299.199C196.219 299.023 196.187 298.815 196.187 298.583C196.187 298.023 196.371 297.591 196.755 297.287C197.139 296.983 197.619 296.831 198.211 296.831C198.795 296.831 199.283 296.983 199.675 297.287C200.067 297.591 200.275 298.015 200.299 298.559H199.547C199.531 298.215 199.411 297.951 199.171 297.767C198.931 297.591 198.619 297.495 198.235 297.495C197.851 297.495 197.531 297.591 197.283 297.767C197.035 297.943 196.915 298.207 196.915 298.551C196.915 298.703 196.939 298.831 196.995 298.943C197.051 299.055 197.115 299.151 197.195 299.223C197.267 299.295 197.371 299.359 197.515 299.415C197.659 299.479 197.779 299.519 197.891 299.551C197.995 299.583 198.139 299.615 198.331 299.655C198.963 299.799 199.403 299.943 199.651 300.071C200.171 300.359 200.435 300.791 200.435 301.367Z" fill="#FEFEF6"/>
</g>
<defs>
<clipPath id="clip0_1708_5593">
<rect width="1240" height="425.351" fill="white" transform="translate(0 0.554443)"/>
</clipPath>
</defs>
</svg>
