<svg width="1240" height="426" viewBox="0 0 1240 426" fill="none" xmlns="http://www.w3.org/2000/svg">
<g clip-path="url(#clip0_1674_2272)">
<rect y="0.0209961" width="1239.48" height="425.351" fill="#F9F7F2"/>
<path d="M110.091 236.103C109.304 236.103 108.694 235.775 108.262 235.12C107.829 234.458 107.613 233.52 107.613 232.307C107.613 231.464 107.721 230.76 107.937 230.195C108.154 229.624 108.474 229.195 108.899 228.909C109.332 228.616 109.865 228.47 110.499 228.47C111.001 228.47 111.444 228.585 111.827 228.815C112.211 229.038 112.503 229.352 112.705 229.756C112.908 230.16 113.009 230.631 113.009 231.168H112.225C112.225 230.554 112.071 230.073 111.764 229.725C111.458 229.376 111.036 229.202 110.499 229.202C110.032 229.202 109.645 229.313 109.339 229.536C109.032 229.759 108.802 230.101 108.648 230.561C108.495 231.021 108.418 231.603 108.418 232.307C108.418 233.332 108.572 234.099 108.879 234.608C109.192 235.117 109.652 235.371 110.259 235.371C110.789 235.371 111.207 235.162 111.513 234.744C111.827 234.325 112.008 233.733 112.057 232.966H110.123V232.255H112.789V235.946H112.015L112.214 234.158H112.078C111.994 234.59 111.866 234.949 111.691 235.235C111.517 235.521 111.294 235.737 111.022 235.883C110.757 236.03 110.447 236.103 110.091 236.103ZM116.115 229.15H116.868V235.946H116.115V229.15ZM113.606 228.627H119.378V229.348H113.606V228.627ZM126.961 228.627H131.415V229.348H127.39L127.714 229.024V235.946H126.961V228.627ZM127.431 231.92H131.248V232.642H127.431V231.92ZM133.257 228.627H134.02V235.946H133.257V228.627ZM133.759 235.225H137.795V235.946H133.759V235.225ZM139.187 228.627H143.474V229.348H139.939V231.92H143.369V232.642H139.939V235.225H143.474V235.946H139.187V228.627ZM146.789 232.276L144.594 228.627H145.451L147.134 231.419L147.281 231.879H147.417L147.542 231.419L149.236 228.627H150.094L147.898 232.276L150.094 235.946H149.226L147.511 233.029L147.417 232.631H147.281L147.197 233.029L145.461 235.946H144.594L146.789 232.276ZM152.939 228.627H154.099L156.463 235.946H155.637L153.65 229.599L153.587 229.118H153.451L153.378 229.599L151.402 235.946H150.576L152.939 228.627ZM151.935 232.516H155.093V233.238H151.935V232.516ZM165.75 233.154H165.928L165.97 232.673L167.078 228.627H167.684L167.632 229.327H167.381L167.287 230.174L166.21 233.855H165.625L165.75 233.154ZM163.471 228.627H164.203V235.946H163.471V228.627ZM164.433 230.174L164.338 229.327H164.077L164.025 228.627H164.642L165.75 232.673L165.792 233.154H165.97L166.085 233.855H165.51L164.433 230.174ZM167.507 228.627H168.239V235.946H167.507V228.627ZM172.025 236.103C171.133 236.103 170.45 235.775 169.976 235.12C169.509 234.465 169.275 233.52 169.275 232.286C169.275 231.471 169.38 230.777 169.589 230.206C169.798 229.634 170.108 229.202 170.519 228.909C170.938 228.616 171.439 228.47 172.025 228.47C172.917 228.47 173.597 228.798 174.064 229.453C174.538 230.108 174.775 231.053 174.775 232.286C174.775 233.102 174.67 233.796 174.461 234.367C174.252 234.939 173.942 235.371 173.531 235.664C173.119 235.957 172.617 236.103 172.025 236.103ZM172.025 235.371C172.457 235.371 172.816 235.256 173.102 235.026C173.388 234.796 173.604 234.451 173.75 233.991C173.904 233.531 173.98 232.963 173.98 232.286C173.98 231.269 173.816 230.502 173.489 229.986C173.161 229.463 172.673 229.202 172.025 229.202C171.593 229.202 171.234 229.317 170.948 229.547C170.662 229.777 170.443 230.122 170.289 230.582C170.143 231.042 170.07 231.61 170.07 232.286C170.07 233.304 170.233 234.074 170.561 234.597C170.889 235.113 171.377 235.371 172.025 235.371ZM176.857 230.185L176.711 229.359H176.481L176.313 228.627H177.024L179.534 234.388L179.68 235.235H179.931L180.077 235.946H179.366L176.857 230.185ZM175.811 228.627H176.575V235.946H175.811V228.627ZM179.816 228.627H180.579V235.946H179.816V228.627ZM184.366 236.103C183.473 236.103 182.79 235.775 182.316 235.12C181.849 234.465 181.616 233.52 181.616 232.286C181.616 231.471 181.72 230.777 181.929 230.206C182.139 229.634 182.449 229.202 182.86 228.909C183.278 228.616 183.78 228.47 184.366 228.47C185.258 228.47 185.938 228.798 186.405 229.453C186.879 230.108 187.116 231.053 187.116 232.286C187.116 233.102 187.011 233.796 186.802 234.367C186.593 234.939 186.283 235.371 185.871 235.664C185.46 235.957 184.958 236.103 184.366 236.103ZM184.366 235.371C184.798 235.371 185.157 235.256 185.443 235.026C185.728 234.796 185.945 234.451 186.091 233.991C186.244 233.531 186.321 232.963 186.321 232.286C186.321 231.269 186.157 230.502 185.83 229.986C185.502 229.463 185.014 229.202 184.366 229.202C183.933 229.202 183.574 229.317 183.289 229.547C183.003 229.777 182.783 230.122 182.63 230.582C182.484 231.042 182.41 231.61 182.41 232.286C182.41 233.304 182.574 234.074 182.902 234.597C183.229 235.113 183.717 235.371 184.366 235.371Z" fill="black"/>
<path d="M148.556 255.812H166.61L203.37 369.667H190.52L159.616 270.938L158.64 263.456H156.526L155.387 270.938L124.646 369.667H111.797L148.556 255.812ZM132.942 316.318H182.062V327.541H132.942V316.318ZM219.654 255.812H257.389C268.124 255.812 276.582 258.577 282.762 264.107C288.943 269.528 292.033 276.794 292.033 285.902C292.033 290.782 291.112 295.065 289.268 298.751C287.425 302.33 284.823 305.258 281.461 307.535C278.208 309.703 274.359 311.059 269.913 311.601V313.878C274.359 314.42 278.208 315.776 281.461 317.944C284.823 320.113 287.425 322.986 289.268 326.565C291.112 330.143 292.033 334.318 292.033 339.089C292.033 345.27 290.624 350.691 287.805 355.354C285.094 359.908 281.136 363.432 275.931 365.926C270.726 368.42 264.545 369.667 257.389 369.667H219.654V255.812ZM256.413 358.444C263.895 358.444 269.696 356.709 273.817 353.24C277.937 349.77 279.997 344.673 279.997 337.95C279.997 331.444 277.883 326.511 273.654 323.149C269.533 319.788 263.786 318.107 256.413 318.107H227.786V307.372H256.413C261.292 307.372 265.467 306.667 268.937 305.258C272.515 303.739 275.226 301.517 277.07 298.589C279.021 295.553 279.997 291.866 279.997 287.529C279.997 280.806 277.937 275.709 273.817 272.239C269.696 268.769 263.895 267.034 256.413 267.034H231.365V358.444H256.413ZM351.583 372.107C337.595 372.107 327.023 367.119 319.866 357.143C312.709 347.059 309.131 332.258 309.131 312.739C309.131 299.727 310.757 288.83 314.01 280.047C317.263 271.263 322.143 264.649 328.649 260.203C335.264 255.649 343.342 253.372 352.884 253.372C360.8 253.372 367.685 255.161 373.541 258.739C379.505 262.318 384.059 267.36 387.203 273.866C390.456 280.263 392.083 287.8 392.083 296.474H379.884C379.884 289.968 378.8 284.33 376.631 279.559C374.462 274.788 371.318 271.155 367.197 268.661C363.185 266.059 358.414 264.757 352.884 264.757C345.836 264.757 339.98 266.492 335.318 269.962C330.763 273.432 327.294 278.745 324.908 285.902C322.631 292.95 321.492 301.896 321.492 312.739C321.492 328.896 323.986 340.932 328.974 348.848C333.962 356.764 341.498 360.722 351.583 360.722C359.824 360.722 366.276 357.902 370.938 352.264C375.709 346.625 378.095 338.872 378.095 329.005H390.294C390.294 337.462 388.667 344.944 385.414 351.45C382.27 357.956 377.715 363.053 371.752 366.74C365.896 370.318 359.173 372.107 351.583 372.107ZM409.994 255.812H439.596C449.247 255.812 457.542 258.089 464.482 262.643C471.53 267.197 476.897 273.757 480.584 282.324C484.379 290.89 486.277 301.029 486.277 312.739C486.277 324.45 484.379 334.589 480.584 343.155C476.897 351.722 471.53 358.282 464.482 362.836C457.542 367.39 449.247 369.667 439.596 369.667H409.994V255.812ZM440.572 358.444C447.295 358.444 453.15 356.601 458.138 352.914C463.235 349.119 467.138 343.806 469.849 336.974C472.56 330.035 473.916 321.956 473.916 312.739C473.916 303.523 472.56 295.498 469.849 288.667C467.138 281.727 463.235 276.414 458.138 272.727C453.15 268.932 447.295 267.034 440.572 267.034H421.867V358.444H440.572ZM510.531 255.812H577.218V267.034H522.242V307.047H575.592V318.27H522.242V358.444H577.218V369.667H510.531V255.812ZM608.303 255.812H677.593V267.034H614.972L620.014 261.992V369.667H608.303V255.812ZM615.623 307.047H674.99V318.27H615.623V307.047ZM729.823 372.107C717.57 372.107 708.082 367.011 701.359 356.818C694.636 346.517 691.275 331.932 691.275 313.065C691.275 299.944 692.955 288.992 696.317 280.209C699.678 271.318 704.666 264.649 711.281 260.203C718.004 255.649 726.299 253.372 736.166 253.372C743.974 253.372 750.859 255.161 756.823 258.739C762.787 262.209 767.341 267.089 770.486 273.378C773.63 279.667 775.203 286.986 775.203 295.336H763.004C763.004 285.794 760.618 278.312 755.847 272.89C751.076 267.468 744.516 264.757 736.166 264.757C728.901 264.757 722.883 266.492 718.112 269.962C713.341 273.432 709.763 278.745 707.377 285.902C704.992 293.059 703.799 302.113 703.799 313.065C703.799 329.005 706.184 340.932 710.955 348.848C715.835 356.764 722.992 360.722 732.425 360.722C740.666 360.722 747.172 357.469 751.944 350.962C756.823 344.456 759.642 335.24 760.401 323.312H730.311V312.252H771.787V369.667H759.751L762.841 341.854H760.727C759.425 348.577 757.419 354.161 754.709 358.607C751.998 363.053 748.528 366.414 744.299 368.691C740.178 370.969 735.353 372.107 729.823 372.107ZM854.595 255.812H866.469V369.667H854.595V255.812ZM792.3 255.812H804.174V369.667H792.3V255.812ZM800.595 307.047H859.15V318.27H800.595V307.047ZM888.283 358.932H919.512V266.547H888.283V255.812H962.452V266.547H931.223V358.932H962.452V369.667H888.283V358.932ZM1017.12 372.107C1009.21 372.107 1002.54 370.535 997.116 367.39C991.694 364.246 987.574 359.637 984.754 353.565C981.935 347.384 980.525 339.848 980.525 330.956V312.739H992.236V330.956C992.236 340.824 994.297 348.252 998.417 353.24C1002.65 358.228 1008.88 360.722 1017.12 360.722C1025.04 360.722 1031.06 358.119 1035.18 352.914C1039.3 347.709 1041.36 340.553 1041.36 331.444V255.812H1053.23V331.444C1053.23 344.24 1050.03 354.216 1043.63 361.372C1037.34 368.529 1028.51 372.107 1017.12 372.107ZM1090.5 325.752H1094.08L1149.38 255.812H1163.2L1119.45 312.902L1117.17 314.366L1094.73 342.993L1090.5 325.752ZM1083.34 255.812H1095.05V317.944L1091.96 325.752L1095.05 328.517V369.667H1083.34V255.812ZM1110.5 309.812L1120.42 303.956L1162.39 369.667H1147.91L1110.5 309.812ZM1186.15 255.812H1198.03V369.667H1186.15V255.812ZM1193.96 358.444H1256.75V369.667H1193.96V358.444Z" fill="black"/>
<path d="M224.174 228.627H224.937V235.946H224.174V228.627ZM224.676 235.225H228.712V235.946H224.676V235.225ZM229.706 235.256H231.714V229.317H229.706V228.627H234.474V229.317H232.467V235.256H234.474V235.946H229.706V235.256ZM238.031 236.103C237.243 236.103 236.633 235.775 236.201 235.12C235.769 234.458 235.553 233.52 235.553 232.307C235.553 231.464 235.661 230.76 235.877 230.195C236.093 229.624 236.414 229.195 236.839 228.909C237.271 228.616 237.804 228.47 238.439 228.47C238.94 228.47 239.383 228.585 239.766 228.815C240.15 229.038 240.443 229.352 240.645 229.756C240.847 230.16 240.948 230.631 240.948 231.168H240.164C240.164 230.554 240.01 230.073 239.704 229.725C239.397 229.376 238.975 229.202 238.439 229.202C237.972 229.202 237.585 229.313 237.278 229.536C236.971 229.759 236.741 230.101 236.588 230.561C236.434 231.021 236.358 231.603 236.358 232.307C236.358 233.332 236.511 234.099 236.818 234.608C237.132 235.117 237.592 235.371 238.198 235.371C238.728 235.371 239.146 235.162 239.453 234.744C239.766 234.325 239.948 233.733 239.997 232.966H238.062V232.255H240.728V235.946H239.955L240.153 234.158H240.017C239.934 234.59 239.805 234.949 239.631 235.235C239.456 235.521 239.233 235.737 238.961 235.883C238.696 236.03 238.386 236.103 238.031 236.103ZM246.052 228.627H246.815V235.946H246.052V228.627ZM242.047 228.627H242.81V235.946H242.047V228.627ZM242.58 231.92H246.345V232.642H242.58V231.92ZM250.225 229.15H250.978V235.946H250.225V229.15ZM247.716 228.627H253.487V229.348H247.716V228.627ZM260.726 228.627H263.225C263.726 228.627 264.155 228.7 264.511 228.846C264.873 228.986 265.148 229.209 265.337 229.516C265.532 229.815 265.629 230.195 265.629 230.655C265.629 231.094 265.528 231.457 265.326 231.743C265.124 232.028 264.845 232.238 264.49 232.37C264.134 232.496 263.712 232.558 263.225 232.558H262.66L262.597 232.673H261.478V231.764H263.35C263.754 231.764 264.065 231.669 264.281 231.481C264.497 231.293 264.605 231.021 264.605 230.666C264.605 230.31 264.493 230.042 264.27 229.861C264.054 229.679 263.751 229.589 263.36 229.589H261.729V235.946H260.726V228.627ZM262.043 232.391L263.329 232.475V232.715L263.58 232.861L265.629 235.946H264.343L262.043 232.391ZM267.032 228.627H271.392V229.589H268.046V231.805H271.287V232.757H268.046V234.984H271.392V235.946H267.032V228.627ZM275.011 236.103C274.23 236.103 273.624 235.775 273.192 235.12C272.759 234.465 272.543 233.52 272.543 232.286C272.543 231.436 272.651 230.728 272.868 230.164C273.084 229.599 273.408 229.177 273.84 228.899C274.272 228.613 274.816 228.47 275.471 228.47C275.966 228.47 276.405 228.585 276.789 228.815C277.172 229.045 277.468 229.366 277.677 229.777C277.886 230.188 277.991 230.659 277.991 231.188H276.956C276.956 230.638 276.823 230.209 276.559 229.902C276.301 229.589 275.938 229.432 275.471 229.432C275.039 229.432 274.687 229.533 274.415 229.735C274.143 229.93 273.941 230.237 273.809 230.655C273.676 231.073 273.61 231.617 273.61 232.286C273.61 233.269 273.742 233.991 274.007 234.451C274.279 234.911 274.697 235.141 275.262 235.141C275.708 235.141 276.06 234.97 276.318 234.629C276.583 234.28 276.74 233.778 276.789 233.123H275.042V232.171H277.751V235.946H276.747L277.008 234.325H276.851C276.775 234.716 276.653 235.043 276.485 235.308C276.325 235.566 276.119 235.765 275.868 235.904C275.624 236.037 275.339 236.103 275.011 236.103ZM281.453 236.103C280.986 236.103 280.568 236.002 280.199 235.8C279.836 235.598 279.554 235.315 279.352 234.953C279.149 234.59 279.048 234.175 279.048 233.708V228.627H280.063V233.708C280.063 234.008 280.118 234.266 280.23 234.482C280.341 234.691 280.502 234.855 280.711 234.974C280.92 235.085 281.167 235.141 281.453 235.141C281.892 235.141 282.234 235.015 282.478 234.765C282.722 234.507 282.844 234.155 282.844 233.708V228.627H283.858V233.708C283.858 234.175 283.757 234.59 283.555 234.953C283.353 235.315 283.067 235.598 282.698 235.8C282.335 236.002 281.92 236.103 281.453 236.103ZM285.867 228.627H286.871V235.946H285.867V228.627ZM286.578 234.984H290.447V235.946H286.578V234.984ZM292.999 228.627H294.599L296.764 235.946H295.676L293.94 229.766L293.878 229.223H293.721L293.658 229.766L291.922 235.946H290.835L292.999 228.627ZM292.205 232.412H295.394V233.363H292.205V232.412ZM297.748 228.627H300.247C300.749 228.627 301.177 228.7 301.533 228.846C301.895 228.986 302.171 229.209 302.359 229.516C302.554 229.815 302.652 230.195 302.652 230.655C302.652 231.094 302.55 231.457 302.348 231.743C302.146 232.028 301.867 232.238 301.512 232.37C301.156 232.496 300.735 232.558 300.247 232.558H299.682L299.619 232.673H298.5V231.764H300.372C300.776 231.764 301.087 231.669 301.303 231.481C301.519 231.293 301.627 231.021 301.627 230.666C301.627 230.31 301.515 230.042 301.292 229.861C301.076 229.679 300.773 229.589 300.383 229.589H298.751V235.946H297.748V228.627ZM299.065 232.391L300.351 232.475V232.715L300.602 232.861L302.652 235.946H301.365L299.065 232.391Z" fill="black"/>
<path d="M109.548 63.7888L107.645 56.4381L107.216 56.3127V56.1977H109.067V56.3231L108.22 56.4277V56.6368L109.778 62.9H109.82L111.336 56.6368V56.4277L110.489 56.3231V56.1977H112.057V56.3127L111.629 56.4381L109.778 63.7888H109.548ZM112.727 63.7261V63.6006L113.281 63.5483L113.5 63.4438V56.48L113.281 56.3754L112.727 56.3231V56.1977H114.787V56.3231L114.222 56.3754L114.013 56.48V63.4438L114.222 63.5483L114.787 63.6006V63.7261H112.727ZM117.42 63.8829C116.322 63.8829 115.34 62.5864 115.34 60.0664C115.34 57.7452 116.218 56.0408 117.619 56.0408C118.11 56.0408 118.665 56.2708 119.114 56.8773L119.208 58.2575H119.02L118.947 57.902C118.727 56.8773 118.194 56.229 117.514 56.229C116.437 56.229 115.841 57.902 115.841 59.9514C115.841 62.2936 116.605 63.5379 117.577 63.5379C118.11 63.5379 118.633 63.1614 119.104 62.3772L119.25 62.4818C118.738 63.4019 118.089 63.8829 117.42 63.8829ZM121.279 63.7261V63.6006L121.843 63.5483L122.073 63.4438V56.4172L120.84 56.3231L120.223 58.1007H120.076L120.369 56.1454H120.474L120.777 56.1977H123.882L124.186 56.1454H124.29L124.583 58.1007H124.436L123.809 56.3231L122.586 56.4172V63.4438L122.805 63.5483L123.38 63.6006V63.7261H121.279ZM127.396 63.8829C126.173 63.8829 125.326 62.2622 125.326 60.0141C125.326 57.672 126.235 56.0408 127.469 56.0408C128.692 56.0408 129.539 57.6615 129.539 59.9096C129.539 62.2413 128.619 63.8829 127.396 63.8829ZM125.827 59.8259C125.827 62.1367 126.507 63.6947 127.469 63.6947C128.4 63.6947 129.027 62.2518 129.027 60.0978C129.027 57.787 128.337 56.229 127.396 56.229C126.465 56.229 125.827 57.672 125.827 59.8259ZM130.2 63.7261V63.6006L130.67 63.5483L130.858 63.4438V56.48L130.67 56.3754L130.2 56.3231V56.1977H132.26C133.347 56.1977 134.058 56.9819 134.058 58.1216C134.058 59.209 133.42 59.9828 132.385 60.0873L134.194 63.4019L134.915 63.5797V63.7261H133.817L131.935 60.0978H131.36V63.4438L131.622 63.5483L132.322 63.6006V63.7261H130.2ZM131.36 59.92H132.145C133.012 59.92 133.556 59.1881 133.556 58.1425C133.556 57.0655 132.981 56.4277 132.186 56.4277H131.36V59.92ZM141.056 63.7261L137.94 56.7205L137.961 63.4438L138.201 63.5483L138.829 63.6006V63.7261H137.041V63.6006L137.522 63.5483L137.71 63.4438V56.4381L137.103 56.3127V56.1977H138.243L141.139 62.7014L141.129 56.48L140.878 56.3754L140.251 56.3231V56.1977H142.049V56.3231L141.558 56.3754L141.37 56.48V63.2242L141.547 63.6215V63.7261H141.056ZM145.569 63.7261V63.6006L146.489 63.496V63.2869L145.914 61.112H143.718L143.112 63.2869V63.496L143.969 63.6006V63.7261H142.422V63.6111L142.83 63.4856L144.743 56.71L144.607 56.2081V56.114H145.109L147.064 63.4856L147.462 63.6111V63.7261H145.569ZM143.781 60.9134H145.862L144.848 57.0969L143.781 60.9134ZM148.14 63.7261V63.6006L148.61 63.5483L148.798 63.4438V56.48L148.61 56.3754L148.14 56.3231V56.1977H150.2C151.287 56.1977 151.998 56.9819 151.998 58.1216C151.998 59.209 151.36 59.9828 150.325 60.0873L152.134 63.4019L152.855 63.5797V63.7261H151.758L149.875 60.0978H149.3V63.4438L149.562 63.5483L150.262 63.6006V63.7261H148.14ZM149.3 59.92H150.085C150.952 59.92 151.496 59.1881 151.496 58.1425C151.496 57.0655 150.921 56.4277 150.126 56.4277H149.3V59.92ZM153.516 63.7261V63.6006L153.986 63.5483L154.174 63.4438V56.48L153.986 56.3754L153.516 56.3231V56.1977H155.576C156.663 56.1977 157.374 56.9819 157.374 58.1216C157.374 59.209 156.736 59.9828 155.701 60.0873L157.51 63.4019L158.231 63.5797V63.7261H157.133L155.251 60.0978H154.676V63.4438L154.938 63.5483L155.638 63.6006V63.7261H153.516ZM154.676 59.92H155.46C156.328 59.92 156.872 59.1881 156.872 58.1425C156.872 57.0655 156.297 56.4277 155.502 56.4277H154.676V59.92ZM160.565 63.8829C159.342 63.8829 158.495 62.2622 158.495 60.0141C158.495 57.672 159.404 56.0408 160.638 56.0408C161.862 56.0408 162.709 57.6615 162.709 59.9096C162.709 62.2413 161.788 63.8829 160.565 63.8829ZM158.997 59.8259C158.997 62.1367 159.676 63.6947 160.638 63.6947C161.569 63.6947 162.196 62.2518 162.196 60.0978C162.196 57.787 161.506 56.229 160.565 56.229C159.635 56.229 158.997 57.672 158.997 59.8259ZM167.826 63.7993L166.739 59.4181L165.62 63.7993H165.369L163.476 56.4381L163.058 56.3127V56.1977H167.429V56.3231L166.54 56.4277V56.6368L168.056 62.9105H168.098L169.509 56.6368V56.4277L168.61 56.3231V56.1977H170.21V56.3127L169.813 56.4381L168.077 63.7993H167.826ZM164.062 56.6473L165.62 62.9105H165.662L166.623 58.9581L165.975 56.3649H164.062V56.6473Z" fill="black"/>
<path d="M219.811 63.7261V63.6006L220.282 63.5483L220.47 63.4438V56.48L220.282 56.3754L219.811 56.3231V56.1977H221.777V56.3231L221.202 56.3754L220.982 56.48V63.517H222.969L223.607 61.7185H223.753L223.46 63.6842V63.7261H219.811ZM224.316 63.7261V63.6006L224.871 63.5483L225.09 63.4438V56.48L224.871 56.3754L224.316 56.3231V56.1977H226.376V56.3231L225.812 56.3754L225.603 56.48V63.4438L225.812 63.5483L226.376 63.6006V63.7261H224.316ZM229.261 63.8829C227.954 63.8829 226.929 62.2831 226.929 59.9619C226.929 57.6615 227.923 56.0408 229.449 56.0408C230.056 56.0408 230.62 56.3231 231.049 56.7518L231.143 58.2575H230.965L230.892 57.8706C230.673 56.8668 230.129 56.2186 229.355 56.2186C228.247 56.2186 227.442 57.5988 227.442 59.8782C227.442 62.0322 228.205 63.6424 229.334 63.6424C229.951 63.6424 230.349 63.1719 230.631 62.4295V60.3383L230.307 60.2233L229.481 60.1814V60.056H231.509V60.1605L231.101 60.2965V63.7261H230.976L230.777 62.5759C230.443 63.3392 230.003 63.8829 229.261 63.8829ZM232.11 63.7261V63.6006L232.58 63.5483L232.769 63.4438V56.48L232.58 56.3754L232.11 56.3231V56.1977H233.95V56.3231L233.469 56.3754L233.281 56.48V59.7632H235.822V56.48L235.634 56.3754L235.153 56.3231V56.1977H236.993V56.3231L236.512 56.3754L236.334 56.48V63.4438L236.512 63.5483L236.993 63.6006V63.7261H235.153V63.6006L235.634 63.5483L235.822 63.4438V59.9723H233.281V63.4438L233.469 63.5483L233.95 63.6006V63.7261H232.11ZM238.878 63.7261V63.6006L239.442 63.5483L239.672 63.4438V56.4172L238.438 56.3231L237.821 58.1007H237.675L237.968 56.1454H238.072L238.376 56.1977H241.481L241.784 56.1454H241.889L242.182 58.1007H242.035L241.408 56.3231L240.185 56.4172V63.4438L240.404 63.5483L240.979 63.6006V63.7261H238.878Z" fill="black"/>
<path d="M247.402 63.7574L245.75 57.306L245.76 63.3392L245.99 63.4856L246.513 63.5274V63.7261H244.725V63.5274L245.175 63.4856L245.373 63.3392V56.5427L244.767 56.3649V56.1977H246.503L247.945 62.0531H248.008L249.493 56.1977H251.208V56.3649L250.622 56.5427V63.3392L250.821 63.4856L251.271 63.5274V63.7261H248.876V63.5274L249.378 63.4856L249.598 63.3392V57.306L247.935 63.7574H247.402ZM252.021 63.7261V63.5274L252.449 63.4856L252.648 63.3392V56.5845L252.449 56.4381L252.021 56.3963V56.1977H256.015V56.3022L256.255 58.1948H256.036L255.126 56.5218H253.662V59.7005H254.415L255.304 59.5018H255.492V60.2024H255.304L254.415 60.0037H253.662V63.4019H255.199L256.098 61.6453H256.329L256.088 63.632V63.7261H252.021ZM256.937 63.7261V63.5274L257.366 63.4856L257.564 63.3392V56.5845L257.366 56.4381L256.937 56.3963V56.1977H258.934C260.848 56.1977 261.872 57.6406 261.872 59.941C261.872 62.2518 260.827 63.7261 258.955 63.7261H256.937ZM258.558 63.4124H259.007C260.21 63.4124 260.879 62.3981 260.879 60.0037C260.879 57.5988 260.21 56.5113 258.997 56.5113H258.558V63.4124ZM262.373 63.7261V63.5274L262.853 63.4856L263.073 63.3392V56.5845L262.853 56.4381L262.373 56.3963V56.1977H264.788V56.3963L264.307 56.4381L264.087 56.5845V63.3392L264.307 63.4856L264.788 63.5274V63.7261H262.373ZM268.014 63.8829C266.801 63.8829 266.017 63.0987 266.017 61.3107V56.5845L265.818 56.4381L265.39 56.3963V56.1977H267.795V56.3963L267.272 56.4381L267.031 56.5845V61.4466C267.031 62.7432 267.533 63.3078 268.307 63.3078C269.091 63.3078 269.572 62.7327 269.572 61.4571V56.5845L269.332 56.4381L268.809 56.3963V56.1977H270.649V56.3963L270.179 56.4381L269.959 56.5845V61.3107C269.959 63.0882 269.217 63.8829 268.014 63.8829ZM273.944 63.7574L272.292 57.306L272.303 63.3392L272.533 63.4856L273.056 63.5274V63.7261H271.268V63.5274L271.717 63.4856L271.916 63.3392V56.5427L271.309 56.3649V56.1977H273.045L274.488 62.0531H274.551L276.036 56.1977H277.75V56.3649L277.165 56.5427V63.3392L277.364 63.4856L277.813 63.5274V63.7261H275.419V63.5274L275.921 63.4856L276.14 63.3392V57.306L274.478 63.7574H273.944Z" fill="black"/>
<path d="M157.99 199.447V197.496L172.303 195.869V192.616L163.357 158.785H129.201L119.767 192.616V195.869L133.104 197.496V199.447H109.032V197.658L115.375 195.706L145.14 90.3085L143.026 82.5012V81.0374H150.833L181.249 195.706L187.43 197.658V199.447H157.99ZM130.177 155.694H162.544L146.767 96.3266L130.177 155.694ZM189.843 199.447V197.496L197.162 196.682L200.09 195.056V86.7302L197.162 85.1036L189.843 84.2904V82.3386H221.885C238.476 82.3386 249.698 93.8868 249.698 110.64C249.698 126.092 240.59 137.315 228.391 139.266V139.917C242.379 140.405 252.626 151.791 252.626 168.869C252.626 187.249 240.427 199.447 221.885 199.447H189.843ZM207.897 195.869H221.56C235.222 195.869 244.819 186.273 244.819 169.194C244.819 151.628 234.897 141.544 221.397 141.544H207.897V195.869ZM207.897 138.616H220.747C233.596 138.616 242.216 128.694 242.216 112.104C242.216 95.188 232.457 85.5916 220.421 85.5916H207.897V138.616ZM291.373 201.887C274.294 201.887 259.005 181.718 259.005 142.519C259.005 106.411 272.668 79.8988 294.463 79.8988C302.108 79.8988 310.728 83.4771 317.722 92.9109L319.186 114.381H316.258L315.12 108.851C311.704 92.9109 303.409 82.8265 292.837 82.8265C276.083 82.8265 266.812 108.851 266.812 140.73C266.812 177.164 278.686 196.52 293.812 196.52C302.108 196.52 310.24 190.664 317.56 178.465L319.837 180.092C311.867 194.405 301.782 201.887 291.373 201.887ZM321.45 199.447V197.496L328.77 196.682L331.697 195.056V86.7302L328.77 85.1036L321.45 84.2904V82.3386H348.938C376.101 82.3386 391.553 105.435 391.553 140.405C391.553 175.538 375.613 199.447 349.589 199.447H321.45ZM339.505 196.357H349.752C371.547 196.357 383.908 176.026 383.908 142.032C383.908 107.712 371.547 85.4289 349.426 85.4289H339.505V196.357ZM393.767 199.447V197.496L401.086 196.682L404.014 195.056V86.7302L401.086 85.1036L393.767 84.2904V82.3386H449.556V83.3145L454.11 110.315H451.67L441.911 85.5916H411.984V137.803H426.947L440.122 135.851H442.237V142.682H440.122L426.947 140.73H411.984V196.194H442.725L452.484 170.983H454.923L450.369 198.471V199.447H393.767ZM457.664 199.447V197.496L464.984 196.682L467.911 195.056V86.7302L464.984 85.1036L457.664 84.2904V82.3386H512.966V83.1518L517.52 109.827H515.243L505.321 85.2663H475.881V139.754H492.472L505.809 137.64H507.924V144.797H505.809L492.472 142.682H475.881V195.056L480.436 196.682L492.634 197.496V199.447H457.664ZM557.38 201.887C537.048 201.887 521.108 177.002 521.108 140.893C521.108 105.11 536.56 79.8988 560.307 79.8988C569.741 79.8988 578.524 84.2904 585.193 90.9591L586.657 114.381H583.892L582.753 108.363C579.338 92.7482 570.88 82.6639 558.844 82.6639C541.603 82.6639 529.078 104.134 529.078 139.592C529.078 173.098 540.952 198.146 558.518 198.146C568.115 198.146 574.295 190.827 578.687 179.279V146.748L573.645 144.959L560.795 144.309V142.357H592.35V143.983L586.006 146.098V199.447H584.054L580.964 181.556C575.759 193.429 568.928 201.887 557.38 201.887ZM593.561 199.447V197.496L600.88 196.682L603.808 195.056V86.7302L600.88 85.1036L593.561 84.2904V82.3386H622.187V84.2904L614.705 85.1036L611.778 86.7302V137.803H651.302V86.7302L648.374 85.1036L640.892 84.2904V82.3386H669.519V84.2904L662.037 85.1036L659.272 86.7302V195.056L662.037 196.682L669.519 197.496V199.447H640.892V197.496L648.374 196.682L651.302 195.056V141.056H611.778V195.056L614.705 196.682L622.187 197.496V199.447H593.561ZM674.73 199.447V197.496L683.35 196.682L686.766 195.056V86.7302L683.35 85.1036L674.73 84.2904V82.3386H706.772V84.2904L697.989 85.1036L694.736 86.7302V195.056L697.989 196.682L706.772 197.496V199.447H674.73ZM701.363 219.779V213.11H720.068C724.297 208.393 725.598 204.164 725.598 197.008V86.7302L721.694 85.1036L711.61 84.2904V82.3386H743.977V84.2904L736.495 85.1036L733.568 86.7302V190.827C733.568 208.231 721.694 219.779 703.477 219.779H701.363ZM748.403 199.447V197.496L755.723 196.682L758.65 195.056V86.7302L755.723 85.1036L748.403 84.2904V82.3386H779.47V84.2904L770.036 85.1036L766.458 86.7302V137.315L802.403 89.1699V85.9169L791.506 84.2904V82.3386H817.042V84.1277L808.909 86.0796L772.15 134.712L809.885 195.056L820.946 197.333V199.447H803.705L766.458 140.08V195.056L770.524 196.682L781.421 197.496V199.447H748.403ZM822.943 199.447V197.496L830.263 196.682L833.19 195.056V86.7302L830.263 85.1036L822.943 84.2904V82.3386H853.522V84.2904L844.576 85.1036L841.16 86.7302V196.194H872.064L881.986 168.218H884.263L879.708 198.797V199.447H822.943ZM929.312 199.773L900.035 90.4711L900.197 195.056L903.45 196.682L911.908 197.496V199.447H886.047V197.496L893.529 196.682L896.456 195.056V86.0796L887.023 84.1277V82.3386H905.89L933.704 187.249H934.517L962.005 82.3386H980.384V84.1277L971.439 86.0796V195.056L974.366 196.682L981.848 197.496V199.447H952.083V197.496L960.378 196.682L963.469 195.056V90.4711L934.517 199.773H929.312ZM1049.89 199.447L1001.42 90.4711L1001.74 195.056L1005.48 196.682L1015.24 197.496V199.447H987.431V197.496L994.913 196.682L997.84 195.056V86.0796L988.407 84.1277V82.3386H1006.14L1051.19 183.508L1051.03 86.7302L1047.12 85.1036L1037.36 84.2904V82.3386H1065.34V84.2904L1057.7 85.1036L1054.77 86.7302V191.64L1057.53 197.821V199.447H1049.89ZM1099.44 201.887C1080.41 201.887 1067.24 176.676 1067.24 141.706C1067.24 105.272 1081.39 79.8988 1100.58 79.8988C1119.61 79.8988 1132.78 105.11 1132.78 140.08C1132.78 176.351 1118.47 201.887 1099.44 201.887ZM1075.04 138.779C1075.04 174.724 1085.61 198.959 1100.58 198.959C1115.05 198.959 1124.81 176.514 1124.81 143.007C1124.81 107.062 1114.08 82.8265 1099.44 82.8265C1084.96 82.8265 1075.04 105.272 1075.04 138.779ZM1134.92 199.447V197.496L1142.24 196.682L1145.17 195.056V86.7302L1142.24 85.1036L1134.92 84.2904V82.3386H1164.69C1183.23 82.3386 1193.96 94.3748 1193.96 114.543C1193.96 135.038 1182.74 147.562 1164.04 147.562H1156.72V145.122L1164.2 144.797C1177.86 144.471 1186.16 133.574 1186.16 115.194C1186.16 96.4892 1177.54 85.9169 1164.04 85.9169H1152.98V195.056L1157.37 196.682L1168.59 197.496V199.447H1134.92ZM1232.19 198.959C1246.66 198.959 1256.42 176.514 1256.42 143.007C1256.42 107.062 1245.69 82.8265 1231.05 82.8265C1216.57 82.8265 1206.65 105.272 1206.65 138.779C1206.65 174.724 1217.22 198.959 1232.19 198.959ZM1198.84 141.706C1198.84 105.272 1212.99 79.8988 1232.19 79.8988C1251.22 79.8988 1264.39 105.11 1264.39 140.08C1264.39 174.074 1251.7 198.797 1234.46 201.562V203.351L1263.58 214.249V221.405H1262.11L1228.45 201.725C1210.88 199.61 1198.84 175.05 1198.84 141.706Z" fill="black"/>
</g>
<defs>
<clipPath id="clip0_1674_2272">
<rect width="1239.48" height="425.351" fill="white" transform="translate(0 0.0209961)"/>
</clipPath>
</defs>
</svg>
