<svg width="1240" height="141" viewBox="0 0 1240 141" fill="none" xmlns="http://www.w3.org/2000/svg">
<rect x="284.367" y="0.372437" width="364.513" height="140" fill="#FAF9F6"/>
<rect x="0.5" y="0.872437" width="282.985" height="139" fill="white" stroke="#C8C8C8"/>
<path d="M314.253 61.9054C309.12 61.9054 305.543 55.2989 305.543 46.294C305.543 36.8263 309.456 30.3461 314.674 30.3461C319.808 30.3461 323.343 36.9525 323.343 45.9574C323.343 55.3831 319.429 61.9054 314.253 61.9054ZM308.573 45.3262C308.573 54.794 311.098 60.9375 314.674 60.9375C318.083 60.9375 320.313 55.4673 320.313 46.9252C320.313 37.4995 317.746 31.3139 314.253 31.3139C310.845 31.3139 308.573 36.7842 308.573 45.3262ZM323.753 61.2742V60.643L325.604 60.4747L326.362 59.9276V32.3238L325.604 31.7768L323.753 31.6085V30.9773H338.817V31.2297L339.911 38.4673H339.154L336.124 31.9451H329.349V45.747H333.263L336.755 45.0737H337.428V47.4302H336.755L333.263 46.7569H329.349V59.9276L330.612 60.4747L333.641 60.643V61.2742H323.753ZM340.325 61.2742V60.643L342.176 60.4747L342.934 59.9276V32.3238L342.176 31.7768L340.325 31.6085V30.9773H355.389V31.2297L356.483 38.4673H355.726L352.696 31.9451H345.921V45.747H349.835L353.327 45.0737H354V47.4302H353.327L349.835 46.7569H345.921V59.9276L347.184 60.4747L350.213 60.643V61.2742H340.325ZM380.811 61.5687L376.477 44.2322L371.974 61.5687H370.754L363.138 32.1555L361.328 31.5243V30.9773H379.927V31.6085L376.561 32.0713V32.955L382.157 56.1826H382.326L387.628 32.955V32.0713L384.177 31.6085V30.9773H390.826V31.5243L389.143 32.1555L381.989 61.5687H380.811ZM366.504 32.955L372.227 56.1826H372.437L375.888 41.9599L373.363 31.8189H366.504V32.955ZM391.232 61.2742V60.643L393.084 60.4747L393.841 59.9276V32.3238L393.084 31.7768L391.232 31.6085V30.9773H399.311V31.6085L397.544 31.7768L396.829 32.3238V45.2H406.044V32.3238L405.286 31.7768L403.561 31.6085V30.9773H411.598V31.6085L409.789 31.7768L409.031 32.3238V59.9276L409.789 60.4747L411.598 60.643V61.2742H403.561V60.643L405.329 60.4747L406.044 59.9276V46.3361H396.829V59.9276L397.544 60.4747L399.269 60.643V61.2742H391.232ZM412.726 61.2742V60.643L414.83 60.4747L415.714 59.9276V32.3238L414.83 31.7768L412.726 31.6085V30.9773H421.647V31.6085L419.543 31.7768L418.701 32.3238V59.9276L419.543 60.4747L421.647 60.643V61.2742H412.726ZM426.484 61.2742V60.643L428.672 60.4326L429.598 59.9276V31.9872L425.432 31.6085L422.445 39.0144H421.687L422.781 30.7248H423.244L425.011 30.9773H437.298L438.982 30.7248H439.444L440.538 39.0144H439.781L436.793 31.6085L432.628 31.9872V59.9276L433.553 60.4326L435.741 60.643V61.2742H426.484ZM440.948 61.2742V60.643L442.799 60.4747L443.557 59.9276V32.3238L442.799 31.7768L440.948 31.6085V30.9773H456.138V31.3139L457.232 38.5936H456.475L453.445 32.0293H446.544V45.2H449.995L453.529 44.5688H454.161V46.799H453.529L449.995 46.1678H446.544V60.2222H453.698L456.727 53.4475H457.443L456.391 60.9796V61.2742H440.948Z" fill="#1B1A1A"/>
<path d="M44.5929 61.5687L40.2588 44.2322L35.7563 61.5687H34.536L26.9197 32.1555L25.1103 31.5243V30.9773H43.7093V31.6085L40.3429 32.0713V32.955L45.9394 56.1826H46.1078L51.4097 32.955V32.0713L47.9592 31.6085V30.9773H54.6077V31.5243L52.9246 32.1555L45.7711 61.5687H44.5929ZM30.286 32.955L36.0088 56.1826H36.2192L39.6697 41.9599L37.1449 31.8189H30.286V32.955ZM55.014 61.2742V60.643L56.8655 60.4747L57.6229 59.9276V32.3238L56.8655 31.7768L55.014 31.6085V30.9773H63.0932V31.6085L61.3259 31.7768L60.6106 32.3238V45.2H69.8259V32.3238L69.0684 31.7768L67.3432 31.6085V30.9773H75.3803V31.6085L73.5709 31.7768L72.8135 32.3238V59.9276L73.5709 60.4747L75.3803 60.643V61.2742H67.3432V60.643L69.1105 60.4747L69.8259 59.9276V46.3361H60.6106V59.9276L61.3259 60.4747L63.0511 60.643V61.2742H55.014ZM76.5082 61.2742V60.643L78.6122 60.4747L79.4958 59.9276V32.3238L78.6122 31.7768L76.5082 31.6085V30.9773H85.429V31.6085L83.325 31.7768L82.4834 32.3238V59.9276L83.325 60.4747L85.429 60.643V61.2742H76.5082ZM90.2661 61.2742V60.643L92.4542 60.4326L93.3799 59.9276V31.9872L89.2141 31.6085L86.2265 39.0144H85.4691L86.5631 30.7248H87.026L88.7933 30.9773H101.08L102.764 30.7248H103.226L104.32 39.0144H103.563L100.575 31.6085L96.4096 31.9872V59.9276L97.3353 60.4326L99.5235 60.643V61.2742H90.2661ZM104.73 61.2742V60.643L106.581 60.4747L107.339 59.9276V32.3238L106.581 31.7768L104.73 31.6085V30.9773H119.92V31.3139L121.014 38.5936H120.257L117.227 32.0293H110.326V45.2H113.777L117.311 44.5688H117.943V46.799H117.311L113.777 46.1678H110.326V60.2222H117.48L120.509 53.4475H121.225L120.173 60.9796V61.2742H104.73Z" fill="#1B1A1A"/>
<path d="M306.544 71.0964H309.372C309.94 71.0964 310.425 71.1793 310.828 71.345C311.238 71.5028 311.55 71.7552 311.763 72.1024C311.984 72.4416 312.094 72.8716 312.094 73.3924C312.094 73.8894 311.98 74.2997 311.751 74.6232C311.522 74.9467 311.206 75.1834 310.804 75.3333C310.402 75.4753 309.924 75.5463 309.372 75.5463H308.733L308.662 75.6765H307.396V74.6468H309.514C309.972 74.6468 310.323 74.5403 310.567 74.3273C310.812 74.1143 310.934 73.8066 310.934 73.4042C310.934 73.0018 310.808 72.6981 310.556 72.4929C310.311 72.2878 309.968 72.1852 309.526 72.1852H307.68V79.3807H306.544V71.0964ZM308.035 75.3569L309.49 75.4516V75.7238L309.774 75.8895L312.094 79.3807H310.638L308.035 75.3569ZM315.729 79.5583C314.845 79.5583 314.159 79.1874 313.669 78.4458C313.18 77.7042 312.936 76.6351 312.936 75.2386C312.936 74.276 313.058 73.4752 313.303 72.8361C313.547 72.1971 313.914 71.7197 314.403 71.4041C314.892 71.0807 315.508 70.9189 316.249 70.9189C316.81 70.9189 317.307 71.0491 317.741 71.3095C318.175 71.5698 318.51 71.9328 318.747 72.3983C318.983 72.8637 319.102 73.3963 319.102 73.9959H317.93C317.93 73.3726 317.78 72.8874 317.48 72.5403C317.188 72.1852 316.778 72.0077 316.249 72.0077C315.76 72.0077 315.362 72.1221 315.054 72.3509C314.746 72.5718 314.518 72.919 314.368 73.3924C314.218 73.8658 314.143 74.4812 314.143 75.2386C314.143 76.351 314.293 77.1676 314.593 77.6884C314.9 78.2091 315.374 78.4695 316.013 78.4695C316.518 78.4695 316.916 78.2762 317.208 77.8896C317.508 77.4951 317.685 76.927 317.741 76.1854H315.764V75.1084H318.829V79.3807H317.693L317.989 77.5464H317.812C317.725 77.9882 317.587 78.359 317.397 78.6588C317.216 78.9507 316.983 79.1756 316.699 79.3334C316.423 79.4833 316.1 79.5583 315.729 79.5583ZM320.476 71.0964H323.316C324.113 71.0964 324.744 71.3016 325.21 71.7118C325.675 72.1142 325.908 72.6468 325.908 73.3095C325.908 73.6646 325.841 73.9723 325.707 74.2326C325.573 74.493 325.383 74.6981 325.139 74.848C324.902 74.9979 324.618 75.0966 324.287 75.1439V75.3333C324.618 75.3806 324.902 75.4792 325.139 75.6291C325.383 75.779 325.573 75.9802 325.707 76.2327C325.841 76.4852 325.908 76.785 325.908 77.1321C325.908 77.5819 325.801 77.9764 325.588 78.3156C325.375 78.6549 325.076 78.9192 324.689 79.1085C324.302 79.29 323.845 79.3807 323.316 79.3807H320.476V71.0964ZM323.198 78.2919C323.695 78.2919 324.078 78.1894 324.346 77.9842C324.614 77.7791 324.748 77.4596 324.748 77.0256C324.748 76.5917 324.614 76.2721 324.346 76.067C324.078 75.854 323.695 75.7475 323.198 75.7475H321.292V74.7297H323.198C323.529 74.7297 323.809 74.6863 324.038 74.5995C324.267 74.5048 324.44 74.3628 324.559 74.1735C324.685 73.9841 324.748 73.7435 324.748 73.4515C324.748 73.0176 324.614 72.6981 324.346 72.4929C324.078 72.2878 323.695 72.1852 323.198 72.1852H321.612V78.2919H323.198ZM327.188 78.7417C327.188 78.4497 327.259 78.2446 327.401 78.1263C327.543 78.0079 327.712 77.9487 327.909 77.9487C328.115 77.9487 328.288 78.0079 328.43 78.1263C328.58 78.2446 328.655 78.4497 328.655 78.7417C328.655 79.0257 328.58 79.2308 328.43 79.3571C328.288 79.4833 328.115 79.5464 327.909 79.5464C327.712 79.5464 327.543 79.4833 327.401 79.3571C327.259 79.2308 327.188 79.0257 327.188 78.7417ZM327.188 73.6764C327.188 73.3766 327.259 73.1675 327.401 73.0492C327.543 72.9308 327.712 72.8716 327.909 72.8716C328.115 72.8716 328.288 72.9308 328.43 73.0492C328.58 73.1675 328.655 73.3766 328.655 73.6764C328.655 73.9604 328.58 74.1656 328.43 74.2918C328.288 74.418 328.115 74.4812 327.909 74.4812C327.712 74.4812 327.543 74.418 327.401 74.2918C327.259 74.1656 327.188 73.9604 327.188 73.6764ZM337.09 71.0964H340.249C340.802 71.0964 341.279 71.1911 341.681 71.3805C342.084 71.5619 342.395 71.8302 342.616 72.1852C342.837 72.5403 342.948 72.9742 342.948 73.487C342.948 73.9683 342.825 74.3825 342.581 74.7297C342.344 75.069 342.009 75.3254 341.575 75.4989C341.141 75.6725 340.636 75.7593 340.06 75.7593H339.634L339.563 76.0907H338.19V74.6232H340.001C340.348 74.6232 340.616 74.5364 340.806 74.3628C341.003 74.1892 341.102 73.9486 341.102 73.6409C341.102 73.3411 341.003 73.1123 340.806 72.9545C340.608 72.7888 340.34 72.706 340.001 72.706H338.9V79.3807H337.09V71.0964ZM339.054 75.5936L340.853 75.4161V75.8777L341.303 76.0315L343.007 79.3807H340.936L339.054 75.5936ZM344.192 77.4753L347.044 75.5108C347.502 75.1952 347.825 74.8757 348.014 74.5522C348.212 74.2287 348.31 73.8697 348.31 73.4752C348.31 73.0255 348.172 72.6626 347.896 72.3864C347.62 72.1024 347.257 71.9604 346.807 71.9604C346.302 71.9604 345.9 72.1142 345.6 72.4219C345.3 72.7296 345.15 73.1399 345.15 73.6527V74.0669H344.002V73.6527C344.002 73.1241 344.121 72.6547 344.357 72.2444C344.594 71.8341 344.926 71.5146 345.352 71.2858C345.778 71.0491 346.263 70.9307 346.807 70.9307C347.32 70.9307 347.778 71.0412 348.18 71.2621C348.582 71.4751 348.894 71.775 349.115 72.1616C349.336 72.5403 349.446 72.9821 349.446 73.487C349.446 73.8736 349.395 74.2208 349.293 74.5285C349.19 74.8362 349.02 75.1321 348.784 75.4161C348.555 75.7001 348.243 75.9763 347.849 76.2445L345.127 78.1263V78.2919H349.446V79.3807H344.192V77.4753ZM353.779 79.5464C353.243 79.5464 352.769 79.4478 352.359 79.2506C351.957 79.0454 351.641 78.7614 351.412 78.3985C351.191 78.0276 351.081 77.6095 351.081 77.144V77.073H352.217V77.1085C352.217 77.3609 352.284 77.5976 352.418 77.8186C352.56 78.0316 352.75 78.2012 352.986 78.3274C353.223 78.4537 353.487 78.5168 353.779 78.5168C354.111 78.5168 354.395 78.4497 354.631 78.3156C354.876 78.1736 355.061 77.9764 355.188 77.7239C355.322 77.4714 355.389 77.1716 355.389 76.8244C355.389 76.4931 355.33 76.2011 355.211 75.9487C355.093 75.6962 354.927 75.5068 354.714 75.3806C354.501 75.2465 354.253 75.1794 353.969 75.1794C353.685 75.1794 353.436 75.2425 353.223 75.3688C353.018 75.495 352.848 75.6765 352.714 75.9132H351.341V71.0964H356.537V72.1852H352.395V75.0847H352.572C352.73 74.777 352.947 74.5482 353.223 74.3983C353.507 74.2405 353.854 74.1616 354.265 74.1616C354.698 74.1616 355.085 74.276 355.424 74.5048C355.771 74.7257 356.044 75.0413 356.241 75.4516C356.438 75.854 356.537 76.3116 356.537 76.8244C356.537 77.3609 356.422 77.8343 356.194 78.2446C355.965 78.6549 355.641 78.9744 355.223 79.2032C354.805 79.432 354.324 79.5464 353.779 79.5464ZM360.751 79.5464C359.781 79.5464 359.043 79.1835 358.538 78.4576C358.041 77.7318 357.793 76.6588 357.793 75.2386C357.793 74.2918 357.903 73.4989 358.124 72.8598C358.353 72.2207 358.684 71.7395 359.118 71.416C359.56 71.0925 360.104 70.9307 360.751 70.9307C361.722 70.9307 362.456 71.2937 362.953 72.0195C363.458 72.7454 363.71 73.8184 363.71 75.2386C363.71 76.1854 363.596 76.9783 363.367 77.6174C363.146 78.2564 362.815 78.7377 362.373 79.0612C361.939 79.3847 361.398 79.5464 360.751 79.5464ZM360.751 78.5168C361.146 78.5168 361.477 78.3945 361.745 78.1499C362.014 77.9053 362.215 77.5424 362.349 77.0611C362.483 76.572 362.55 75.9644 362.55 75.2386C362.55 74.1577 362.4 73.3411 362.1 72.7888C361.801 72.2365 361.351 71.9604 360.751 71.9604C360.357 71.9604 360.025 72.0827 359.757 72.3272C359.489 72.5718 359.288 72.9387 359.154 73.4279C359.02 73.9091 358.952 74.5127 358.952 75.2386C358.952 76.3195 359.102 77.1361 359.402 77.6884C359.702 78.2407 360.152 78.5168 360.751 78.5168ZM374.258 79.5819C373.398 79.5819 372.727 79.2111 372.246 78.4695C371.764 77.7199 371.524 76.643 371.524 75.2386C371.524 74.2681 371.65 73.4634 371.902 72.8243C372.155 72.1773 372.53 71.6961 373.027 71.3805C373.532 71.057 374.163 70.8952 374.92 70.8952C375.512 70.8952 376.029 71.0294 376.471 71.2976C376.92 71.558 377.267 71.9249 377.512 72.3983C377.757 72.8716 377.879 73.4081 377.879 74.0078H375.997C375.997 73.5502 375.895 73.1951 375.69 72.9426C375.492 72.6902 375.216 72.5639 374.861 72.5639C374.522 72.5639 374.246 72.6547 374.033 72.8361C373.82 73.0176 373.662 73.3056 373.559 73.7001C373.457 74.0946 373.405 74.6074 373.405 75.2386C373.405 76.2169 373.512 76.927 373.725 77.3688C373.938 77.8107 374.277 78.0316 374.743 78.0316C375.09 78.0316 375.366 77.8975 375.571 77.6292C375.776 77.3531 375.907 76.9467 375.962 76.4102H374.53V74.9072H377.642V79.3807H376.092L376.482 77.5819H376.258C376.139 78.0474 375.993 78.4261 375.82 78.718C375.654 79.0099 375.441 79.2269 375.181 79.3689C374.928 79.5109 374.62 79.5819 374.258 79.5819ZM379.111 77.4753L381.963 75.5108C382.421 75.1952 382.744 74.8757 382.934 74.5522C383.131 74.2287 383.23 73.8697 383.23 73.4752C383.23 73.0255 383.092 72.6626 382.815 72.3864C382.539 72.1024 382.176 71.9604 381.727 71.9604C381.222 71.9604 380.819 72.1142 380.519 72.4219C380.22 72.7296 380.07 73.1399 380.07 73.6527V74.0669H378.922V73.6527C378.922 73.1241 379.04 72.6547 379.277 72.2444C379.514 71.8341 379.845 71.5146 380.271 71.2858C380.697 71.0491 381.182 70.9307 381.727 70.9307C382.239 70.9307 382.697 71.0412 383.099 71.2621C383.502 71.4751 383.813 71.775 384.034 72.1616C384.255 72.5403 384.366 72.9821 384.366 73.487C384.366 73.8736 384.314 74.2208 384.212 74.5285C384.109 74.8362 383.94 75.1321 383.703 75.4161C383.474 75.7001 383.163 75.9763 382.768 76.2445L380.046 78.1263V78.2919H384.366V79.3807H379.111V77.4753ZM389.409 71.9604H389.231L386.438 75.3569V75.5345H391.989V76.5522H385.598V74.7652L388.711 71.0964H390.498V79.3807H389.409V71.9604ZM395.576 70.9307C396.191 70.9307 396.716 71.0846 397.15 71.3923C397.584 71.7 397.911 72.1497 398.132 72.7415C398.361 73.3253 398.476 74.0472 398.476 74.9072C398.476 75.9329 398.357 76.7929 398.12 77.4872C397.892 78.1736 397.545 78.6904 397.079 79.0375C396.621 79.3768 396.049 79.5464 395.363 79.5464C394.842 79.5464 394.389 79.4439 394.002 79.2387C393.615 79.0336 393.316 78.7417 393.103 78.363C392.89 77.9842 392.783 77.5503 392.783 77.0611V76.9901H393.919V77.0611C393.919 77.3531 393.974 77.6095 394.085 77.8304C394.203 78.0513 394.369 78.2209 394.582 78.3393C394.803 78.4576 395.063 78.5168 395.363 78.5168C395.797 78.5168 396.164 78.3866 396.464 78.1263C396.763 77.858 396.988 77.4675 397.138 76.9546C397.288 76.4339 397.363 75.7869 397.363 75.0137H397.186C397.02 75.4319 396.767 75.7554 396.428 75.9842C396.089 76.2051 395.69 76.3155 395.233 76.3155C394.783 76.3155 394.369 76.2051 393.99 75.9842C393.619 75.7633 393.323 75.4556 393.103 75.0611C392.89 74.6587 392.783 74.2169 392.783 73.7356C392.783 73.1991 392.901 72.7217 393.138 72.3036C393.383 71.8775 393.714 71.5422 394.132 71.2976C394.558 71.053 395.04 70.9307 395.576 70.9307ZM395.564 71.9604C395.241 71.9604 394.953 72.0314 394.7 72.1734C394.456 72.3154 394.262 72.5127 394.12 72.7651C393.986 73.0176 393.919 73.3056 393.919 73.6291C393.919 73.9604 393.986 74.2524 394.12 74.5048C394.262 74.7494 394.456 74.9427 394.7 75.0847C394.953 75.2267 395.241 75.2978 395.564 75.2978C395.888 75.2978 396.172 75.2267 396.416 75.0847C396.669 74.9427 396.862 74.7455 396.996 74.493C397.138 74.2405 397.209 73.9525 397.209 73.6291C397.209 73.3056 397.138 73.0176 396.996 72.7651C396.862 72.5127 396.669 72.3154 396.416 72.1734C396.172 72.0314 395.888 71.9604 395.564 71.9604ZM406.964 71.0964H409.946C410.798 71.0964 411.461 71.2937 411.934 71.6882C412.416 72.0748 412.656 72.6113 412.656 73.2977C412.656 73.637 412.581 73.9407 412.431 74.209C412.282 74.4772 412.065 74.6902 411.781 74.848C411.504 75.0058 411.177 75.0926 410.798 75.1084V75.3569C411.169 75.3727 411.497 75.4634 411.781 75.6291C412.065 75.7869 412.282 76 412.431 76.2682C412.581 76.5286 412.656 76.8284 412.656 77.1676C412.656 77.6174 412.546 78.0119 412.325 78.3511C412.112 78.6825 411.8 78.9389 411.39 79.1204C410.988 79.2939 410.506 79.3807 409.946 79.3807H406.964V71.0964ZM409.721 77.8422C410.076 77.8422 410.349 77.7673 410.538 77.6174C410.727 77.4596 410.822 77.2268 410.822 76.9191C410.822 76.5956 410.727 76.3589 410.538 76.209C410.349 76.0512 410.076 75.9723 409.721 75.9723H408.348V74.493H409.721C409.958 74.493 410.155 74.4614 410.313 74.3983C410.479 74.3273 410.605 74.2247 410.692 74.0906C410.779 73.9486 410.822 73.775 410.822 73.5699C410.822 73.2543 410.727 73.0215 410.538 72.8716C410.349 72.7138 410.076 72.6349 409.721 72.6349H408.704V77.8422H409.721ZM414.031 77.4753L416.883 75.5108C417.34 75.1952 417.664 74.8757 417.853 74.5522C418.05 74.2287 418.149 73.8697 418.149 73.4752C418.149 73.0255 418.011 72.6626 417.735 72.3864C417.459 72.1024 417.096 71.9604 416.646 71.9604C416.141 71.9604 415.739 72.1142 415.439 72.4219C415.139 72.7296 414.989 73.1399 414.989 73.6527V74.0669H413.841V73.6527C413.841 73.1241 413.96 72.6547 414.196 72.2444C414.433 71.8341 414.764 71.5146 415.19 71.2858C415.616 71.0491 416.102 70.9307 416.646 70.9307C417.159 70.9307 417.616 71.0412 418.019 71.2621C418.421 71.4751 418.733 71.775 418.954 72.1616C419.175 72.5403 419.285 72.9821 419.285 73.487C419.285 73.8736 419.234 74.2208 419.131 74.5285C419.029 74.8362 418.859 75.1321 418.622 75.4161C418.394 75.7001 418.082 75.9763 417.687 76.2445L414.965 78.1263V78.2919H419.285V79.3807H414.031V77.4753ZM424.328 71.9604H424.151L421.358 75.3569V75.5345H426.908V76.5522H420.517V74.7652L423.63 71.0964H425.417V79.3807H424.328V71.9604ZM430.685 79.5464C430.069 79.5464 429.545 79.3926 429.111 79.0849C428.677 78.7772 428.345 78.3314 428.117 77.7475C427.896 77.1558 427.785 76.4299 427.785 75.57C427.785 74.5443 427.9 73.6882 428.128 73.0018C428.365 72.3075 428.712 71.7907 429.17 71.4515C429.635 71.1043 430.211 70.9307 430.898 70.9307C431.419 70.9307 431.872 71.0333 432.259 71.2384C432.645 71.4436 432.945 71.7355 433.158 72.1142C433.371 72.4929 433.478 72.9269 433.478 73.416V73.487H432.342V73.416C432.342 73.1241 432.282 72.8677 432.164 72.6468C432.054 72.4259 431.888 72.2562 431.667 72.1379C431.454 72.0195 431.198 71.9604 430.898 71.9604C430.464 71.9604 430.097 72.0945 429.797 72.3627C429.497 72.6231 429.272 73.0137 429.123 73.5344C428.973 74.0472 428.898 74.6902 428.898 75.4634H429.075C429.241 75.0453 429.493 74.7257 429.833 74.5048C430.172 74.276 430.57 74.1616 431.028 74.1616C431.478 74.1616 431.888 74.2721 432.259 74.493C432.637 74.7139 432.933 75.0256 433.146 75.4279C433.367 75.8224 433.478 76.2603 433.478 76.7416C433.478 77.2781 433.355 77.7594 433.111 78.1854C432.874 78.6036 432.543 78.935 432.117 79.1795C431.699 79.4241 431.221 79.5464 430.685 79.5464ZM430.697 78.5168C431.02 78.5168 431.304 78.4458 431.549 78.3038C431.801 78.1618 431.994 77.9645 432.129 77.712C432.271 77.4596 432.342 77.1716 432.342 76.8481C432.342 76.5167 432.271 76.2288 432.129 75.9842C431.994 75.7317 431.801 75.5345 431.549 75.3924C431.304 75.2504 431.02 75.1794 430.697 75.1794C430.373 75.1794 430.085 75.2504 429.833 75.3924C429.588 75.5345 429.395 75.7317 429.253 75.9842C429.119 76.2366 429.052 76.5246 429.052 76.8481C429.052 77.1716 429.119 77.4596 429.253 77.712C429.395 77.9645 429.588 78.1618 429.833 78.3038C430.085 78.4458 430.373 78.5168 430.697 78.5168ZM310.627 88.0964H311.775V96.3807H310.627V88.0964ZM306.331 88.0964H307.479V96.3807H306.331V88.0964ZM307.147 91.6942H311.029V92.7711H307.147V91.6942ZM313.681 88.0964H318.616V89.1852H314.829V91.6942H318.498V92.7711H314.829V95.2919H318.616V96.3807H313.681V88.0964ZM322.204 92.2386L319.801 88.0964H321.079L322.748 90.9723L322.926 91.6587H323.103L323.281 90.9723L324.961 88.0964H326.239L323.837 92.2386L326.239 96.3807H324.949L323.221 93.3274L323.115 92.7475H322.937L322.831 93.3274L321.091 96.3807H319.801L322.204 92.2386ZM327.188 95.7417C327.188 95.4497 327.259 95.2446 327.401 95.1263C327.543 95.0079 327.712 94.9487 327.909 94.9487C328.115 94.9487 328.288 95.0079 328.43 95.1263C328.58 95.2446 328.655 95.4497 328.655 95.7417C328.655 96.0257 328.58 96.2308 328.43 96.3571C328.288 96.4833 328.115 96.5464 327.909 96.5464C327.712 96.5464 327.543 96.4833 327.401 96.3571C327.259 96.2308 327.188 96.0257 327.188 95.7417ZM327.188 90.6764C327.188 90.3766 327.259 90.1675 327.401 90.0492C327.543 89.9308 327.712 89.8716 327.909 89.8716C328.115 89.8716 328.288 89.9308 328.43 90.0492C328.58 90.1675 328.655 90.3766 328.655 90.6764C328.655 90.9604 328.58 91.1656 328.43 91.2918C328.288 91.418 328.115 91.4812 327.909 91.4812C327.712 91.4812 327.543 91.418 327.401 91.2918C327.259 91.1656 327.188 90.9604 327.188 90.6764ZM341.812 91.2208L341.445 93.1144H343.066V93.9073H341.291L340.806 96.3807H339.965L340.451 93.9073H338.758L338.297 96.3807H337.468L337.918 93.9073H336.427V93.1144H338.072L338.451 91.2208H336.865V90.4397H338.593L339.066 87.9307H339.918L339.445 90.4397H341.149L341.622 87.9307H342.439L341.965 90.4397H343.468V91.2208H341.812ZM338.912 93.1144H340.604L340.971 91.2208H339.279L338.912 93.1144ZM344.918 88.0964H350.078V89.1852H345.569L346.054 88.6882V96.3807H344.918V88.0964ZM345.711 91.6942H349.853V92.7711H345.711V91.6942ZM353.18 88.0964H354.991L357.441 96.3807H356.21L354.245 89.3864L354.174 88.771H353.997L353.926 89.3864L351.961 96.3807H350.73L353.18 88.0964ZM352.281 92.3806H355.89V93.4576H352.281V92.3806ZM358.886 88.0964H364.046V89.1852H359.537L360.022 88.6882V96.3807H358.886V88.0964ZM359.679 91.6942H363.821V92.7711H359.679V91.6942ZM367.953 87.9307C368.568 87.9307 369.093 88.0846 369.527 88.3923C369.961 88.7 370.288 89.1497 370.509 89.7415C370.738 90.3253 370.852 91.0472 370.852 91.9072C370.852 92.9329 370.734 93.7929 370.497 94.4872C370.268 95.1736 369.921 95.6904 369.456 96.0375C368.998 96.3768 368.426 96.5464 367.74 96.5464C367.219 96.5464 366.765 96.4439 366.379 96.2387C365.992 96.0336 365.692 95.7417 365.479 95.363C365.266 94.9842 365.16 94.5503 365.16 94.0611V93.9901H366.296V94.0611C366.296 94.3531 366.351 94.6095 366.461 94.8304C366.58 95.0513 366.745 95.2209 366.958 95.3393C367.179 95.4576 367.44 95.5168 367.74 95.5168C368.173 95.5168 368.54 95.3866 368.84 95.1263C369.14 94.858 369.365 94.4675 369.515 93.9546C369.665 93.4339 369.74 92.7869 369.74 92.0137H369.562C369.396 92.4319 369.144 92.7554 368.805 92.9842C368.465 93.2051 368.067 93.3155 367.609 93.3155C367.16 93.3155 366.745 93.2051 366.367 92.9842C365.996 92.7633 365.7 92.4556 365.479 92.0611C365.266 91.6587 365.16 91.2169 365.16 90.7356C365.16 90.1991 365.278 89.7217 365.515 89.3036C365.759 88.8775 366.091 88.5422 366.509 88.2976C366.935 88.053 367.416 87.9307 367.953 87.9307ZM367.941 88.9604C367.617 88.9604 367.329 89.0314 367.077 89.1734C366.832 89.3154 366.639 89.5127 366.497 89.7651C366.363 90.0176 366.296 90.3056 366.296 90.6291C366.296 90.9604 366.363 91.2524 366.497 91.5048C366.639 91.7494 366.832 91.9427 367.077 92.0847C367.329 92.2267 367.617 92.2978 367.941 92.2978C368.264 92.2978 368.548 92.2267 368.793 92.0847C369.045 91.9427 369.239 91.7455 369.373 91.493C369.515 91.2405 369.586 90.9525 369.586 90.6291C369.586 90.3056 369.515 90.0176 369.373 89.7651C369.239 89.5127 369.045 89.3154 368.793 89.1734C368.548 89.0314 368.264 88.9604 367.941 88.9604ZM372.854 88.0964H378.013V89.1852H373.504L373.99 88.6882V96.3807H372.854V88.0964ZM373.646 91.6942H377.789V92.7711H373.646V91.6942ZM382.11 96.5464C381.494 96.5464 380.97 96.3926 380.536 96.0849C380.102 95.7772 379.77 95.3314 379.542 94.7475C379.321 94.1558 379.21 93.4299 379.21 92.57C379.21 91.5443 379.325 90.6882 379.553 90.0018C379.79 89.3075 380.137 88.7907 380.595 88.4515C381.06 88.1043 381.636 87.9307 382.323 87.9307C382.843 87.9307 383.297 88.0333 383.684 88.2384C384.07 88.4436 384.37 88.7355 384.583 89.1142C384.796 89.4929 384.903 89.9269 384.903 90.416V90.487H383.767V90.416C383.767 90.1241 383.707 89.8677 383.589 89.6468C383.479 89.4259 383.313 89.2562 383.092 89.1379C382.879 89.0195 382.623 88.9604 382.323 88.9604C381.889 88.9604 381.522 89.0945 381.222 89.3627C380.922 89.6231 380.697 90.0137 380.548 90.5344C380.398 91.0472 380.323 91.6902 380.323 92.4634H380.5C380.666 92.0453 380.918 91.7257 381.258 91.5048C381.597 91.276 381.995 91.1616 382.453 91.1616C382.903 91.1616 383.313 91.2721 383.684 91.493C384.062 91.7139 384.358 92.0256 384.571 92.4279C384.792 92.8224 384.903 93.2603 384.903 93.7416C384.903 94.2781 384.78 94.7594 384.536 95.1854C384.299 95.6036 383.968 95.935 383.542 96.1795C383.124 96.4241 382.646 96.5464 382.11 96.5464ZM382.122 95.5168C382.445 95.5168 382.729 95.4458 382.974 95.3038C383.226 95.1618 383.419 94.9645 383.554 94.712C383.696 94.4596 383.767 94.1716 383.767 93.8481C383.767 93.5167 383.696 93.2288 383.554 92.9842C383.419 92.7317 383.226 92.5345 382.974 92.3924C382.729 92.2504 382.445 92.1794 382.122 92.1794C381.798 92.1794 381.51 92.2504 381.258 92.3924C381.013 92.5345 380.82 92.7317 380.678 92.9842C380.544 93.2366 380.476 93.5246 380.476 93.8481C380.476 94.1716 380.544 94.4596 380.678 94.712C380.82 94.9645 381.013 95.1618 381.258 95.3038C381.51 95.4458 381.798 95.5168 382.122 95.5168Z" fill="#1B1A1A"/>
<path d="M27.1217 71.0964H29.9502C30.5183 71.0964 31.0035 71.1793 31.4059 71.345C31.8162 71.5028 32.1278 71.7552 32.3408 72.1024C32.5617 72.4416 32.6722 72.8716 32.6722 73.3924C32.6722 73.8894 32.5578 74.2997 32.329 74.6232C32.1002 74.9467 31.7846 75.1834 31.3822 75.3333C30.9798 75.4753 30.5025 75.5463 29.9502 75.5463H29.3111L29.2401 75.6765H27.9738V74.6468H30.0922C30.5498 74.6468 30.9009 74.5403 31.1455 74.3273C31.3901 74.1143 31.5124 73.8066 31.5124 73.4042C31.5124 73.0018 31.3862 72.6981 31.1337 72.4929C30.8891 72.2878 30.5459 72.1852 30.1041 72.1852H28.2579V79.3807H27.1217V71.0964ZM28.6129 75.3569L30.0686 75.4516V75.7238L30.3526 75.8895L32.6722 79.3807H31.2165L28.6129 75.3569ZM36.3068 79.5583C35.4232 79.5583 34.7368 79.1874 34.2476 78.4458C33.7584 77.7042 33.5139 76.6351 33.5139 75.2386C33.5139 74.276 33.6361 73.4752 33.8807 72.8361C34.1253 72.1971 34.4922 71.7197 34.9814 71.4041C35.4705 71.0807 36.0859 70.9189 36.8276 70.9189C37.3878 70.9189 37.8848 71.0491 38.3188 71.3095C38.7527 71.5698 39.088 71.9328 39.3247 72.3983C39.5614 72.8637 39.6797 73.3963 39.6797 73.9959H38.5081C38.5081 73.3726 38.3582 72.8874 38.0584 72.5403C37.7665 72.1852 37.3562 72.0077 36.8276 72.0077C36.3384 72.0077 35.94 72.1221 35.6323 72.3509C35.3246 72.5718 35.0958 72.919 34.9459 73.3924C34.7959 73.8658 34.721 74.4812 34.721 75.2386C34.721 76.351 34.8709 77.1676 35.1707 77.6884C35.4784 78.2091 35.9518 78.4695 36.5909 78.4695C37.0958 78.4695 37.4943 78.2762 37.7862 77.8896C38.086 77.4951 38.2635 76.927 38.3188 76.1854H36.3424V75.1084H39.4075V79.3807H38.2714L38.5673 77.5464H38.3898C38.303 77.9882 38.1649 78.359 37.9755 78.6588C37.7941 78.9507 37.5613 79.1756 37.2773 79.3334C37.0012 79.4833 36.6777 79.5583 36.3068 79.5583ZM41.054 71.0964H43.8943C44.6912 71.0964 45.3224 71.3016 45.7879 71.7118C46.2533 72.1142 46.4861 72.6468 46.4861 73.3095C46.4861 73.6646 46.419 73.9723 46.2849 74.2326C46.1508 74.493 45.9614 74.6981 45.7168 74.848C45.4801 74.9979 45.1961 75.0966 44.8647 75.1439V75.3333C45.1961 75.3806 45.4801 75.4792 45.7168 75.6291C45.9614 75.779 46.1508 75.9802 46.2849 76.2327C46.419 76.4852 46.4861 76.785 46.4861 77.1321C46.4861 77.5819 46.3796 77.9764 46.1666 78.3156C45.9535 78.6549 45.6537 78.9192 45.2671 79.1085C44.8805 79.29 44.4229 79.3807 43.8943 79.3807H41.054V71.0964ZM43.7759 78.2919C44.273 78.2919 44.6557 78.1894 44.9239 77.9842C45.1922 77.7791 45.3263 77.4596 45.3263 77.0256C45.3263 76.5917 45.1922 76.2721 44.9239 76.067C44.6557 75.854 44.273 75.7475 43.7759 75.7475H41.8706V74.7297H43.7759C44.1073 74.7297 44.3874 74.6863 44.6162 74.5995C44.845 74.5048 45.0186 74.3628 45.1369 74.1735C45.2632 73.9841 45.3263 73.7435 45.3263 73.4515C45.3263 73.0176 45.1922 72.6981 44.9239 72.4929C44.6557 72.2878 44.273 72.1852 43.7759 72.1852H42.1901V78.2919H43.7759ZM47.7656 78.7417C47.7656 78.4497 47.8366 78.2446 47.9787 78.1263C48.1207 78.0079 48.2903 77.9487 48.4876 77.9487C48.6927 77.9487 48.8663 78.0079 49.0083 78.1263C49.1582 78.2446 49.2331 78.4497 49.2331 78.7417C49.2331 79.0257 49.1582 79.2308 49.0083 79.3571C48.8663 79.4833 48.6927 79.5464 48.4876 79.5464C48.2903 79.5464 48.1207 79.4833 47.9787 79.3571C47.8366 79.2308 47.7656 79.0257 47.7656 78.7417ZM47.7656 73.6764C47.7656 73.3766 47.8366 73.1675 47.9787 73.0492C48.1207 72.9308 48.2903 72.8716 48.4876 72.8716C48.6927 72.8716 48.8663 72.9308 49.0083 73.0492C49.1582 73.1675 49.2331 73.3766 49.2331 73.6764C49.2331 73.9604 49.1582 74.1656 49.0083 74.2918C48.8663 74.418 48.6927 74.4812 48.4876 74.4812C48.2903 74.4812 48.1207 74.418 47.9787 74.2918C47.8366 74.1656 47.7656 73.9604 47.7656 73.6764ZM57.6677 71.0964H60.8276C61.3799 71.0964 61.8572 71.1911 62.2596 71.3805C62.6619 71.5619 62.9736 71.8302 63.1945 72.1852C63.4154 72.5403 63.5259 72.9742 63.5259 73.487C63.5259 73.9683 63.4036 74.3825 63.159 74.7297C62.9223 75.069 62.587 75.3254 62.1531 75.4989C61.7191 75.6725 61.2142 75.7593 60.6382 75.7593H60.2122L60.1411 76.0907H58.7683V74.6232H60.579C60.9262 74.6232 61.1944 74.5364 61.3838 74.3628C61.581 74.1892 61.6797 73.9486 61.6797 73.6409C61.6797 73.3411 61.581 73.1123 61.3838 72.9545C61.1866 72.7888 60.9183 72.706 60.579 72.706H59.4784V79.3807H57.6677V71.0964ZM59.6323 75.5936L61.4311 75.4161V75.8777L61.8809 76.0315L63.5851 79.3807H61.514L59.6323 75.5936ZM64.7699 77.4753L67.6221 75.5108C68.0797 75.1952 68.4032 74.8757 68.5925 74.5522C68.7898 74.2287 68.8884 73.8697 68.8884 73.4752C68.8884 73.0255 68.7503 72.6626 68.4742 72.3864C68.198 72.1024 67.8351 71.9604 67.3854 71.9604C66.8804 71.9604 66.4781 72.1142 66.1782 72.4219C65.8784 72.7296 65.7285 73.1399 65.7285 73.6527V74.0669H64.5806V73.6527C64.5806 73.1241 64.6989 72.6547 64.9356 72.2444C65.1723 71.8341 65.5037 71.5146 65.9297 71.2858C66.3558 71.0491 66.841 70.9307 67.3854 70.9307C67.8982 70.9307 68.3558 71.0412 68.7582 71.2621C69.1606 71.4751 69.4722 71.775 69.6932 72.1616C69.9141 72.5403 70.0245 72.9821 70.0245 73.487C70.0245 73.8736 69.9732 74.2208 69.8707 74.5285C69.7681 74.8362 69.5985 75.1321 69.3618 75.4161C69.133 75.7001 68.8213 75.9763 68.4268 76.2445L65.7049 78.1263V78.2919H70.0245V79.3807H64.7699V77.4753ZM74.3574 79.5464C73.8209 79.5464 73.3475 79.4478 72.9373 79.2506C72.5349 79.0454 72.2193 78.7614 71.9905 78.3985C71.7696 78.0276 71.6591 77.6095 71.6591 77.144V77.073H72.7952V77.1085C72.7952 77.3609 72.8623 77.5976 72.9964 77.8186C73.1384 78.0316 73.3278 78.2012 73.5645 78.3274C73.8012 78.4537 74.0655 78.5168 74.3574 78.5168C74.6888 78.5168 74.9728 78.4497 75.2095 78.3156C75.4541 78.1736 75.6395 77.9764 75.7658 77.7239C75.8999 77.4714 75.9669 77.1716 75.9669 76.8244C75.9669 76.4931 75.9078 76.2011 75.7894 75.9487C75.6711 75.6962 75.5054 75.5068 75.2924 75.3806C75.0793 75.2465 74.8308 75.1794 74.5468 75.1794C74.2627 75.1794 74.0142 75.2425 73.8012 75.3688C73.5961 75.495 73.4264 75.6765 73.2923 75.9132H71.9195V71.0964H77.1149V72.1852H72.9728V75.0847H73.1503C73.3081 74.777 73.5251 74.5482 73.8012 74.3983C74.0852 74.2405 74.4324 74.1616 74.8426 74.1616C75.2766 74.1616 75.6632 74.276 76.0025 74.5048C76.3496 74.7257 76.6218 75.0413 76.819 75.4516C77.0163 75.854 77.1149 76.3116 77.1149 76.8244C77.1149 77.3609 77.0005 77.8343 76.7717 78.2446C76.5429 78.6549 76.2194 78.9744 75.8013 79.2032C75.3831 79.432 74.9018 79.5464 74.3574 79.5464ZM81.3413 79.5464C80.8048 79.5464 80.3314 79.4478 79.9211 79.2506C79.5188 79.0454 79.2032 78.7614 78.9744 78.3985C78.7534 78.0276 78.643 77.6095 78.643 77.144V77.073H79.7791V77.1085C79.7791 77.3609 79.8462 77.5976 79.9803 77.8186C80.1223 78.0316 80.3117 78.2012 80.5484 78.3274C80.7851 78.4537 81.0494 78.5168 81.3413 78.5168C81.6727 78.5168 81.9567 78.4497 82.1934 78.3156C82.438 78.1736 82.6234 77.9764 82.7496 77.7239C82.8838 77.4714 82.9508 77.1716 82.9508 76.8244C82.9508 76.4931 82.8916 76.2011 82.7733 75.9487C82.655 75.6962 82.4893 75.5068 82.2762 75.3806C82.0632 75.2465 81.8147 75.1794 81.5307 75.1794C81.2466 75.1794 80.9981 75.2425 80.7851 75.3688C80.5799 75.495 80.4103 75.6765 80.2762 75.9132H78.9033V71.0964H84.0988V72.1852H79.9566V75.0847H80.1342C80.292 74.777 80.5089 74.5482 80.7851 74.3983C81.0691 74.2405 81.4163 74.1616 81.8265 74.1616C82.2605 74.1616 82.6471 74.276 82.9863 74.5048C83.3335 74.7257 83.6057 75.0413 83.8029 75.4516C84.0002 75.854 84.0988 76.3116 84.0988 76.8244C84.0988 77.3609 83.9844 77.8343 83.7556 78.2446C83.5268 78.6549 83.2033 78.9744 82.7851 79.2032C82.367 79.432 81.8857 79.5464 81.3413 79.5464ZM94.8357 79.5819C93.9757 79.5819 93.305 79.2111 92.8238 78.4695C92.3425 77.7199 92.1018 76.643 92.1018 75.2386C92.1018 74.2681 92.2281 73.4634 92.4805 72.8243C92.733 72.1773 93.1078 71.6961 93.6048 71.3805C94.1098 71.057 94.741 70.8952 95.4984 70.8952C96.0901 70.8952 96.6069 71.0294 97.0488 71.2976C97.4985 71.558 97.8456 71.9249 98.0902 72.3983C98.3348 72.8716 98.4571 73.4081 98.4571 74.0078H96.5754C96.5754 73.5502 96.4728 73.1951 96.2677 72.9426C96.0704 72.6902 95.7943 72.5639 95.4392 72.5639C95.1 72.5639 94.8238 72.6547 94.6108 72.8361C94.3978 73.0176 94.24 73.3056 94.1374 73.7001C94.0348 74.0946 93.9836 74.6074 93.9836 75.2386C93.9836 76.2169 94.0901 76.927 94.3031 77.3688C94.5161 77.8107 94.8554 78.0316 95.3209 78.0316C95.668 78.0316 95.9442 77.8975 96.1493 77.6292C96.3544 77.3531 96.4846 76.9467 96.5399 76.4102H95.1079V74.9072H98.2204V79.3807H96.67L97.0606 77.5819H96.8357C96.7174 78.0474 96.5714 78.4261 96.3978 78.718C96.2322 79.0099 96.0191 79.2269 95.7588 79.3689C95.5063 79.5109 95.1986 79.5819 94.8357 79.5819ZM99.6893 77.4753L102.541 75.5108C102.999 75.1952 103.323 74.8757 103.512 74.5522C103.709 74.2287 103.808 73.8697 103.808 73.4752C103.808 73.0255 103.67 72.6626 103.394 72.3864C103.117 72.1024 102.754 71.9604 102.305 71.9604C101.8 71.9604 101.397 72.1142 101.098 72.4219C100.798 72.7296 100.648 73.1399 100.648 73.6527V74.0669H99.4999V73.6527C99.4999 73.1241 99.6183 72.6547 99.855 72.2444C100.092 71.8341 100.423 71.5146 100.849 71.2858C101.275 71.0491 101.76 70.9307 102.305 70.9307C102.818 70.9307 103.275 71.0412 103.678 71.2621C104.08 71.4751 104.392 71.775 104.613 72.1616C104.833 72.5403 104.944 72.9821 104.944 73.487C104.944 73.8736 104.893 74.2208 104.79 74.5285C104.687 74.8362 104.518 75.1321 104.281 75.4161C104.052 75.7001 103.741 75.9763 103.346 76.2445L100.624 78.1263V78.2919H104.944V79.3807H99.6893V77.4753ZM109.277 79.5464C108.74 79.5464 108.267 79.4478 107.857 79.2506C107.454 79.0454 107.139 78.7614 106.91 78.3985C106.689 78.0276 106.578 77.6095 106.578 77.144V77.073H107.715V77.1085C107.715 77.3609 107.782 77.5976 107.916 77.8186C108.058 78.0316 108.247 78.2012 108.484 78.3274C108.721 78.4537 108.985 78.5168 109.277 78.5168C109.608 78.5168 109.892 78.4497 110.129 78.3156C110.373 78.1736 110.559 77.9764 110.685 77.7239C110.819 77.4714 110.886 77.1716 110.886 76.8244C110.886 76.4931 110.827 76.2011 110.709 75.9487C110.59 75.6962 110.425 75.5068 110.212 75.3806C109.999 75.2465 109.75 75.1794 109.466 75.1794C109.182 75.1794 108.934 75.2425 108.721 75.3688C108.515 75.495 108.346 75.6765 108.212 75.9132H106.839V71.0964H112.034V72.1852H107.892V75.0847H108.07C108.227 74.777 108.444 74.5482 108.721 74.3983C109.005 74.2405 109.352 74.1616 109.762 74.1616C110.196 74.1616 110.583 74.276 110.922 74.5048C111.269 74.7257 111.541 75.0413 111.738 75.4516C111.936 75.854 112.034 76.3116 112.034 76.8244C112.034 77.3609 111.92 77.8343 111.691 78.2446C111.462 78.6549 111.139 78.9744 110.721 79.2032C110.302 79.432 109.821 79.5464 109.277 79.5464ZM116.261 79.5464C115.724 79.5464 115.251 79.4478 114.841 79.2506C114.438 79.0454 114.123 78.7614 113.894 78.3985C113.673 78.0276 113.562 77.6095 113.562 77.144V77.073H114.698V77.1085C114.698 77.3609 114.766 77.5976 114.9 77.8186C115.042 78.0316 115.231 78.2012 115.468 78.3274C115.704 78.4537 115.969 78.5168 116.261 78.5168C116.592 78.5168 116.876 78.4497 117.113 78.3156C117.357 78.1736 117.543 77.9764 117.669 77.7239C117.803 77.4714 117.87 77.1716 117.87 76.8244C117.87 76.4931 117.811 76.2011 117.693 75.9487C117.574 75.6962 117.409 75.5068 117.196 75.3806C116.983 75.2465 116.734 75.1794 116.45 75.1794C116.166 75.1794 115.917 75.2425 115.704 75.3688C115.499 75.495 115.33 75.6765 115.196 75.9132H113.823V71.0964H119.018V72.1852H114.876V75.0847H115.054C115.211 74.777 115.428 74.5482 115.704 74.3983C115.988 74.2405 116.336 74.1616 116.746 74.1616C117.18 74.1616 117.566 74.276 117.906 74.5048C118.253 74.7257 118.525 75.0413 118.722 75.4516C118.92 75.854 119.018 76.3116 119.018 76.8244C119.018 77.3609 118.904 77.8343 118.675 78.2446C118.446 78.6549 118.123 78.9744 117.705 79.2032C117.286 79.432 116.805 79.5464 116.261 79.5464ZM127.542 71.0964H130.524C131.376 71.0964 132.039 71.2937 132.513 71.6882C132.994 72.0748 133.234 72.6113 133.234 73.2977C133.234 73.637 133.159 73.9407 133.01 74.209C132.86 74.4772 132.643 74.6902 132.359 74.848C132.083 75.0058 131.755 75.0926 131.376 75.1084V75.3569C131.747 75.3727 132.075 75.4634 132.359 75.6291C132.643 75.7869 132.86 76 133.01 76.2682C133.159 76.5286 133.234 76.8284 133.234 77.1676C133.234 77.6174 133.124 78.0119 132.903 78.3511C132.69 78.6825 132.378 78.9389 131.968 79.1204C131.566 79.2939 131.084 79.3807 130.524 79.3807H127.542V71.0964ZM130.299 77.8422C130.654 77.8422 130.927 77.7673 131.116 77.6174C131.305 77.4596 131.4 77.2268 131.4 76.9191C131.4 76.5956 131.305 76.3589 131.116 76.209C130.927 76.0512 130.654 75.9723 130.299 75.9723H128.927V74.493H130.299C130.536 74.493 130.733 74.4614 130.891 74.3983C131.057 74.3273 131.183 74.2247 131.27 74.0906C131.357 73.9486 131.4 73.775 131.4 73.5699C131.4 73.2543 131.305 73.0215 131.116 72.8716C130.927 72.7138 130.654 72.6349 130.299 72.6349H129.282V77.8422H130.299ZM134.609 77.4753L137.461 75.5108C137.918 75.1952 138.242 74.8757 138.431 74.5522C138.629 74.2287 138.727 73.8697 138.727 73.4752C138.727 73.0255 138.589 72.6626 138.313 72.3864C138.037 72.1024 137.674 71.9604 137.224 71.9604C136.719 71.9604 136.317 72.1142 136.017 72.4219C135.717 72.7296 135.567 73.1399 135.567 73.6527V74.0669H134.419V73.6527C134.419 73.1241 134.538 72.6547 134.774 72.2444C135.011 71.8341 135.342 71.5146 135.768 71.2858C136.195 71.0491 136.68 70.9307 137.224 70.9307C137.737 70.9307 138.195 71.0412 138.597 71.2621C138.999 71.4751 139.311 71.775 139.532 72.1616C139.753 72.5403 139.863 72.9821 139.863 73.487C139.863 73.8736 139.812 74.2208 139.709 74.5285C139.607 74.8362 139.437 75.1321 139.201 75.4161C138.972 75.7001 138.66 75.9763 138.266 76.2445L135.544 78.1263V78.2919H139.863V79.3807H134.609V77.4753ZM144.196 79.5464C143.66 79.5464 143.186 79.4478 142.776 79.2506C142.374 79.0454 142.058 78.7614 141.829 78.3985C141.608 78.0276 141.498 77.6095 141.498 77.144V77.073H142.634V77.1085C142.634 77.3609 142.701 77.5976 142.835 77.8186C142.977 78.0316 143.167 78.2012 143.403 78.3274C143.64 78.4537 143.904 78.5168 144.196 78.5168C144.528 78.5168 144.812 78.4497 145.048 78.3156C145.293 78.1736 145.478 77.9764 145.604 77.7239C145.739 77.4714 145.806 77.1716 145.806 76.8244C145.806 76.4931 145.747 76.2011 145.628 75.9487C145.51 75.6962 145.344 75.5068 145.131 75.3806C144.918 75.2465 144.67 75.1794 144.386 75.1794C144.101 75.1794 143.853 75.2425 143.64 75.3688C143.435 75.495 143.265 75.6765 143.131 75.9132H141.758V71.0964H146.954V72.1852H142.812V75.0847H142.989C143.147 74.777 143.364 74.5482 143.64 74.3983C143.924 74.2405 144.271 74.1616 144.681 74.1616C145.115 74.1616 145.502 74.276 145.841 74.5048C146.188 74.7257 146.461 75.0413 146.658 75.4516C146.855 75.854 146.954 76.3116 146.954 76.8244C146.954 77.3609 146.839 77.8343 146.61 78.2446C146.382 78.6549 146.058 78.9744 145.64 79.2032C145.222 79.432 144.741 79.5464 144.196 79.5464ZM151.18 79.5464C150.644 79.5464 150.17 79.4478 149.76 79.2506C149.357 79.0454 149.042 78.7614 148.813 78.3985C148.592 78.0276 148.482 77.6095 148.482 77.144V77.073H149.618V77.1085C149.618 77.3609 149.685 77.5976 149.819 77.8186C149.961 78.0316 150.15 78.2012 150.387 78.3274C150.624 78.4537 150.888 78.5168 151.18 78.5168C151.511 78.5168 151.795 78.4497 152.032 78.3156C152.277 78.1736 152.462 77.9764 152.588 77.7239C152.722 77.4714 152.79 77.1716 152.79 76.8244C152.79 76.4931 152.73 76.2011 152.612 75.9487C152.494 75.6962 152.328 75.5068 152.115 75.3806C151.902 75.2465 151.653 75.1794 151.369 75.1794C151.085 75.1794 150.837 75.2425 150.624 75.3688C150.419 75.495 150.249 75.6765 150.115 75.9132H148.742V71.0964H153.938V72.1852H149.795V75.0847H149.973C150.131 74.777 150.348 74.5482 150.624 74.3983C150.908 74.2405 151.255 74.1616 151.665 74.1616C152.099 74.1616 152.486 74.276 152.825 74.5048C153.172 74.7257 153.444 75.0413 153.642 75.4516C153.839 75.854 153.938 76.3116 153.938 76.8244C153.938 77.3609 153.823 77.8343 153.594 78.2446C153.366 78.6549 153.042 78.9744 152.624 79.2032C152.206 79.432 151.724 79.5464 151.18 79.5464ZM31.2047 88.0964H32.3527V96.3807H31.2047V88.0964ZM26.9087 88.0964H28.0567V96.3807H26.9087V88.0964ZM27.7253 91.6942H31.6071V92.7711H27.7253V91.6942ZM34.2594 88.0964H39.1945V89.1852H35.4074V91.6942H39.0762V92.7711H35.4074V95.2919H39.1945V96.3807H34.2594V88.0964ZM42.7818 92.2386L40.3794 88.0964H41.6575L43.3262 90.9723L43.5037 91.6587H43.6813L43.8588 90.9723L45.5393 88.0964H46.8175L44.415 92.2386L46.8175 96.3807H45.5275L43.7996 93.3274L43.6931 92.7475H43.5156L43.4091 93.3274L41.6694 96.3807H40.3794L42.7818 92.2386ZM47.7656 95.7417C47.7656 95.4497 47.8366 95.2446 47.9787 95.1263C48.1207 95.0079 48.2903 94.9487 48.4876 94.9487C48.6927 94.9487 48.8663 95.0079 49.0083 95.1263C49.1582 95.2446 49.2331 95.4497 49.2331 95.7417C49.2331 96.0257 49.1582 96.2308 49.0083 96.3571C48.8663 96.4833 48.6927 96.5464 48.4876 96.5464C48.2903 96.5464 48.1207 96.4833 47.9787 96.3571C47.8366 96.2308 47.7656 96.0257 47.7656 95.7417ZM47.7656 90.6764C47.7656 90.3766 47.8366 90.1675 47.9787 90.0492C48.1207 89.9308 48.2903 89.8716 48.4876 89.8716C48.6927 89.8716 48.8663 89.9308 49.0083 90.0492C49.1582 90.1675 49.2331 90.3766 49.2331 90.6764C49.2331 90.9604 49.1582 91.1656 49.0083 91.2918C48.8663 91.418 48.6927 91.4812 48.4876 91.4812C48.2903 91.4812 48.1207 91.418 47.9787 91.2918C47.8366 91.1656 47.7656 90.9604 47.7656 90.6764ZM62.3897 91.2208L62.0229 93.1144H63.6442V93.9073H61.869L61.3838 96.3807H60.5435L61.0288 93.9073H59.3364L58.8748 96.3807H58.0464L58.4961 93.9073H57.0049V93.1144H58.65L59.0287 91.2208H57.4428V90.4397H59.1707L59.6441 87.9307H60.4962L60.0228 90.4397H61.727L62.2004 87.9307H63.017L62.5436 90.4397H64.0466V91.2208H62.3897ZM59.4902 93.1144H61.1826L61.5495 91.2208H59.8571L59.4902 93.1144ZM65.4962 88.0964H70.6561V89.1852H66.1471L66.6323 88.6882V96.3807H65.4962V88.0964ZM66.2891 91.6942H70.4313V92.7711H66.2891V91.6942ZM72.4801 88.0964H77.64V89.1852H73.131L73.6162 88.6882V96.3807H72.4801V88.0964ZM73.273 91.6942H77.4151V92.7711H73.273V91.6942ZM79.4639 88.0964H84.6239V89.1852H80.1148L80.6001 88.6882V96.3807H79.4639V88.0964ZM80.2568 91.6942H84.399V92.7711H80.2568V91.6942ZM86.4478 88.0964H91.6077V89.1852H87.0987L87.5839 88.6882V96.3807H86.4478V88.0964ZM87.2407 91.6942H91.3829V92.7711H87.2407V91.6942ZM93.4317 88.0964H98.5916V89.1852H94.0826L94.5678 88.6882V96.3807H93.4317V88.0964ZM94.2246 91.6942H98.3668V92.7711H94.2246V91.6942ZM100.416 88.0964H105.575V89.1852H101.066L101.552 88.6882V96.3807H100.416V88.0964ZM101.208 91.6942H105.351V92.7711H101.208V91.6942Z" fill="#1B1A1A"/>
<rect x="893.201" y="0.372437" width="346.123" height="140" fill="#1B1A1A"/>
<path d="M924.633 61.2742V60.643L926.485 60.4747L927.242 59.9276V32.3238L926.485 31.7768L924.633 31.6085V30.9773H933.386C938.099 30.9773 941.086 34.1332 941.086 38.8461C941.086 43.054 938.646 45.9995 934.732 46.6728L941.633 59.8014L944.537 60.5588V61.2742H939.235L932.123 46.8411H930.146V59.9276L931.24 60.4747L933.849 60.643V61.2742H924.633ZM930.146 45.9153H932.881C936.121 45.9153 938.099 43.2223 938.099 38.9302C938.099 34.554 935.995 32.1555 933.007 32.1555H930.146V45.9153ZM957.051 61.2742V60.643L960.627 60.1801V59.2965L958.397 50.8807H950.15L947.835 59.2965V60.1801L951.202 60.643V61.2742H944.722V60.7271L946.447 60.096L953.853 33.4599L953.221 31.1035V30.6827H956.167L963.91 60.096L965.635 60.7271V61.2742H957.051ZM950.444 49.8287H958.145L954.4 35.5218L950.444 49.8287ZM981.774 61.2742L969.95 33.9228L969.992 59.9276L971.002 60.4326L973.485 60.643V61.2742H966.037V60.643L967.93 60.4326L968.688 59.9276V32.1555L966.247 31.5243V30.9773H971.844L982.826 56.2668L982.742 32.3238L981.732 31.8189L979.292 31.6085V30.9773H986.698V31.6085L984.804 31.8189L984.047 32.3238V59.1281L984.762 60.7692V61.2742H981.774ZM996.607 61.9054C991.263 61.9054 986.97 55.5093 986.97 46.1257C986.97 36.8683 991.136 30.3461 997.701 30.3461C1000.01 30.3461 1002.29 31.356 1004.14 32.955L1004.52 39.4772H1003.59L1003.21 38.0045C1001.99 33.7124 1000.01 31.3139 997.154 31.3139C993.072 31.3139 990.084 36.4055 990.084 45.9153C990.084 54.2891 992.735 60.6851 997.027 60.6851C999.258 60.6851 1000.69 59.044 1001.74 56.4772V47.7668L1000.48 47.2619L997.364 47.0935V46.4203H1006.2V46.9673L1004.48 47.5985V61.2742H1003.8L1002.62 57.1083C1001.28 59.8856 999.51 61.9054 996.607 61.9054ZM1016.07 61.9054C1010.94 61.9054 1007.36 55.2989 1007.36 46.294C1007.36 36.8263 1011.28 30.3461 1016.5 30.3461C1021.63 30.3461 1025.16 36.9525 1025.16 45.9574C1025.16 55.3831 1021.25 61.9054 1016.07 61.9054ZM1010.39 45.3262C1010.39 54.794 1012.92 60.9375 1016.5 60.9375C1019.9 60.9375 1022.13 55.4673 1022.13 46.9252C1022.13 37.4995 1019.57 31.3139 1016.07 31.3139C1012.67 31.3139 1010.39 36.7842 1010.39 45.3262ZM1035.6 61.9054C1030.47 61.9054 1026.89 55.2989 1026.89 46.294C1026.89 36.8263 1030.81 30.3461 1036.03 30.3461C1041.16 30.3461 1044.69 36.9525 1044.69 45.9574C1044.69 55.3831 1040.78 61.9054 1035.6 61.9054ZM1029.92 45.3262C1029.92 54.794 1032.45 60.9375 1036.03 60.9375C1039.43 60.9375 1041.66 55.4673 1041.66 46.9252C1041.66 37.4995 1039.1 31.3139 1035.6 31.3139C1032.2 31.3139 1029.92 36.7842 1029.92 45.3262ZM1060.76 61.2742L1048.94 33.9228L1048.98 59.9276L1049.99 60.4326L1052.47 60.643V61.2742H1045.02V60.643L1046.92 60.4326L1047.67 59.9276V32.1555L1045.23 31.5243V30.9773H1050.83L1061.81 56.2668L1061.73 32.3238L1060.72 31.8189L1058.28 31.6085V30.9773H1065.68V31.6085L1063.79 31.8189L1063.03 32.3238V59.1281L1063.75 60.7692V61.2742H1060.76ZM1081.56 61.9054C1076.22 61.9054 1071.93 55.5093 1071.93 46.1257C1071.93 36.8683 1076.09 30.3461 1082.66 30.3461C1084.97 30.3461 1087.24 31.356 1089.09 32.955L1089.47 39.4772H1088.55L1088.17 38.0045C1086.95 33.7124 1084.97 31.3139 1082.11 31.3139C1078.03 31.3139 1075.04 36.4055 1075.04 45.9153C1075.04 54.2891 1077.69 60.6851 1081.98 60.6851C1084.21 60.6851 1085.64 59.044 1086.7 56.4772V47.7668L1085.43 47.2619L1082.32 47.0935V46.4203H1091.16V46.9673L1089.43 47.5985V61.2742H1088.76L1087.58 57.1083C1086.23 59.8856 1084.47 61.9054 1081.56 61.9054ZM1091.12 61.2742V60.643L1092.97 60.4747L1093.73 59.9276V32.3238L1092.97 31.7768L1091.12 31.6085V30.9773H1099.87C1104.59 30.9773 1107.57 34.1332 1107.57 38.8461C1107.57 43.054 1105.13 45.9995 1101.22 46.6728L1108.12 59.8014L1111.03 60.5588V61.2742H1105.72L1098.61 46.8411H1096.63V59.9276L1097.73 60.4747L1100.34 60.643V61.2742H1091.12ZM1096.63 45.9153H1099.37C1102.61 45.9153 1104.59 43.2223 1104.59 38.9302C1104.59 34.554 1102.48 32.1555 1099.5 32.1555H1096.63V45.9153ZM1111.23 61.2742V60.643L1113.08 60.4747L1113.84 59.9276V32.3238L1113.08 31.7768L1111.23 31.6085V30.9773H1126.42V31.3139L1127.51 38.5936H1126.75L1123.72 32.0293H1116.82V45.2H1120.27L1123.81 44.5688H1124.44V46.799H1123.81L1120.27 46.1678H1116.82V60.2222H1123.98L1127.01 53.4475H1127.72L1126.67 60.9796V61.2742H1111.23ZM1128.29 61.2742V60.643L1130.14 60.4747L1130.9 59.9276V32.3238L1130.14 31.7768L1128.29 31.6085V30.9773H1143.48V31.3139L1144.58 38.5936H1143.82L1140.79 32.0293H1133.89V45.2H1137.34L1140.87 44.5688H1141.51V46.799H1140.87L1137.34 46.1678H1133.89V60.2222H1141.04L1144.07 53.4475H1144.79L1143.74 60.9796V61.2742H1128.29ZM1161.05 61.2742L1149.23 33.9228L1149.27 59.9276L1150.28 60.4326L1152.76 60.643V61.2742H1145.32V60.643L1147.21 60.4326L1147.97 59.9276V32.1555L1145.53 31.5243V30.9773H1151.12L1162.11 56.2668L1162.02 32.3238L1161.01 31.8189L1158.57 31.6085V30.9773H1165.98V31.6085L1164.08 31.8189L1163.33 32.3238V59.1281L1164.04 60.7692V61.2742H1161.05Z" fill="#F7F5F3"/>
<path d="M925.886 71.0964H928.715C929.283 71.0964 929.768 71.1793 930.171 71.345C930.581 71.5028 930.892 71.7552 931.105 72.1024C931.326 72.4416 931.437 72.8716 931.437 73.3924C931.437 73.8894 931.322 74.2997 931.094 74.6232C930.865 74.9467 930.549 75.1834 930.147 75.3333C929.744 75.4753 929.267 75.5463 928.715 75.5463H928.076L928.005 75.6765H926.738V74.6468H928.857C929.314 74.6468 929.666 74.5403 929.91 74.3273C930.155 74.1143 930.277 73.8066 930.277 73.4042C930.277 73.0018 930.151 72.6981 929.898 72.4929C929.654 72.2878 929.311 72.1852 928.869 72.1852H927.022V79.3807H925.886V71.0964ZM927.378 75.3569L928.833 75.4516V75.7238L929.117 75.8895L931.437 79.3807H929.981L927.378 75.3569ZM935.071 79.5583C934.188 79.5583 933.501 79.1874 933.012 78.4458C932.523 77.7042 932.279 76.6351 932.279 75.2386C932.279 74.276 932.401 73.4752 932.645 72.8361C932.89 72.1971 933.257 71.7197 933.746 71.4041C934.235 71.0807 934.851 70.9189 935.592 70.9189C936.152 70.9189 936.649 71.0491 937.083 71.3095C937.517 71.5698 937.853 71.9328 938.089 72.3983C938.326 72.8637 938.444 73.3963 938.444 73.9959H937.273C937.273 73.3726 937.123 72.8874 936.823 72.5403C936.531 72.1852 936.121 72.0077 935.592 72.0077C935.103 72.0077 934.705 72.1221 934.397 72.3509C934.089 72.5718 933.86 72.919 933.711 73.3924C933.561 73.8658 933.486 74.4812 933.486 75.2386C933.486 76.351 933.636 77.1676 933.935 77.6884C934.243 78.2091 934.716 78.4695 935.356 78.4695C935.86 78.4695 936.259 78.2762 936.551 77.8896C936.851 77.4951 937.028 76.927 937.083 76.1854H935.107V75.1084H938.172V79.3807H937.036L937.332 77.5464H937.154C937.068 77.9882 936.93 78.359 936.74 78.6588C936.559 78.9507 936.326 79.1756 936.042 79.3334C935.766 79.4833 935.442 79.5583 935.071 79.5583ZM939.819 71.0964H942.659C943.456 71.0964 944.087 71.3016 944.552 71.7118C945.018 72.1142 945.251 72.6468 945.251 73.3095C945.251 73.6646 945.184 73.9723 945.05 74.2326C944.915 74.493 944.726 74.6981 944.481 74.848C944.245 74.9979 943.961 75.0966 943.629 75.1439V75.3333C943.961 75.3806 944.245 75.4792 944.481 75.6291C944.726 75.779 944.915 75.9802 945.05 76.2327C945.184 76.4852 945.251 76.785 945.251 77.1321C945.251 77.5819 945.144 77.9764 944.931 78.3156C944.718 78.6549 944.418 78.9192 944.032 79.1085C943.645 79.29 943.188 79.3807 942.659 79.3807H939.819V71.0964ZM942.541 78.2919C943.038 78.2919 943.42 78.1894 943.689 77.9842C943.957 77.7791 944.091 77.4596 944.091 77.0256C944.091 76.5917 943.957 76.2721 943.689 76.067C943.42 75.854 943.038 75.7475 942.541 75.7475H940.635V74.7297H942.541C942.872 74.7297 943.152 74.6863 943.381 74.5995C943.61 74.5048 943.783 74.3628 943.902 74.1735C944.028 73.9841 944.091 73.7435 944.091 73.4515C944.091 73.0176 943.957 72.6981 943.689 72.4929C943.42 72.2878 943.038 72.1852 942.541 72.1852H940.955V78.2919H942.541ZM946.53 78.7417C946.53 78.4497 946.601 78.2446 946.743 78.1263C946.885 78.0079 947.055 77.9487 947.252 77.9487C947.457 77.9487 947.631 78.0079 947.773 78.1263C947.923 78.2446 947.998 78.4497 947.998 78.7417C947.998 79.0257 947.923 79.2308 947.773 79.3571C947.631 79.4833 947.457 79.5464 947.252 79.5464C947.055 79.5464 946.885 79.4833 946.743 79.3571C946.601 79.2308 946.53 79.0257 946.53 78.7417ZM946.53 73.6764C946.53 73.3766 946.601 73.1675 946.743 73.0492C946.885 72.9308 947.055 72.8716 947.252 72.8716C947.457 72.8716 947.631 72.9308 947.773 73.0492C947.923 73.1675 947.998 73.3766 947.998 73.6764C947.998 73.9604 947.923 74.1656 947.773 74.2918C947.631 74.418 947.457 74.4812 947.252 74.4812C947.055 74.4812 946.885 74.418 946.743 74.2918C946.601 74.1656 946.53 73.9604 946.53 73.6764ZM956.432 71.0964H959.592C960.144 71.0964 960.622 71.1911 961.024 71.3805C961.427 71.5619 961.738 71.8302 961.959 72.1852C962.18 72.5403 962.291 72.9742 962.291 73.487C962.291 73.9683 962.168 74.3825 961.924 74.7297C961.687 75.069 961.352 75.3254 960.918 75.4989C960.484 75.6725 959.979 75.7593 959.403 75.7593H958.977L958.906 76.0907H957.533V74.6232H959.344C959.691 74.6232 959.959 74.5364 960.148 74.3628C960.346 74.1892 960.444 73.9486 960.444 73.6409C960.444 73.3411 960.346 73.1123 960.148 72.9545C959.951 72.7888 959.683 72.706 959.344 72.706H958.243V79.3807H956.432V71.0964ZM958.397 75.5936L960.196 75.4161V75.8777L960.646 76.0315L962.35 79.3807H960.279L958.397 75.5936ZM963.535 77.4753L966.387 75.5108C966.844 75.1952 967.168 74.8757 967.357 74.5522C967.554 74.2287 967.653 73.8697 967.653 73.4752C967.653 73.0255 967.515 72.6626 967.239 72.3864C966.963 72.1024 966.6 71.9604 966.15 71.9604C965.645 71.9604 965.243 72.1142 964.943 72.4219C964.643 72.7296 964.493 73.1399 964.493 73.6527V74.0669H963.345V73.6527C963.345 73.1241 963.464 72.6547 963.7 72.2444C963.937 71.8341 964.268 71.5146 964.694 71.2858C965.12 71.0491 965.606 70.9307 966.15 70.9307C966.663 70.9307 967.12 71.0412 967.523 71.2621C967.925 71.4751 968.237 71.775 968.458 72.1616C968.679 72.5403 968.789 72.9821 968.789 73.487C968.789 73.8736 968.738 74.2208 968.635 74.5285C968.533 74.8362 968.363 75.1321 968.126 75.4161C967.898 75.7001 967.586 75.9763 967.191 76.2445L964.47 78.1263V78.2919H968.789V79.3807H963.535V77.4753ZM975.075 72.3509V72.1852H970.199V71.0964H975.939V72.99L972.459 79.3807H971.158L975.075 72.3509ZM986.77 79.5583C985.887 79.5583 985.2 79.1874 984.711 78.4458C984.222 77.7042 983.977 76.6351 983.977 75.2386C983.977 74.276 984.1 73.4752 984.344 72.8361C984.589 72.1971 984.956 71.7197 985.445 71.4041C985.934 71.0807 986.549 70.9189 987.291 70.9189C987.851 70.9189 988.348 71.0491 988.782 71.3095C989.216 71.5698 989.551 71.9328 989.788 72.3983C990.025 72.8637 990.143 73.3963 990.143 73.9959H988.972C988.972 73.3726 988.822 72.8874 988.522 72.5403C988.23 72.1852 987.82 72.0077 987.291 72.0077C986.802 72.0077 986.403 72.1221 986.096 72.3509C985.788 72.5718 985.559 72.919 985.409 73.3924C985.259 73.8658 985.184 74.4812 985.184 75.2386C985.184 76.351 985.334 77.1676 985.634 77.6884C985.942 78.2091 986.415 78.4695 987.054 78.4695C987.559 78.4695 987.958 78.2762 988.25 77.8896C988.549 77.4951 988.727 76.927 988.782 76.1854H986.806V75.1084H989.871V79.3807H988.735L989.031 77.5464H988.853C988.766 77.9882 988.628 78.359 988.439 78.6588C988.258 78.9507 988.025 79.1756 987.741 79.3334C987.465 79.4833 987.141 79.5583 986.77 79.5583ZM991.47 77.4753L994.322 75.5108C994.78 75.1952 995.103 74.8757 995.293 74.5522C995.49 74.2287 995.589 73.8697 995.589 73.4752C995.589 73.0255 995.45 72.6626 995.174 72.3864C994.898 72.1024 994.535 71.9604 994.086 71.9604C993.581 71.9604 993.178 72.1142 992.878 72.4219C992.579 72.7296 992.429 73.1399 992.429 73.6527V74.0669H991.281V73.6527C991.281 73.1241 991.399 72.6547 991.636 72.2444C991.872 71.8341 992.204 71.5146 992.63 71.2858C993.056 71.0491 993.541 70.9307 994.086 70.9307C994.598 70.9307 995.056 71.0412 995.458 71.2621C995.861 71.4751 996.172 71.775 996.393 72.1616C996.614 72.5403 996.725 72.9821 996.725 73.487C996.725 73.8736 996.673 74.2208 996.571 74.5285C996.468 74.8362 996.299 75.1321 996.062 75.4161C995.833 75.7001 995.521 75.9763 995.127 76.2445L992.405 78.1263V78.2919H996.725V79.3807H991.47V77.4753ZM1001.14 79.5464C1000.53 79.5464 1000 79.3926 999.566 79.0849C999.132 78.7772 998.801 78.3314 998.572 77.7475C998.351 77.1558 998.241 76.4299 998.241 75.57C998.241 74.5443 998.355 73.6882 998.584 73.0018C998.821 72.3075 999.168 71.7907 999.626 71.4515C1000.09 71.1043 1000.67 70.9307 1001.35 70.9307C1001.87 70.9307 1002.33 71.0333 1002.71 71.2384C1003.1 71.4436 1003.4 71.7355 1003.61 72.1142C1003.83 72.4929 1003.93 72.9269 1003.93 73.416V73.487H1002.8V73.416C1002.8 73.1241 1002.74 72.8677 1002.62 72.6468C1002.51 72.4259 1002.34 72.2562 1002.12 72.1379C1001.91 72.0195 1001.65 71.9604 1001.35 71.9604C1000.92 71.9604 1000.55 72.0945 1000.25 72.3627C999.953 72.6231 999.728 73.0137 999.578 73.5344C999.428 74.0472 999.353 74.6902 999.353 75.4634H999.531C999.697 75.0453 999.949 74.7257 1000.29 74.5048C1000.63 74.276 1001.03 74.1616 1001.48 74.1616C1001.93 74.1616 1002.34 74.2721 1002.71 74.493C1003.09 74.7139 1003.39 75.0256 1003.6 75.4279C1003.82 75.8224 1003.93 76.2603 1003.93 76.7416C1003.93 77.2781 1003.81 77.7594 1003.57 78.1854C1003.33 78.6036 1003 78.935 1002.57 79.1795C1002.15 79.4241 1001.68 79.5464 1001.14 79.5464ZM1001.15 78.5168C1001.48 78.5168 1001.76 78.4458 1002 78.3038C1002.26 78.1618 1002.45 77.9645 1002.58 77.712C1002.73 77.4596 1002.8 77.1716 1002.8 76.8481C1002.8 76.5167 1002.73 76.2288 1002.58 75.9842C1002.45 75.7317 1002.26 75.5345 1002 75.3924C1001.76 75.2504 1001.48 75.1794 1001.15 75.1794C1000.83 75.1794 1000.54 75.2504 1000.29 75.3924C1000.04 75.5345 999.85 75.7317 999.708 75.9842C999.574 76.2366 999.507 76.5246 999.507 76.8481C999.507 77.1716 999.574 77.4596 999.708 77.712C999.85 77.9645 1000.04 78.1618 1000.29 78.3038C1000.54 78.4458 1000.83 78.5168 1001.15 78.5168ZM1012.34 71.0964H1015.32C1016.17 71.0964 1016.84 71.2937 1017.31 71.6882C1017.79 72.0748 1018.03 72.6113 1018.03 73.2977C1018.03 73.637 1017.96 73.9407 1017.81 74.209C1017.66 74.4772 1017.44 74.6902 1017.16 74.848C1016.88 75.0058 1016.55 75.0926 1016.17 75.1084V75.3569C1016.54 75.3727 1016.87 75.4634 1017.16 75.6291C1017.44 75.7869 1017.66 76 1017.81 76.2682C1017.96 76.5286 1018.03 76.8284 1018.03 77.1676C1018.03 77.6174 1017.92 78.0119 1017.7 78.3511C1017.49 78.6825 1017.18 78.9389 1016.77 79.1204C1016.36 79.2939 1015.88 79.3807 1015.32 79.3807H1012.34V71.0964ZM1015.1 77.8422C1015.45 77.8422 1015.72 77.7673 1015.91 77.6174C1016.1 77.4596 1016.2 77.2268 1016.2 76.9191C1016.2 76.5956 1016.1 76.3589 1015.91 76.209C1015.72 76.0512 1015.45 75.9723 1015.1 75.9723H1013.72V74.493H1015.1C1015.33 74.493 1015.53 74.4614 1015.69 74.3983C1015.85 74.3273 1015.98 74.2247 1016.07 74.0906C1016.15 73.9486 1016.2 73.775 1016.2 73.5699C1016.2 73.2543 1016.1 73.0215 1015.91 72.8716C1015.72 72.7138 1015.45 72.6349 1015.1 72.6349H1014.08V77.8422H1015.1ZM1019.41 77.4753L1022.26 75.5108C1022.72 75.1952 1023.04 74.8757 1023.23 74.5522C1023.43 74.2287 1023.52 73.8697 1023.52 73.4752C1023.52 73.0255 1023.39 72.6626 1023.11 72.3864C1022.83 72.1024 1022.47 71.9604 1022.02 71.9604C1021.52 71.9604 1021.11 72.1142 1020.81 72.4219C1020.51 72.7296 1020.36 73.1399 1020.36 73.6527V74.0669H1019.22V73.6527C1019.22 73.1241 1019.33 72.6547 1019.57 72.2444C1019.81 71.8341 1020.14 71.5146 1020.57 71.2858C1020.99 71.0491 1021.48 70.9307 1022.02 70.9307C1022.53 70.9307 1022.99 71.0412 1023.39 71.2621C1023.8 71.4751 1024.11 71.775 1024.33 72.1616C1024.55 72.5403 1024.66 72.9821 1024.66 73.487C1024.66 73.8736 1024.61 74.2208 1024.51 74.5285C1024.4 74.8362 1024.23 75.1321 1024 75.4161C1023.77 75.7001 1023.46 75.9763 1023.06 76.2445L1020.34 78.1263V78.2919H1024.66V79.3807H1019.41V77.4753ZM1029.08 79.5464C1028.46 79.5464 1027.94 79.3926 1027.5 79.0849C1027.07 78.7772 1026.74 78.3314 1026.51 77.7475C1026.29 77.1558 1026.18 76.4299 1026.18 75.57C1026.18 74.5443 1026.29 73.6882 1026.52 73.0018C1026.76 72.3075 1027.1 71.7907 1027.56 71.4515C1028.03 71.1043 1028.6 70.9307 1029.29 70.9307C1029.81 70.9307 1030.26 71.0333 1030.65 71.2384C1031.04 71.4436 1031.34 71.7355 1031.55 72.1142C1031.76 72.4929 1031.87 72.9269 1031.87 73.416V73.487H1030.73V73.416C1030.73 73.1241 1030.67 72.8677 1030.56 72.6468C1030.44 72.4259 1030.28 72.2562 1030.06 72.1379C1029.85 72.0195 1029.59 71.9604 1029.29 71.9604C1028.85 71.9604 1028.49 72.0945 1028.19 72.3627C1027.89 72.6231 1027.66 73.0137 1027.51 73.5344C1027.36 74.0472 1027.29 74.6902 1027.29 75.4634H1027.47C1027.63 75.0453 1027.88 74.7257 1028.22 74.5048C1028.56 74.276 1028.96 74.1616 1029.42 74.1616C1029.87 74.1616 1030.28 74.2721 1030.65 74.493C1031.03 74.7139 1031.32 75.0256 1031.54 75.4279C1031.76 75.8224 1031.87 76.2603 1031.87 76.7416C1031.87 77.2781 1031.75 77.7594 1031.5 78.1854C1031.27 78.6036 1030.93 78.935 1030.51 79.1795C1030.09 79.4241 1029.61 79.5464 1029.08 79.5464ZM1029.09 78.5168C1029.41 78.5168 1029.7 78.4458 1029.94 78.3038C1030.19 78.1618 1030.39 77.9645 1030.52 77.712C1030.66 77.4596 1030.73 77.1716 1030.73 76.8481C1030.73 76.5167 1030.66 76.2288 1030.52 75.9842C1030.39 75.7317 1030.19 75.5345 1029.94 75.3924C1029.7 75.2504 1029.41 75.1794 1029.09 75.1794C1028.76 75.1794 1028.48 75.2504 1028.22 75.3924C1027.98 75.5345 1027.79 75.7317 1027.64 75.9842C1027.51 76.2366 1027.44 76.5246 1027.44 76.8481C1027.44 77.1716 1027.51 77.4596 1027.64 77.712C1027.79 77.9645 1027.98 78.1618 1028.22 78.3038C1028.48 78.4458 1028.76 78.5168 1029.09 78.5168ZM929.969 88.0964H931.117V96.3807H929.969V88.0964ZM925.673 88.0964H926.821V96.3807H925.673V88.0964ZM926.49 91.6942H930.372V92.7711H926.49V91.6942ZM933.024 88.0964H937.959V89.1852H934.172V91.6942H937.841V92.7711H934.172V95.2919H937.959V96.3807H933.024V88.0964ZM941.546 92.2386L939.144 88.0964H940.422L942.091 90.9723L942.268 91.6587H942.446L942.623 90.9723L944.304 88.0964H945.582L943.18 92.2386L945.582 96.3807H944.292L942.564 93.3274L942.458 92.7475H942.28L942.174 93.3274L940.434 96.3807H939.144L941.546 92.2386ZM946.53 95.7417C946.53 95.4497 946.601 95.2446 946.743 95.1263C946.885 95.0079 947.055 94.9487 947.252 94.9487C947.457 94.9487 947.631 95.0079 947.773 95.1263C947.923 95.2446 947.998 95.4497 947.998 95.7417C947.998 96.0257 947.923 96.2308 947.773 96.3571C947.631 96.4833 947.457 96.5464 947.252 96.5464C947.055 96.5464 946.885 96.4833 946.743 96.3571C946.601 96.2308 946.53 96.0257 946.53 95.7417ZM946.53 90.6764C946.53 90.3766 946.601 90.1675 946.743 90.0492C946.885 89.9308 947.055 89.8716 947.252 89.8716C947.457 89.8716 947.631 89.9308 947.773 90.0492C947.923 90.1675 947.998 90.3766 947.998 90.6764C947.998 90.9604 947.923 91.1656 947.773 91.2918C947.631 91.418 947.457 91.4812 947.252 91.4812C947.055 91.4812 946.885 91.418 946.743 91.2918C946.601 91.1656 946.53 90.9604 946.53 90.6764ZM961.154 91.2208L960.788 93.1144H962.409V93.9073H960.634L960.148 96.3807H959.308L959.793 93.9073H958.101L957.639 96.3807H956.811L957.261 93.9073H955.77V93.1144H957.415L957.793 91.2208H956.207V90.4397H957.935L958.409 87.9307H959.261L958.787 90.4397H960.492L960.965 87.9307H961.782L961.308 90.4397H962.811V91.2208H961.154ZM958.255 93.1144H959.947L960.314 91.2208H958.622L958.255 93.1144ZM963.894 95.2919H966.344V89.3272H966.166C966.087 90.0452 965.906 90.5581 965.622 90.8658C965.338 91.1735 964.892 91.3273 964.284 91.3273H963.894V90.132H964.498C964.955 90.132 965.302 89.9545 965.539 89.5994C965.776 89.2444 965.894 88.7434 965.894 88.0964H967.421V95.2919H969.444V96.3807H963.894V95.2919ZM970.878 88.0964H973.718C974.515 88.0964 975.146 88.3016 975.612 88.7118C976.077 89.1142 976.31 89.6468 976.31 90.3095C976.31 90.6646 976.243 90.9723 976.109 91.2326C975.975 91.493 975.785 91.6981 975.541 91.848C975.304 91.9979 975.02 92.0966 974.689 92.1439V92.3333C975.02 92.3806 975.304 92.4792 975.541 92.6291C975.785 92.779 975.975 92.9802 976.109 93.2327C976.243 93.4852 976.31 93.785 976.31 94.1321C976.31 94.5819 976.203 94.9764 975.99 95.3156C975.777 95.6549 975.478 95.9192 975.091 96.1085C974.704 96.29 974.247 96.3807 973.718 96.3807H970.878V88.0964ZM973.6 95.2919C974.097 95.2919 974.48 95.1894 974.748 94.9842C975.016 94.7791 975.15 94.4596 975.15 94.0256C975.15 93.5917 975.016 93.2721 974.748 93.067C974.48 92.854 974.097 92.7475 973.6 92.7475H971.694V91.7297H973.6C973.931 91.7297 974.211 91.6863 974.44 91.5995C974.669 91.5048 974.842 91.3628 974.961 91.1735C975.087 90.9841 975.15 90.7435 975.15 90.4515C975.15 90.0176 975.016 89.6981 974.748 89.4929C974.48 89.2878 974.097 89.1852 973.6 89.1852H972.014V95.2919H973.6ZM977.862 95.2919H980.311V89.3272H980.134C980.055 90.0452 979.874 90.5581 979.59 90.8658C979.306 91.1735 978.86 91.3273 978.252 91.3273H977.862V90.132H978.465C978.923 90.132 979.27 89.9545 979.507 89.5994C979.743 89.2444 979.862 88.7434 979.862 88.0964H981.388V95.2919H983.412V96.3807H977.862V95.2919ZM986.491 88.0964H988.301L990.751 96.3807H989.52L987.556 89.3864L987.485 88.771H987.307L987.236 89.3864L985.272 96.3807H984.041L986.491 88.0964ZM985.591 92.3806H989.201V93.4576H985.591V92.3806ZM991.829 95.2919H994.279V89.3272H994.102C994.023 90.0452 993.841 90.5581 993.557 90.8658C993.273 91.1735 992.828 91.3273 992.22 91.3273H991.829V90.132H992.433C992.891 90.132 993.238 89.9545 993.474 89.5994C993.711 89.2444 993.83 88.7434 993.83 88.0964H995.356V95.2919H997.38V96.3807H991.829V95.2919ZM1000.46 88.0964H1002.27L1004.72 96.3807H1003.49L1001.52 89.3864L1001.45 88.771H1001.27L1001.2 89.3864L999.239 96.3807H998.009L1000.46 88.0964ZM999.559 92.3806H1003.17V93.4576H999.559V92.3806Z" fill="#F7F5F3"/>
<rect x="648.879" y="0.372437" width="244.322" height="140" fill="#C8C8C8"/>
<path d="M678.203 61.9054C675.468 61.9054 673.196 60.643 671.428 58.9177L671.05 52.1851H671.933L672.27 53.742C673.448 58.3286 675.468 60.9375 678.582 60.9375C681.569 60.9375 682.958 58.539 682.958 55.8881C682.958 53.6158 681.99 51.3856 680.181 49.7024L674.668 44.3163C672.48 42.2124 671.428 39.7718 671.428 37.205C671.428 33.2495 673.911 30.3461 678.077 30.3461C680.391 30.3461 682.579 31.3981 684.473 32.8708L684.894 39.4352H684.052L683.673 38.1307C682.411 33.4599 680.475 31.2718 677.74 31.2718C674.921 31.2718 673.743 33.6283 673.743 35.9426C673.743 37.9203 674.711 39.898 676.52 41.6653L681.948 46.8411C684.22 49.0292 685.441 51.596 685.441 54.4153C685.441 58.6653 682.663 61.9054 678.203 61.9054ZM685.955 61.2742V60.643L688.059 60.4747L688.943 59.9276V32.3238L688.059 31.7768L685.955 31.6085V30.9773H694.876V31.6085L692.772 31.7768L691.93 32.3238V59.9276L692.772 60.4747L694.876 60.643V61.2742H685.955ZM696.002 61.2742V60.643L697.854 60.4747L698.611 59.9276V32.3238L697.854 31.7768L696.002 31.6085V30.9773H704.713V31.6085L702.482 31.7768L701.599 32.3238V60.2222H708.71L711.824 52.7742H712.581L711.445 61.0638V61.2742H696.002ZM717.632 61.5266L709.763 32.1555L707.954 31.5243V30.9773H716.37V31.6085L713.13 32.0713V32.955L718.979 56.2247H719.189L724.87 32.955V32.0713L721.63 31.6085V30.9773H728.194V31.5243L726.342 32.1555L718.726 61.5266H717.632ZM728.612 61.2742V60.643L730.463 60.4747L731.221 59.9276V32.3238L730.463 31.7768L728.612 31.6085V30.9773H743.802V31.3139L744.896 38.5936H744.139L741.109 32.0293H734.208V45.2H737.659L741.193 44.5688H741.825V46.799H741.193L737.659 46.1678H734.208V60.2222H741.362L744.391 53.4475H745.107L744.055 60.9796V61.2742H728.612ZM745.677 61.2742V60.643L747.528 60.4747L748.286 59.9276V32.3238L747.528 31.7768L745.677 31.6085V30.9773H754.429C759.142 30.9773 762.13 34.1332 762.13 38.8461C762.13 43.054 759.689 45.9995 755.776 46.6728L762.677 59.8014L765.58 60.5588V61.2742H760.278L753.167 46.8411H751.189V59.9276L752.283 60.4747L754.892 60.643V61.2742H745.677ZM751.189 45.9153H753.924C757.164 45.9153 759.142 43.2223 759.142 38.9302C759.142 34.554 757.038 32.1555 754.05 32.1555H751.189V45.9153Z" fill="#1B1A1A"/>
<path d="M671.713 71.0964H674.541C675.109 71.0964 675.594 71.1793 675.997 71.345C676.407 71.5028 676.719 71.7552 676.932 72.1024C677.153 72.4416 677.263 72.8716 677.263 73.3924C677.263 73.8894 677.149 74.2997 676.92 74.6232C676.691 74.9467 676.375 75.1834 675.973 75.3333C675.571 75.4753 675.093 75.5463 674.541 75.5463H673.902L673.831 75.6765H672.565V74.6468H674.683C675.141 74.6468 675.492 74.5403 675.736 74.3273C675.981 74.1143 676.103 73.8066 676.103 73.4042C676.103 73.0018 675.977 72.6981 675.725 72.4929C675.48 72.2878 675.137 72.1852 674.695 72.1852H672.849V79.3807H671.713V71.0964ZM673.204 75.3569L674.659 75.4516V75.7238L674.943 75.8895L677.263 79.3807H675.807L673.204 75.3569ZM680.898 79.5583C680.014 79.5583 679.328 79.1874 678.838 78.4458C678.349 77.7042 678.105 76.6351 678.105 75.2386C678.105 74.276 678.227 73.4752 678.472 72.8361C678.716 72.1971 679.083 71.7197 679.572 71.4041C680.061 71.0807 680.677 70.9189 681.418 70.9189C681.979 70.9189 682.476 71.0491 682.91 71.3095C683.344 71.5698 683.679 71.9328 683.916 72.3983C684.152 72.8637 684.271 73.3963 684.271 73.9959H683.099C683.099 73.3726 682.949 72.8874 682.649 72.5403C682.357 72.1852 681.947 72.0077 681.418 72.0077C680.929 72.0077 680.531 72.1221 680.223 72.3509C679.915 72.5718 679.687 72.919 679.537 73.3924C679.387 73.8658 679.312 74.4812 679.312 75.2386C679.312 76.351 679.462 77.1676 679.762 77.6884C680.069 78.2091 680.543 78.4695 681.182 78.4695C681.687 78.4695 682.085 78.2762 682.377 77.8896C682.677 77.4951 682.854 76.927 682.91 76.1854H680.933V75.1084H683.998V79.3807H682.862L683.158 77.5464H682.981C682.894 77.9882 682.756 78.359 682.566 78.6588C682.385 78.9507 682.152 79.1756 681.868 79.3334C681.592 79.4833 681.268 79.5583 680.898 79.5583ZM685.645 71.0964H688.485C689.282 71.0964 689.913 71.3016 690.379 71.7118C690.844 72.1142 691.077 72.6468 691.077 73.3095C691.077 73.6646 691.01 73.9723 690.876 74.2326C690.742 74.493 690.552 74.6981 690.308 74.848C690.071 74.9979 689.787 75.0966 689.456 75.1439V75.3333C689.787 75.3806 690.071 75.4792 690.308 75.6291C690.552 75.779 690.742 75.9802 690.876 76.2327C691.01 76.4852 691.077 76.785 691.077 77.1321C691.077 77.5819 690.97 77.9764 690.757 78.3156C690.544 78.6549 690.245 78.9192 689.858 79.1085C689.471 79.29 689.014 79.3807 688.485 79.3807H685.645V71.0964ZM688.367 78.2919C688.864 78.2919 689.246 78.1894 689.515 77.9842C689.783 77.7791 689.917 77.4596 689.917 77.0256C689.917 76.5917 689.783 76.2721 689.515 76.067C689.246 75.854 688.864 75.7475 688.367 75.7475H686.461V74.7297H688.367C688.698 74.7297 688.978 74.6863 689.207 74.5995C689.436 74.5048 689.609 74.3628 689.728 74.1735C689.854 73.9841 689.917 73.7435 689.917 73.4515C689.917 73.0176 689.783 72.6981 689.515 72.4929C689.246 72.2878 688.864 72.1852 688.367 72.1852H686.781V78.2919H688.367ZM692.356 78.7417C692.356 78.4497 692.427 78.2446 692.569 78.1263C692.711 78.0079 692.881 77.9487 693.078 77.9487C693.284 77.9487 693.457 78.0079 693.599 78.1263C693.749 78.2446 693.824 78.4497 693.824 78.7417C693.824 79.0257 693.749 79.2308 693.599 79.3571C693.457 79.4833 693.284 79.5464 693.078 79.5464C692.881 79.5464 692.711 79.4833 692.569 79.3571C692.427 79.2308 692.356 79.0257 692.356 78.7417ZM692.356 73.6764C692.356 73.3766 692.427 73.1675 692.569 73.0492C692.711 72.9308 692.881 72.8716 693.078 72.8716C693.284 72.8716 693.457 72.9308 693.599 73.0492C693.749 73.1675 693.824 73.3766 693.824 73.6764C693.824 73.9604 693.749 74.1656 693.599 74.2918C693.457 74.418 693.284 74.4812 693.078 74.4812C692.881 74.4812 692.711 74.418 692.569 74.2918C692.427 74.1656 692.356 73.9604 692.356 73.6764ZM702.259 71.0964H705.418C705.971 71.0964 706.448 71.1911 706.85 71.3805C707.253 71.5619 707.564 71.8302 707.785 72.1852C708.006 72.5403 708.117 72.9742 708.117 73.487C708.117 73.9683 707.994 74.3825 707.75 74.7297C707.513 75.069 707.178 75.3254 706.744 75.4989C706.31 75.6725 705.805 75.7593 705.229 75.7593H704.803L704.732 76.0907H703.359V74.6232H705.17C705.517 74.6232 705.785 74.5364 705.975 74.3628C706.172 74.1892 706.27 73.9486 706.27 73.6409C706.27 73.3411 706.172 73.1123 705.975 72.9545C705.777 72.7888 705.509 72.706 705.17 72.706H704.069V79.3807H702.259V71.0964ZM704.223 75.5936L706.022 75.4161V75.8777L706.472 76.0315L708.176 79.3807H706.105L704.223 75.5936ZM709.361 77.4753L712.213 75.5108C712.671 75.1952 712.994 74.8757 713.183 74.5522C713.381 74.2287 713.479 73.8697 713.479 73.4752C713.479 73.0255 713.341 72.6626 713.065 72.3864C712.789 72.1024 712.426 71.9604 711.976 71.9604C711.471 71.9604 711.069 72.1142 710.769 72.4219C710.469 72.7296 710.319 73.1399 710.319 73.6527V74.0669H709.171V73.6527C709.171 73.1241 709.29 72.6547 709.526 72.2444C709.763 71.8341 710.094 71.5146 710.521 71.2858C710.947 71.0491 711.432 70.9307 711.976 70.9307C712.489 70.9307 712.947 71.0412 713.349 71.2621C713.751 71.4751 714.063 71.775 714.284 72.1616C714.505 72.5403 714.615 72.9821 714.615 73.487C714.615 73.8736 714.564 74.2208 714.462 74.5285C714.359 74.8362 714.189 75.1321 713.953 75.4161C713.724 75.7001 713.412 75.9763 713.018 76.2445L710.296 78.1263V78.2919H714.615V79.3807H709.361V77.4753ZM718.936 79.5464C717.966 79.5464 717.228 79.1835 716.723 78.4576C716.226 77.7318 715.978 76.6588 715.978 75.2386C715.978 74.2918 716.088 73.4989 716.309 72.8598C716.538 72.2207 716.869 71.7395 717.303 71.416C717.745 71.0925 718.289 70.9307 718.936 70.9307C719.907 70.9307 720.641 71.2937 721.138 72.0195C721.643 72.7454 721.895 73.8184 721.895 75.2386C721.895 76.1854 721.781 76.9783 721.552 77.6174C721.331 78.2564 721 78.7377 720.558 79.0612C720.124 79.3847 719.583 79.5464 718.936 79.5464ZM718.936 78.5168C719.331 78.5168 719.662 78.3945 719.931 78.1499C720.199 77.9053 720.4 77.5424 720.534 77.0611C720.668 76.572 720.735 75.9644 720.735 75.2386C720.735 74.1577 720.585 73.3411 720.286 72.7888C719.986 72.2365 719.536 71.9604 718.936 71.9604C718.542 71.9604 718.211 72.0827 717.942 72.3272C717.674 72.5718 717.473 72.9387 717.339 73.4279C717.205 73.9091 717.138 74.5127 717.138 75.2386C717.138 76.3195 717.287 77.1361 717.587 77.6884C717.887 78.2407 718.337 78.5168 718.936 78.5168ZM725.92 79.5464C724.95 79.5464 724.212 79.1835 723.707 78.4576C723.21 77.7318 722.962 76.6588 722.962 75.2386C722.962 74.2918 723.072 73.4989 723.293 72.8598C723.522 72.2207 723.853 71.7395 724.287 71.416C724.729 71.0925 725.273 70.9307 725.92 70.9307C726.891 70.9307 727.624 71.2937 728.122 72.0195C728.626 72.7454 728.879 73.8184 728.879 75.2386C728.879 76.1854 728.765 76.9783 728.536 77.6174C728.315 78.2564 727.983 78.7377 727.542 79.0612C727.108 79.3847 726.567 79.5464 725.92 79.5464ZM725.92 78.5168C726.315 78.5168 726.646 78.3945 726.914 78.1499C727.183 77.9053 727.384 77.5424 727.518 77.0611C727.652 76.572 727.719 75.9644 727.719 75.2386C727.719 74.1577 727.569 73.3411 727.269 72.7888C726.97 72.2365 726.52 71.9604 725.92 71.9604C725.526 71.9604 725.194 72.0827 724.926 72.3272C724.658 72.5718 724.457 72.9387 724.323 73.4279C724.188 73.9091 724.121 74.5127 724.121 75.2386C724.121 76.3195 724.271 77.1361 724.571 77.6884C724.871 78.2407 725.321 78.5168 725.92 78.5168ZM739.426 79.5819C738.566 79.5819 737.896 79.2111 737.415 78.4695C736.933 77.7199 736.693 76.643 736.693 75.2386C736.693 74.2681 736.819 73.4634 737.071 72.8243C737.324 72.1773 737.699 71.6961 738.196 71.3805C738.701 71.057 739.332 70.8952 740.089 70.8952C740.681 70.8952 741.198 71.0294 741.64 71.2976C742.089 71.558 742.436 71.9249 742.681 72.3983C742.926 72.8716 743.048 73.4081 743.048 74.0078H741.166C741.166 73.5502 741.064 73.1951 740.858 72.9426C740.661 72.6902 740.385 72.5639 740.03 72.5639C739.691 72.5639 739.415 72.6547 739.202 72.8361C738.989 73.0176 738.831 73.3056 738.728 73.7001C738.626 74.0946 738.574 74.6074 738.574 75.2386C738.574 76.2169 738.681 76.927 738.894 77.3688C739.107 77.8107 739.446 78.0316 739.912 78.0316C740.259 78.0316 740.535 77.8975 740.74 77.6292C740.945 77.3531 741.075 76.9467 741.131 76.4102H739.699V74.9072H742.811V79.3807H741.261L741.651 77.5819H741.427C741.308 78.0474 741.162 78.4261 740.989 78.718C740.823 79.0099 740.61 79.2269 740.35 79.3689C740.097 79.5109 739.789 79.5819 739.426 79.5819ZM744.28 77.4753L747.132 75.5108C747.59 75.1952 747.913 74.8757 748.103 74.5522C748.3 74.2287 748.399 73.8697 748.399 73.4752C748.399 73.0255 748.261 72.6626 747.984 72.3864C747.708 72.1024 747.345 71.9604 746.896 71.9604C746.391 71.9604 745.988 72.1142 745.688 72.4219C745.389 72.7296 745.239 73.1399 745.239 73.6527V74.0669H744.091V73.6527C744.091 73.1241 744.209 72.6547 744.446 72.2444C744.682 71.8341 745.014 71.5146 745.44 71.2858C745.866 71.0491 746.351 70.9307 746.896 70.9307C747.408 70.9307 747.866 71.0412 748.268 71.2621C748.671 71.4751 748.982 71.775 749.203 72.1616C749.424 72.5403 749.535 72.9821 749.535 73.487C749.535 73.8736 749.483 74.2208 749.381 74.5285C749.278 74.8362 749.109 75.1321 748.872 75.4161C748.643 75.7001 748.332 75.9763 747.937 76.2445L745.215 78.1263V78.2919H749.535V79.3807H744.28V77.4753ZM753.856 79.5464C752.885 79.5464 752.148 79.1835 751.643 78.4576C751.146 77.7318 750.897 76.6588 750.897 75.2386C750.897 74.2918 751.008 73.4989 751.228 72.8598C751.457 72.2207 751.789 71.7395 752.223 71.416C752.664 71.0925 753.209 70.9307 753.856 70.9307C754.826 70.9307 755.56 71.2937 756.057 72.0195C756.562 72.7454 756.814 73.8184 756.814 75.2386C756.814 76.1854 756.7 76.9783 756.471 77.6174C756.25 78.2564 755.919 78.7377 755.477 79.0612C755.043 79.3847 754.503 79.5464 753.856 79.5464ZM753.856 78.5168C754.25 78.5168 754.582 78.3945 754.85 78.1499C755.118 77.9053 755.319 77.5424 755.453 77.0611C755.588 76.572 755.655 75.9644 755.655 75.2386C755.655 74.1577 755.505 73.3411 755.205 72.7888C754.905 72.2365 754.455 71.9604 753.856 71.9604C753.461 71.9604 753.13 72.0827 752.862 72.3272C752.593 72.5718 752.392 72.9387 752.258 73.4279C752.124 73.9091 752.057 74.5127 752.057 75.2386C752.057 76.3195 752.207 77.1361 752.507 77.6884C752.806 78.2407 753.256 78.5168 753.856 78.5168ZM760.84 79.5464C759.869 79.5464 759.132 79.1835 758.627 78.4576C758.13 77.7318 757.881 76.6588 757.881 75.2386C757.881 74.2918 757.991 73.4989 758.212 72.8598C758.441 72.2207 758.773 71.7395 759.206 71.416C759.648 71.0925 760.193 70.9307 760.84 70.9307C761.81 70.9307 762.544 71.2937 763.041 72.0195C763.546 72.7454 763.798 73.8184 763.798 75.2386C763.798 76.1854 763.684 76.9783 763.455 77.6174C763.234 78.2564 762.903 78.7377 762.461 79.0612C762.027 79.3847 761.487 79.5464 760.84 79.5464ZM760.84 78.5168C761.234 78.5168 761.566 78.3945 761.834 78.1499C762.102 77.9053 762.303 77.5424 762.437 77.0611C762.571 76.572 762.639 75.9644 762.639 75.2386C762.639 74.1577 762.489 73.3411 762.189 72.7888C761.889 72.2365 761.439 71.9604 760.84 71.9604C760.445 71.9604 760.114 72.0827 759.846 72.3272C759.577 72.5718 759.376 72.9387 759.242 73.4279C759.108 73.9091 759.041 74.5127 759.041 75.2386C759.041 76.3195 759.191 77.1361 759.49 77.6884C759.79 78.2407 760.24 78.5168 760.84 78.5168ZM772.133 71.0964H775.115C775.967 71.0964 776.63 71.2937 777.103 71.6882C777.585 72.0748 777.825 72.6113 777.825 73.2977C777.825 73.637 777.75 73.9407 777.6 74.209C777.45 74.4772 777.234 74.6902 776.949 74.848C776.673 75.0058 776.346 75.0926 775.967 75.1084V75.3569C776.338 75.3727 776.665 75.4634 776.949 75.6291C777.234 75.7869 777.45 76 777.6 76.2682C777.75 76.5286 777.825 76.8284 777.825 77.1676C777.825 77.6174 777.715 78.0119 777.494 78.3511C777.281 78.6825 776.969 78.9389 776.559 79.1204C776.157 79.2939 775.675 79.3807 775.115 79.3807H772.133V71.0964ZM774.89 77.8422C775.245 77.8422 775.517 77.7673 775.707 77.6174C775.896 77.4596 775.991 77.2268 775.991 76.9191C775.991 76.5956 775.896 76.3589 775.707 76.209C775.517 76.0512 775.245 75.9723 774.89 75.9723H773.517V74.493H774.89C775.127 74.493 775.324 74.4614 775.482 74.3983C775.648 74.3273 775.774 74.2247 775.861 74.0906C775.947 73.9486 775.991 73.775 775.991 73.5699C775.991 73.2543 775.896 73.0215 775.707 72.8716C775.517 72.7138 775.245 72.6349 774.89 72.6349H773.872V77.8422H774.89ZM779.199 77.4753L782.052 75.5108C782.509 75.1952 782.833 74.8757 783.022 74.5522C783.219 74.2287 783.318 73.8697 783.318 73.4752C783.318 73.0255 783.18 72.6626 782.904 72.3864C782.628 72.1024 782.265 71.9604 781.815 71.9604C781.31 71.9604 780.908 72.1142 780.608 72.4219C780.308 72.7296 780.158 73.1399 780.158 73.6527V74.0669H779.01V73.6527C779.01 73.1241 779.128 72.6547 779.365 72.2444C779.602 71.8341 779.933 71.5146 780.359 71.2858C780.785 71.0491 781.271 70.9307 781.815 70.9307C782.328 70.9307 782.785 71.0412 783.188 71.2621C783.59 71.4751 783.902 71.775 784.123 72.1616C784.344 72.5403 784.454 72.9821 784.454 73.487C784.454 73.8736 784.403 74.2208 784.3 74.5285C784.198 74.8362 784.028 75.1321 783.791 75.4161C783.563 75.7001 783.251 75.9763 782.856 76.2445L780.134 78.1263V78.2919H784.454V79.3807H779.199V77.4753ZM788.775 79.5464C787.805 79.5464 787.067 79.1835 786.562 78.4576C786.065 77.7318 785.816 76.6588 785.816 75.2386C785.816 74.2918 785.927 73.4989 786.148 72.8598C786.377 72.2207 786.708 71.7395 787.142 71.416C787.584 71.0925 788.128 70.9307 788.775 70.9307C789.746 70.9307 790.479 71.2937 790.976 72.0195C791.481 72.7454 791.734 73.8184 791.734 75.2386C791.734 76.1854 791.619 76.9783 791.391 77.6174C791.17 78.2564 790.838 78.7377 790.397 79.0612C789.963 79.3847 789.422 79.5464 788.775 79.5464ZM788.775 78.5168C789.17 78.5168 789.501 78.3945 789.769 78.1499C790.038 77.9053 790.239 77.5424 790.373 77.0611C790.507 76.572 790.574 75.9644 790.574 75.2386C790.574 74.1577 790.424 73.3411 790.124 72.7888C789.824 72.2365 789.375 71.9604 788.775 71.9604C788.381 71.9604 788.049 72.0827 787.781 72.3272C787.513 72.5718 787.312 72.9387 787.177 73.4279C787.043 73.9091 786.976 74.5127 786.976 75.2386C786.976 76.3195 787.126 77.1361 787.426 77.6884C787.726 78.2407 788.176 78.5168 788.775 78.5168ZM795.759 79.5464C794.789 79.5464 794.051 79.1835 793.546 78.4576C793.049 77.7318 792.8 76.6588 792.8 75.2386C792.8 74.2918 792.911 73.4989 793.132 72.8598C793.361 72.2207 793.692 71.7395 794.126 71.416C794.568 71.0925 795.112 70.9307 795.759 70.9307C796.729 70.9307 797.463 71.2937 797.96 72.0195C798.465 72.7454 798.718 73.8184 798.718 75.2386C798.718 76.1854 798.603 76.9783 798.374 77.6174C798.154 78.2564 797.822 78.7377 797.38 79.0612C796.946 79.3847 796.406 79.5464 795.759 79.5464ZM795.759 78.5168C796.154 78.5168 796.485 78.3945 796.753 78.1499C797.021 77.9053 797.223 77.5424 797.357 77.0611C797.491 76.572 797.558 75.9644 797.558 75.2386C797.558 74.1577 797.408 73.3411 797.108 72.7888C796.808 72.2365 796.359 71.9604 795.759 71.9604C795.365 71.9604 795.033 72.0827 794.765 72.3272C794.497 72.5718 794.295 72.9387 794.161 73.4279C794.027 73.9091 793.96 74.5127 793.96 75.2386C793.96 76.3195 794.11 77.1361 794.41 77.6884C794.71 78.2407 795.159 78.5168 795.759 78.5168ZM675.796 88.0964H676.943V96.3807H675.796V88.0964ZM671.5 88.0964H672.647V96.3807H671.5V88.0964ZM672.316 91.6942H676.198V92.7711H672.316V91.6942ZM678.85 88.0964H683.785V89.1852H679.998V91.6942H683.667V92.7711H679.998V95.2919H683.785V96.3807H678.85V88.0964ZM687.373 92.2386L684.97 88.0964H686.248L687.917 90.9723L688.095 91.6587H688.272L688.45 90.9723L690.13 88.0964H691.408L689.006 92.2386L691.408 96.3807H690.118L688.39 93.3274L688.284 92.7475H688.106L688 93.3274L686.26 96.3807H684.97L687.373 92.2386ZM692.356 95.7417C692.356 95.4497 692.427 95.2446 692.569 95.1263C692.711 95.0079 692.881 94.9487 693.078 94.9487C693.284 94.9487 693.457 95.0079 693.599 95.1263C693.749 95.2446 693.824 95.4497 693.824 95.7417C693.824 96.0257 693.749 96.2308 693.599 96.3571C693.457 96.4833 693.284 96.5464 693.078 96.5464C692.881 96.5464 692.711 96.4833 692.569 96.3571C692.427 96.2308 692.356 96.0257 692.356 95.7417ZM692.356 90.6764C692.356 90.3766 692.427 90.1675 692.569 90.0492C692.711 89.9308 692.881 89.8716 693.078 89.8716C693.284 89.8716 693.457 89.9308 693.599 90.0492C693.749 90.1675 693.824 90.3766 693.824 90.6764C693.824 90.9604 693.749 91.1656 693.599 91.2918C693.457 91.418 693.284 91.4812 693.078 91.4812C692.881 91.4812 692.711 91.418 692.569 91.2918C692.427 91.1656 692.356 90.9604 692.356 90.6764ZM706.981 91.2208L706.614 93.1144H708.235V93.9073H706.46L705.975 96.3807H705.134L705.62 93.9073H703.927L703.466 96.3807H702.637L703.087 93.9073H701.596V93.1144H703.241L703.62 91.2208H702.034V90.4397H703.762L704.235 87.9307H705.087L704.614 90.4397H706.318L706.791 87.9307H707.608L707.134 90.4397H708.637V91.2208H706.981ZM704.081 93.1144H705.773L706.14 91.2208H704.448L704.081 93.1144ZM712.407 96.5583C711.373 96.5583 710.596 96.1993 710.075 95.4813C709.562 94.7633 709.306 93.6824 709.306 92.2386C709.306 91.276 709.424 90.4752 709.661 89.8361C709.898 89.1971 710.253 88.7197 710.726 88.4041C711.207 88.0807 711.807 87.9189 712.525 87.9189C713.109 87.9189 713.614 88.0491 714.04 88.3095C714.474 88.5619 714.805 88.9249 715.034 89.3983C715.263 89.8716 715.377 90.4239 715.377 91.0551H714.217C714.217 90.6291 714.15 90.2622 714.016 89.9545C713.882 89.6468 713.685 89.414 713.424 89.2562C713.172 89.0905 712.872 89.0077 712.525 89.0077C712.052 89.0077 711.665 89.1221 711.365 89.3509C711.073 89.5718 710.856 89.919 710.714 90.3924C710.572 90.8658 710.501 91.4812 710.501 92.2386C710.501 93.3668 710.655 94.1874 710.963 94.7002C711.27 95.213 711.752 95.4695 712.407 95.4695C712.935 95.4695 713.345 95.288 713.637 94.9251C713.937 94.5621 714.087 94.0611 714.087 93.4221H715.247C715.247 94.0375 715.129 94.5819 714.892 95.0552C714.655 95.5286 714.32 95.8995 713.886 96.1677C713.46 96.4281 712.967 96.5583 712.407 96.5583ZM719.248 96.5464C718.72 96.5464 718.246 96.4517 717.828 96.2624C717.41 96.0651 717.087 95.7969 716.858 95.4576C716.629 95.1105 716.515 94.7199 716.515 94.286C716.515 93.9546 716.582 93.6509 716.716 93.3747C716.85 93.0986 717.039 92.8698 717.284 92.6883C717.528 92.5068 717.813 92.3845 718.136 92.3214V92.1439C717.663 92.065 717.272 91.8441 716.964 91.4812C716.665 91.1103 716.515 90.6764 716.515 90.1793C716.515 89.7533 716.629 89.3706 716.858 89.0314C717.087 88.6842 717.41 88.416 717.828 88.2266C718.246 88.0294 718.72 87.9307 719.248 87.9307C719.777 87.9307 720.25 88.0294 720.669 88.2266C721.087 88.416 721.41 88.6842 721.639 89.0314C721.868 89.3706 721.982 89.7533 721.982 90.1793C721.982 90.5107 721.911 90.8184 721.769 91.1025C721.635 91.3786 721.442 91.6113 721.189 91.8007C720.945 91.9822 720.669 92.0966 720.361 92.1439V92.3214C720.85 92.4161 721.241 92.6449 721.533 93.0078C721.832 93.3629 721.982 93.7889 721.982 94.286C721.982 94.7199 721.868 95.1105 721.639 95.4576C721.41 95.7969 721.087 96.0651 720.669 96.2624C720.25 96.4517 719.777 96.5464 719.248 96.5464ZM719.248 95.5168C719.73 95.5168 720.116 95.3985 720.408 95.1618C720.7 94.9251 720.846 94.6016 720.846 94.1913C720.846 93.7889 720.7 93.4694 720.408 93.2327C720.116 92.9881 719.73 92.8658 719.248 92.8658C718.925 92.8658 718.645 92.9211 718.408 93.0315C718.172 93.1341 717.986 93.2879 717.852 93.4931C717.718 93.6903 717.651 93.9231 717.651 94.1913C717.651 94.6016 717.797 94.9251 718.089 95.1618C718.381 95.3985 718.767 95.5168 719.248 95.5168ZM719.248 91.6113C719.556 91.6113 719.828 91.5561 720.065 91.4457C720.31 91.3352 720.499 91.1813 720.633 90.9841C720.775 90.7869 720.846 90.562 720.846 90.3095C720.846 89.8993 720.696 89.5718 720.396 89.3272C720.105 89.0827 719.722 88.9604 719.248 88.9604C718.775 88.9604 718.388 89.0827 718.089 89.3272C717.797 89.5718 717.651 89.8993 717.651 90.3095C717.651 90.6882 717.801 90.9999 718.1 91.2445C718.4 91.4891 718.783 91.6113 719.248 91.6113ZM726.374 96.5583C725.341 96.5583 724.564 96.1993 724.043 95.4813C723.53 94.7633 723.274 93.6824 723.274 92.2386C723.274 91.276 723.392 90.4752 723.629 89.8361C723.865 89.1971 724.22 88.7197 724.694 88.4041C725.175 88.0807 725.775 87.9189 726.493 87.9189C727.077 87.9189 727.581 88.0491 728.008 88.3095C728.441 88.5619 728.773 88.9249 729.002 89.3983C729.23 89.8716 729.345 90.4239 729.345 91.0551H728.185C728.185 90.6291 728.118 90.2622 727.984 89.9545C727.85 89.6468 727.652 89.414 727.392 89.2562C727.14 89.0905 726.84 89.0077 726.493 89.0077C726.019 89.0077 725.633 89.1221 725.333 89.3509C725.041 89.5718 724.824 89.919 724.682 90.3924C724.54 90.8658 724.469 91.4812 724.469 92.2386C724.469 93.3668 724.623 94.1874 724.931 94.7002C725.238 95.213 725.719 95.4695 726.374 95.4695C726.903 95.4695 727.313 95.288 727.605 94.9251C727.905 94.5621 728.055 94.0611 728.055 93.4221H729.215C729.215 94.0375 729.096 94.5819 728.86 95.0552C728.623 95.5286 728.288 95.8995 727.854 96.1677C727.428 96.4281 726.935 96.5583 726.374 96.5583ZM733.216 96.5464C732.688 96.5464 732.214 96.4517 731.796 96.2624C731.378 96.0651 731.054 95.7969 730.826 95.4576C730.597 95.1105 730.482 94.7199 730.482 94.286C730.482 93.9546 730.549 93.6509 730.684 93.3747C730.818 93.0986 731.007 92.8698 731.252 92.6883C731.496 92.5068 731.78 92.3845 732.104 92.3214V92.1439C731.63 92.065 731.24 91.8441 730.932 91.4812C730.632 91.1103 730.482 90.6764 730.482 90.1793C730.482 89.7533 730.597 89.3706 730.826 89.0314C731.054 88.6842 731.378 88.416 731.796 88.2266C732.214 88.0294 732.688 87.9307 733.216 87.9307C733.745 87.9307 734.218 88.0294 734.636 88.2266C735.055 88.416 735.378 88.6842 735.607 89.0314C735.836 89.3706 735.95 89.7533 735.95 90.1793C735.95 90.5107 735.879 90.8184 735.737 91.1025C735.603 91.3786 735.41 91.6113 735.157 91.8007C734.913 91.9822 734.636 92.0966 734.329 92.1439V92.3214C734.818 92.4161 735.208 92.6449 735.5 93.0078C735.8 93.3629 735.95 93.7889 735.95 94.286C735.95 94.7199 735.836 95.1105 735.607 95.4576C735.378 95.7969 735.055 96.0651 734.636 96.2624C734.218 96.4517 733.745 96.5464 733.216 96.5464ZM733.216 95.5168C733.697 95.5168 734.084 95.3985 734.376 95.1618C734.668 94.9251 734.814 94.6016 734.814 94.1913C734.814 93.7889 734.668 93.4694 734.376 93.2327C734.084 92.9881 733.697 92.8658 733.216 92.8658C732.893 92.8658 732.613 92.9211 732.376 93.0315C732.139 93.1341 731.954 93.2879 731.82 93.4931C731.686 93.6903 731.619 93.9231 731.619 94.1913C731.619 94.6016 731.764 94.9251 732.056 95.1618C732.348 95.3985 732.735 95.5168 733.216 95.5168ZM733.216 91.6113C733.524 91.6113 733.796 91.5561 734.033 91.4457C734.277 91.3352 734.467 91.1813 734.601 90.9841C734.743 90.7869 734.814 90.562 734.814 90.3095C734.814 89.8993 734.664 89.5718 734.364 89.3272C734.072 89.0827 733.69 88.9604 733.216 88.9604C732.743 88.9604 732.356 89.0827 732.056 89.3272C731.764 89.5718 731.619 89.8993 731.619 90.3095C731.619 90.6882 731.768 90.9999 732.068 91.2445C732.368 91.4891 732.751 91.6113 733.216 91.6113ZM740.342 96.5583C739.309 96.5583 738.531 96.1993 738.011 95.4813C737.498 94.7633 737.241 93.6824 737.241 92.2386C737.241 91.276 737.36 90.4752 737.596 89.8361C737.833 89.1971 738.188 88.7197 738.662 88.4041C739.143 88.0807 739.742 87.9189 740.46 87.9189C741.044 87.9189 741.549 88.0491 741.975 88.3095C742.409 88.5619 742.741 88.9249 742.969 89.3983C743.198 89.8716 743.313 90.4239 743.313 91.0551H742.153C742.153 90.6291 742.086 90.2622 741.952 89.9545C741.817 89.6468 741.62 89.414 741.36 89.2562C741.107 89.0905 740.808 89.0077 740.46 89.0077C739.987 89.0077 739.6 89.1221 739.301 89.3509C739.009 89.5718 738.792 89.919 738.65 90.3924C738.508 90.8658 738.437 91.4812 738.437 92.2386C738.437 93.3668 738.591 94.1874 738.898 94.7002C739.206 95.213 739.687 95.4695 740.342 95.4695C740.871 95.4695 741.281 95.288 741.573 94.9251C741.873 94.5621 742.023 94.0611 742.023 93.4221H743.182C743.182 94.0375 743.064 94.5819 742.827 95.0552C742.591 95.5286 742.255 95.8995 741.821 96.1677C741.395 96.4281 740.902 96.5583 740.342 96.5583ZM747.184 96.5464C746.655 96.5464 746.182 96.4517 745.764 96.2624C745.346 96.0651 745.022 95.7969 744.793 95.4576C744.565 95.1105 744.45 94.7199 744.45 94.286C744.45 93.9546 744.517 93.6509 744.651 93.3747C744.785 93.0986 744.975 92.8698 745.219 92.6883C745.464 92.5068 745.748 92.3845 746.071 92.3214V92.1439C745.598 92.065 745.208 91.8441 744.9 91.4812C744.6 91.1103 744.45 90.6764 744.45 90.1793C744.45 89.7533 744.565 89.3706 744.793 89.0314C745.022 88.6842 745.346 88.416 745.764 88.2266C746.182 88.0294 746.655 87.9307 747.184 87.9307C747.713 87.9307 748.186 88.0294 748.604 88.2266C749.022 88.416 749.346 88.6842 749.575 89.0314C749.803 89.3706 749.918 89.7533 749.918 90.1793C749.918 90.5107 749.847 90.8184 749.705 91.1025C749.571 91.3786 749.377 91.6113 749.125 91.8007C748.88 91.9822 748.604 92.0966 748.296 92.1439V92.3214C748.786 92.4161 749.176 92.6449 749.468 93.0078C749.768 93.3629 749.918 93.7889 749.918 94.286C749.918 94.7199 749.803 95.1105 749.575 95.4576C749.346 95.7969 749.022 96.0651 748.604 96.2624C748.186 96.4517 747.713 96.5464 747.184 96.5464ZM747.184 95.5168C747.665 95.5168 748.052 95.3985 748.344 95.1618C748.636 94.9251 748.782 94.6016 748.782 94.1913C748.782 93.7889 748.636 93.4694 748.344 93.2327C748.052 92.9881 747.665 92.8658 747.184 92.8658C746.86 92.8658 746.58 92.9211 746.344 93.0315C746.107 93.1341 745.922 93.2879 745.787 93.4931C745.653 93.6903 745.586 93.9231 745.586 94.1913C745.586 94.6016 745.732 94.9251 746.024 95.1618C746.316 95.3985 746.703 95.5168 747.184 95.5168ZM747.184 91.6113C747.492 91.6113 747.764 91.5561 748.001 91.4457C748.245 91.3352 748.434 91.1813 748.569 90.9841C748.711 90.7869 748.782 90.562 748.782 90.3095C748.782 89.8993 748.632 89.5718 748.332 89.3272C748.04 89.0827 747.657 88.9604 747.184 88.9604C746.711 88.9604 746.324 89.0827 746.024 89.3272C745.732 89.5718 745.586 89.8993 745.586 90.3095C745.586 90.6882 745.736 90.9999 746.036 91.2445C746.336 91.4891 746.718 91.6113 747.184 91.6113Z" fill="#1B1A1A"/>
</svg>
