<svg width="1240" height="426" viewBox="0 0 1240 426" fill="none" xmlns="http://www.w3.org/2000/svg">
<rect y="0.0543213" width="1239.48" height="425.351" fill="#CCBDAB"/>
<rect width="146.617" height="146.617" transform="translate(546.43 139.422)" fill="#CCBDAB"/>
<rect x="583.251" y="176.27" width="73.2094" height="73.2094" stroke="#F5EDE2" stroke-width="0.457559"/>
<line x1="583.271" y1="212.834" x2="656.324" y2="212.834" stroke="#F5EDE2" stroke-width="0.457559"/>
<line x1="583.271" y1="212.834" x2="656.324" y2="212.834" stroke="#F5EDE2" stroke-width="0.457559"/>
<line x1="620.015" y1="249.47" x2="620.015" y2="176.343" stroke="#F5EDE2" stroke-width="0.457559"/>
<line x1="583.173" y1="249.419" x2="656.457" y2="187.926" stroke="#F5EDE2" stroke-width="0.457559"/>
<line x1="583.173" y1="249.419" x2="656.457" y2="187.926" stroke="#F5EDE2" stroke-width="0.457559"/>
<line y1="-0.228779" x2="95.6663" y2="-0.228779" transform="matrix(0.759955 0.6501 0.643609 -0.765342 583.417 186.836)" stroke="#F5EDE2" stroke-width="0.457559"/>
<line y1="-0.228779" x2="95.6663" y2="-0.228779" transform="matrix(0.759955 0.6501 0.643609 -0.765342 583.417 186.836)" stroke="#F5EDE2" stroke-width="0.457559"/>
<line x1="656.251" y1="176.729" x2="583.347" y2="249.308" stroke="#F5EDE2" stroke-width="0.457559"/>
<path d="M656.24 249.335L583.585 176.318" stroke="#F5EDE2" stroke-width="0.457559"/>
<rect x="584.058" y="177.075" width="2.28779" height="71.6131" fill="#2A2826" stroke="#2A2826" stroke-width="1.1439"/>
<rect x="653.371" y="177.069" width="2.28779" height="71.5955" fill="#2A2826" stroke="#2A2826" stroke-width="1.1439"/>
<rect x="618.193" y="177.086" width="3.61014" height="3.61014" rx="1.80507" fill="#2A2826" stroke="#2A2826" stroke-width="1.1439"/>
<path d="M584.307 177.943L585.178 177.073L586.675 177.076L620.637 211.038L619.019 212.655L584.307 177.943Z" fill="#2A2826" stroke="#2A2826" stroke-width="1.1439"/>
<path d="M655.394 177.943L654.523 177.072L653.029 177.073L619.184 210.917L620.802 212.535L655.394 177.943Z" fill="#2A2826" stroke="#2A2826" stroke-width="1.1439"/>
</svg>
