<svg width="1240" height="426" viewBox="0 0 1240 426" fill="none" xmlns="http://www.w3.org/2000/svg">
<rect width="1239.48" height="425.351" fill="#F5EDE2"/>
<rect x="477.284" y="70.2443" width="284.807" height="284.807" stroke="#CCBDAB" stroke-width="1.5"/>
<line x1="477.358" y1="212.627" x2="761.556" y2="212.627" stroke="#CCBDAB" stroke-width="1.5"/>
<line x1="477.358" y1="212.627" x2="761.556" y2="212.627" stroke="#CCBDAB" stroke-width="1.5"/>
<line x1="477.358" y1="283.853" x2="761.556" y2="283.853" stroke="#CCBDAB" stroke-width="1.5"/>
<line x1="477.358" y1="283.853" x2="761.556" y2="283.853" stroke="#CCBDAB" stroke-width="1.5"/>
<line x1="477.358" y1="141.4" x2="761.556" y2="141.4" stroke="#CCBDAB" stroke-width="1.5"/>
<line x1="477.358" y1="141.4" x2="761.556" y2="141.4" stroke="#CCBDAB" stroke-width="1.5"/>
<line x1="477.358" y1="107.18" x2="761.556" y2="107.18" stroke="#CCBDAB" stroke-width="1.5"/>
<line x1="477.358" y1="107.18" x2="761.556" y2="107.18" stroke="#CCBDAB" stroke-width="1.5"/>
<line x1="477.358" y1="319.466" x2="761.556" y2="319.466" stroke="#CCBDAB" stroke-width="1.5"/>
<line x1="477.358" y1="319.466" x2="761.556" y2="319.466" stroke="#CCBDAB" stroke-width="1.5"/>
<line x1="620.449" y1="355.013" x2="620.449" y2="70.5271" stroke="#CCBDAB" stroke-width="1.5"/>
<line x1="692.178" y1="355.013" x2="692.178" y2="70.5271" stroke="#CCBDAB" stroke-width="1.5"/>
<line x1="692.178" y1="355.013" x2="692.178" y2="70.5271" stroke="#CCBDAB" stroke-width="1.5"/>
<line x1="549.722" y1="355.013" x2="549.722" y2="70.5271" stroke="#CCBDAB" stroke-width="1.5"/>
<line x1="513.739" y1="355.139" x2="513.739" y2="70.6537" stroke="#CCBDAB" stroke-width="1.5"/>
<line x1="727.159" y1="355.139" x2="727.159" y2="70.6537" stroke="#CCBDAB" stroke-width="1.5"/>
<line x1="477.071" y1="354.924" x2="762.171" y2="115.697" stroke="#CCBDAB" stroke-width="1.5"/>
<line x1="477.071" y1="354.924" x2="762.171" y2="115.697" stroke="#CCBDAB" stroke-width="1.5"/>
<line y1="-0.75" x2="372.171" y2="-0.75" transform="matrix(0.759955 0.6501 0.643609 -0.765342 477.923 111.347)" stroke="#CCBDAB" stroke-width="1.5"/>
<line y1="-0.75" x2="372.171" y2="-0.75" transform="matrix(0.759955 0.6501 0.643609 -0.765342 477.923 111.347)" stroke="#CCBDAB" stroke-width="1.5"/>
<line x1="761.178" y1="71.9303" x2="477.56" y2="354.284" stroke="#CCBDAB" stroke-width="1.5"/>
<path d="M761.231 354.487L478.582 70.4315" stroke="#CCBDAB" stroke-width="1.5"/>
<line x1="619.746" y1="70.6975" x2="477.494" y2="355.332" stroke="#CCBDAB" stroke-width="1.5"/>
<line x1="549.661" y1="70.0365" x2="477.551" y2="355.18" stroke="#CCBDAB" stroke-width="1.5"/>
<line x1="549.661" y1="70.0365" x2="477.551" y2="355.18" stroke="#CCBDAB" stroke-width="1.5"/>
<line x1="761.736" y1="355.181" x2="692.271" y2="71.5439" stroke="#CCBDAB" stroke-width="1.5"/>
<line x1="761.736" y1="355.181" x2="692.271" y2="71.5439" stroke="#CCBDAB" stroke-width="1.5"/>
<path d="M477.317 212.246L761.796 354.712" stroke="#CCBDAB" stroke-width="1.5"/>
<path d="M762.156 212.553L477.697 70.731" stroke="#CCBDAB" stroke-width="1.5"/>
<path d="M620.471 70.3124L761.408 354.358" stroke="#CCBDAB" stroke-width="1.5"/>
<path d="M477.393 212.09L762.012 70.951" stroke="#CCBDAB" stroke-width="1.5"/>
<path d="M477.393 212.09L762.012 70.951" stroke="#CCBDAB" stroke-width="1.5"/>
</svg>
