<svg width="1240" height="427" viewBox="0 0 1240 427" fill="none" xmlns="http://www.w3.org/2000/svg">
<rect y="0.793823" width="1239.48" height="425.351" fill="#FEFDFA"/>
<rect width="1059" height="178.882" transform="translate(90.239 124.029)" fill="#FEFDFA"/>
<path d="M92.254 159.777L104.419 123.961C104.47 123.793 104.57 123.709 104.722 123.709H111.069C111.237 123.709 111.346 123.793 111.396 123.961L123.41 159.777C123.427 159.844 123.41 159.903 123.36 159.953C123.31 160.004 123.243 160.029 123.159 160.029H118.297C118.18 160.029 118.096 159.945 118.046 159.777L115.678 152.397C115.644 152.229 115.519 152.145 115.3 152.145H100.339C100.188 152.145 100.087 152.229 100.037 152.397L97.6188 159.777C97.5685 159.945 97.4845 160.029 97.367 160.029H92.5562C92.5059 160.029 92.4555 160.02 92.4051 160.004C92.3547 159.987 92.3128 159.962 92.2792 159.928C92.2456 159.894 92.2372 159.844 92.254 159.777ZM101.548 147.763C101.531 147.796 101.523 147.83 101.523 147.863C101.523 147.964 101.598 148.015 101.75 148.015H113.965C114.116 148.015 114.192 147.964 114.192 147.863C114.192 147.83 114.184 147.796 114.167 147.763L108.147 128.872C108.097 128.721 108.004 128.646 107.87 128.646C107.752 128.646 107.669 128.721 107.618 128.872L101.548 147.763ZM137.493 159.777V123.961C137.493 123.793 137.585 123.709 137.77 123.709H154.923C157.676 123.709 159.943 124.716 161.723 126.731C163.52 128.73 164.418 131.164 164.418 134.036C164.418 135.631 164.015 137.041 163.209 138.267C162.403 139.493 161.454 140.332 160.363 140.786C160.246 140.836 160.187 140.929 160.187 141.063C160.187 141.18 160.246 141.264 160.363 141.315C161.606 141.819 162.731 142.91 163.738 144.589C164.746 146.251 165.249 147.956 165.249 149.702C165.249 152.758 164.259 155.243 162.277 157.157C160.296 159.072 157.76 160.029 154.671 160.029H137.77C137.585 160.029 137.493 159.945 137.493 159.777ZM142.405 155.394C142.405 155.562 142.489 155.646 142.656 155.646H153.966C155.813 155.646 157.341 155.059 158.55 153.883C159.759 152.691 160.363 151.297 160.363 149.702C160.363 148.14 159.759 146.722 158.55 145.445C157.341 144.169 155.93 143.531 154.318 143.531H142.656C142.489 143.531 142.405 143.615 142.405 143.783V155.394ZM142.405 138.872C142.405 139.056 142.489 139.149 142.656 139.149H153.966C155.393 139.098 156.677 138.595 157.819 137.637C158.961 136.664 159.532 135.463 159.532 134.036C159.532 132.39 159.037 130.98 158.046 129.804C157.072 128.629 155.712 128.041 153.966 128.041H142.656C142.489 128.041 142.405 128.125 142.405 128.293V138.872ZM177.997 141.869C177.997 138.208 178.627 134.984 179.886 132.197C181.162 129.393 183.034 127.193 185.503 125.598C187.988 124.003 190.918 123.205 194.293 123.205C196.409 123.205 198.348 123.524 200.111 124.162C201.891 124.784 203.319 125.556 204.393 126.48C205.468 127.386 206.383 128.394 207.139 129.502C207.894 130.61 208.415 131.618 208.7 132.524C209.002 133.414 209.154 134.178 209.154 134.816C209.154 134.984 209.07 135.068 208.902 135.068H204.368C204.167 135.068 204.041 134.984 203.99 134.816C202.294 129.997 199.062 127.588 194.293 127.588C190.717 127.588 187.963 128.847 186.032 131.366C184.118 133.868 183.16 137.369 183.16 141.869C183.16 146.369 184.118 149.878 186.032 152.397C187.963 154.899 190.717 156.15 194.293 156.15C195.754 156.15 197.081 155.915 198.273 155.445C199.465 154.958 200.43 154.328 201.169 153.556C201.925 152.783 202.521 152.019 202.958 151.264C203.411 150.508 203.755 149.736 203.99 148.946C204.041 148.762 204.167 148.669 204.368 148.669H208.902C209.07 148.669 209.154 148.762 209.154 148.946C209.154 149.685 208.986 150.525 208.65 151.465C208.331 152.405 207.785 153.413 207.013 154.488C206.24 155.562 205.3 156.545 204.192 157.435C203.1 158.324 201.69 159.063 199.96 159.651C198.231 160.239 196.342 160.533 194.293 160.533C191.523 160.533 189.079 160.079 186.964 159.172C184.865 158.266 183.169 156.973 181.876 155.294C180.583 153.614 179.609 151.658 178.954 149.425C178.316 147.175 177.997 144.656 177.997 141.869ZM222.682 159.777V123.961C222.682 123.793 222.766 123.709 222.934 123.709H236.258C238.911 123.726 241.27 124.188 243.336 125.094C245.401 126.001 247.088 127.277 248.398 128.923C249.725 130.568 250.724 132.516 251.395 134.766C252.067 136.999 252.403 139.484 252.403 142.221C252.403 147.813 251.034 152.179 248.297 155.319C245.577 158.459 241.564 160.029 236.258 160.029H222.934C222.766 160.029 222.682 159.945 222.682 159.777ZM227.594 155.394C227.594 155.562 227.678 155.646 227.845 155.646H236.258C239.734 155.646 242.429 154.496 244.343 152.196C246.274 149.895 247.24 146.57 247.24 142.221C247.24 137.889 246.266 134.455 244.318 131.92C242.37 129.368 239.683 128.092 236.258 128.092H227.845C227.678 128.092 227.594 128.184 227.594 128.369V155.394ZM266.687 159.777V123.961C266.687 123.793 266.771 123.709 266.939 123.709H291.748C291.933 123.709 292.025 123.793 292.025 123.961V127.84C292.025 128.008 291.933 128.092 291.748 128.092H271.85C271.683 128.092 271.599 128.184 271.599 128.369V138.872C271.599 139.056 271.683 139.149 271.85 139.149H289.633C289.817 139.149 289.91 139.233 289.91 139.401V143.254C289.91 143.439 289.817 143.531 289.633 143.531H271.85C271.683 143.531 271.599 143.615 271.599 143.783V155.394C271.599 155.562 271.683 155.646 271.85 155.646H291.748C291.933 155.646 292.025 155.73 292.025 155.898V159.777C292.025 159.945 291.933 160.029 291.748 160.029H266.939C266.771 160.029 266.687 159.945 266.687 159.777ZM307.166 159.777V123.961C307.166 123.793 307.258 123.709 307.443 123.709H330.388C330.556 123.709 330.64 123.793 330.64 123.961V127.84C330.64 128.008 330.556 128.092 330.388 128.092H312.329C312.161 128.092 312.077 128.184 312.077 128.369V138.872C312.077 139.056 312.161 139.149 312.329 139.149H328.273C328.441 139.149 328.525 139.233 328.525 139.401V143.254C328.525 143.439 328.441 143.531 328.273 143.531H312.329C312.161 143.531 312.077 143.615 312.077 143.783V159.777C312.077 159.945 311.993 160.029 311.825 160.029H307.443C307.258 160.029 307.166 159.945 307.166 159.777ZM341.877 141.869C341.877 138.208 342.506 134.984 343.766 132.197C345.042 129.393 346.914 127.193 349.382 125.598C351.868 124.003 354.798 123.205 358.173 123.205C360.389 123.205 362.371 123.499 364.117 124.087C365.88 124.658 367.333 125.455 368.474 126.48C369.616 127.504 370.54 128.604 371.245 129.779C371.95 130.954 372.504 132.247 372.907 133.658C372.958 133.843 372.874 133.935 372.655 133.935H367.87C367.702 133.935 367.593 133.843 367.542 133.658C366.787 131.676 365.586 130.174 363.941 129.149C362.312 128.108 360.389 127.588 358.173 127.588C354.596 127.588 351.842 128.847 349.911 131.366C347.98 133.868 347.015 137.369 347.015 141.869C347.015 146.369 347.98 149.878 349.911 152.397C351.842 154.899 354.596 156.15 358.173 156.15C361.867 156.15 364.646 155.193 366.51 153.279C368.374 151.364 369.306 148.367 369.306 144.287C369.306 144.119 369.222 144.035 369.054 144.035H358.425C358.257 144.035 358.173 143.951 358.173 143.783V139.904C358.173 139.736 358.257 139.652 358.425 139.652H373.94C374.125 139.652 374.217 139.736 374.217 139.904V159.777C374.217 159.945 374.125 160.029 373.94 160.029H370.187C369.986 160.029 369.868 159.928 369.834 159.727L369.306 156.1C369.306 155.999 369.247 155.932 369.129 155.898C369.028 155.865 368.936 155.898 368.852 155.999C367.996 157.174 366.56 158.224 364.545 159.147C362.53 160.071 360.406 160.533 358.173 160.533C355.402 160.533 352.959 160.079 350.843 159.172C348.744 158.266 347.048 156.973 345.756 155.294C344.463 153.614 343.489 151.658 342.834 149.425C342.196 147.175 341.877 144.656 341.877 141.869ZM389.282 159.777V123.961C389.282 123.793 389.366 123.709 389.534 123.709H393.916C394.101 123.709 394.193 123.793 394.193 123.961V138.872C394.193 139.056 394.277 139.149 394.445 139.149H410.792C410.96 139.149 411.044 139.056 411.044 138.872V123.961C411.044 123.793 411.136 123.709 411.321 123.709H415.703C415.871 123.709 415.955 123.793 415.955 123.961V159.777C415.955 159.945 415.871 160.029 415.703 160.029H411.321C411.136 160.029 411.044 159.945 411.044 159.777V143.783C411.044 143.615 410.96 143.531 410.792 143.531H394.445C394.277 143.531 394.193 143.598 394.193 143.733V159.777C394.193 159.945 394.101 160.029 393.916 160.029H389.534C389.366 160.029 389.282 159.945 389.282 159.777ZM431.826 159.777V123.961C431.826 123.793 431.91 123.709 432.078 123.709H436.46C436.645 123.709 436.738 123.793 436.738 123.961V159.777C436.738 159.945 436.645 160.029 436.46 160.029H432.078C431.91 160.029 431.826 159.945 431.826 159.777ZM447.143 149.803V148.946C447.143 148.762 447.227 148.669 447.395 148.669H451.777C451.962 148.669 452.054 148.762 452.054 148.946V149.803C452.054 150.491 452.08 151.087 452.13 151.591C452.18 152.095 452.315 152.657 452.533 153.279C452.751 153.883 453.045 154.378 453.414 154.765C453.784 155.151 454.304 155.478 454.976 155.747C455.665 156.016 456.479 156.15 457.419 156.15C458.36 156.15 459.166 156.016 459.837 155.747C460.526 155.478 461.055 155.151 461.424 154.765C461.793 154.378 462.079 153.883 462.28 153.279C462.499 152.674 462.633 152.112 462.683 151.591C462.75 151.071 462.784 150.474 462.784 149.803V123.961C462.784 123.793 462.868 123.709 463.036 123.709H467.419C467.586 123.709 467.67 123.793 467.67 123.961V149.803C467.67 151.398 467.511 152.808 467.192 154.034C466.89 155.243 466.361 156.36 465.605 157.384C464.866 158.392 463.8 159.172 462.406 159.727C461.029 160.264 459.35 160.533 457.369 160.533C455.539 160.533 453.943 160.255 452.583 159.701C451.24 159.147 450.174 158.375 449.385 157.384C448.612 156.377 448.041 155.252 447.672 154.009C447.319 152.75 447.143 151.348 447.143 149.803ZM482.962 159.777V123.961C482.962 123.793 483.054 123.709 483.239 123.709H487.622C487.79 123.709 487.874 123.793 487.874 123.961V139.401C487.874 139.484 487.89 139.535 487.924 139.552C487.974 139.568 488.025 139.552 488.075 139.501L503.918 123.961C504.086 123.793 504.22 123.709 504.321 123.709H510.215C510.298 123.709 510.357 123.743 510.391 123.81C510.424 123.86 510.416 123.91 510.366 123.961L496.488 137.738C496.37 137.856 496.37 137.998 496.488 138.166L510.668 159.777C510.701 159.811 510.718 159.844 510.718 159.878L510.693 159.928C510.659 159.995 510.601 160.029 510.517 160.029H505.404C505.303 160.029 505.169 159.945 505.001 159.777L493.037 141.567C492.953 141.432 492.844 141.432 492.709 141.567L488.075 146.151C487.941 146.285 487.874 146.419 487.874 146.554V159.777C487.874 159.945 487.79 160.029 487.622 160.029H483.239C483.054 160.029 482.962 159.945 482.962 159.777ZM523.743 159.777V123.961C523.743 123.793 523.835 123.709 524.02 123.709H528.403C528.571 123.709 528.655 123.793 528.655 123.961V155.394C528.655 155.562 528.738 155.646 528.906 155.646H546.966C547.133 155.646 547.217 155.73 547.217 155.898V159.777C547.217 159.945 547.133 160.029 546.966 160.029H524.02C523.835 160.029 523.743 159.945 523.743 159.777ZM559.94 159.777V123.961C559.94 123.793 560.024 123.709 560.192 123.709H568.554C568.705 123.709 568.823 123.793 568.907 123.961L578.1 154.916C578.15 155.033 578.234 155.092 578.352 155.092C578.469 155.092 578.553 155.033 578.604 154.916L587.797 123.961C587.881 123.793 587.998 123.709 588.15 123.709H596.512C596.68 123.709 596.764 123.793 596.764 123.961V159.777C596.764 159.945 596.68 160.029 596.512 160.029H592.129C591.961 160.029 591.877 159.945 591.877 159.777V128.872C591.877 128.704 591.793 128.62 591.625 128.62C591.474 128.62 591.382 128.688 591.348 128.822L582.281 159.777C582.231 159.945 582.088 160.029 581.853 160.029H574.851C574.632 160.029 574.498 159.945 574.448 159.777L565.355 128.822C565.305 128.671 565.204 128.604 565.053 128.62C564.919 128.637 564.851 128.721 564.851 128.872V159.777C564.851 159.945 564.759 160.029 564.574 160.029H560.192C560.024 160.029 559.94 159.945 559.94 159.777ZM612.609 159.777V123.961C612.609 123.793 612.693 123.709 612.861 123.709H620.493C620.661 123.709 620.787 123.793 620.871 123.961L636.487 154.916C636.571 155.067 636.68 155.134 636.814 155.117C636.948 155.101 637.016 155.017 637.016 154.865V123.961C637.016 123.793 637.1 123.709 637.268 123.709H641.65C641.818 123.709 641.902 123.793 641.902 123.961V159.777C641.902 159.945 641.818 160.029 641.65 160.029H634.069C633.918 160.029 633.783 159.945 633.666 159.777L618.025 128.772C617.974 128.671 617.873 128.629 617.722 128.646C617.588 128.646 617.521 128.721 617.521 128.872V159.777C617.521 159.945 617.428 160.029 617.244 160.029H612.861C612.693 160.029 612.609 159.945 612.609 159.777ZM658.025 151.566C656.833 148.795 656.236 145.563 656.236 141.869C656.236 138.175 656.833 134.942 658.025 132.172C659.217 129.401 661.047 127.218 663.516 125.623C666.001 124.011 669.006 123.205 672.533 123.205C676.059 123.205 679.056 124.011 681.524 125.623C683.993 127.218 685.815 129.401 686.99 132.172C688.182 134.942 688.778 138.175 688.778 141.869C688.778 145.563 688.182 148.795 686.99 151.566C685.815 154.337 683.993 156.528 681.524 158.14C679.056 159.735 676.059 160.533 672.533 160.533C669.006 160.533 666.001 159.735 663.516 158.14C661.047 156.528 659.217 154.337 658.025 151.566ZM664.271 131.366C662.34 133.868 661.375 137.369 661.375 141.869C661.375 146.369 662.34 149.878 664.271 152.397C666.202 154.899 668.956 156.15 672.533 156.15C676.109 156.15 678.855 154.899 680.769 152.397C682.7 149.878 683.665 146.369 683.665 141.869C683.665 137.369 682.7 133.868 680.769 131.366C678.855 128.847 676.109 127.588 672.533 127.588C668.956 127.588 666.202 128.847 664.271 131.366ZM703.617 159.777V123.961C703.617 123.793 703.7 123.709 703.868 123.709H718.93C720.794 123.709 722.532 124.196 724.144 125.17C725.756 126.144 727.041 127.487 727.998 129.2C728.972 130.896 729.459 132.743 729.459 134.741C729.459 137.78 728.417 140.349 726.335 142.448C724.27 144.547 721.802 145.597 718.93 145.597H708.755C708.587 145.597 708.503 145.681 708.503 145.848V159.777C708.503 159.945 708.419 160.029 708.251 160.029H703.868C703.7 160.029 703.617 159.945 703.617 159.777ZM708.503 140.937C708.503 141.105 708.587 141.189 708.755 141.189H718.301C719.946 141.189 721.399 140.551 722.658 139.275C723.917 137.998 724.547 136.487 724.547 134.741C724.547 132.978 723.909 131.433 722.633 130.106C721.373 128.763 719.929 128.092 718.301 128.092H708.755C708.587 128.092 708.503 128.184 708.503 128.369V140.937ZM743.667 151.566C742.475 148.795 741.879 145.563 741.879 141.869C741.879 138.175 742.475 134.942 743.667 132.172C744.859 129.401 746.69 127.218 749.158 125.623C751.643 124.011 754.649 123.205 758.175 123.205C760.828 123.205 763.196 123.667 765.278 124.59C767.36 125.497 769.064 126.782 770.391 128.444C771.717 130.106 772.725 132.071 773.413 134.338C774.102 136.605 774.446 139.115 774.446 141.869C774.446 147.847 772.909 152.523 769.837 155.898C769.719 156.016 769.719 156.133 769.837 156.251L775.478 161.842C775.512 161.876 775.529 161.909 775.529 161.943V161.993C775.495 162.061 775.436 162.094 775.352 162.094H770.517C770.416 162.094 770.281 162.01 770.114 161.842L766.789 158.593C766.722 158.526 766.621 158.526 766.487 158.593C764.153 159.886 761.382 160.533 758.175 160.533C754.649 160.533 751.643 159.735 749.158 158.14C746.69 156.528 744.859 154.337 743.667 151.566ZM749.913 131.366C747.999 133.868 747.042 137.369 747.042 141.869C747.042 146.369 747.999 149.878 749.913 152.397C751.844 154.899 754.598 156.15 758.175 156.15C760.056 156.15 761.659 155.823 762.986 155.168C763.137 155.084 763.137 154.966 762.986 154.815L757.57 149.501C757.52 149.45 757.503 149.4 757.52 149.349C757.554 149.282 757.604 149.249 757.671 149.249H762.633C762.734 149.249 762.868 149.333 763.036 149.501L766.084 152.498C766.184 152.599 766.268 152.599 766.335 152.498C768.334 149.962 769.333 146.419 769.333 141.869C769.333 137.369 768.367 133.868 766.436 131.366C764.505 128.847 761.751 127.588 758.175 127.588C754.598 127.588 751.844 128.847 749.913 131.366ZM789.511 159.777V123.961C789.511 123.793 789.595 123.709 789.763 123.709H804.824C806.688 123.709 808.426 124.196 810.038 125.17C811.65 126.144 812.935 127.487 813.892 129.2C814.866 130.896 815.353 132.743 815.353 134.741C815.353 136.924 814.782 138.905 813.64 140.685C812.515 142.448 811.037 143.758 809.207 144.614C809.056 144.681 809.022 144.799 809.106 144.967L815.705 159.777C815.722 159.811 815.73 159.844 815.73 159.878C815.73 159.978 815.638 160.029 815.453 160.029H811.172C810.92 160.029 810.743 159.945 810.643 159.777L804.447 145.848C804.396 145.681 804.279 145.597 804.094 145.597H794.649C794.481 145.597 794.397 145.681 794.397 145.848V159.777C794.397 159.945 794.313 160.029 794.145 160.029H789.763C789.595 160.029 789.511 159.945 789.511 159.777ZM794.397 140.937C794.397 141.105 794.481 141.189 794.649 141.189H804.396C805.991 141.138 807.394 140.484 808.603 139.224C809.828 137.965 810.441 136.47 810.441 134.741C810.441 132.978 809.803 131.433 808.527 130.106C807.268 128.763 805.824 128.092 804.195 128.092H794.649C794.481 128.092 794.397 128.184 794.397 128.369V140.937ZM827.471 150.08C827.471 149.895 827.555 149.803 827.723 149.803H832.307C832.374 149.803 832.441 149.836 832.508 149.904C832.575 149.971 832.609 150.046 832.609 150.13C832.609 150.802 832.785 151.482 833.138 152.17C833.507 152.859 834.028 153.505 834.699 154.11C835.388 154.698 836.295 155.184 837.42 155.571C838.561 155.957 839.829 156.15 841.223 156.15C843.859 156.15 845.95 155.537 847.495 154.311C849.056 153.086 849.837 151.583 849.837 149.803C849.837 148.913 849.669 148.132 849.333 147.46C849.014 146.772 848.603 146.226 848.099 145.823C847.612 145.403 846.966 145.051 846.16 144.765C845.37 144.48 844.606 144.27 843.868 144.136C843.129 144.001 842.247 143.884 841.223 143.783C840.283 143.682 839.426 143.573 838.654 143.456C837.898 143.321 837.05 143.128 836.11 142.876C835.17 142.624 834.338 142.339 833.616 142.02C832.894 141.684 832.172 141.256 831.45 140.735C830.728 140.215 830.132 139.627 829.662 138.972C829.192 138.317 828.806 137.528 828.503 136.605C828.218 135.681 828.075 134.665 828.075 133.557C828.075 131.441 828.688 129.586 829.914 127.991C831.156 126.379 832.718 125.178 834.599 124.389C836.496 123.6 838.52 123.205 840.669 123.205C842.348 123.205 843.935 123.423 845.429 123.86C846.924 124.297 848.267 124.935 849.459 125.774C850.668 126.597 851.642 127.689 852.381 129.049C853.136 130.409 853.548 131.945 853.615 133.658C853.615 133.843 853.531 133.935 853.363 133.935H848.704C848.536 133.935 848.452 133.843 848.452 133.658C848.452 131.912 847.721 130.467 846.26 129.326C844.799 128.167 842.936 127.588 840.669 127.588C838.603 127.588 836.849 128.159 835.405 129.3C833.961 130.426 833.239 131.844 833.239 133.557C833.239 134.363 833.407 135.077 833.742 135.698C834.095 136.303 834.506 136.781 834.977 137.134C835.463 137.486 836.102 137.789 836.891 138.04C837.697 138.292 838.394 138.469 838.981 138.569C839.586 138.67 840.333 138.771 841.223 138.872C842.314 139.006 843.28 139.14 844.119 139.275C844.959 139.409 845.883 139.61 846.89 139.879C847.898 140.148 848.762 140.458 849.484 140.811C850.223 141.147 850.954 141.592 851.676 142.146C852.414 142.7 853.011 143.33 853.464 144.035C853.917 144.723 854.287 145.563 854.572 146.554C854.858 147.528 855 148.611 855 149.803C855 150.877 854.841 151.919 854.522 152.926C854.219 153.917 853.716 154.882 853.011 155.823C852.305 156.746 851.432 157.552 850.391 158.241C849.367 158.929 848.065 159.483 846.487 159.903C844.909 160.323 843.154 160.533 841.223 160.533C839.057 160.533 837.092 160.255 835.329 159.701C833.566 159.13 832.114 158.366 830.972 157.409C829.847 156.435 828.982 155.327 828.377 154.085C827.773 152.825 827.471 151.49 827.471 150.08ZM866.464 127.84V123.961C866.464 123.793 866.547 123.709 866.715 123.709H892.028C892.213 123.709 892.306 123.793 892.306 123.961V127.84C892.306 128.008 892.213 128.092 892.028 128.092H882.08C881.912 128.092 881.828 128.184 881.828 128.369V159.777C881.828 159.945 881.744 160.029 881.576 160.029H877.193C877.009 160.029 876.916 159.945 876.916 159.777V128.293C876.849 128.159 876.765 128.092 876.664 128.092H866.715C866.547 128.092 866.464 128.008 866.464 127.84ZM905.078 147.712V123.961C905.078 123.793 905.162 123.709 905.33 123.709H909.713C909.881 123.709 909.965 123.793 909.965 123.961V147.712C909.965 149.929 910.762 151.893 912.357 153.606C913.953 155.302 915.842 156.15 918.025 156.15C920.191 156.15 922.055 155.302 923.616 153.606C925.178 151.893 925.959 149.929 925.959 147.712V123.961C925.959 123.793 926.043 123.709 926.21 123.709H930.593C930.778 123.709 930.87 123.793 930.87 123.961V147.712C930.87 150.063 930.299 152.221 929.157 154.185C928.032 156.15 926.479 157.703 924.498 158.845C922.533 159.97 920.375 160.533 918.025 160.533C914.431 160.533 911.375 159.29 908.856 156.805C906.338 154.32 905.078 151.289 905.078 147.712ZM942.661 123.961C942.644 123.894 942.652 123.843 942.686 123.81C942.719 123.776 942.761 123.751 942.812 123.734C942.862 123.717 942.912 123.709 942.963 123.709H947.774C947.891 123.709 947.975 123.793 948.025 123.961L958.126 154.916C958.176 155.033 958.26 155.092 958.377 155.092C958.512 155.092 958.604 155.033 958.654 154.916L968.603 123.961C968.654 123.793 968.738 123.709 968.855 123.709H973.716C973.8 123.709 973.867 123.734 973.918 123.785C973.968 123.835 973.985 123.894 973.968 123.961L961.954 159.777C961.904 159.945 961.82 160.029 961.702 160.029H955.128C954.977 160.029 954.876 159.945 954.826 159.777L942.661 123.961ZM985.255 123.961C985.238 123.894 985.247 123.843 985.28 123.81C985.314 123.776 985.356 123.751 985.406 123.734C985.457 123.717 985.507 123.709 985.557 123.709H990.267C990.385 123.709 990.469 123.793 990.519 123.961L996.186 154.865C996.22 155.017 996.312 155.092 996.463 155.092C996.614 155.092 996.698 155.017 996.715 154.865L1003.09 123.961C1003.14 123.793 1003.23 123.709 1003.36 123.709H1012.03C1012.15 123.709 1012.23 123.793 1012.28 123.961L1018.68 154.865C1018.7 155.017 1018.78 155.092 1018.93 155.092C1019.08 155.092 1019.17 155.017 1019.18 154.865L1024.87 123.961C1024.92 123.793 1025.01 123.709 1025.13 123.709H1029.81C1029.88 123.709 1029.94 123.717 1029.99 123.734C1030.04 123.751 1030.08 123.776 1030.11 123.81C1030.15 123.843 1030.16 123.894 1030.14 123.961L1023.01 159.777C1022.96 159.945 1022.86 160.029 1022.71 160.029H1014.85C1014.73 160.029 1014.65 159.945 1014.6 159.777L1007.95 128.923C1007.93 128.805 1007.85 128.746 1007.7 128.746C1007.55 128.746 1007.46 128.805 1007.44 128.923L1000.77 159.777C1000.72 159.945 1000.64 160.029 1000.52 160.029H992.685C992.517 160.029 992.408 159.945 992.358 159.777L985.255 123.961ZM1041.17 159.953C1041.16 159.936 1041.15 159.911 1041.15 159.878C1041.15 159.844 1041.17 159.811 1041.2 159.777L1053.06 142.07C1053.15 141.936 1053.15 141.802 1053.06 141.667L1041.2 123.961C1041.17 123.927 1041.15 123.894 1041.15 123.86C1041.15 123.843 1041.16 123.818 1041.17 123.785C1041.21 123.734 1041.27 123.709 1041.35 123.709H1046.56C1046.71 123.709 1046.85 123.793 1046.97 123.961L1055.78 137.587C1055.97 137.822 1056.14 137.822 1056.31 137.587L1065.18 123.961C1065.31 123.793 1065.48 123.709 1065.68 123.709H1070.79C1070.88 123.709 1070.94 123.734 1070.97 123.785C1070.99 123.801 1071 123.826 1071 123.86C1071 123.894 1070.98 123.927 1070.94 123.961L1059.08 141.667C1059 141.802 1059 141.936 1059.08 142.07L1070.94 159.777C1070.98 159.811 1071 159.844 1071 159.878C1071 159.894 1070.99 159.92 1070.97 159.953C1070.94 160.004 1070.88 160.029 1070.79 160.029H1065.53C1065.41 160.029 1065.29 159.945 1065.18 159.777L1056.31 146.151C1056.14 145.916 1055.97 145.916 1055.78 146.151C1055.01 147.393 1053.88 149.148 1052.41 151.415C1050.95 153.682 1049.68 155.646 1048.6 157.309L1046.97 159.777C1046.85 159.945 1046.71 160.029 1046.56 160.029H1041.35C1041.27 160.029 1041.21 160.004 1041.17 159.953ZM1080.59 123.785C1080.63 123.734 1080.69 123.709 1080.77 123.709H1085.98C1086.14 123.709 1086.27 123.793 1086.39 123.961L1095.23 138.67C1095.4 138.888 1095.56 138.888 1095.73 138.67L1104.6 123.961C1104.73 123.793 1104.91 123.709 1105.13 123.709H1110.24C1110.32 123.709 1110.38 123.734 1110.42 123.785C1110.43 123.801 1110.44 123.826 1110.44 123.86C1110.44 123.894 1110.42 123.927 1110.39 123.961L1098.1 143.884C1098 144.052 1097.95 144.22 1097.95 144.388V159.777C1097.95 159.945 1097.86 160.029 1097.7 160.029H1093.31C1093.15 160.029 1093.06 159.945 1093.06 159.777V144.388C1093.06 144.354 1092.97 144.186 1092.79 143.884L1080.62 123.961C1080.59 123.927 1080.57 123.894 1080.57 123.86C1080.57 123.826 1080.58 123.801 1080.59 123.785ZM1121.02 159.777V156.15C1121.02 155.865 1121.07 155.646 1121.17 155.495L1140.85 128.419C1140.9 128.335 1140.9 128.259 1140.87 128.192C1140.85 128.125 1140.81 128.092 1140.74 128.092H1121.27C1121.11 128.092 1121.02 128.008 1121.02 127.84V123.961C1121.02 123.793 1121.11 123.709 1121.27 123.709H1146.56C1146.73 123.709 1146.81 123.793 1146.81 123.961V127.588C1146.81 127.924 1146.78 128.142 1146.71 128.243L1126.97 155.394C1126.85 155.562 1126.88 155.646 1127.07 155.646H1146.56C1146.73 155.646 1146.81 155.73 1146.81 155.898V159.777C1146.81 159.945 1146.73 160.029 1146.56 160.029H1121.27C1121.11 160.029 1121.02 159.945 1121.02 159.777Z" fill="#2A2826"/>
<path d="M92.5059 221.237C92.5059 218.903 93.4798 217.014 95.4276 215.57C97.3922 214.126 100.205 213.404 103.865 213.404H109.633C110.053 213.404 110.38 213.37 110.615 213.303C110.867 213.236 111.044 213.119 111.144 212.951C111.245 212.783 111.304 212.632 111.321 212.497C111.337 212.346 111.346 212.111 111.346 211.792C111.346 211.288 111.312 210.843 111.245 210.457C111.178 210.054 111.01 209.609 110.741 209.122C110.489 208.619 110.137 208.207 109.683 207.888C109.23 207.569 108.575 207.3 107.719 207.082C106.863 206.847 105.847 206.729 104.671 206.729C102.556 206.729 100.977 207.166 99.9361 208.039C98.9118 208.912 98.3996 210.046 98.3996 211.439C98.3996 211.607 98.3073 211.691 98.1226 211.691H93.6897C93.5217 211.691 93.4378 211.607 93.4378 211.439C93.4378 209.492 93.9751 207.813 95.0498 206.402C96.1412 204.992 97.5181 203.967 99.1804 203.329C100.843 202.674 102.673 202.347 104.671 202.347C108.298 202.347 111.128 203.161 113.159 204.79C115.208 206.419 116.232 208.786 116.232 211.893V222.018C116.232 222.925 116.366 223.58 116.635 223.983C116.921 224.386 117.525 224.587 118.449 224.587H119.431C119.599 224.587 119.683 224.671 119.683 224.839V228.718C119.683 228.886 119.599 228.97 119.431 228.97H117.567H117.34C114.855 228.97 113.235 228.181 112.479 226.602C112.429 226.485 112.345 226.426 112.227 226.426C112.127 226.409 112.051 226.434 112.001 226.501C111.262 227.274 110.095 227.962 108.5 228.567C106.905 229.171 105.032 229.473 102.883 229.473C99.5247 229.473 96.9556 228.735 95.1757 227.257C93.3958 225.763 92.5059 223.756 92.5059 221.237ZM97.4173 221.237C97.4173 222.312 97.8455 223.227 98.7019 223.983C99.5583 224.721 100.935 225.091 102.833 225.091C104.327 225.091 105.637 224.889 106.762 224.486C107.904 224.067 108.785 223.521 109.406 222.849C110.045 222.161 110.515 221.43 110.817 220.658C111.136 219.886 111.312 219.08 111.346 218.24V217.51C111.346 217.342 111.253 217.258 111.069 217.258H103.865C102.807 217.308 101.875 217.426 101.069 217.61C100.28 217.778 99.659 217.988 99.2056 218.24C98.7523 218.492 98.3829 218.794 98.0974 219.147C97.8287 219.483 97.644 219.818 97.5433 220.154C97.4593 220.473 97.4173 220.834 97.4173 221.237ZM133.589 228.718V192.902C133.589 192.734 133.673 192.65 133.841 192.65H138.224C138.391 192.65 138.475 192.734 138.475 192.902V205.193C138.475 205.311 138.534 205.395 138.652 205.445C138.769 205.479 138.887 205.428 139.004 205.294C139.491 204.74 140.44 204.11 141.85 203.405C143.278 202.7 144.781 202.347 146.359 202.347C150.087 202.347 153.067 203.598 155.3 206.1C157.534 208.602 158.65 211.876 158.65 215.923C158.65 219.97 157.534 223.244 155.3 225.746C153.084 228.231 150.103 229.473 146.359 229.473C145.133 229.473 143.782 229.171 142.304 228.567C140.826 227.945 139.726 227.274 139.004 226.552C138.937 226.468 138.845 226.434 138.727 226.451C138.61 226.451 138.526 226.518 138.475 226.653L137.972 228.718C137.921 228.886 137.829 228.97 137.695 228.97H133.841C133.673 228.97 133.589 228.886 133.589 228.718ZM140.44 209.273C139.13 210.969 138.475 213.186 138.475 215.923C138.475 218.66 139.13 220.876 140.44 222.572C141.75 224.251 143.555 225.091 145.855 225.091C148.29 225.091 150.213 224.251 151.623 222.572C153.034 220.876 153.739 218.66 153.739 215.923C153.739 213.186 153.034 210.969 151.623 209.273C150.213 207.577 148.29 206.729 145.855 206.729C143.555 206.729 141.75 207.577 140.44 209.273ZM172.003 215.923C172.003 211.809 173.128 208.518 175.378 206.049C177.628 203.581 180.751 202.347 184.747 202.347C187.988 202.347 190.666 203.145 192.782 204.74C194.898 206.335 196.308 208.568 197.013 211.439C197.03 211.473 197.039 211.498 197.039 211.515C197.039 211.633 196.946 211.691 196.761 211.691H192.177C192.026 211.691 191.926 211.607 191.875 211.439C191.304 209.911 190.406 208.744 189.18 207.938C187.971 207.132 186.494 206.729 184.747 206.729C182.329 206.729 180.415 207.577 179.005 209.273C177.611 210.969 176.914 213.186 176.914 215.923C176.914 218.66 177.611 220.876 179.005 222.572C180.415 224.251 182.329 225.091 184.747 225.091C186.494 225.091 187.971 224.696 189.18 223.907C190.406 223.101 191.304 221.934 191.875 220.406C191.926 220.238 192.026 220.154 192.177 220.154H196.761C196.946 220.154 197.039 220.213 197.039 220.331C197.039 220.364 197.03 220.389 197.013 220.406C196.291 223.294 194.872 225.527 192.757 227.106C190.658 228.684 187.988 229.473 184.747 229.473C180.751 229.473 177.628 228.239 175.378 225.771C173.128 223.303 172.003 220.02 172.003 215.923ZM212.683 225.746C210.466 223.244 209.358 219.97 209.358 215.923C209.358 211.876 210.466 208.602 212.683 206.1C214.916 203.598 217.897 202.347 221.624 202.347C223.203 202.347 224.705 202.7 226.133 203.405C227.56 204.11 228.517 204.74 229.004 205.294C229.138 205.428 229.256 205.479 229.357 205.445C229.457 205.395 229.508 205.311 229.508 205.193V192.902C229.508 192.734 229.6 192.65 229.785 192.65H234.167C234.335 192.65 234.419 192.734 234.419 192.902V228.718C234.419 228.886 234.335 228.97 234.167 228.97H230.289C230.171 228.97 230.087 228.886 230.037 228.718L229.508 226.653C229.407 226.35 229.239 226.317 229.004 226.552C228.282 227.274 227.182 227.945 225.705 228.567C224.227 229.171 222.867 229.473 221.624 229.473C217.897 229.473 214.916 228.231 212.683 225.746ZM216.36 209.273C214.95 210.969 214.244 213.186 214.244 215.923C214.244 218.66 214.95 220.876 216.36 222.572C217.771 224.251 219.693 225.091 222.128 225.091C224.428 225.091 226.233 224.251 227.543 222.572C228.853 220.876 229.508 218.66 229.508 215.923C229.508 213.186 228.853 210.969 227.543 209.273C226.233 207.577 224.428 206.729 222.128 206.729C219.693 206.729 217.771 207.577 216.36 209.273ZM249.283 215.923C249.283 211.809 250.391 208.518 252.607 206.049C254.824 203.581 257.897 202.347 261.826 202.347C265.772 202.347 268.853 203.589 271.07 206.075C273.286 208.543 274.394 211.826 274.394 215.923C274.394 216.51 274.344 217.006 274.243 217.409C274.193 217.577 274.109 217.661 273.991 217.661H254.748C254.58 217.661 254.496 217.753 254.496 217.938C254.496 219.919 255.16 221.607 256.486 223C257.83 224.394 259.609 225.091 261.826 225.091C264.932 225.091 267.115 223.89 268.375 221.489C268.459 221.321 268.576 221.237 268.727 221.237H273.311C273.362 221.237 273.412 221.246 273.462 221.262C273.513 221.279 273.546 221.304 273.563 221.338C273.597 221.372 273.605 221.422 273.588 221.489C272.933 223.991 271.54 225.947 269.407 227.358C267.292 228.768 264.764 229.473 261.826 229.473C257.997 229.473 254.95 228.231 252.683 225.746C250.416 223.261 249.283 219.986 249.283 215.923ZM254.496 213.555C254.496 213.723 254.58 213.807 254.748 213.807H268.778C268.945 213.807 269.029 213.723 269.029 213.555C269.029 212.783 268.887 212.01 268.601 211.238C268.333 210.466 267.921 209.735 267.367 209.047C266.813 208.358 266.057 207.804 265.1 207.384C264.143 206.948 263.052 206.729 261.826 206.729C260.651 206.729 259.567 206.973 258.577 207.46C257.603 207.93 256.83 208.526 256.26 209.248C255.689 209.97 255.252 210.709 254.95 211.465C254.648 212.22 254.496 212.917 254.496 213.555ZM286.26 206.478V203.128C286.26 202.96 286.344 202.876 286.512 202.876H291.096C291.264 202.876 291.348 202.783 291.348 202.599V198.745C291.348 194.682 293.666 192.65 298.3 192.65H298.627H302.078C302.263 192.65 302.355 192.734 302.355 192.902V196.781C302.355 196.948 302.263 197.032 302.078 197.032H298.678C297.922 197.032 297.326 197.268 296.889 197.738C296.47 198.191 296.26 198.821 296.26 199.627V202.599C296.26 202.783 296.344 202.876 296.512 202.876H302.078C302.263 202.876 302.355 202.96 302.355 203.128V206.478C302.355 206.646 302.263 206.729 302.078 206.729H296.512C296.344 206.729 296.26 206.822 296.26 207.007V228.718C296.26 228.886 296.176 228.97 296.008 228.97H291.625C291.441 228.97 291.348 228.886 291.348 228.718V207.007C291.348 206.822 291.264 206.729 291.096 206.729H286.512C286.344 206.729 286.26 206.646 286.26 206.478ZM313.566 215.923C313.566 211.876 314.675 208.602 316.891 206.1C319.124 203.598 322.105 202.347 325.833 202.347C327.075 202.347 328.427 202.649 329.888 203.254C331.365 203.841 332.474 204.505 333.212 205.243C333.447 205.495 333.615 205.479 333.716 205.193L334.245 203.128C334.295 202.96 334.379 202.876 334.497 202.876H338.376C338.544 202.876 338.628 202.96 338.628 203.128V227.987C338.628 231.463 337.494 234.284 335.227 236.45C332.977 238.616 330.03 239.699 326.387 239.699C323.28 239.699 320.627 238.944 318.427 237.433C316.245 235.938 315.052 234.133 314.851 232.017C314.851 231.849 314.935 231.765 315.103 231.765H319.586C319.704 231.765 319.788 231.849 319.838 232.017C320.107 232.807 320.787 233.554 321.878 234.259C322.986 234.964 324.489 235.317 326.387 235.317C327.68 235.317 328.813 235.107 329.787 234.687C330.778 234.267 331.542 233.697 332.079 232.974C332.633 232.269 333.044 231.497 333.313 230.657C333.582 229.818 333.716 228.928 333.716 227.987V226.602C333.716 226.485 333.657 226.409 333.54 226.375C333.422 226.325 333.313 226.367 333.212 226.501C332.776 227.056 331.827 227.694 330.366 228.416C328.922 229.121 327.411 229.473 325.833 229.473C322.29 229.473 319.359 228.214 317.042 225.695C314.725 223.16 313.566 219.902 313.566 215.923ZM320.568 209.273C319.158 210.969 318.453 213.186 318.453 215.923C318.453 218.66 319.158 220.876 320.568 222.572C321.979 224.251 323.901 225.091 326.336 225.091C328.637 225.091 330.442 224.251 331.751 222.572C333.061 220.876 333.716 218.66 333.716 215.923C333.716 213.186 333.061 210.969 331.751 209.273C330.442 207.577 328.637 206.729 326.336 206.729C323.901 206.729 321.979 207.577 320.568 209.273ZM352.912 228.718V192.902C352.912 192.734 352.996 192.65 353.164 192.65H357.546C357.714 192.65 357.798 192.734 357.798 192.902V205.395C357.798 205.529 357.865 205.613 358 205.646C358.151 205.663 358.277 205.613 358.377 205.495C359.15 204.521 360.132 203.757 361.324 203.203C362.516 202.632 363.784 202.347 365.127 202.347C366.689 202.347 368.1 202.557 369.359 202.977C370.618 203.396 371.676 203.976 372.532 204.715C373.406 205.437 374.128 206.318 374.699 207.359C375.286 208.383 375.714 209.5 375.983 210.709C376.252 211.901 376.386 213.177 376.386 214.537V228.718C376.386 228.886 376.294 228.97 376.109 228.97H371.727C371.559 228.97 371.475 228.886 371.475 228.718V214.537C371.475 213.496 371.349 212.531 371.097 211.641C370.862 210.751 370.484 209.928 369.963 209.173C369.46 208.417 368.746 207.821 367.822 207.384C366.916 206.948 365.85 206.729 364.624 206.729C363.23 206.729 362.004 207.107 360.946 207.863C359.889 208.602 359.099 209.559 358.579 210.734C358.058 211.893 357.798 213.161 357.798 214.537V228.718C357.798 228.886 357.714 228.97 357.546 228.97H353.164C352.996 228.97 352.912 228.886 352.912 228.718ZM390.972 198.317V192.902C390.972 192.734 391.056 192.65 391.224 192.65H396.64C396.824 192.65 396.917 192.734 396.917 192.902V198.317C396.917 198.502 396.824 198.594 396.64 198.594H391.224C391.056 198.594 390.972 198.502 390.972 198.317ZM391.501 228.718V203.128C391.501 202.96 391.585 202.876 391.753 202.876H396.136C396.304 202.876 396.388 202.96 396.388 203.128V228.718C396.388 228.886 396.304 228.97 396.136 228.97H391.753C391.585 228.97 391.501 228.886 391.501 228.718ZM409.69 235.065C409.69 234.88 409.774 234.788 409.941 234.788H412.989C413.98 234.788 414.685 234.57 415.105 234.133C415.541 233.697 415.76 233.058 415.76 232.219V203.128C415.76 202.96 415.852 202.876 416.037 202.876H420.419C420.587 202.876 420.671 202.96 420.671 203.128V233.1C420.671 235.183 420.092 236.727 418.933 237.735C417.825 238.709 416.255 239.196 414.223 239.196H413.921H409.941C409.774 239.196 409.69 239.103 409.69 238.919V235.065ZM415.256 198.317V192.902C415.256 192.734 415.34 192.65 415.508 192.65H420.923C421.091 192.65 421.175 192.734 421.175 192.902V198.317C421.175 198.502 421.091 198.594 420.923 198.594H415.508C415.34 198.594 415.256 198.502 415.256 198.317ZM436.416 228.718V192.902C436.416 192.734 436.5 192.65 436.668 192.65H441.051C441.235 192.65 441.328 192.734 441.328 192.902V213.127C441.328 213.211 441.37 213.27 441.454 213.303C441.538 213.32 441.613 213.295 441.68 213.228L453.543 203.128C453.745 202.96 454.005 202.876 454.324 202.876H460.671C460.755 202.876 460.814 202.909 460.848 202.977C460.881 203.027 460.873 203.077 460.823 203.128L451.226 211.288C451.125 211.389 451.125 211.523 451.226 211.691L461.175 228.718C461.192 228.735 461.2 228.751 461.2 228.768C461.2 228.802 461.184 228.835 461.15 228.869C461.1 228.936 461.041 228.97 460.974 228.97H456.339C456.138 228.97 455.978 228.886 455.861 228.718L447.675 214.638C447.574 214.487 447.448 214.487 447.297 214.638L441.428 219.676C441.361 219.743 441.328 219.852 441.328 220.003V228.718C441.328 228.886 441.235 228.97 441.051 228.97H436.668C436.5 228.97 436.416 228.886 436.416 228.718ZM474.477 228.718V192.902C474.477 192.734 474.569 192.65 474.754 192.65H479.137C479.305 192.65 479.388 192.734 479.388 192.902V228.718C479.388 228.886 479.305 228.97 479.137 228.97H474.754C474.569 228.97 474.477 228.886 474.477 228.718ZM495.209 228.718V203.128C495.209 202.96 495.293 202.876 495.461 202.876H499.34C499.457 202.876 499.541 202.96 499.592 203.128L500.121 205.445C500.171 205.579 500.272 205.646 500.423 205.646C500.574 205.63 500.675 205.562 500.725 205.445C501.178 204.538 501.993 203.799 503.168 203.228C504.344 202.641 505.578 202.347 506.871 202.347C508.617 202.347 509.985 202.565 510.976 203.002C511.967 203.422 513.092 204.236 514.351 205.445C514.57 205.63 514.771 205.63 514.956 205.445C515.862 204.404 517.038 203.631 518.482 203.128C519.926 202.607 521.353 202.347 522.764 202.347C526.088 202.347 528.607 203.405 530.32 205.52C532.049 207.619 532.914 210.625 532.914 214.537V228.718C532.914 228.886 532.83 228.97 532.662 228.97H528.28C528.112 228.97 528.028 228.886 528.028 228.718V214.537C528.028 213.648 527.994 212.867 527.927 212.195C527.86 211.523 527.7 210.827 527.449 210.105C527.213 209.383 526.894 208.795 526.491 208.341C526.088 207.871 525.526 207.485 524.804 207.183C524.082 206.881 523.226 206.729 522.235 206.729C521.076 206.729 520.102 206.939 519.313 207.359C518.524 207.779 517.936 208.383 517.55 209.173C517.164 209.945 516.895 210.751 516.744 211.591C516.593 212.43 516.517 213.412 516.517 214.537V228.718C516.517 228.785 516.484 228.852 516.417 228.919C516.383 228.953 516.333 228.97 516.265 228.97H511.883H511.807C511.707 228.97 511.656 228.936 511.656 228.869C511.623 228.835 511.606 228.785 511.606 228.718V214.537C511.606 213.412 511.53 212.43 511.379 211.591C511.228 210.751 510.959 209.945 510.573 209.173C510.187 208.383 509.591 207.779 508.785 207.359C507.996 206.939 507.013 206.729 505.838 206.729C504.797 206.729 503.89 206.948 503.118 207.384C502.362 207.804 501.766 208.392 501.329 209.147C500.91 209.886 500.599 210.709 500.398 211.616C500.213 212.506 500.121 213.48 500.121 214.537V228.718C500.121 228.886 500.028 228.97 499.843 228.97H495.461C495.293 228.97 495.209 228.886 495.209 228.718ZM548.634 228.718V203.128C548.634 202.96 548.718 202.876 548.886 202.876H552.765C552.882 202.876 552.966 202.96 553.017 203.128L553.52 205.445C553.587 205.579 553.68 205.646 553.797 205.646C553.932 205.63 554.032 205.579 554.1 205.495C554.738 204.622 555.628 203.883 556.769 203.279C557.911 202.658 559.271 202.347 560.85 202.347C563.268 202.347 565.341 202.909 567.071 204.034C568.8 205.143 570.068 206.604 570.874 208.417C571.697 210.214 572.108 212.254 572.108 214.537V228.718C572.108 228.886 572.016 228.97 571.831 228.97H567.449C567.281 228.97 567.197 228.886 567.197 228.718V214.537C567.197 213.496 567.071 212.531 566.819 211.641C566.584 210.751 566.206 209.928 565.686 209.173C565.182 208.417 564.468 207.821 563.545 207.384C562.638 206.948 561.572 206.729 560.346 206.729C558.952 206.729 557.727 207.107 556.669 207.863C555.611 208.602 554.822 209.559 554.301 210.734C553.781 211.893 553.52 213.161 553.52 214.537V228.718C553.52 228.886 553.436 228.97 553.268 228.97H548.886C548.718 228.97 548.634 228.886 548.634 228.718ZM585.964 215.923C585.964 211.809 587.098 208.518 589.365 206.049C591.631 203.581 594.763 202.347 598.759 202.347C602.722 202.347 605.845 203.589 608.129 206.075C610.413 208.56 611.554 211.842 611.554 215.923C611.554 220.003 610.413 223.286 608.129 225.771C605.845 228.239 602.722 229.473 598.759 229.473C594.763 229.473 591.631 228.239 589.365 225.771C587.098 223.286 585.964 220.003 585.964 215.923ZM592.992 209.299C591.581 210.995 590.876 213.203 590.876 215.923C590.876 218.643 591.581 220.851 592.992 222.547C594.419 224.243 596.341 225.091 598.759 225.091C601.194 225.091 603.117 224.251 604.527 222.572C605.938 220.876 606.643 218.66 606.643 215.923C606.643 213.186 605.938 210.969 604.527 209.273C603.117 207.577 601.194 206.729 598.759 206.729C596.341 206.729 594.419 207.586 592.992 209.299ZM625.914 238.919V203.128C625.914 202.96 625.998 202.876 626.166 202.876H630.045C630.162 202.876 630.246 202.96 630.297 203.128L630.826 205.243C630.893 205.378 630.977 205.445 631.078 205.445C631.178 205.428 631.262 205.378 631.329 205.294C632.001 204.538 633.084 203.858 634.579 203.254C636.073 202.649 637.45 202.347 638.709 202.347C642.437 202.347 645.409 203.598 647.625 206.1C649.859 208.602 650.975 211.876 650.975 215.923C650.975 219.97 649.859 223.244 647.625 225.746C645.409 228.231 642.437 229.473 638.709 229.473C637.131 229.473 635.62 229.129 634.176 228.441C632.748 227.736 631.8 227.106 631.329 226.552C631.195 226.417 631.078 226.375 630.977 226.426C630.876 226.459 630.826 226.535 630.826 226.653V238.919C630.826 239.103 630.733 239.196 630.549 239.196H626.166C625.998 239.196 625.914 239.103 625.914 238.919ZM632.765 209.273C631.472 210.969 630.826 213.186 630.826 215.923C630.826 218.66 631.472 220.876 632.765 222.572C634.075 224.251 635.88 225.091 638.18 225.091C640.615 225.091 642.538 224.251 643.948 222.572C645.375 220.876 646.089 218.66 646.089 215.923C646.089 213.186 645.375 210.969 643.948 209.273C642.538 207.577 640.615 206.729 638.18 206.729C635.88 206.729 634.075 207.577 632.765 209.273ZM667.073 225.746C664.856 223.244 663.748 219.97 663.748 215.923C663.748 211.876 664.856 208.602 667.073 206.1C669.306 203.598 672.287 202.347 676.014 202.347C677.274 202.347 678.651 202.649 680.145 203.254C681.64 203.858 682.723 204.538 683.394 205.294C683.461 205.378 683.545 205.428 683.646 205.445C683.747 205.445 683.831 205.378 683.898 205.243L684.427 203.128C684.477 202.96 684.561 202.876 684.679 202.876H688.558C688.725 202.876 688.809 202.96 688.809 203.128V238.919C688.809 239.103 688.725 239.196 688.558 239.196H684.175C683.99 239.196 683.898 239.103 683.898 238.919V226.653C683.898 226.535 683.848 226.459 683.747 226.426C683.646 226.375 683.529 226.417 683.394 226.552C682.924 227.106 681.967 227.736 680.523 228.441C679.096 229.129 677.593 229.473 676.014 229.473C672.287 229.473 669.306 228.231 667.073 225.746ZM670.75 209.273C669.34 210.969 668.635 213.186 668.635 215.923C668.635 218.66 669.34 220.876 670.75 222.572C672.161 224.251 674.083 225.091 676.518 225.091C678.819 225.091 680.624 224.251 681.933 222.572C683.243 220.876 683.898 218.66 683.898 215.923C683.898 213.186 683.243 210.969 681.933 209.273C680.624 207.577 678.819 206.729 676.518 206.729C674.083 206.729 672.161 207.577 670.75 209.273ZM704.655 228.718V203.128C704.655 202.96 704.739 202.876 704.907 202.876H708.786C708.903 202.876 708.987 202.96 709.038 203.128L709.567 205.445C709.634 205.579 709.718 205.646 709.819 205.646C709.936 205.63 710.037 205.579 710.121 205.495C711.128 204.488 712.119 203.715 713.093 203.178C714.084 202.624 715.175 202.347 716.367 202.347H718.987C719.171 202.347 719.264 202.431 719.264 202.599V206.478C719.264 206.646 719.171 206.729 718.987 206.729H716.367C714.974 206.729 713.748 207.107 712.69 207.863C711.649 208.602 710.868 209.559 710.348 210.734C709.827 211.893 709.567 213.161 709.567 214.537V228.718C709.567 228.886 709.474 228.97 709.29 228.97H704.907C704.739 228.97 704.655 228.886 704.655 228.718ZM731.357 220.406C731.357 220.238 731.441 220.154 731.608 220.154H735.941C736.142 220.154 736.243 220.238 736.243 220.406C736.243 221.733 736.864 222.849 738.107 223.756C739.366 224.646 741.003 225.091 743.018 225.091C743.774 225.091 744.479 225.041 745.134 224.94C745.806 224.839 746.486 224.663 747.174 224.411C747.879 224.159 748.433 223.756 748.836 223.202C749.256 222.648 749.466 221.976 749.466 221.187C749.466 220.901 749.416 220.633 749.315 220.381C749.231 220.129 749.13 219.911 749.013 219.726C748.895 219.541 748.719 219.365 748.484 219.197C748.249 219.029 748.03 218.895 747.829 218.794C747.644 218.677 747.384 218.567 747.048 218.467C746.712 218.366 746.435 218.29 746.217 218.24C746.016 218.19 745.722 218.139 745.335 218.089C744.966 218.022 744.697 217.98 744.529 217.963C744.362 217.929 744.093 217.896 743.723 217.862C743.354 217.829 743.119 217.803 743.018 217.787L740.802 217.51C740.264 217.442 739.542 217.316 738.636 217.132C737.746 216.93 737.032 216.72 736.495 216.502C735.957 216.284 735.353 215.982 734.681 215.595C734.026 215.192 733.514 214.747 733.145 214.26C732.775 213.773 732.456 213.169 732.188 212.447C731.936 211.725 731.81 210.919 731.81 210.029C731.81 207.863 732.775 206.041 734.706 204.563C736.638 203.086 739.165 202.347 742.288 202.347C744.454 202.347 746.377 202.674 748.056 203.329C749.735 203.984 751.087 205.008 752.111 206.402C753.135 207.796 753.647 209.475 753.647 211.439C753.647 211.607 753.572 211.691 753.421 211.691H748.988C748.82 211.691 748.736 211.607 748.736 211.439C748.736 209.995 748.173 208.854 747.048 208.014C745.923 207.158 744.336 206.729 742.288 206.729C740.474 206.729 739.089 207.057 738.132 207.712C737.192 208.367 736.721 209.139 736.721 210.029C736.721 210.432 736.78 210.793 736.898 211.112C737.032 211.431 737.25 211.708 737.553 211.943C737.855 212.162 738.124 212.346 738.359 212.497C738.594 212.632 738.963 212.758 739.467 212.875C739.987 212.976 740.365 213.051 740.6 213.102C740.852 213.135 741.28 213.194 741.885 213.278C742.489 213.345 742.867 213.387 743.018 213.404C745.856 213.773 747.795 214.109 748.836 214.412C751.641 215.218 753.37 216.678 754.025 218.794C754.243 219.516 754.352 220.314 754.352 221.187C754.352 223.084 753.84 224.671 752.816 225.947C751.809 227.207 750.482 228.113 748.836 228.667C747.191 229.205 745.252 229.473 743.018 229.473C739.274 229.473 736.394 228.617 734.379 226.904C732.364 225.192 731.357 223.026 731.357 220.406ZM765.614 206.478V203.128C765.614 202.96 765.698 202.876 765.866 202.876H770.45C770.618 202.876 770.702 202.783 770.702 202.599V195.647C770.702 195.479 770.794 195.395 770.979 195.395H775.362C775.529 195.395 775.613 195.479 775.613 195.647V202.599C775.613 202.783 775.697 202.876 775.865 202.876H781.432C781.616 202.876 781.709 202.96 781.709 203.128V206.478C781.709 206.646 781.616 206.729 781.432 206.729H775.865C775.697 206.729 775.613 206.822 775.613 207.007V222.018C775.613 223.731 776.545 224.587 778.409 224.587H781.432C781.616 224.587 781.709 224.671 781.709 224.839V228.718C781.709 228.886 781.616 228.97 781.432 228.97H777.477H777.175C775.126 228.97 773.548 228.483 772.44 227.509C771.264 226.501 770.685 224.957 770.702 222.874V207.007C770.702 206.822 770.618 206.729 770.45 206.729H765.866C765.698 206.729 765.614 206.646 765.614 206.478ZM794.23 217.308V203.128C794.23 202.96 794.322 202.876 794.507 202.876H798.889C799.057 202.876 799.141 202.96 799.141 203.128V217.308C799.141 218.349 799.259 219.315 799.494 220.205C799.746 221.095 800.124 221.917 800.627 222.673C801.148 223.412 801.861 223.999 802.768 224.436C803.692 224.873 804.766 225.091 805.992 225.091C807.386 225.091 808.612 224.721 809.669 223.983C810.727 223.227 811.517 222.27 812.037 221.111C812.558 219.953 812.818 218.685 812.818 217.308V203.128C812.818 202.96 812.902 202.876 813.07 202.876H817.452C817.62 202.876 817.704 202.96 817.704 203.128V228.718C817.704 228.886 817.62 228.97 817.452 228.97H813.573C813.456 228.97 813.372 228.886 813.322 228.718L812.818 226.401C812.751 226.266 812.65 226.208 812.516 226.224C812.398 226.224 812.306 226.266 812.239 226.35C811.684 227.139 810.794 227.861 809.569 228.516C808.36 229.154 807 229.473 805.488 229.473C803.423 229.473 801.643 229.163 800.149 228.542C798.654 227.903 797.487 227.014 796.648 225.872C795.808 224.73 795.195 223.462 794.809 222.068C794.423 220.658 794.23 219.071 794.23 217.308ZM831.636 203.128C831.619 203.061 831.627 203.01 831.661 202.977C831.694 202.943 831.736 202.918 831.787 202.901C831.837 202.884 831.888 202.876 831.938 202.876H836.623C836.757 202.876 836.849 202.96 836.9 203.128L843.65 223.857C843.7 223.974 843.784 224.033 843.902 224.033C844.019 224.033 844.103 223.974 844.154 223.857L850.979 203.128C851.03 202.96 851.114 202.876 851.231 202.876H855.916C856 202.876 856.067 202.901 856.118 202.951C856.185 203.002 856.21 203.061 856.193 203.128L847.478 228.718C847.428 228.886 847.336 228.97 847.201 228.97H840.653C840.502 228.97 840.401 228.886 840.35 228.718L831.636 203.128ZM870.326 203.128C870.309 203.061 870.318 203.01 870.351 202.977C870.385 202.943 870.427 202.918 870.477 202.901C870.528 202.884 870.578 202.876 870.628 202.876H875.011C875.128 202.876 875.212 202.96 875.263 203.128L879.746 223.857C879.763 223.974 879.847 224.033 879.998 224.033C880.149 224.033 880.241 223.974 880.275 223.857L885.388 203.128C885.438 202.96 885.522 202.876 885.64 202.876H891.987C892.105 202.876 892.189 202.96 892.239 203.128L897.352 223.857C897.386 223.974 897.469 224.033 897.604 224.033C897.738 224.033 897.822 223.974 897.856 223.857L902.339 203.128C902.389 202.96 902.482 202.876 902.616 202.876H906.999C907.049 202.876 907.099 202.884 907.15 202.901C907.2 202.918 907.242 202.943 907.276 202.977C907.309 203.01 907.318 203.061 907.301 203.128L901.155 228.718C901.105 228.886 901.004 228.97 900.853 228.97H894.304C894.187 228.97 894.103 228.886 894.052 228.718L889.04 208.14C889.007 208.022 888.914 207.964 888.763 207.964C888.612 207.964 888.528 208.022 888.511 208.14L883.575 228.718C883.524 228.886 883.44 228.97 883.323 228.97H876.774C876.606 228.97 876.497 228.886 876.447 228.718L870.326 203.128ZM919.293 228.869C919.293 228.852 919.285 228.835 919.268 228.819C919.268 228.785 919.285 228.751 919.318 228.718L928.663 216.326C928.78 216.158 928.78 215.99 928.663 215.822L919.318 203.128C919.268 203.061 919.243 203.01 919.243 202.977C919.243 202.909 919.301 202.876 919.419 202.876H924.381C924.515 202.876 924.649 202.96 924.784 203.128L931.458 212.044C931.626 212.262 931.794 212.262 931.962 212.044L938.612 203.128C938.729 202.96 938.872 202.876 939.04 202.876H943.976C944.06 202.876 944.119 202.901 944.153 202.951C944.17 202.968 944.178 202.993 944.178 203.027C944.178 203.061 944.161 203.094 944.128 203.128L934.708 215.822C934.59 215.99 934.59 216.158 934.708 216.326L944.128 228.718C944.161 228.751 944.178 228.785 944.178 228.819V228.869C944.144 228.936 944.094 228.97 944.027 228.97H938.813C938.662 228.97 938.528 228.886 938.41 228.718L931.912 220.053C931.777 219.919 931.643 219.919 931.509 220.053L924.96 228.718C924.843 228.886 924.7 228.97 924.532 228.97H919.419C919.369 228.97 919.327 228.936 919.293 228.869ZM955.893 203.128C955.876 203.061 955.885 203.01 955.918 202.977C955.952 202.943 955.994 202.918 956.044 202.901C956.094 202.884 956.145 202.876 956.195 202.876H960.88C961.014 202.876 961.107 202.96 961.157 203.128L967.907 223.857C967.958 223.974 968.042 224.033 968.159 224.033C968.277 224.033 968.361 223.974 968.411 223.857L975.237 203.128C975.287 202.96 975.371 202.876 975.489 202.876H980.173C980.257 202.876 980.324 202.901 980.375 202.951C980.442 203.002 980.467 203.061 980.45 203.128L971.61 228.97L970.124 233.453C969.603 234.914 969.057 236.039 968.487 236.828C967.932 237.617 967.21 238.205 966.32 238.591C965.43 238.994 964.289 239.196 962.895 239.196H956.195C956.027 239.196 955.943 239.103 955.943 238.919V235.065C955.943 234.88 956.027 234.788 956.195 234.788H962.013C963.491 234.788 964.49 234.36 965.011 233.503C965.279 233.067 965.414 232.546 965.414 231.942C965.414 231.404 965.296 230.792 965.061 230.103L964.608 228.718L955.893 203.128ZM992.342 228.718V224.839C992.342 224.705 992.409 224.537 992.543 224.335L1006.37 207.661C1006.44 207.611 1006.45 207.535 1006.4 207.435C1006.36 207.317 1006.29 207.258 1006.17 207.258H993.148C992.98 207.258 992.896 207.174 992.896 207.007V203.128C992.896 202.96 992.98 202.876 993.148 202.876H1012.19C1012.36 202.876 1012.44 202.96 1012.44 203.128V207.007C1012.44 207.158 1012.37 207.326 1012.24 207.51L998.513 224.184C998.445 224.251 998.437 224.335 998.487 224.436C998.555 224.537 998.639 224.587 998.739 224.587H1012.87C1013.04 224.587 1013.12 224.671 1013.12 224.839V228.718C1013.12 228.886 1013.04 228.97 1012.87 228.97H992.594C992.426 228.97 992.342 228.886 992.342 228.718Z" fill="#2A2826"/>
<path d="M92.657 279.751C92.657 267.308 97.2662 261.087 106.485 261.087C115.67 261.087 120.262 267.308 120.262 279.751C120.262 292.244 115.67 298.49 106.485 298.49C97.2662 298.49 92.657 292.244 92.657 279.751ZM97.8707 279.751C97.8707 284.486 98.5424 288.062 99.8857 290.48C101.229 292.882 103.429 294.082 106.485 294.082C109.524 294.082 111.715 292.873 113.059 290.455C114.419 288.037 115.099 284.469 115.099 279.751C115.099 275.016 114.427 271.456 113.084 269.071C111.74 266.67 109.541 265.47 106.485 265.47C103.412 265.47 101.204 266.662 99.8605 269.046C98.534 271.431 97.8707 274.999 97.8707 279.751ZM131.75 271.54V267.938C131.75 267.77 131.834 267.686 132.002 267.686H138.4C139.256 267.686 139.987 267.401 140.591 266.83C141.196 266.259 141.498 265.545 141.498 264.689V261.843C141.498 261.675 141.582 261.591 141.75 261.591H146.132C146.3 261.591 146.384 261.675 146.384 261.843V297.659C146.384 297.827 146.3 297.911 146.132 297.911H141.75C141.582 297.911 141.498 297.827 141.498 297.659V273.353C141.498 272.866 141.338 272.488 141.019 272.22C140.7 271.951 140.322 271.817 139.886 271.817H132.002C131.834 271.817 131.75 271.724 131.75 271.54ZM160.971 297.659V294.032C160.971 293.73 161.038 293.511 161.172 293.377L175.504 279.398C178.459 276.577 179.92 274.117 179.886 272.018C179.869 271.313 179.727 270.599 179.458 269.877C179.189 269.139 178.795 268.433 178.274 267.762C177.754 267.09 177.04 266.544 176.133 266.124C175.226 265.688 174.194 265.47 173.035 265.47C171.138 265.47 169.568 266.074 168.325 267.283C167.099 268.492 166.487 269.911 166.487 271.54C166.487 271.724 166.403 271.817 166.235 271.817H161.827C161.659 271.817 161.575 271.724 161.575 271.54C161.575 268.467 162.65 265.957 164.799 264.009C166.965 262.061 169.71 261.087 173.035 261.087C174.849 261.087 176.503 261.381 177.997 261.969C179.492 262.539 180.726 263.32 181.7 264.311C182.69 265.302 183.454 266.46 183.992 267.787C184.529 269.113 184.798 270.524 184.798 272.018C184.798 272.959 184.655 273.899 184.369 274.839C184.101 275.78 183.799 276.577 183.463 277.232C183.144 277.87 182.682 278.575 182.077 279.348C181.49 280.103 181.036 280.649 180.717 280.985C180.415 281.321 179.978 281.766 179.408 282.32L179.307 282.446L179.206 282.546L179.08 282.647L167.721 293.125C167.654 293.175 167.637 293.259 167.67 293.377C167.704 293.478 167.788 293.528 167.922 293.528H184.546C184.714 293.528 184.798 293.612 184.798 293.78V297.659C184.798 297.827 184.714 297.911 184.546 297.911H161.222C161.055 297.911 160.971 297.827 160.971 297.659ZM197.973 288.113C197.973 287.945 198.057 287.861 198.225 287.861H202.608C202.776 287.861 202.86 287.945 202.86 288.113C202.86 289.658 203.447 291.035 204.623 292.244C205.815 293.436 207.469 294.032 209.585 294.032C211.7 294.032 213.464 293.469 214.874 292.344C216.301 291.202 217.015 289.792 217.015 288.113C217.015 286.115 216.31 284.503 214.899 283.277C213.489 282.034 211.717 281.413 209.585 281.413H207.771C207.603 281.413 207.519 281.321 207.519 281.136V277.282C207.519 277.114 207.603 277.031 207.771 277.031H209.585C211.533 277.031 213.119 276.493 214.345 275.419C215.571 274.327 216.184 272.95 216.184 271.288C216.184 269.709 215.571 268.349 214.345 267.208C213.119 266.049 211.533 265.47 209.585 265.47C207.755 265.486 206.21 266.116 204.95 267.359C203.708 268.601 203.103 269.995 203.137 271.54C203.137 271.724 203.045 271.817 202.86 271.817H198.477C198.309 271.817 198.225 271.724 198.225 271.54C198.209 268.517 199.266 266.032 201.399 264.084C203.548 262.12 206.277 261.121 209.585 261.087C212.977 261.087 215.739 262.053 217.871 263.984C220.004 265.915 221.07 268.349 221.07 271.288C221.07 272.211 220.927 273.085 220.642 273.907C220.373 274.713 220.037 275.393 219.634 275.947C219.231 276.485 218.778 276.972 218.274 277.408C217.787 277.845 217.351 278.172 216.965 278.391C216.595 278.592 216.268 278.735 215.982 278.819C215.831 278.852 215.756 278.945 215.756 279.096C215.756 279.247 215.831 279.331 215.982 279.348C216.486 279.516 217.04 279.809 217.645 280.229C218.266 280.649 218.912 281.212 219.584 281.917C220.256 282.605 220.81 283.495 221.246 284.587C221.683 285.678 221.901 286.853 221.901 288.113C221.901 291.186 220.793 293.671 218.577 295.568C216.377 297.466 213.38 298.414 209.585 298.414C207.738 298.414 206.067 298.137 204.573 297.583C203.078 297.029 201.852 296.282 200.895 295.342C199.955 294.384 199.233 293.293 198.729 292.067C198.225 290.825 197.973 289.507 197.973 288.113ZM235.531 289.347V285.745C235.531 285.426 235.581 285.166 235.682 284.964L252.809 261.843C252.91 261.675 253.078 261.591 253.313 261.591H257.67C257.838 261.591 257.922 261.675 257.922 261.843V284.964C257.922 285.132 258.006 285.216 258.174 285.216H263.891C264.076 285.216 264.168 285.3 264.168 285.468V289.347C264.168 289.515 264.076 289.599 263.891 289.599H258.174C258.006 289.599 257.922 289.691 257.922 289.876V297.659C257.922 297.827 257.838 297.911 257.67 297.911H253.262C253.094 297.911 253.01 297.827 253.01 297.659V289.876C253.01 289.691 252.926 289.599 252.759 289.599H235.782C235.615 289.599 235.531 289.515 235.531 289.347ZM241.399 284.864C241.349 284.931 241.357 285.006 241.424 285.09C241.492 285.174 241.575 285.216 241.676 285.216H252.759C252.926 285.216 253.01 285.132 253.01 284.964V269.802C253.01 269.718 252.977 269.659 252.91 269.625C252.859 269.592 252.792 269.592 252.708 269.625C252.624 269.642 252.557 269.684 252.507 269.751L241.399 284.864ZM276.639 288.113C276.639 287.945 276.723 287.861 276.891 287.861H281.626C281.811 287.861 281.903 287.945 281.903 288.113C281.903 288.499 281.97 288.936 282.105 289.423C282.256 289.893 282.508 290.405 282.86 290.959C283.213 291.513 283.649 292.017 284.17 292.47C284.69 292.907 285.379 293.276 286.235 293.578C287.108 293.881 288.066 294.032 289.107 294.032C291.39 294.032 293.246 293.259 294.673 291.715C296.1 290.153 296.814 288.054 296.814 285.418C296.814 282.983 296.092 280.985 294.648 279.423C293.204 277.862 291.357 277.081 289.107 277.081C287.327 277.081 285.874 277.366 284.749 277.937C283.624 278.491 282.659 279.39 281.853 280.632C281.735 280.8 281.542 280.884 281.273 280.884H277.243C277.076 280.884 276.992 280.8 276.992 280.632L279.258 261.969C279.309 261.717 279.435 261.591 279.636 261.591H298.98C299.148 261.591 299.232 261.675 299.232 261.843V265.721C299.232 265.889 299.148 265.973 298.98 265.973H283.792C283.624 265.973 283.54 266.066 283.54 266.25L282.407 274.738C282.39 274.89 282.424 274.982 282.508 275.016C282.592 275.049 282.701 275.016 282.835 274.915C284.699 273.437 286.789 272.698 289.107 272.698C292.868 272.698 295.907 273.874 298.224 276.225C300.542 278.559 301.7 281.623 301.7 285.418C301.7 289.465 300.592 292.647 298.375 294.964C296.159 297.264 293.069 298.414 289.107 298.414C287.293 298.414 285.639 298.163 284.145 297.659C282.667 297.155 281.475 296.517 280.568 295.745C279.678 294.972 278.923 294.107 278.301 293.15C277.68 292.193 277.243 291.295 276.992 290.455C276.757 289.616 276.639 288.835 276.639 288.113ZM314.523 285.594C314.523 283.109 315.178 280.615 316.488 278.114L325.102 261.843C325.186 261.675 325.304 261.591 325.455 261.591H330.014C330.265 261.591 330.349 261.675 330.265 261.843L324.548 273.101C324.498 273.202 324.514 273.303 324.598 273.404C324.699 273.488 324.8 273.504 324.901 273.454C324.968 273.404 325.127 273.345 325.379 273.278C325.648 273.194 326.017 273.11 326.487 273.026C326.974 272.942 327.461 272.9 327.948 272.9C331.491 272.9 334.413 274.075 336.713 276.426C339.014 278.76 340.164 281.816 340.164 285.594C340.164 289.406 339.005 292.512 336.688 294.913C334.388 297.298 331.265 298.49 327.319 298.49C323.373 298.49 320.249 297.298 317.949 294.913C315.665 292.512 314.523 289.406 314.523 285.594ZM321.601 279.373C320.325 280.884 319.687 282.958 319.687 285.594C319.687 288.23 320.325 290.304 321.601 291.815C322.894 293.327 324.8 294.082 327.319 294.082C329.854 294.082 331.768 293.327 333.061 291.815C334.354 290.304 335.001 288.23 335.001 285.594C335.001 282.958 334.354 280.884 333.061 279.373C331.768 277.845 329.854 277.081 327.319 277.081C324.8 277.081 322.894 277.845 321.601 279.373ZM352.206 265.721V261.843C352.206 261.675 352.29 261.591 352.458 261.591H375.429C375.597 261.591 375.681 261.675 375.681 261.843V265.318C375.681 265.688 375.631 265.999 375.53 266.25L363.767 297.659C363.717 297.827 363.616 297.911 363.465 297.911H358.705C358.52 297.911 358.453 297.827 358.503 297.659L370.669 266.25C370.685 266.183 370.677 266.124 370.643 266.074C370.61 266.007 370.551 265.973 370.467 265.973H352.458C352.29 265.973 352.206 265.889 352.206 265.721ZM388.706 288.113C388.706 287.055 388.857 286.056 389.159 285.116C389.461 284.175 389.831 283.394 390.267 282.773C390.721 282.135 391.224 281.573 391.779 281.086C392.349 280.582 392.862 280.204 393.315 279.952C393.785 279.684 394.222 279.482 394.625 279.348C394.776 279.331 394.851 279.247 394.851 279.096C394.851 278.945 394.776 278.852 394.625 278.819C394.339 278.735 394.003 278.592 393.617 278.391C393.248 278.172 392.811 277.845 392.307 277.408C391.82 276.972 391.376 276.485 390.973 275.947C390.57 275.393 390.225 274.713 389.94 273.907C389.671 273.085 389.537 272.211 389.537 271.288C389.537 268.349 390.603 265.915 392.736 263.984C394.868 262.053 397.63 261.087 401.022 261.087C404.414 261.087 407.176 262.053 409.309 263.984C411.458 265.915 412.533 268.349 412.533 271.288C412.533 272.413 412.323 273.462 411.903 274.436C411.5 275.41 410.996 276.191 410.392 276.779C409.804 277.35 409.25 277.803 408.729 278.139C408.226 278.475 407.789 278.701 407.42 278.819C407.269 278.852 407.193 278.945 407.193 279.096C407.193 279.247 407.269 279.331 407.42 279.348C407.823 279.482 408.251 279.684 408.704 279.952C409.174 280.204 409.695 280.582 410.266 281.086C410.837 281.573 411.341 282.135 411.777 282.773C412.23 283.394 412.608 284.175 412.911 285.116C413.213 286.056 413.364 287.055 413.364 288.113C413.364 291.186 412.256 293.671 410.039 295.568C407.823 297.466 404.817 298.414 401.022 298.414C397.227 298.414 394.222 297.466 392.005 295.568C389.806 293.671 388.706 291.186 388.706 288.113ZM393.592 288.113C393.592 289.792 394.297 291.202 395.708 292.344C397.135 293.469 398.906 294.032 401.022 294.032C403.138 294.032 404.901 293.469 406.311 292.344C407.739 291.202 408.452 289.792 408.452 288.113C408.452 286.115 407.747 284.503 406.337 283.277C404.926 282.034 403.155 281.413 401.022 281.413C398.89 281.413 397.118 282.034 395.708 283.277C394.297 284.503 393.592 286.115 393.592 288.113ZM394.423 271.288C394.423 272.95 395.036 274.327 396.262 275.419C397.488 276.493 399.074 277.031 401.022 277.031C402.97 277.031 404.557 276.493 405.783 275.419C407.008 274.327 407.621 272.95 407.621 271.288C407.621 269.709 407.008 268.349 405.783 267.208C404.557 266.049 402.97 265.47 401.022 265.47C399.074 265.47 397.488 266.049 396.262 267.208C395.036 268.349 394.423 269.709 394.423 271.288ZM427.195 273.983C427.195 270.171 428.345 267.073 430.645 264.689C432.962 262.288 436.094 261.087 440.04 261.087C443.986 261.087 447.101 262.288 449.385 264.689C451.685 267.073 452.835 270.171 452.835 273.983C452.835 276.468 452.18 278.962 450.871 281.463L442.257 297.709C442.173 297.877 442.055 297.961 441.904 297.961H437.37C437.303 297.961 437.244 297.953 437.194 297.936C437.16 297.919 437.127 297.894 437.093 297.86C437.06 297.827 437.06 297.776 437.093 297.709L442.836 286.45C442.886 286.35 442.861 286.257 442.76 286.173C442.66 286.073 442.559 286.047 442.458 286.098C442.391 286.148 442.231 286.215 441.979 286.299C441.728 286.383 441.358 286.467 440.871 286.551C440.384 286.635 439.906 286.677 439.436 286.677C435.876 286.677 432.946 285.51 430.645 283.176C428.345 280.825 427.195 277.761 427.195 273.983ZM434.297 267.762C433.004 269.273 432.358 271.347 432.358 273.983C432.358 276.619 433.004 278.701 434.297 280.229C435.59 281.74 437.505 282.496 440.04 282.496C442.559 282.496 444.456 281.74 445.732 280.229C447.025 278.701 447.672 276.619 447.672 273.983C447.672 271.347 447.025 269.273 445.732 267.762C444.456 266.234 442.559 265.47 440.04 265.47C437.505 265.47 435.59 266.234 434.297 267.762Z" fill="#2A2826"/>
<path d="M93.5586 45.7212V34.6118C93.5586 34.5597 93.5846 34.5337 93.6367 34.5337H96.0039C96.056 34.5337 96.0951 34.5597 96.1211 34.6118L100.965 44.2134C100.991 44.2603 101.025 44.2811 101.066 44.2759C101.108 44.2707 101.129 44.2446 101.129 44.1978V34.6118C101.129 34.5597 101.155 34.5337 101.207 34.5337H102.566C102.618 34.5337 102.645 34.5597 102.645 34.6118V45.7212C102.645 45.7733 102.618 45.7993 102.566 45.7993H100.215C100.168 45.7993 100.126 45.7733 100.09 45.7212L95.2383 36.104C95.2227 36.0728 95.1914 36.0597 95.1445 36.0649C95.1029 36.0649 95.082 36.0884 95.082 36.1353V45.7212C95.082 45.7733 95.0534 45.7993 94.9961 45.7993H93.6367C93.5846 45.7993 93.5586 45.7733 93.5586 45.7212ZM104.742 45.7212V34.6118C104.742 34.5597 104.771 34.5337 104.828 34.5337H110.149C111.003 34.5337 111.706 34.8462 112.258 35.4712C112.815 36.091 113.094 36.8462 113.094 37.7368C113.094 38.2316 112.969 38.6691 112.719 39.0493C112.469 39.4295 112.175 39.6899 111.836 39.8306C111.8 39.8462 111.781 39.8748 111.781 39.9165C111.781 39.953 111.8 39.979 111.836 39.9946C112.222 40.1509 112.57 40.4894 112.883 41.0103C113.195 41.5259 113.352 42.0545 113.352 42.5962C113.352 43.5441 113.044 44.3149 112.43 44.9087C111.815 45.5024 111.029 45.7993 110.07 45.7993H104.828C104.771 45.7993 104.742 45.7733 104.742 45.7212ZM106.266 44.3618C106.266 44.4139 106.292 44.4399 106.344 44.4399H109.852C110.425 44.4399 110.899 44.2576 111.274 43.8931C111.649 43.5233 111.836 43.091 111.836 42.5962C111.836 42.1118 111.649 41.6717 111.274 41.2759C110.899 40.88 110.461 40.6821 109.961 40.6821H106.344C106.292 40.6821 106.266 40.7082 106.266 40.7603V44.3618ZM106.266 39.2368C106.266 39.2941 106.292 39.3228 106.344 39.3228H109.852C110.294 39.3071 110.693 39.1509 111.047 38.854C111.401 38.5519 111.578 38.1795 111.578 37.7368C111.578 37.2264 111.425 36.7889 111.117 36.4243C110.815 36.0597 110.393 35.8774 109.852 35.8774H106.344C106.292 35.8774 106.266 35.9035 106.266 35.9556V39.2368ZM118.204 45.7212V34.6118C118.204 34.5597 118.23 34.5337 118.282 34.5337H119.641C119.698 34.5337 119.727 34.5597 119.727 34.6118V45.7212C119.727 45.7733 119.698 45.7993 119.641 45.7993H118.282C118.23 45.7993 118.204 45.7733 118.204 45.7212ZM121.7 45.7212V37.7837C121.7 37.7316 121.726 37.7056 121.778 37.7056H122.981C123.018 37.7056 123.044 37.7316 123.059 37.7837L123.215 38.5024C123.236 38.5441 123.265 38.5649 123.301 38.5649C123.343 38.5597 123.374 38.5441 123.395 38.5181C123.593 38.2472 123.869 38.0181 124.223 37.8306C124.577 37.6379 124.999 37.5415 125.489 37.5415C126.239 37.5415 126.882 37.716 127.419 38.0649C127.955 38.4087 128.348 38.8618 128.598 39.4243C128.853 39.9816 128.981 40.6144 128.981 41.3228V45.7212C128.981 45.7733 128.952 45.7993 128.895 45.7993H127.536C127.484 45.7993 127.458 45.7733 127.458 45.7212V41.3228C127.458 40.9998 127.419 40.7004 127.34 40.4243C127.268 40.1483 127.15 39.8931 126.989 39.6587C126.833 39.4243 126.611 39.2394 126.325 39.104C126.044 38.9686 125.713 38.9009 125.333 38.9009C124.9 38.9009 124.52 39.0181 124.192 39.2524C123.864 39.4816 123.619 39.7785 123.458 40.1431C123.296 40.5024 123.215 40.8957 123.215 41.3228V45.7212C123.215 45.7733 123.189 45.7993 123.137 45.7993H121.778C121.726 45.7993 121.7 45.7733 121.7 45.7212ZM129.899 38.8228V37.7837C129.899 37.7316 129.925 37.7056 129.977 37.7056H131.399C131.451 37.7056 131.477 37.6769 131.477 37.6196V35.4634C131.477 35.4113 131.506 35.3853 131.563 35.3853H132.923C132.975 35.3853 133.001 35.4113 133.001 35.4634V37.6196C133.001 37.6769 133.027 37.7056 133.079 37.7056H134.805C134.863 37.7056 134.891 37.7316 134.891 37.7837V38.8228C134.891 38.8748 134.863 38.9009 134.805 38.9009H133.079C133.027 38.9009 133.001 38.9295 133.001 38.9868V43.6431C133.001 44.1743 133.29 44.4399 133.868 44.4399H134.805C134.863 44.4399 134.891 44.466 134.891 44.5181V45.7212C134.891 45.7733 134.863 45.7993 134.805 45.7993H133.579H133.485C132.85 45.7993 132.36 45.6483 132.016 45.3462C131.652 45.0337 131.472 44.5545 131.477 43.9087V38.9868C131.477 38.9295 131.451 38.9009 131.399 38.9009H129.977C129.925 38.9009 129.899 38.8748 129.899 38.8228ZM135.81 41.7524C135.81 40.4764 136.153 39.4556 136.841 38.6899C137.528 37.9243 138.481 37.5415 139.7 37.5415C140.924 37.5415 141.88 37.9269 142.567 38.6978C143.255 39.4634 143.599 40.4816 143.599 41.7524C143.599 41.9347 143.583 42.0884 143.552 42.2134C143.536 42.2655 143.51 42.2915 143.474 42.2915H137.505C137.453 42.2915 137.427 42.3201 137.427 42.3774C137.427 42.992 137.632 43.5155 138.044 43.9478C138.461 44.38 139.013 44.5962 139.7 44.5962C140.664 44.5962 141.341 44.2238 141.731 43.479C141.757 43.4269 141.794 43.4009 141.841 43.4009H143.263C143.278 43.4009 143.294 43.4035 143.31 43.4087C143.325 43.4139 143.336 43.4217 143.341 43.4321C143.351 43.4425 143.354 43.4582 143.349 43.479C143.145 44.255 142.713 44.8618 142.052 45.2993C141.395 45.7368 140.612 45.9556 139.7 45.9556C138.513 45.9556 137.567 45.5701 136.864 44.7993C136.161 44.0285 135.81 43.0129 135.81 41.7524ZM137.427 41.0181C137.427 41.0701 137.453 41.0962 137.505 41.0962H141.856C141.908 41.0962 141.935 41.0701 141.935 41.0181C141.935 40.7785 141.89 40.5389 141.802 40.2993C141.718 40.0597 141.591 39.8332 141.419 39.6196C141.247 39.4061 141.013 39.2342 140.716 39.104C140.419 38.9686 140.08 38.9009 139.7 38.9009C139.336 38.9009 139 38.9764 138.692 39.1274C138.39 39.2733 138.151 39.4582 137.974 39.6821C137.797 39.9061 137.661 40.1353 137.567 40.3696C137.474 40.604 137.427 40.8201 137.427 41.0181ZM145.314 45.7212V37.7837C145.314 37.7316 145.34 37.7056 145.392 37.7056H146.595C146.631 37.7056 146.657 37.7316 146.673 37.7837L146.837 38.5024C146.858 38.5441 146.884 38.5649 146.915 38.5649C146.952 38.5597 146.983 38.5441 147.009 38.5181C147.321 38.2056 147.629 37.966 147.931 37.7993C148.238 37.6274 148.577 37.5415 148.946 37.5415H149.759C149.816 37.5415 149.845 37.5675 149.845 37.6196V38.8228C149.845 38.8748 149.816 38.9009 149.759 38.9009H148.946C148.514 38.9009 148.134 39.0181 147.806 39.2524C147.483 39.4816 147.241 39.7785 147.079 40.1431C146.918 40.5024 146.837 40.8957 146.837 41.3228V45.7212C146.837 45.7733 146.808 45.7993 146.751 45.7993H145.392C145.34 45.7993 145.314 45.7733 145.314 45.7212ZM151.013 45.7212V37.7837C151.013 37.7316 151.039 37.7056 151.091 37.7056H152.294C152.331 37.7056 152.357 37.7316 152.372 37.7837L152.529 38.5024C152.549 38.5441 152.578 38.5649 152.615 38.5649C152.656 38.5597 152.687 38.5441 152.708 38.5181C152.906 38.2472 153.182 38.0181 153.536 37.8306C153.891 37.6379 154.312 37.5415 154.802 37.5415C155.552 37.5415 156.195 37.716 156.732 38.0649C157.268 38.4087 157.661 38.8618 157.911 39.4243C158.167 39.9816 158.294 40.6144 158.294 41.3228V45.7212C158.294 45.7733 158.266 45.7993 158.208 45.7993H156.849C156.797 45.7993 156.771 45.7733 156.771 45.7212V41.3228C156.771 40.9998 156.732 40.7004 156.654 40.4243C156.581 40.1483 156.463 39.8931 156.302 39.6587C156.146 39.4243 155.924 39.2394 155.638 39.104C155.357 38.9686 155.026 38.9009 154.646 38.9009C154.213 38.9009 153.833 39.0181 153.505 39.2524C153.177 39.4816 152.932 39.7785 152.771 40.1431C152.609 40.5024 152.529 40.8957 152.529 41.3228V45.7212C152.529 45.7733 152.503 45.7993 152.45 45.7993H151.091C151.039 45.7993 151.013 45.7733 151.013 45.7212ZM159.689 43.4009C159.689 42.6769 159.991 42.091 160.595 41.6431C161.205 41.1951 162.077 40.9712 163.212 40.9712H165.001C165.132 40.9712 165.233 40.9608 165.306 40.9399C165.384 40.9191 165.439 40.8826 165.47 40.8306C165.501 40.7785 165.52 40.7316 165.525 40.6899C165.53 40.6431 165.533 40.5701 165.533 40.4712C165.533 40.3149 165.522 40.1769 165.501 40.0571C165.481 39.9321 165.428 39.7941 165.345 39.6431C165.267 39.4868 165.158 39.3592 165.017 39.2603C164.876 39.1613 164.673 39.078 164.408 39.0103C164.142 38.9373 163.827 38.9009 163.462 38.9009C162.806 38.9009 162.317 39.0363 161.994 39.3071C161.676 39.578 161.517 39.9295 161.517 40.3618C161.517 40.4139 161.488 40.4399 161.431 40.4399H160.056C160.004 40.4399 159.978 40.4139 159.978 40.3618C159.978 39.7576 160.145 39.2368 160.478 38.7993C160.817 38.3618 161.244 38.0441 161.759 37.8462C162.275 37.6431 162.843 37.5415 163.462 37.5415C164.587 37.5415 165.465 37.7941 166.095 38.2993C166.731 38.8045 167.048 39.5389 167.048 40.5024V43.6431C167.048 43.9243 167.09 44.1274 167.173 44.2524C167.262 44.3774 167.449 44.4399 167.736 44.4399H168.04C168.093 44.4399 168.119 44.466 168.119 44.5181V45.7212C168.119 45.7733 168.093 45.7993 168.04 45.7993H167.462H167.392C166.621 45.7993 166.119 45.5545 165.884 45.0649C165.869 45.0285 165.843 45.0103 165.806 45.0103C165.775 45.005 165.751 45.0129 165.736 45.0337C165.507 45.2733 165.145 45.4868 164.65 45.6743C164.155 45.8618 163.574 45.9556 162.908 45.9556C161.866 45.9556 161.069 45.7264 160.517 45.2681C159.965 44.8045 159.689 44.1821 159.689 43.4009ZM161.212 43.4009C161.212 43.7342 161.345 44.0181 161.611 44.2524C161.876 44.4816 162.303 44.5962 162.892 44.5962C163.356 44.5962 163.762 44.5337 164.111 44.4087C164.465 44.2785 164.738 44.1092 164.931 43.9009C165.129 43.6873 165.275 43.4608 165.369 43.2212C165.468 42.9816 165.522 42.7316 165.533 42.4712V42.2446C165.533 42.1925 165.504 42.1665 165.447 42.1665H163.212C162.884 42.1821 162.595 42.2186 162.345 42.2759C162.1 42.328 161.908 42.3931 161.767 42.4712C161.626 42.5493 161.512 42.6431 161.423 42.7524C161.34 42.8566 161.283 42.9608 161.251 43.0649C161.225 43.1639 161.212 43.2759 161.212 43.4009ZM168.099 38.8228V37.7837C168.099 37.7316 168.125 37.7056 168.177 37.7056H169.599C169.651 37.7056 169.677 37.6769 169.677 37.6196V35.4634C169.677 35.4113 169.706 35.3853 169.763 35.3853H171.123C171.175 35.3853 171.201 35.4113 171.201 35.4634V37.6196C171.201 37.6769 171.227 37.7056 171.279 37.7056H173.005C173.063 37.7056 173.091 37.7316 173.091 37.7837V38.8228C173.091 38.8748 173.063 38.9009 173.005 38.9009H171.279C171.227 38.9009 171.201 38.9295 171.201 38.9868V43.6431C171.201 44.1743 171.49 44.4399 172.068 44.4399H173.005C173.063 44.4399 173.091 44.466 173.091 44.5181V45.7212C173.091 45.7733 173.063 45.7993 173.005 45.7993H171.779H171.685C171.05 45.7993 170.56 45.6483 170.216 45.3462C169.852 45.0337 169.672 44.5545 169.677 43.9087V38.9868C169.677 38.9295 169.651 38.9009 169.599 38.9009H168.177C168.125 38.9009 168.099 38.8748 168.099 38.8228ZM174.314 36.2915V34.6118C174.314 34.5597 174.34 34.5337 174.392 34.5337H176.072C176.129 34.5337 176.158 34.5597 176.158 34.6118V36.2915C176.158 36.3488 176.129 36.3774 176.072 36.3774H174.392C174.34 36.3774 174.314 36.3488 174.314 36.2915ZM174.478 45.7212V37.7837C174.478 37.7316 174.504 37.7056 174.556 37.7056H175.916C175.968 37.7056 175.994 37.7316 175.994 37.7837V45.7212C175.994 45.7733 175.968 45.7993 175.916 45.7993H174.556C174.504 45.7993 174.478 45.7733 174.478 45.7212ZM177.553 41.7524C177.553 40.4764 177.904 39.4556 178.607 38.6899C179.31 37.9243 180.282 37.5415 181.521 37.5415C182.751 37.5415 183.719 37.9269 184.428 38.6978C185.136 39.4686 185.49 40.4868 185.49 41.7524C185.49 43.0181 185.136 44.0363 184.428 44.8071C183.719 45.5728 182.751 45.9556 181.521 45.9556C180.282 45.9556 179.31 45.5728 178.607 44.8071C177.904 44.0363 177.553 43.0181 177.553 41.7524ZM179.732 39.6978C179.295 40.2238 179.076 40.9087 179.076 41.7524C179.076 42.5962 179.295 43.2811 179.732 43.8071C180.175 44.3332 180.771 44.5962 181.521 44.5962C182.277 44.5962 182.873 44.3358 183.31 43.8149C183.748 43.2889 183.967 42.6014 183.967 41.7524C183.967 40.9035 183.748 40.216 183.31 39.6899C182.873 39.1639 182.277 38.9009 181.521 38.9009C180.771 38.9009 180.175 39.1665 179.732 39.6978ZM186.838 45.7212V37.7837C186.838 37.7316 186.864 37.7056 186.916 37.7056H188.119C188.156 37.7056 188.182 37.7316 188.197 37.7837L188.354 38.5024C188.374 38.5441 188.403 38.5649 188.44 38.5649C188.481 38.5597 188.512 38.5441 188.533 38.5181C188.731 38.2472 189.007 38.0181 189.361 37.8306C189.716 37.6379 190.137 37.5415 190.627 37.5415C191.377 37.5415 192.02 37.716 192.557 38.0649C193.093 38.4087 193.486 38.8618 193.736 39.4243C193.992 39.9816 194.119 40.6144 194.119 41.3228V45.7212C194.119 45.7733 194.091 45.7993 194.033 45.7993H192.674C192.622 45.7993 192.596 45.7733 192.596 45.7212V41.3228C192.596 40.9998 192.557 40.7004 192.479 40.4243C192.406 40.1483 192.288 39.8931 192.127 39.6587C191.971 39.4243 191.749 39.2394 191.463 39.104C191.182 38.9686 190.851 38.9009 190.471 38.9009C190.038 38.9009 189.658 39.0181 189.33 39.2524C189.002 39.4816 188.757 39.7785 188.596 40.1431C188.434 40.5024 188.354 40.8957 188.354 41.3228V45.7212C188.354 45.7733 188.328 45.7993 188.275 45.7993H186.916C186.864 45.7993 186.838 45.7733 186.838 45.7212ZM195.514 43.4009C195.514 42.6769 195.816 42.091 196.42 41.6431C197.03 41.1951 197.902 40.9712 199.037 40.9712H200.826C200.957 40.9712 201.058 40.9608 201.131 40.9399C201.209 40.9191 201.264 40.8826 201.295 40.8306C201.326 40.7785 201.345 40.7316 201.35 40.6899C201.355 40.6431 201.358 40.5701 201.358 40.4712C201.358 40.3149 201.347 40.1769 201.326 40.0571C201.306 39.9321 201.253 39.7941 201.17 39.6431C201.092 39.4868 200.983 39.3592 200.842 39.2603C200.701 39.1613 200.498 39.078 200.233 39.0103C199.967 38.9373 199.652 38.9009 199.287 38.9009C198.631 38.9009 198.142 39.0363 197.819 39.3071C197.501 39.578 197.342 39.9295 197.342 40.3618C197.342 40.4139 197.313 40.4399 197.256 40.4399H195.881C195.829 40.4399 195.803 40.4139 195.803 40.3618C195.803 39.7576 195.97 39.2368 196.303 38.7993C196.642 38.3618 197.069 38.0441 197.584 37.8462C198.1 37.6431 198.668 37.5415 199.287 37.5415C200.412 37.5415 201.29 37.7941 201.92 38.2993C202.556 38.8045 202.873 39.5389 202.873 40.5024V43.6431C202.873 43.9243 202.915 44.1274 202.998 44.2524C203.087 44.3774 203.274 44.4399 203.561 44.4399H203.865C203.918 44.4399 203.944 44.466 203.944 44.5181V45.7212C203.944 45.7733 203.918 45.7993 203.865 45.7993H203.287H203.217C202.446 45.7993 201.944 45.5545 201.709 45.0649C201.694 45.0285 201.668 45.0103 201.631 45.0103C201.6 45.005 201.576 45.0129 201.561 45.0337C201.332 45.2733 200.97 45.4868 200.475 45.6743C199.98 45.8618 199.399 45.9556 198.733 45.9556C197.691 45.9556 196.894 45.7264 196.342 45.2681C195.79 44.8045 195.514 44.1821 195.514 43.4009ZM197.037 43.4009C197.037 43.7342 197.17 44.0181 197.436 44.2524C197.701 44.4816 198.128 44.5962 198.717 44.5962C199.181 44.5962 199.587 44.5337 199.936 44.4087C200.29 44.2785 200.563 44.1092 200.756 43.9009C200.954 43.6873 201.1 43.4608 201.194 43.2212C201.293 42.9816 201.347 42.7316 201.358 42.4712V42.2446C201.358 42.1925 201.329 42.1665 201.272 42.1665H199.037C198.709 42.1821 198.42 42.2186 198.17 42.2759C197.925 42.328 197.733 42.3931 197.592 42.4712C197.451 42.5493 197.337 42.6431 197.248 42.7524C197.165 42.8566 197.108 42.9608 197.076 43.0649C197.05 43.1639 197.037 43.2759 197.037 43.4009ZM205.268 45.7212V34.6118C205.268 34.5597 205.297 34.5337 205.354 34.5337H206.713C206.765 34.5337 206.791 34.5597 206.791 34.6118V45.7212C206.791 45.7733 206.765 45.7993 206.713 45.7993H205.354C205.297 45.7993 205.268 45.7733 205.268 45.7212Z" fill="#2A2826"/>
</svg>
