<svg width="1240" height="426" viewBox="0 0 1240 426" fill="none" xmlns="http://www.w3.org/2000/svg">
<rect y="0.35144" width="1239.48" height="425.351" fill="#F5EDE2"/>
<rect x="83.8489" y="127.797" width="169.638" height="169.638" stroke="#CCBDAB" stroke-width="1.06024"/>
<line x1="83.8921" y1="212.52" x2="253.168" y2="212.52" stroke="#CCBDAB" stroke-width="1.06024"/>
<line x1="83.8921" y1="212.52" x2="253.168" y2="212.52" stroke="#CCBDAB" stroke-width="1.06024"/>
<line x1="169.038" y1="297.412" x2="169.038" y2="127.965" stroke="#CCBDAB" stroke-width="1.06024"/>
<line x1="83.668" y1="297.295" x2="253.481" y2="154.806" stroke="#CCBDAB" stroke-width="1.06024"/>
<line x1="83.668" y1="297.295" x2="253.481" y2="154.806" stroke="#CCBDAB" stroke-width="1.06024"/>
<line y1="-0.53012" x2="221.675" y2="-0.53012" transform="matrix(0.759955 0.6501 0.643609 -0.765342 84.2288 152.279)" stroke="#CCBDAB" stroke-width="1.06024"/>
<line y1="-0.53012" x2="221.675" y2="-0.53012" transform="matrix(0.759955 0.6501 0.643609 -0.765342 84.2288 152.279)" stroke="#CCBDAB" stroke-width="1.06024"/>
<line x1="253.001" y1="128.86" x2="84.0711" y2="297.037" stroke="#CCBDAB" stroke-width="1.06024"/>
<path d="M252.974 297.099L84.6211 127.908" stroke="#CCBDAB" stroke-width="1.06024"/>
<rect x="85.7135" y="129.662" width="5.3012" height="165.939" fill="#2A2826" stroke="#2A2826" stroke-width="2.6506"/>
<rect x="246.326" y="129.648" width="5.3012" height="165.899" fill="#2A2826" stroke="#2A2826" stroke-width="2.6506"/>
<rect x="164.809" y="129.687" width="8.3653" height="8.3653" rx="4.18265" fill="#2A2826" stroke="#2A2826" stroke-width="2.6506"/>
<path d="M86.2881 131.673L88.3048 129.656L91.7749 129.662L170.47 208.358L166.722 212.106L86.2881 131.673Z" fill="#2A2826" stroke="#2A2826" stroke-width="2.6506"/>
<path d="M251.01 131.673L248.992 129.655L245.53 129.655L167.106 208.079L170.855 211.828L251.01 131.673Z" fill="#2A2826" stroke="#2A2826" stroke-width="2.6506"/>
<rect x="264.424" y="127.815" width="169.638" height="169.638" stroke="#CCBDAB" stroke-width="1.06024"/>
<line x1="264.468" y1="212.538" x2="433.744" y2="212.538" stroke="#CCBDAB" stroke-width="1.06024"/>
<line x1="264.468" y1="212.538" x2="433.744" y2="212.538" stroke="#CCBDAB" stroke-width="1.06024"/>
<line x1="392.337" y1="297.43" x2="392.337" y2="127.983" stroke="#CCBDAB" stroke-width="1.06024"/>
<line x1="392.337" y1="297.43" x2="392.337" y2="127.983" stroke="#CCBDAB" stroke-width="1.06024"/>
<line x1="433.77" y1="297.551" x2="392.395" y2="128.609" stroke="#CCBDAB" stroke-width="1.06024"/>
<line x1="433.77" y1="297.551" x2="392.395" y2="128.609" stroke="#CCBDAB" stroke-width="1.06024"/>
<path d="M264.444 212.395L433.887 297.251" stroke="#CCBDAB" stroke-width="1.06024"/>
<path d="M264.489 212.302L434.015 128.236" stroke="#CCBDAB" stroke-width="1.06024"/>
<path d="M264.49 212.302L434.016 128.236" stroke="#CCBDAB" stroke-width="1.06024"/>
<rect x="266.263" y="130.917" width="5.3012" height="163.748" fill="#2A2826" stroke="#2A2826" stroke-width="2.6506"/>
<rect x="-1.3253" y="-1.3253" width="5.3012" height="124.237" transform="matrix(0 -1 -1 0 389.174 133.687)" fill="#2A2826" stroke="#2A2826" stroke-width="2.6506"/>
<rect x="-1.3253" y="-1.3253" width="5.3012" height="124.237" transform="matrix(0 -1 -1 0 389.14 213.974)" fill="#2A2826" stroke="#2A2826" stroke-width="2.6506"/>
<rect x="-1.3253" y="-1.3253" width="5.3012" height="124.237" transform="matrix(0 -1 -1 0 389.211 294.265)" fill="#2A2826" stroke="#2A2826" stroke-width="2.6506"/>
<rect x="444.889" y="127.785" width="169.638" height="169.638" stroke="#CCBDAB" stroke-width="1.06024"/>
<line x1="530.078" y1="297.4" x2="530.078" y2="127.953" stroke="#CCBDAB" stroke-width="1.06024"/>
<line x1="466.518" y1="297.475" x2="466.518" y2="128.028" stroke="#CCBDAB" stroke-width="1.06024"/>
<line x1="593.638" y1="297.475" x2="593.638" y2="128.028" stroke="#CCBDAB" stroke-width="1.06024"/>
<path d="M614.014 297.087L445.662 127.896" stroke="#CCBDAB" stroke-width="1.06024"/>
<path d="M444.909 212.364L614.352 297.22" stroke="#CCBDAB" stroke-width="1.06024"/>
<path d="M614.566 212.547L445.135 128.074" stroke="#CCBDAB" stroke-width="1.06024"/>
<path d="M533.582 206.157L529.834 209.906L451.173 131.245L452.811 129.635L457.052 129.635L533.582 206.157Z" fill="#2A2826" stroke="#2A2826" stroke-width="2.6506"/>
<path d="M602.59 295.587L526.865 219.687L530.62 215.945L608.47 294.059L606.87 295.61L602.59 295.587Z" fill="#2A2826" stroke="#2A2826" stroke-width="2.6506"/>
<rect x="446.741" y="129.634" width="5.3012" height="165.999" fill="#2A2826" stroke="#2A2826" stroke-width="2.6506"/>
<path d="M607.34 129.639H612.641V295.622L607.359 295.614L607.34 129.639Z" fill="#2A2826" stroke="#2A2826" stroke-width="2.6506"/>
<rect x="625.167" y="127.788" width="169.638" height="169.638" stroke="#CCBDAB" stroke-width="1.06024"/>
<line x1="625.211" y1="149.704" x2="794.487" y2="149.704" stroke="#CCBDAB" stroke-width="1.06024"/>
<line x1="710.355" y1="297.403" x2="710.355" y2="127.957" stroke="#CCBDAB" stroke-width="1.06024"/>
<line x1="753.079" y1="297.403" x2="753.079" y2="127.957" stroke="#CCBDAB" stroke-width="1.06024"/>
<line x1="753.079" y1="297.403" x2="753.079" y2="127.957" stroke="#CCBDAB" stroke-width="1.06024"/>
<line x1="668.229" y1="297.403" x2="668.229" y2="127.957" stroke="#CCBDAB" stroke-width="1.06024"/>
<rect x="707.4" y="131.916" width="5.3012" height="163.748" fill="#2A2826" stroke="#2A2826" stroke-width="2.6506"/>
<rect x="-1.3253" y="-1.3253" width="5.3012" height="123.354" transform="matrix(0 -1 -1 0 770.672 133.559)" fill="#2A2826" stroke="#2A2826" stroke-width="2.6506"/>
<path d="M890.784 127.763H975.322V297.402H885.843V137.595L890.784 127.763Z" stroke="#CCBDAB" stroke-width="1.06024"/>
<line x1="848.62" y1="212.487" x2="975.002" y2="212.487" stroke="#CCBDAB" stroke-width="1.06024"/>
<line x1="885.847" y1="297.379" x2="885.847" y2="137.469" stroke="#CCBDAB" stroke-width="1.06024"/>
<line x1="890.611" y1="128.071" x2="805.882" y2="297.606" stroke="#CCBDAB" stroke-width="1.06024"/>
<line x1="975.028" y1="297.499" x2="933.654" y2="128.557" stroke="#CCBDAB" stroke-width="1.06024"/>
<path d="M890.97 127.804L974.915 296.989" stroke="#CCBDAB" stroke-width="1.06024"/>
<path d="M929.005 209.689L929.005 214.99L848.615 214.99L851.219 209.689L929.005 209.689Z" fill="#2A2826" stroke="#2A2826" stroke-width="2.6506"/>
<path d="M887.825 137.694L966.243 295.515L972.117 295.534L890.831 131.82L887.825 137.694Z" fill="#2A2826" stroke="#2A2826" stroke-width="2.6506"/>
<rect x="807.492" y="208.157" width="8.3653" height="8.3653" rx="4.18265" fill="#2A2826" stroke="#2A2826" stroke-width="2.6506"/>
<rect x="986.142" y="127.791" width="169.638" height="169.638" stroke="#CCBDAB" stroke-width="1.06024"/>
<line x1="986.186" y1="276.15" x2="1155.46" y2="276.15" stroke="#CCBDAB" stroke-width="1.06024"/>
<line x1="1071.33" y1="297.406" x2="1071.33" y2="127.959" stroke="#CCBDAB" stroke-width="1.06024"/>
<line x1="1114.05" y1="297.406" x2="1114.05" y2="127.959" stroke="#CCBDAB" stroke-width="1.06024"/>
<line x1="1114.05" y1="297.406" x2="1114.05" y2="127.959" stroke="#CCBDAB" stroke-width="1.06024"/>
<line x1="1029.2" y1="297.406" x2="1029.2" y2="127.959" stroke="#CCBDAB" stroke-width="1.06024"/>
<rect x="1068.38" y="131.919" width="5.3012" height="163.748" fill="#2A2826" stroke="#2A2826" stroke-width="2.6506"/>
<rect x="-1.3253" y="-1.3253" width="5.3012" height="123.354" transform="matrix(0 -1 -1 0 1131.65 133.562)" fill="#2A2826" stroke="#2A2826" stroke-width="2.6506"/>
</svg>
