<svg width="1240" height="426" viewBox="0 0 1240 426" fill="none" xmlns="http://www.w3.org/2000/svg">
<rect y="0.405762" width="1239.48" height="425.351" fill="#CCBDAB"/>
<rect width="233.867" height="173.667" transform="translate(502.806 126.248)" fill="#CCBDAB"/>
<rect x="531.259" y="154.68" width="56.5735" height="56.5735" stroke="#F5EDE2" stroke-width="0.353585"/>
<line x1="531.275" y1="182.934" x2="587.727" y2="182.934" stroke="#F5EDE2" stroke-width="0.353585"/>
<line x1="531.275" y1="182.934" x2="587.727" y2="182.934" stroke="#F5EDE2" stroke-width="0.353585"/>
<line x1="559.67" y1="211.245" x2="559.67" y2="154.736" stroke="#F5EDE2" stroke-width="0.353585"/>
<line x1="531.199" y1="211.207" x2="587.83" y2="163.687" stroke="#F5EDE2" stroke-width="0.353585"/>
<line x1="531.199" y1="211.207" x2="587.83" y2="163.687" stroke="#F5EDE2" stroke-width="0.353585"/>
<line y1="-0.176792" x2="73.9275" y2="-0.176792" transform="matrix(0.759955 0.6501 0.643609 -0.765342 531.385 162.844)" stroke="#F5EDE2" stroke-width="0.353585"/>
<line y1="-0.176792" x2="73.9275" y2="-0.176792" transform="matrix(0.759955 0.6501 0.643609 -0.765342 531.385 162.844)" stroke="#F5EDE2" stroke-width="0.353585"/>
<line x1="587.671" y1="155.034" x2="531.334" y2="211.121" stroke="#F5EDE2" stroke-width="0.353585"/>
<path d="M587.662 211.141L531.517 154.717" stroke="#F5EDE2" stroke-width="0.353585"/>
<rect x="531.882" y="155.302" width="1.76792" height="55.34" fill="#2A2826" stroke="#2A2826" stroke-width="0.883961"/>
<rect x="585.445" y="155.297" width="1.76792" height="55.3264" fill="#2A2826" stroke="#2A2826" stroke-width="0.883961"/>
<rect x="558.261" y="155.31" width="2.78979" height="2.78979" rx="1.39489" fill="#2A2826" stroke="#2A2826" stroke-width="0.883961"/>
<path d="M532.075 155.972L532.747 155.3L533.905 155.302L560.149 181.546L558.899 182.797L532.075 155.972Z" fill="#2A2826" stroke="#2A2826" stroke-width="0.883961"/>
<path d="M587.008 155.972L586.335 155.299L585.18 155.3L559.026 181.454L560.276 182.704L587.008 155.972Z" fill="#2A2826" stroke="#2A2826" stroke-width="0.883961"/>
<rect x="591.48" y="154.686" width="56.5735" height="56.5735" stroke="#F5EDE2" stroke-width="0.353585"/>
<line x1="591.495" y1="182.941" x2="647.948" y2="182.941" stroke="#F5EDE2" stroke-width="0.353585"/>
<line x1="591.495" y1="182.941" x2="647.948" y2="182.941" stroke="#F5EDE2" stroke-width="0.353585"/>
<line x1="634.139" y1="211.252" x2="634.139" y2="154.742" stroke="#F5EDE2" stroke-width="0.353585"/>
<line x1="634.139" y1="211.252" x2="634.139" y2="154.742" stroke="#F5EDE2" stroke-width="0.353585"/>
<line x1="647.956" y1="211.292" x2="634.158" y2="154.95" stroke="#F5EDE2" stroke-width="0.353585"/>
<line x1="647.956" y1="211.292" x2="634.158" y2="154.95" stroke="#F5EDE2" stroke-width="0.353585"/>
<path d="M591.487 182.893L647.996 211.192" stroke="#F5EDE2" stroke-width="0.353585"/>
<path d="M591.503 182.862L648.039 154.826" stroke="#F5EDE2" stroke-width="0.353585"/>
<path d="M591.503 182.862L648.039 154.826" stroke="#F5EDE2" stroke-width="0.353585"/>
<rect x="592.097" y="155.72" width="1.76792" height="54.6093" fill="#2A2826" stroke="#2A2826" stroke-width="0.883961"/>
<rect x="-0.441981" y="-0.441981" width="1.76792" height="41.4326" transform="matrix(0 -1 -1 0 633.086 156.644)" fill="#2A2826" stroke="#2A2826" stroke-width="0.883961"/>
<rect x="-0.441981" y="-0.441981" width="1.76792" height="41.4326" transform="matrix(0 -1 -1 0 633.074 183.419)" fill="#2A2826" stroke="#2A2826" stroke-width="0.883961"/>
<rect x="-0.441981" y="-0.441981" width="1.76792" height="41.4326" transform="matrix(0 -1 -1 0 633.098 210.196)" fill="#2A2826" stroke="#2A2826" stroke-width="0.883961"/>
<rect x="651.664" y="154.676" width="56.5735" height="56.5735" stroke="#F5EDE2" stroke-width="0.353585"/>
<line x1="680.074" y1="211.241" x2="680.074" y2="154.732" stroke="#F5EDE2" stroke-width="0.353585"/>
<line x1="658.879" y1="211.266" x2="658.879" y2="154.757" stroke="#F5EDE2" stroke-width="0.353585"/>
<line x1="701.271" y1="211.266" x2="701.271" y2="154.757" stroke="#F5EDE2" stroke-width="0.353585"/>
<path d="M708.067 211.137L651.922 154.713" stroke="#F5EDE2" stroke-width="0.353585"/>
<path d="M651.671 182.882L708.179 211.182" stroke="#F5EDE2" stroke-width="0.353585"/>
<path d="M708.251 182.943L651.746 154.772" stroke="#F5EDE2" stroke-width="0.353585"/>
<path d="M655.722 155.293L681.244 180.812L679.994 182.063L653.761 155.83L654.308 155.293L655.722 155.293Z" fill="#2A2826" stroke="#2A2826" stroke-width="0.883961"/>
<path d="M704.257 210.637L679.003 185.325L680.256 184.077L706.218 210.127L705.685 210.645L704.257 210.637Z" fill="#2A2826" stroke="#2A2826" stroke-width="0.883961"/>
<rect x="652.284" y="155.292" width="1.76792" height="55.3597" fill="#2A2826" stroke="#2A2826" stroke-width="0.883961"/>
<path d="M705.843 155.294H707.611V210.648L705.85 210.646L705.843 155.294Z" fill="#2A2826" stroke="#2A2826" stroke-width="0.883961"/>
<rect x="531.274" y="214.917" width="56.5735" height="56.5735" stroke="#F5EDE2" stroke-width="0.353585"/>
<line x1="531.288" y1="222.226" x2="587.741" y2="222.226" stroke="#F5EDE2" stroke-width="0.353585"/>
<line x1="559.684" y1="271.483" x2="559.684" y2="214.973" stroke="#F5EDE2" stroke-width="0.353585"/>
<line x1="573.932" y1="271.483" x2="573.932" y2="214.973" stroke="#F5EDE2" stroke-width="0.353585"/>
<line x1="573.932" y1="271.483" x2="573.932" y2="214.973" stroke="#F5EDE2" stroke-width="0.353585"/>
<line x1="545.634" y1="271.483" x2="545.634" y2="214.973" stroke="#F5EDE2" stroke-width="0.353585"/>
<rect x="558.7" y="216.294" width="1.76792" height="54.6093" fill="#2A2826" stroke="#2A2826" stroke-width="0.883961"/>
<rect x="-0.441981" y="-0.441981" width="1.76792" height="41.1379" transform="matrix(0 -1 -1 0 579.801 216.842)" fill="#2A2826" stroke="#2A2826" stroke-width="0.883961"/>
<path d="M619.859 214.909H648.052V271.482H618.211V218.187L619.859 214.909Z" stroke="#F5EDE2" stroke-width="0.353585"/>
<line x1="605.795" y1="243.164" x2="647.943" y2="243.164" stroke="#F5EDE2" stroke-width="0.353585"/>
<line x1="618.211" y1="271.475" x2="618.211" y2="218.145" stroke="#F5EDE2" stroke-width="0.353585"/>
<line x1="619.799" y1="215.011" x2="591.543" y2="271.55" stroke="#F5EDE2" stroke-width="0.353585"/>
<line x1="647.951" y1="271.515" x2="634.153" y2="215.173" stroke="#F5EDE2" stroke-width="0.353585"/>
<path d="M619.918 214.922L647.914 271.344" stroke="#F5EDE2" stroke-width="0.353585"/>
<path d="M632.602 242.23L632.602 243.998L605.792 243.998L606.661 242.23L632.602 242.23Z" fill="#2A2826" stroke="#2A2826" stroke-width="0.883961"/>
<path d="M618.869 218.221L645.021 270.853L646.98 270.859L619.872 216.261L618.869 218.221Z" fill="#2A2826" stroke="#2A2826" stroke-width="0.883961"/>
<rect x="592.078" y="241.719" width="2.78979" height="2.78979" rx="1.39489" fill="#2A2826" stroke="#2A2826" stroke-width="0.883961"/>
<rect x="651.656" y="214.918" width="56.5735" height="56.5735" stroke="#F5EDE2" stroke-width="0.353585"/>
<line x1="651.671" y1="264.395" x2="708.124" y2="264.395" stroke="#F5EDE2" stroke-width="0.353585"/>
<line x1="680.067" y1="271.484" x2="680.067" y2="214.974" stroke="#F5EDE2" stroke-width="0.353585"/>
<line x1="694.315" y1="271.484" x2="694.315" y2="214.974" stroke="#F5EDE2" stroke-width="0.353585"/>
<line x1="694.315" y1="271.484" x2="694.315" y2="214.974" stroke="#F5EDE2" stroke-width="0.353585"/>
<line x1="666.018" y1="271.484" x2="666.018" y2="214.974" stroke="#F5EDE2" stroke-width="0.353585"/>
<rect x="679.082" y="216.294" width="1.76792" height="54.6093" fill="#2A2826" stroke="#2A2826" stroke-width="0.883961"/>
<rect x="-0.441981" y="-0.441981" width="1.76792" height="41.1379" transform="matrix(0 -1 -1 0 700.183 216.842)" fill="#2A2826" stroke="#2A2826" stroke-width="0.883961"/>
</svg>
