<svg width="1240" height="427" viewBox="0 0 1240 427" fill="none" xmlns="http://www.w3.org/2000/svg">
<rect y="0.702881" width="1239.48" height="425.351" fill="#CCBDAB"/>
<rect width="535.928" height="147.035" transform="translate(351.775 138.731)" fill="#CCBDAB"/>
<rect x="388.571" y="175.498" width="73.1587" height="73.1587" stroke="#F5EDE2" stroke-width="0.457242"/>
<line x1="388.59" y1="212.036" x2="461.592" y2="212.036" stroke="#F5EDE2" stroke-width="0.457242"/>
<line x1="388.59" y1="212.036" x2="461.592" y2="212.036" stroke="#F5EDE2" stroke-width="0.457242"/>
<line x1="425.309" y1="248.647" x2="425.309" y2="175.571" stroke="#F5EDE2" stroke-width="0.457242"/>
<line x1="388.493" y1="248.597" x2="461.727" y2="187.146" stroke="#F5EDE2" stroke-width="0.457242"/>
<line x1="388.493" y1="248.597" x2="461.727" y2="187.146" stroke="#F5EDE2" stroke-width="0.457242"/>
<line y1="-0.228621" x2="95.6002" y2="-0.228621" transform="matrix(0.759955 0.6501 0.643609 -0.765342 388.734 186.056)" stroke="#F5EDE2" stroke-width="0.457242"/>
<line y1="-0.228621" x2="95.6002" y2="-0.228621" transform="matrix(0.759955 0.6501 0.643609 -0.765342 388.734 186.056)" stroke="#F5EDE2" stroke-width="0.457242"/>
<line x1="461.52" y1="175.957" x2="388.666" y2="248.486" stroke="#F5EDE2" stroke-width="0.457242"/>
<path d="M461.509 248.512L388.905 175.546" stroke="#F5EDE2" stroke-width="0.457242"/>
<rect x="389.376" y="176.303" width="2.28621" height="71.5635" fill="#2A2826" stroke="#2A2826" stroke-width="1.14311"/>
<rect x="458.642" y="176.297" width="2.28621" height="71.546" fill="#2A2826" stroke="#2A2826" stroke-width="1.14311"/>
<rect x="423.487" y="176.313" width="3.60684" height="3.60684" rx="1.80342" fill="#2A2826" stroke="#2A2826" stroke-width="1.14311"/>
<path d="M389.624 177.17L390.493 176.3L391.99 176.303L425.928 210.241L424.312 211.858L389.624 177.17Z" fill="#2A2826" stroke="#2A2826" stroke-width="1.14311"/>
<path d="M460.662 177.17L459.792 176.3L458.299 176.3L424.478 210.121L426.094 211.738L460.662 177.17Z" fill="#2A2826" stroke="#2A2826" stroke-width="1.14311"/>
<rect x="466.446" y="175.506" width="73.1587" height="73.1587" stroke="#F5EDE2" stroke-width="0.457242"/>
<line x1="466.465" y1="212.044" x2="539.467" y2="212.044" stroke="#F5EDE2" stroke-width="0.457242"/>
<line x1="466.465" y1="212.044" x2="539.467" y2="212.044" stroke="#F5EDE2" stroke-width="0.457242"/>
<line x1="521.61" y1="248.655" x2="521.61" y2="175.579" stroke="#F5EDE2" stroke-width="0.457242"/>
<line x1="521.61" y1="248.655" x2="521.61" y2="175.579" stroke="#F5EDE2" stroke-width="0.457242"/>
<line x1="539.478" y1="248.707" x2="521.635" y2="175.849" stroke="#F5EDE2" stroke-width="0.457242"/>
<line x1="539.478" y1="248.707" x2="521.635" y2="175.849" stroke="#F5EDE2" stroke-width="0.457242"/>
<path d="M466.455 211.982L539.529 248.578" stroke="#F5EDE2" stroke-width="0.457242"/>
<path d="M466.475 211.942L539.585 175.688" stroke="#F5EDE2" stroke-width="0.457242"/>
<path d="M466.475 211.942L539.585 175.688" stroke="#F5EDE2" stroke-width="0.457242"/>
<rect x="467.24" y="176.844" width="2.28621" height="70.6187" fill="#2A2826" stroke="#2A2826" stroke-width="1.14311"/>
<rect x="-0.571553" y="-0.571553" width="2.28621" height="53.5791" transform="matrix(0 -1 -1 0 520.247 178.039)" fill="#2A2826" stroke="#2A2826" stroke-width="1.14311"/>
<rect x="-0.571553" y="-0.571553" width="2.28621" height="53.5791" transform="matrix(0 -1 -1 0 520.232 212.663)" fill="#2A2826" stroke="#2A2826" stroke-width="1.14311"/>
<rect x="-0.571553" y="-0.571553" width="2.28621" height="53.5791" transform="matrix(0 -1 -1 0 520.262 247.29)" fill="#2A2826" stroke="#2A2826" stroke-width="1.14311"/>
<rect x="544.273" y="175.493" width="73.1587" height="73.1587" stroke="#F5EDE2" stroke-width="0.457242"/>
<line x1="581.013" y1="248.642" x2="581.013" y2="175.566" stroke="#F5EDE2" stroke-width="0.457242"/>
<line x1="553.601" y1="248.674" x2="553.601" y2="175.598" stroke="#F5EDE2" stroke-width="0.457242"/>
<line x1="608.423" y1="248.674" x2="608.423" y2="175.598" stroke="#F5EDE2" stroke-width="0.457242"/>
<path d="M617.211 248.507L544.606 175.541" stroke="#F5EDE2" stroke-width="0.457242"/>
<path d="M544.282 211.969L617.357 248.565" stroke="#F5EDE2" stroke-width="0.457242"/>
<path d="M617.449 212.048L544.38 175.618" stroke="#F5EDE2" stroke-width="0.457242"/>
<path d="M582.526 209.292L580.909 210.909L546.986 176.985L547.692 176.291L549.521 176.291L582.526 209.292Z" fill="#2A2826" stroke="#2A2826" stroke-width="1.14311"/>
<path d="M612.287 247.86L579.629 215.127L581.248 213.513L614.823 247.201L614.132 247.87L612.287 247.86Z" fill="#2A2826" stroke="#2A2826" stroke-width="1.14311"/>
<rect x="545.074" y="176.291" width="2.28621" height="71.5891" fill="#2A2826" stroke="#2A2826" stroke-width="1.14311"/>
<path d="M614.335 176.293H616.621V247.875L614.344 247.872L614.335 176.293Z" fill="#2A2826" stroke="#2A2826" stroke-width="1.14311"/>
<rect x="622.022" y="175.495" width="73.1587" height="73.1587" stroke="#F5EDE2" stroke-width="0.457242"/>
<line x1="622.041" y1="184.946" x2="695.044" y2="184.946" stroke="#F5EDE2" stroke-width="0.457242"/>
<line x1="658.761" y1="248.643" x2="658.761" y2="175.567" stroke="#F5EDE2" stroke-width="0.457242"/>
<line x1="677.186" y1="248.643" x2="677.186" y2="175.567" stroke="#F5EDE2" stroke-width="0.457242"/>
<line x1="677.186" y1="248.643" x2="677.186" y2="175.567" stroke="#F5EDE2" stroke-width="0.457242"/>
<line x1="640.594" y1="248.643" x2="640.594" y2="175.567" stroke="#F5EDE2" stroke-width="0.457242"/>
<rect x="657.487" y="177.275" width="2.28621" height="70.6187" fill="#2A2826" stroke="#2A2826" stroke-width="1.14311"/>
<rect x="-0.571553" y="-0.571553" width="2.28621" height="53.1979" transform="matrix(0 -1 -1 0 684.774 177.983)" fill="#2A2826" stroke="#2A2826" stroke-width="1.14311"/>
<path d="M736.572 175.484H773.03V248.643H734.441V179.724L736.572 175.484Z" stroke="#F5EDE2" stroke-width="0.457242"/>
<line x1="718.389" y1="212.022" x2="772.893" y2="212.022" stroke="#F5EDE2" stroke-width="0.457242"/>
<line x1="734.442" y1="248.633" x2="734.442" y2="179.669" stroke="#F5EDE2" stroke-width="0.457242"/>
<line x1="736.497" y1="175.616" x2="699.957" y2="248.731" stroke="#F5EDE2" stroke-width="0.457242"/>
<line x1="772.905" y1="248.685" x2="755.061" y2="175.826" stroke="#F5EDE2" stroke-width="0.457242"/>
<path d="M736.653 175.501L772.855 248.465" stroke="#F5EDE2" stroke-width="0.457242"/>
<path d="M753.055 210.815L753.055 213.102L718.386 213.102L719.509 210.815L753.055 210.815Z" fill="#2A2826" stroke="#2A2826" stroke-width="1.14311"/>
<path d="M735.295 179.767L769.114 247.829L771.647 247.837L736.592 177.233L735.295 179.767Z" fill="#2A2826" stroke="#2A2826" stroke-width="1.14311"/>
<rect x="700.651" y="210.155" width="3.60684" height="3.60684" rx="1.80342" fill="#2A2826" stroke="#2A2826" stroke-width="1.14311"/>
<rect x="777.697" y="175.496" width="73.1587" height="73.1587" stroke="#F5EDE2" stroke-width="0.457242"/>
<line x1="777.716" y1="239.478" x2="850.718" y2="239.478" stroke="#F5EDE2" stroke-width="0.457242"/>
<line x1="814.436" y1="248.645" x2="814.436" y2="175.568" stroke="#F5EDE2" stroke-width="0.457242"/>
<line x1="832.861" y1="248.645" x2="832.861" y2="175.568" stroke="#F5EDE2" stroke-width="0.457242"/>
<line x1="832.861" y1="248.645" x2="832.861" y2="175.568" stroke="#F5EDE2" stroke-width="0.457242"/>
<line x1="796.268" y1="248.645" x2="796.268" y2="175.568" stroke="#F5EDE2" stroke-width="0.457242"/>
<rect x="813.162" y="177.276" width="2.28621" height="70.6187" fill="#2A2826" stroke="#2A2826" stroke-width="1.14311"/>
<rect x="-0.571553" y="-0.571553" width="2.28621" height="53.1979" transform="matrix(0 -1 -1 0 840.449 177.985)" fill="#2A2826" stroke="#2A2826" stroke-width="1.14311"/>
</svg>
